<svg xmlns="http://www.w3.org/2000/svg" fill="none" viewBox="0 0 661 180" height="180" width="661">
<path fill="white" d="M20.3564 29.5676L29.2077 27.2723L32.9281 38.7032L20.3564 29.5676ZM20.3564 29.5676L7.77088 38.7032L12.5862 23.9271L0 14.7762L15.5418 14.7914L20.3571 0L25.1572 14.7914H40.6983L20.3564 29.5676ZM102.729 20.6567H105.264V16.0362H108.654V20.6567H111.715V23.192H108.654V31.4129C108.654 31.7728 108.67 32.0731 108.699 32.3428C108.729 32.598 108.804 32.8227 108.91 33.003C109.014 33.1826 109.179 33.3178 109.405 33.408C109.629 33.4981 109.914 33.5432 110.304 33.5432C110.545 33.5432 110.785 33.5432 111.025 33.528C111.265 33.5127 111.504 33.4829 111.744 33.4233V36.048C111.369 36.0931 110.995 36.1229 110.649 36.168C110.29 36.213 109.93 36.2283 109.554 36.2283C108.654 36.2283 107.935 36.1381 107.394 35.9731C106.854 35.8081 106.419 35.5529 106.119 35.2235C105.804 34.8934 105.609 34.4884 105.489 33.9933C105.384 33.4981 105.309 32.9281 105.294 32.2978V23.2225H102.729V20.6567ZM160.949 20.6567H163.484V16.0362H166.874V20.6567H169.934V23.192H166.874V31.4129C166.874 31.7728 166.889 32.0731 166.919 32.3428C166.949 32.598 167.024 32.8227 167.129 33.003C167.234 33.1826 167.399 33.3178 167.625 33.408C167.849 33.4981 168.134 33.5432 168.525 33.5432C168.765 33.5432 169.005 33.5432 169.244 33.528C169.484 33.5127 169.724 33.4829 169.964 33.4233V36.048C169.59 36.0931 169.215 36.1229 168.869 36.168C168.509 36.213 168.15 36.2283 167.774 36.2283C166.874 36.2283 166.154 36.1381 165.614 35.9731C165.074 35.8081 164.639 35.5529 164.339 35.2235C164.024 34.8934 163.829 34.4884 163.709 33.9933C163.604 33.4981 163.529 32.9281 163.514 32.2978V23.2225H160.949V20.6567ZM44.6434 14.7914H61.8654V18.0015H55.0993V36.048H51.3796V18.0015H44.6434V14.7914ZM61.1151 20.6567H64.3105V23.6275H64.3702C64.4756 23.2072 64.6704 22.8023 64.9554 22.4118C65.2405 22.0221 65.5858 21.647 65.9908 21.3321C66.3958 21.002 66.8458 20.7469 67.3409 20.5367C67.8361 20.3419 68.3458 20.2372 68.8561 20.2372C69.2459 20.2372 69.5309 20.2517 69.6807 20.267C69.8311 20.2822 69.9809 20.3121 70.146 20.3266V23.597C69.906 23.5519 69.6661 23.5221 69.4109 23.4923C69.1557 23.4624 68.9158 23.4472 68.6758 23.4472C68.1058 23.4472 67.5656 23.5671 67.0559 23.7925C66.5455 24.0172 66.1107 24.3625 65.7356 24.7973C65.3604 25.2474 65.0609 25.7876 64.8355 26.4471C64.6108 27.1072 64.5054 27.8576 64.5054 28.7126V36.0334H61.1151V20.6567ZM85.7321 36.048H82.4021V33.9031H82.3418C81.9223 34.6833 81.3072 35.2984 80.482 35.763C79.6567 36.2283 78.817 36.4682 77.9619 36.4682C75.9363 36.4682 74.4662 35.9731 73.5661 34.9683C72.666 33.9628 72.2159 32.4476 72.2159 30.4227V20.6567H75.6063V30.0926C75.6063 31.4427 75.8615 32.4032 76.3864 32.9579C76.8968 33.5127 77.6318 33.7977 78.5618 33.7977C79.2816 33.7977 79.8669 33.693 80.3467 33.4683C80.8266 33.243 81.217 32.9579 81.502 32.5828C81.8023 32.2229 82.0117 31.7728 82.1469 31.2631C82.2822 30.7528 82.3418 30.198 82.3418 29.5975V20.672H85.7321V36.048ZM91.5079 31.1127C91.6126 32.1029 91.9878 32.7929 92.6327 33.1979C93.2929 33.5883 94.073 33.7977 94.9884 33.7977C95.3032 33.7977 95.6631 33.7679 96.0681 33.7228C96.4731 33.6778 96.8635 33.573 97.2081 33.4378C97.568 33.3033 97.8531 33.0932 98.0937 32.8227C98.3184 32.553 98.4231 32.2076 98.4085 31.7728C98.3933 31.338 98.2282 30.9781 97.9286 30.7077C97.6284 30.4227 97.2532 30.2125 96.7886 30.0329C96.3233 29.8679 95.7983 29.7174 95.1978 29.5975C94.598 29.4775 93.9981 29.343 93.383 29.2077C92.7527 29.0725 92.1376 28.8929 91.553 28.6973C90.9677 28.5025 90.4428 28.2327 89.9775 27.8874C89.5128 27.5573 89.1377 27.1225 88.8672 26.5976C88.5822 26.0726 88.4477 25.427 88.4477 24.6476C88.4477 23.8071 88.6578 23.1171 89.0628 22.5471C89.4678 21.977 89.9927 21.527 90.6078 21.1823C91.2375 20.837 91.9282 20.5971 92.693 20.4473C93.4579 20.3121 94.193 20.2372 94.883 20.2372C95.6784 20.2372 96.4433 20.3266 97.1631 20.4917C97.8836 20.6567 98.5437 20.9272 99.1283 21.3169C99.7136 21.692 100.193 22.1872 100.584 22.787C100.974 23.3868 101.214 24.1219 101.319 24.9776H97.7782C97.6131 24.167 97.2532 23.6122 96.6679 23.3425C96.0834 23.0575 95.4079 22.9222 94.6583 22.9222C94.4184 22.9222 94.1334 22.9375 93.8033 22.9819C93.4732 23.0269 93.1729 23.1018 92.8726 23.2072C92.5876 23.312 92.3477 23.477 92.1376 23.6871C91.9427 23.8972 91.838 24.167 91.838 24.5123C91.838 24.9326 91.9878 25.262 92.2728 25.5171C92.5578 25.7723 92.933 25.9825 93.3983 26.1621C93.8629 26.3271 94.3878 26.4776 94.9884 26.5976C95.5882 26.7175 96.2033 26.8527 96.833 26.9873C97.4481 27.1225 98.0486 27.3028 98.6485 27.4977C99.2483 27.6925 99.7732 27.9623 100.239 28.3076C100.704 28.653 101.078 29.0725 101.363 29.5829C101.648 30.0926 101.799 30.7375 101.799 31.4878C101.799 32.4032 101.589 33.1681 101.168 33.813C100.749 34.4433 100.209 34.9683 99.5486 35.358C98.8884 35.7484 98.1381 36.048 97.3281 36.2283C96.5181 36.4086 95.7082 36.498 94.9128 36.498C93.9378 36.498 93.0377 36.3933 92.2132 36.168C91.388 35.9433 90.6674 35.6132 90.0676 35.1784C89.4678 34.7283 88.9879 34.1729 88.6426 33.5127C88.2972 32.8532 88.1176 32.0578 88.0878 31.1432H91.5079V31.1127ZM114.115 20.6567H117.325V22.7419H117.385C117.865 21.8418 118.525 21.2122 119.38 20.8217C120.235 20.432 121.15 20.2372 122.155 20.2372C123.37 20.2372 124.421 20.4473 125.321 20.8821C126.221 21.3023 126.971 21.8869 127.571 22.6372C128.171 23.3868 128.606 24.2571 128.906 25.2474C129.206 26.2377 129.356 27.3028 129.356 28.4276C129.356 29.4629 129.221 30.4677 128.951 31.4282C128.681 32.4032 128.276 33.2582 127.736 34.0078C127.196 34.7582 126.506 35.3434 125.666 35.7935C124.826 36.2435 123.851 36.4682 122.711 36.4682C122.216 36.4682 121.72 36.4232 121.225 36.333C120.73 36.2435 120.25 36.0931 119.8 35.8982C119.35 35.7033 118.915 35.4482 118.54 35.1333C118.15 34.8178 117.835 34.4579 117.565 34.0529H117.505V41.7336H114.115V20.6567ZM125.966 28.368C125.966 27.6773 125.876 27.0025 125.696 26.3424C125.516 25.6822 125.246 25.1122 124.885 24.6025C124.525 24.0921 124.075 23.6871 123.551 23.3868C123.01 23.0873 122.395 22.9222 121.705 22.9222C120.28 22.9222 119.2 23.4174 118.48 24.4076C117.76 25.3972 117.4 26.7175 117.4 28.368C117.4 29.1474 117.49 29.8679 117.685 30.5281C117.88 31.1875 118.15 31.7576 118.54 32.2381C118.915 32.718 119.365 33.0932 119.89 33.3629C120.415 33.6479 121.03 33.7832 121.72 33.7832C122.501 33.7832 123.146 33.6181 123.686 33.3033C124.226 32.9878 124.661 32.5682 125.005 32.0731C125.351 31.5627 125.606 30.9927 125.756 30.3478C125.891 29.7029 125.966 29.0427 125.966 28.368ZM131.951 14.7914H135.341V18.0015H131.951V14.7914ZM131.951 20.6567H135.341V36.048H131.951V20.6567ZM138.372 14.7914H141.762V36.048H138.372V14.7914ZM152.158 36.4682C150.928 36.4682 149.833 36.2581 148.873 35.8531C147.912 35.4482 147.102 34.8781 146.428 34.1729C145.767 33.4531 145.258 32.598 144.912 31.6078C144.567 30.6175 144.387 29.5226 144.387 28.3374C144.387 27.1676 144.567 26.0872 144.912 25.0976C145.258 24.1074 145.767 23.2523 146.428 22.5318C147.088 21.812 147.912 21.2572 148.873 20.8523C149.833 20.4473 150.928 20.2372 152.158 20.2372C153.388 20.2372 154.484 20.4473 155.443 20.8523C156.404 21.2572 157.214 21.8273 157.888 22.5318C158.549 23.2523 159.059 24.1074 159.404 25.0976C159.749 26.0872 159.929 27.1676 159.929 28.3374C159.929 29.5226 159.749 30.6175 159.404 31.6078C159.059 32.598 158.549 33.4531 157.888 34.1729C157.228 34.8934 156.404 35.4482 155.443 35.8531C154.484 36.2581 153.388 36.4682 152.158 36.4682ZM152.158 33.7832C152.908 33.7832 153.568 33.6181 154.123 33.3033C154.678 32.9878 155.128 32.5682 155.488 32.0578C155.848 31.5481 156.103 30.9629 156.283 30.318C156.448 29.673 156.538 29.0129 156.538 28.3374C156.538 27.6773 156.448 27.0324 156.283 26.3722C156.119 25.712 155.848 25.1427 155.488 24.6323C155.128 24.1219 154.678 23.7169 154.123 23.4021C153.568 23.0873 152.908 22.9222 152.158 22.9222C151.408 22.9222 150.748 23.0873 150.193 23.4021C149.638 23.7169 149.188 24.1372 148.828 24.6323C148.468 25.1427 148.213 25.712 148.033 26.3722C147.868 27.0324 147.778 27.6773 147.778 28.3374C147.778 29.0129 147.868 29.673 148.033 30.318C148.197 30.9629 148.468 31.5481 148.828 32.0578C149.188 32.5682 149.638 32.9878 150.193 33.3033C150.748 33.6327 151.408 33.7832 152.158 33.7832Z" clip-rule="evenodd" fill-rule="evenodd"></path>
<path fill="white" d="M9.47782 74.4445V71.4661H3.0081V69.6317L8.45213 60.8739H11.4306V69.7698H13.6595V71.4661H11.4306V74.4445H9.47782ZM4.94113 69.7698H9.47782V62.4321L4.94113 69.7698ZM15.3697 74.4445V71.9198H17.5394V74.4445H15.3697ZM24.3546 74.6812C21.6918 74.6812 20.0152 73.1624 19.6009 70.9138L21.6523 70.5785C21.9285 71.9395 22.8358 73.0046 24.4138 73.0046C26.0904 73.0046 27.2147 71.762 27.2147 69.9276C27.2147 68.1918 26.2679 66.9097 24.5913 66.9097C23.2303 66.9097 22.3427 67.8762 22.0074 68.6454L20.0349 68.3496L20.5674 60.8739H28.2995V62.6886H22.2638L22.0074 66.4363H22.0271C22.6385 65.7854 23.6051 65.2528 24.9266 65.2528C27.6881 65.2528 29.2661 67.3042 29.2661 69.8487C29.2661 72.5115 27.3133 74.6812 24.3546 74.6812ZM30.4158 74.4445L37.0039 60.8739H39.0158L32.4474 74.4445H30.4158ZM44.9847 74.6812C42.3218 74.6812 40.6452 73.1624 40.231 70.9138L42.2824 70.5785C42.5585 71.9395 43.4659 73.0046 45.0439 73.0046C46.7205 73.0046 47.8448 71.762 47.8448 69.9276C47.8448 68.1918 46.898 66.9097 45.2214 66.9097C43.8604 66.9097 42.9728 67.8762 42.6374 68.6454L40.665 68.3496L41.1975 60.8739H48.9296V62.6886H42.8939L42.6374 66.4363H42.6572C43.2686 65.7854 44.2351 65.2528 45.5567 65.2528C48.3182 65.2528 49.8961 67.3042 49.8961 69.8487C49.8961 72.5115 47.9434 74.6812 44.9847 74.6812Z"></path>
<path fill="#26E986" d="M68.8723 55.4449L71.538 61.8523L78.4541 62.4069L73.1846 66.9214L74.7938 73.6715L68.8723 70.0543L62.9508 73.6715L64.56 66.9214L59.2906 62.4069L66.2081 61.8523L68.8723 55.4449Z" clip-rule="evenodd" fill-rule="evenodd"></path>
<path fill="#26E986" d="M91.1359 55.4447L93.8016 61.8521L100.718 62.4067L95.4482 66.9212L97.0574 73.6713L91.1359 70.0541L85.2144 73.6713L86.8236 66.9212L81.5542 62.4067L88.4717 61.8521L91.1359 55.4447Z" clip-rule="evenodd" fill-rule="evenodd"></path>
<path fill="#26E986" d="M113.399 55.4447L116.065 61.8521L122.981 62.4067L117.712 66.9212L119.321 73.6713L113.399 70.0541L107.478 73.6713L109.087 66.9212L103.818 62.4067L110.735 61.8521L113.399 55.4447Z" clip-rule="evenodd" fill-rule="evenodd"></path>
<path fill="#26E986" d="M135.664 55.4447L138.329 61.8521L145.245 62.4067L139.976 66.9212L141.585 73.6713L135.664 70.0541L129.742 73.6713L131.351 66.9212L126.082 62.4067L132.999 61.8521L135.664 55.4447Z" clip-rule="evenodd" fill-rule="evenodd"></path>
<path fill="#26E986" d="M157.927 70.0539L152.006 73.6711L153.615 66.921L148.346 62.4065L155.263 61.8519L157.927 55.4445V70.0539Z" clip-rule="evenodd" fill-rule="evenodd"></path>
<path fill-opacity="0.3" fill="#26E986" d="M157.927 70.0539V55.4445L160.591 61.8519L167.508 62.4065L162.239 66.921L163.848 73.6711L157.927 70.0539Z" clip-rule="evenodd" fill-rule="evenodd"></path>
<path fill="white" d="M249.076 18.4269L238.366 24.9688C237.947 23.3994 237.854 21.7605 238.095 20.1537C238.335 18.5469 238.904 17.0068 239.764 15.6287C240.625 14.2505 241.76 13.0643 243.099 12.1434C244.437 11.2226 245.95 10.5866 247.545 10.2753C249.14 9.96392 250.781 9.98345 252.367 10.3333C253.954 10.6826 255.452 11.3547 256.768 12.3077C258.084 13.2602 259.19 14.4734 260.018 15.8717C260.845 17.2699 261.376 18.8232 261.578 20.4352L250.364 27.2736L251.161 19.7441L249.076 18.4269ZM250.463 17.3434C251.388 17.3434 252.138 16.5932 252.138 15.6677C252.138 14.7423 251.388 13.992 250.463 13.992C249.537 13.992 248.787 14.7423 248.787 15.6677C248.787 16.5932 249.537 17.3434 250.463 17.3434ZM249.419 31.073L261.594 23.6321C261.261 26.1229 260.143 28.4437 258.404 30.2585C256.666 32.0732 254.395 33.2882 251.921 33.7276C249.446 34.1677 246.896 33.8092 244.638 32.7045C242.38 31.6004 240.532 29.8069 239.361 27.5832L248.131 22.2298L247.335 29.7564L249.419 31.073ZM267.613 32.9791V12.1779L270.556 12.1348V32.9366L267.613 32.9791ZM281.691 18.5257C283.361 18.5257 284.766 19.0525 285.754 20.0532C286.847 21.1533 287.4 22.7991 287.4 24.8108V32.9791H284.625V24.9591C284.625 22.7566 283.308 21.2745 281.332 21.2745C279.245 21.2745 277.138 22.5256 277.138 25.3181V32.9791H274.359V18.8221H277.138V20.7017C278.132 19.1116 280.374 18.5257 281.691 18.5257ZM295.756 29.3382L299.981 18.825H302.984L297.074 32.9791H294.413L288.533 18.825H291.506L295.756 29.3382ZM347.616 18.5257C351.932 18.5257 355.04 21.6071 355.04 25.8581C355.065 26.8393 354.889 27.8153 354.525 28.7275C354.16 29.6386 353.614 30.467 352.92 31.1609C352.225 31.8549 351.397 32.4006 350.485 32.7648C349.574 33.129 348.598 33.3037 347.616 33.279C343.405 33.279 340.224 30.1085 340.224 25.8581C340.224 21.6071 343.336 18.5257 347.616 18.5257ZM347.616 30.652C350.263 30.652 352.262 28.5908 352.262 25.8581C352.279 25.2411 352.172 24.627 351.946 24.0526C351.72 23.4781 351.381 22.9553 350.948 22.5159C350.515 22.0764 349.997 21.7289 349.426 21.4951C348.855 21.2607 348.243 21.1441 347.626 21.1533C345.018 21.1533 343.043 23.1748 343.043 25.8581C343.043 28.5908 345.018 30.652 347.616 30.652ZM364.634 18.5257C368.743 18.5257 371.727 21.6404 371.727 25.9075C371.727 30.174 368.757 33.2692 364.664 33.2692C362.508 33.2692 360.7 32.4293 359.752 31.0041V39.775H356.973V18.8221H359.752V20.8304C360.707 19.4178 362.583 18.5257 364.634 18.5257ZM364.394 30.652C366.972 30.652 368.918 28.6333 368.918 25.9466C368.918 23.2604 366.933 21.1533 364.394 21.1533C361.747 21.1533 359.752 23.2138 359.752 25.9466C359.742 26.5624 359.855 27.173 360.083 27.7446C360.313 28.3156 360.653 28.8355 361.085 29.2738C361.517 29.7121 362.033 30.0591 362.601 30.2958C363.169 30.5325 363.779 30.6537 364.394 30.652ZM400.71 20.7977V11.1898H403.489V32.9791H400.71V30.9811C399.755 32.3932 397.878 33.2859 395.827 33.2859C391.718 33.2859 388.735 30.1614 388.735 25.8943C388.735 21.6272 391.705 18.532 395.798 18.532C397.954 18.532 399.761 19.3719 400.71 20.7977ZM396.051 30.652C399.073 30.652 400.71 28.1824 400.723 25.8581C400.731 25.2405 400.616 24.6276 400.385 24.0554C400.154 23.4827 399.81 22.9622 399.375 22.5239C398.94 22.0862 398.422 21.7392 397.851 21.5037C397.28 21.2682 396.669 21.1492 396.051 21.1533C393.476 21.1533 391.557 23.1713 391.557 25.8581C391.557 28.5443 393.529 30.652 396.051 30.652ZM407.005 18.825H409.784V32.9791H407.005V18.825ZM424.001 18.8221H427V32.9791H424.011V31.2971C423.003 32.5086 421.255 33.2726 419.361 33.2726H419.128C415.019 33.2726 412.036 30.1482 412.036 25.8811C412.036 21.614 415.005 18.5188 419.098 18.5188H419.322C421.311 18.5188 423.013 19.2369 424.001 20.4679V18.8221ZM419.447 30.6416V30.6451C422.391 30.579 424.001 28.1496 424.001 25.8546C424.035 23.3017 422 21.2015 419.447 21.1561C416.945 21.2153 415.068 23.2075 415.068 25.8546C415.068 28.5018 416.981 30.5761 419.447 30.6416ZM324.381 24.3272C326.909 24.9757 329.495 25.9799 329.495 28.7815C329.495 31.5832 326.798 33.0946 324.262 33.0946C322.222 33.1313 320.231 32.4575 318.633 31.1885L318.57 31.1391L320.058 29.0119L320.131 29.0647C321.285 29.9994 322.715 30.5279 324.2 30.5692C325.767 30.5692 326.614 29.6805 326.614 28.8407C326.614 27.6424 325.283 27.3 323.746 26.9048C323.245 26.7795 322.752 26.6514 322.257 26.4865C320.786 25.9994 319.028 24.9723 319.028 22.8651C319.028 19.8423 321.724 18.4631 324.23 18.4631C325.896 18.4205 327.524 18.9571 328.839 19.9808L328.905 20.0336L327.413 22.1011L327.344 22.0483C326.507 21.3825 325.474 21.0096 324.404 20.9884C322.929 20.9884 321.902 21.6996 321.902 22.7169C321.902 23.6223 322.929 23.9549 324.381 24.3272ZM386.927 25.6605C386.927 25.8052 386.931 25.8776 386.911 25.9305C386.922 26.0586 386.922 26.1873 386.911 26.3154V26.3946H386.832L376.109 26.4176C376.507 28.7718 378.2 30.3452 380.346 30.3452C381.097 30.3596 381.842 30.2068 382.527 29.8983C383.212 29.5898 383.82 29.1331 384.307 28.5609L384.366 28.4949L386.292 30.3291L386.233 30.3917C384.293 32.4856 382.697 32.8906 380.25 32.9331H380.119C378.383 32.9487 376.711 32.2777 375.467 31.0667C374.772 30.3532 374.227 29.5076 373.865 28.5805C373.502 27.6527 373.329 26.6623 373.356 25.6668C373.356 21.5117 376.253 18.4929 380.248 18.4929C384.198 18.4929 386.927 21.4359 386.927 25.6605ZM376.534 24.2312H384.001C383.698 22.243 382.328 21.0608 380.316 21.0608C378.239 21.0608 376.899 22.1867 376.534 24.2312ZM317.032 25.6605C317.032 25.8052 317.032 25.8776 317.013 25.9305C317.021 26.0586 317.021 26.1873 317.013 26.3154V26.3946H316.931L306.21 26.4176C306.609 28.7718 308.298 30.3452 310.448 30.3452C311.2 30.3613 311.947 30.2091 312.634 29.9006C313.321 29.5915 313.93 29.1342 314.418 28.5609L314.478 28.4949L316.404 30.3291L316.345 30.3917C314.405 32.4856 312.808 32.8906 310.359 32.9331H310.23C308.494 32.9487 306.822 32.2777 305.578 31.0667C304.884 30.3532 304.339 29.5076 303.976 28.5805C303.614 27.6527 303.441 26.6623 303.467 25.6668C303.467 21.5117 306.365 18.4929 310.359 18.4929C314.283 18.4929 317.032 21.4359 317.032 25.6605ZM306.628 24.2312H314.099C313.796 22.243 312.426 21.0608 310.414 21.0608C308.337 21.0608 306.997 22.1867 306.628 24.2312ZM338.598 30.039L338.68 30.016L339.494 32.5483L339.411 32.5747C338.74 32.7688 338.045 32.8642 337.347 32.8579C336.649 32.886 335.955 32.7614 335.312 32.4914C334.668 32.222 334.091 31.8141 333.623 31.2971C332.905 30.4934 332.556 29.3382 332.556 27.7676V21.2417H331.028V18.8221H332.556V14.2391H335.339V18.8221H339.289V21.2417H335.339V27.9124C335.339 28.6201 335.401 29.167 335.704 29.5226C335.93 29.7449 336.2 29.9178 336.496 30.0315C336.792 30.1447 337.109 30.1953 337.426 30.1809C337.821 30.1889 338.216 30.1413 338.598 30.039ZM408.394 12.0429C408.633 12.0412 408.869 12.0865 409.089 12.1767C409.309 12.2669 409.51 12.3996 409.679 12.5679C409.847 12.7363 409.981 12.9362 410.072 13.1562C410.163 13.3762 410.209 13.6123 410.209 13.8501C410.209 14.0868 410.162 14.3212 410.071 14.5395C409.979 14.7578 409.845 14.956 409.676 15.1214C409.507 15.2869 409.307 15.4173 409.087 15.5046C408.866 15.5913 408.631 15.6333 408.394 15.6281C408.16 15.6315 407.927 15.5885 407.71 15.5C407.492 15.4121 407.295 15.2811 407.129 15.1151C406.963 14.9497 406.832 14.752 406.745 14.5349C406.657 14.3178 406.613 14.0851 406.616 13.8501C406.612 13.614 406.655 13.3797 406.742 13.1602C406.83 12.9408 406.96 12.7414 407.125 12.5731C407.291 12.4048 407.488 12.271 407.707 12.1802C407.924 12.0888 408.158 12.0423 408.394 12.0429Z" clip-rule="evenodd" fill-rule="evenodd"></path>
<path fill="white" d="M256.978 74.4445V71.4661H250.508V69.6317L255.952 60.8739H258.931V69.7698H261.159V71.4661H258.931V74.4445H256.978ZM252.441 69.7698H256.978V62.4321L252.441 69.7698ZM262.87 74.4445V71.9198H265.039V74.4445H262.87ZM271.894 74.6812C269.073 74.6812 267.2 73.0638 267.042 70.4601L269.034 70.1445C269.152 72.0381 270.336 73.0441 271.933 73.0441C273.669 73.0441 274.695 72.0578 274.695 70.5785C274.695 69.178 273.728 68.2115 271.835 68.2115C271.302 68.2115 270.967 68.2312 270.592 68.2509V66.6138C270.908 66.6335 271.263 66.6335 271.815 66.6335C273.393 66.6335 274.419 65.7854 274.419 64.4046C274.419 63.2211 273.551 62.3138 271.993 62.3138C270.356 62.3138 269.35 63.3592 269.231 65.0555L267.259 64.7202C267.377 62.2743 269.251 60.6569 272.032 60.6569C274.636 60.6569 276.47 61.9588 276.47 64.2665C276.47 66.0418 275.267 66.9097 274.162 67.3042V67.3239C275.701 67.6987 276.766 68.823 276.766 70.5982C276.766 73.1032 274.794 74.6812 271.894 74.6812ZM277.935 74.4445L284.523 60.8739H286.535L279.967 74.4445H277.935ZM292.504 74.6812C289.841 74.6812 288.164 73.1624 287.75 70.9138L289.802 70.5785C290.078 71.9395 290.985 73.0046 292.563 73.0046C294.24 73.0046 295.364 71.762 295.364 69.9276C295.364 68.1918 294.417 66.9097 292.741 66.9097C291.38 66.9097 290.492 67.8762 290.157 68.6454L288.184 68.3496L288.717 60.8739H296.449V62.6886H290.413L290.157 66.4363H290.176C290.788 65.7854 291.754 65.2528 293.076 65.2528C295.837 65.2528 297.415 67.3042 297.415 69.8487C297.415 72.5115 295.463 74.6812 292.504 74.6812Z"></path>
<path fill="#26E986" d="M316.372 55.4449L319.038 61.8523L325.954 62.4069L320.685 66.9214L322.294 73.6715L316.372 70.0543L310.451 73.6715L312.06 66.9214L306.791 62.4069L313.708 61.8523L316.372 55.4449Z" clip-rule="evenodd" fill-rule="evenodd"></path>
<path fill="#26E986" d="M338.636 55.4447L341.302 61.8521L348.218 62.4067L342.948 66.9212L344.557 73.6713L338.636 70.0541L332.714 73.6713L334.324 66.9212L329.054 62.4067L335.972 61.8521L338.636 55.4447Z" clip-rule="evenodd" fill-rule="evenodd"></path>
<path fill="#26E986" d="M360.899 55.4447L363.565 61.8521L370.481 62.4067L365.212 66.9212L366.821 73.6713L360.899 70.0541L354.978 73.6713L356.587 66.9212L351.318 62.4067L358.235 61.8521L360.899 55.4447Z" clip-rule="evenodd" fill-rule="evenodd"></path>
<path fill="#26E986" d="M383.164 55.4447L385.829 61.8521L392.745 62.4067L387.476 66.9212L389.085 73.6713L383.164 70.0541L377.242 73.6713L378.851 66.9212L373.582 62.4067L380.499 61.8521L383.164 55.4447Z" clip-rule="evenodd" fill-rule="evenodd"></path>
<path fill="#26E986" d="M405.427 70.0539L399.506 73.6711L401.115 66.921L395.846 62.4065L402.763 61.8519L405.427 55.4445V70.0539Z" clip-rule="evenodd" fill-rule="evenodd"></path>
<path fill-opacity="0.3" fill="#26E986" d="M405.427 70.0539V55.4445L408.091 61.8519L415.008 62.4065L409.739 66.921L411.348 73.6711L405.427 70.0539Z" clip-rule="evenodd" fill-rule="evenodd"></path>
<path fill="white" d="M535.044 6.40387H536.045C539.525 6.47931 542.95 7.87904 545.407 10.3569C544.5 11.2839 543.574 12.1731 542.685 13.0996C541.303 11.8515 539.641 10.8869 537.822 10.5463C535.137 9.97863 532.243 10.4895 529.991 12.0215C527.533 13.6296 525.868 16.3532 525.509 19.2662C525.113 22.1415 525.924 25.1676 527.799 27.3998C529.595 29.5752 532.336 30.9368 535.174 31.0313C537.822 31.1829 540.586 30.3695 542.513 28.5157C544.029 27.2104 544.727 25.2244 544.955 23.2951C541.815 23.2951 538.674 23.3141 535.533 23.2951V19.3984H548.757C549.437 23.5789 548.455 28.2886 545.276 31.2774C543.159 33.396 540.227 34.6442 537.236 34.8903C534.342 35.1741 531.354 34.6255 528.781 33.2258C525.7 31.5799 523.239 28.7995 522.029 25.5273C520.893 22.5194 520.875 19.1149 521.935 16.0884C522.899 13.3267 524.751 10.8869 527.138 9.18428C529.423 7.50072 532.205 6.57417 535.044 6.40387ZM610.893 7.38719H614.942V34.3984C613.597 34.3984 612.238 34.4175 610.893 34.3794C610.912 25.3947 610.893 16.3909 610.893 7.38719ZM557.761 16.7502C560.256 16.2774 562.964 16.807 565.025 18.3016C566.896 19.6255 568.203 21.7064 568.599 23.9759C569.111 26.6054 568.465 29.4803 566.765 31.5612C564.928 33.8875 561.922 35.136 558.99 34.947C556.305 34.7954 553.694 33.4524 552.103 31.2584C550.307 28.8372 549.874 25.5082 550.856 22.671C551.838 19.6255 554.62 17.2988 557.761 16.7502ZM558.329 20.3444C557.306 20.6092 556.361 21.1955 555.681 22.0276C553.844 24.222 553.959 27.7968 555.984 29.8396C557.138 31.0126 558.878 31.5612 560.484 31.2397C561.978 30.9745 563.285 29.9722 564.002 28.6483C565.249 26.397 564.891 23.2951 562.982 21.5361C561.75 20.4011 559.953 19.928 558.329 20.3444ZM577.809 16.7502C580.666 16.202 583.788 16.9963 585.924 19.0014C589.404 22.1224 589.785 27.9671 586.813 31.5612C585.016 33.8308 582.103 35.0792 579.228 34.947C576.487 34.8712 573.783 33.5092 572.154 31.2584C570.321 28.7805 569.921 25.3756 570.963 22.4817C572.005 19.531 574.728 17.2801 577.809 16.7502ZM578.376 20.3444C577.357 20.6092 576.412 21.1955 575.728 22.0089C573.913 24.1652 573.988 27.6836 575.938 29.7451C577.091 30.9745 578.888 31.5799 580.553 31.2397C582.029 30.9559 583.351 29.9722 584.071 28.6483C585.3 26.3784 584.942 23.276 583.011 21.517C581.782 20.3821 579.986 19.928 578.376 20.3444ZM594.816 17.8474C596.989 16.4854 599.884 16.1075 602.229 17.2801C602.969 17.6017 603.574 18.1503 604.16 18.6985C604.179 18.188 604.16 17.6585 604.179 17.1289C605.445 17.1476 606.714 17.1289 607.999 17.1476V33.8308C607.98 36.3468 607.338 39.0136 605.523 40.8484C603.536 42.8726 600.489 43.4966 597.748 43.0806C594.816 42.6455 592.261 40.5078 591.126 37.8032C592.261 37.2546 593.453 36.8196 594.625 36.3087C595.286 37.86 596.631 39.1839 598.315 39.4864C600 39.7893 601.945 39.3733 603.043 37.9735C604.216 36.5357 604.216 34.5687 604.16 32.8093C603.29 33.6608 602.285 34.4175 601.075 34.7009C598.446 35.4389 595.552 34.5306 593.527 32.753C591.485 30.9745 590.275 28.2318 590.39 25.5082C590.446 22.4249 592.187 19.4552 594.816 17.8474ZM598.73 20.2686C597.576 20.4579 596.5 21.101 595.761 21.9898C593.983 24.1085 593.983 27.4943 595.779 29.5752C596.803 30.8046 598.446 31.4854 600.037 31.3151C601.531 31.1639 602.913 30.2179 603.648 28.913C604.896 26.6999 604.69 23.6924 603.006 21.7632C601.964 20.5714 600.302 19.9847 598.73 20.2686ZM619.804 18.8121C622.071 16.6938 625.57 15.9749 628.483 17.0908C631.247 18.1313 633.006 20.7604 633.895 23.4654C629.79 25.1676 625.705 26.8512 621.6 28.5538C622.168 29.6316 623.038 30.6153 624.211 31.0126C625.854 31.599 627.822 31.3909 629.204 30.2937C629.753 29.8777 630.186 29.3291 630.605 28.7995C631.643 29.4994 632.685 30.1802 633.723 30.8801C632.248 33.0932 629.772 34.6442 627.105 34.8903C624.151 35.2495 621.014 34.1146 619.102 31.807C615.961 28.1755 616.264 22.0847 619.804 18.8121ZM621.825 22.3114C621.182 23.2383 620.917 24.3733 620.936 25.4892C623.681 24.3542 626.422 23.2196 629.167 22.0657C628.711 21.0065 627.613 20.3634 626.5 20.1931C624.7 19.8716 622.829 20.8362 621.825 22.3114Z" clip-rule="evenodd" fill-rule="evenodd"></path>
<path fill="white" d="M502.022 74.4445V71.4661H495.552V69.6317L500.996 60.8739H503.975V69.7698H506.204V71.4661H503.975V74.4445H502.022ZM497.485 69.7698H502.022V62.4321L497.485 69.7698ZM507.914 74.4445V71.9198H510.084V74.4445H507.914ZM516.927 74.6812C513.436 74.6812 511.897 71.8211 511.897 67.9748C511.897 63.1422 513.89 60.6569 517.125 60.6569C519.728 60.6569 521.05 62.2546 521.405 64.1088L519.413 64.4638C519.215 63.2014 518.426 62.2941 517.026 62.2941C514.698 62.2941 513.87 64.7794 513.87 67.6592L513.89 67.6789C514.343 66.7124 515.487 65.7656 517.203 65.7656C519.906 65.7656 521.563 67.6592 521.563 70.1642C521.563 72.689 519.768 74.6812 516.927 74.6812ZM516.967 73.0638C518.367 73.0638 519.57 72.0381 519.57 70.2037C519.57 68.2509 518.347 67.4028 516.986 67.4028C515.389 67.4028 514.245 68.5665 514.245 70.1642C514.245 71.8606 515.448 73.0638 516.967 73.0638ZM522.671 74.4445L529.259 60.8739H531.271L524.703 74.4445H522.671ZM537.24 74.6812C534.577 74.6812 532.9 73.1624 532.486 70.9138L534.538 70.5785C534.814 71.9395 535.721 73.0046 537.299 73.0046C538.976 73.0046 540.1 71.762 540.1 69.9276C540.1 68.1918 539.153 66.9097 537.477 66.9097C536.116 66.9097 535.228 67.8762 534.893 68.6454L532.92 68.3496L533.453 60.8739H541.185V62.6886H535.149L534.893 66.4363H534.912C535.524 65.7854 536.49 65.2528 537.812 65.2528C540.573 65.2528 542.151 67.3042 542.151 69.8487C542.151 72.5115 540.199 74.6812 537.24 74.6812Z"></path>
<path fill="#26E986" d="M561.417 55.4449L564.082 61.8523L570.998 62.4069L565.729 66.9214L567.338 73.6715L561.417 70.0543L555.495 73.6715L557.104 66.9214L551.835 62.4069L558.752 61.8523L561.417 55.4449Z" clip-rule="evenodd" fill-rule="evenodd"></path>
<path fill="#26E986" d="M583.68 55.4447L586.346 61.8521L593.262 62.4067L587.992 66.9212L589.602 73.6713L583.68 70.0541L577.759 73.6713L579.368 66.9212L574.098 62.4067L581.016 61.8521L583.68 55.4447Z" clip-rule="evenodd" fill-rule="evenodd"></path>
<path fill="#26E986" d="M605.944 55.4447L608.609 61.8521L615.525 62.4067L610.256 66.9212L611.865 73.6713L605.944 70.0541L600.022 73.6713L601.631 66.9212L596.362 62.4067L603.279 61.8521L605.944 55.4447Z" clip-rule="evenodd" fill-rule="evenodd"></path>
<path fill="#26E986" d="M628.208 55.4447L630.873 61.8521L637.789 62.4067L632.52 66.9212L634.129 73.6713L628.208 70.0541L622.286 73.6713L623.895 66.9212L618.626 62.4067L625.543 61.8521L628.208 55.4447Z" clip-rule="evenodd" fill-rule="evenodd"></path>
<path fill="#26E986" d="M650.472 70.0539L644.55 73.6711L646.159 66.921L640.89 62.4065L647.807 61.8519L650.472 55.4445V70.0539Z" clip-rule="evenodd" fill-rule="evenodd"></path>
<path fill-opacity="0.3" fill="#26E986" d="M650.471 70.0539V55.4445L653.135 61.8519L660.053 62.4065L654.783 66.921L656.392 73.6711L650.471 70.0539Z" clip-rule="evenodd" fill-rule="evenodd"></path>
<path fill="white" d="M251.585 120.833C251.585 120.835 251.585 120.837 251.585 120.839C251.771 121.535 251.864 122.272 251.864 123.055C251.864 124.216 251.658 125.284 251.252 126.264C250.841 127.245 250.268 128.092 249.514 128.811C248.764 129.525 247.878 130.082 246.86 130.482C245.846 130.883 244.729 131.086 243.51 131.086C242.296 131.086 241.179 130.883 240.166 130.482C239.147 130.082 238.261 129.525 237.512 128.811C236.758 128.092 236.18 127.245 235.773 126.264C235.367 125.284 235.161 124.216 235.161 123.055C235.161 121.894 235.367 120.827 235.773 119.858C236.18 118.883 236.758 118.036 237.512 117.322C238.261 116.608 239.147 116.052 240.166 115.651C241.179 115.245 242.296 115.048 243.51 115.048C244.729 115.048 245.846 115.245 246.86 115.651C247.878 116.052 248.764 116.608 249.514 117.322C249.871 117.657 250.18 118.027 250.459 118.426L250.464 118.425C251.115 118.314 251.781 118.257 252.481 118.257C253.186 118.257 253.862 118.314 254.528 118.431C254.528 118.431 254.528 118.431 254.533 118.431C254.807 118.033 255.125 117.663 255.483 117.322C256.232 116.608 257.113 116.052 258.137 115.651C259.15 115.245 260.272 115.048 261.481 115.048C262.696 115.048 263.817 115.245 264.831 115.651C265.844 116.052 266.731 116.608 267.485 117.322C268.229 118.036 268.812 118.883 269.223 119.858C269.629 120.827 269.83 121.894 269.83 123.055C269.83 124.216 269.629 125.284 269.223 126.264C268.812 127.245 268.229 128.092 267.485 128.811C266.731 129.525 265.844 130.082 264.831 130.482C263.817 130.883 262.701 131.086 261.481 131.086C260.262 131.086 259.15 130.883 258.137 130.482C257.113 130.082 256.232 129.525 255.483 128.811C254.729 128.092 254.146 127.245 253.744 126.264C253.338 125.284 253.127 124.216 253.127 123.055C253.127 122.272 253.22 121.535 253.411 120.839C253.411 120.837 253.411 120.835 253.411 120.833C253.103 120.804 252.785 120.792 252.481 120.792C252.182 120.792 251.879 120.804 251.585 120.833ZM265.374 125.533C265.761 124.813 265.947 123.983 265.947 123.055C265.947 122.127 265.761 121.303 265.374 120.589C264.997 119.87 264.478 119.307 263.807 118.901C263.141 118.494 262.358 118.291 261.481 118.291C260.605 118.291 259.836 118.494 259.16 118.901C258.778 119.133 258.44 119.411 258.156 119.748C257.936 119.997 257.745 120.281 257.583 120.589C257.383 120.966 257.236 121.378 257.143 121.819C257.055 122.208 257.015 122.62 257.015 123.055C257.015 123.983 257.206 124.813 257.583 125.533C257.96 126.258 258.489 126.821 259.16 127.233C259.836 127.639 260.595 127.842 261.481 127.842C262.372 127.842 263.141 127.639 263.807 127.233C264.478 126.821 264.997 126.258 265.374 125.533ZM247.408 125.533C247.79 124.813 247.976 123.983 247.976 123.055C247.976 122.62 247.932 122.202 247.849 121.813C247.756 121.372 247.609 120.966 247.408 120.589C247.242 120.281 247.051 119.997 246.835 119.748C246.551 119.411 246.218 119.133 245.841 118.901C245.18 118.494 244.387 118.291 243.51 118.291C242.639 118.291 241.865 118.494 241.189 118.901C240.518 119.307 239.994 119.87 239.612 120.589C239.235 121.303 239.044 122.127 239.044 123.055C239.044 123.983 239.235 124.813 239.612 125.533C239.994 126.258 240.518 126.821 241.189 127.233C241.865 127.639 242.624 127.842 243.51 127.842C244.401 127.842 245.18 127.639 245.841 127.233C246.507 126.821 247.031 126.258 247.408 125.533ZM126.131 122.618C126.135 122.621 126.145 122.623 126.15 122.626C127.017 122.962 127.693 123.438 128.182 124.053C128.667 124.668 128.912 125.4 128.912 126.241C128.912 127.14 128.667 127.935 128.182 128.614C127.693 129.293 127.022 129.821 126.15 130.192C125.288 130.564 124.27 130.749 123.109 130.749H116.327V115.396H123.109C124.142 115.396 125.043 115.559 125.812 115.889C126.586 116.22 127.188 116.678 127.619 117.276C128.05 117.868 128.261 118.57 128.261 119.371C128.261 120.131 128.05 120.804 127.619 121.39C127.247 121.893 126.752 122.303 126.131 122.618ZM120.019 121.425H122.85C123.379 121.425 123.79 121.285 124.084 121.007C124.382 120.729 124.524 120.346 124.524 119.858C124.524 119.4 124.382 119.046 124.084 118.796C123.79 118.547 123.379 118.419 122.85 118.419H120.019V121.425ZM120.019 124.366V127.721H123.129C123.756 127.721 124.255 127.57 124.617 127.256C124.985 126.949 125.166 126.525 125.166 125.98C125.166 125.481 124.985 125.086 124.617 124.796C124.255 124.512 123.756 124.366 123.129 124.366H120.019ZM133.867 125.272V130.749H130.18V115.396H136.595C137.741 115.396 138.749 115.605 139.626 116.017C140.493 116.435 141.178 117.009 141.663 117.746C142.148 118.483 142.393 119.347 142.393 120.334C142.393 121.32 142.148 122.168 141.663 122.91C141.173 123.653 140.493 124.233 139.626 124.651C139.577 124.675 139.528 124.698 139.474 124.72L144.023 130.749H139.552L135.625 125.272H133.867ZM133.867 122.202H136.595C137.227 122.202 137.726 122.034 138.098 121.698C138.47 121.361 138.656 120.908 138.656 120.334C138.656 119.759 138.47 119.307 138.098 118.97C137.726 118.634 137.227 118.465 136.595 118.465H133.867V122.202ZM151.662 131.092C150.448 131.092 149.331 130.889 148.318 130.488C147.299 130.088 146.418 129.531 145.664 128.811C144.91 128.092 144.337 127.251 143.925 126.27C143.519 125.289 143.313 124.221 143.313 123.061C143.313 121.9 143.519 120.839 143.925 119.864C144.332 118.889 144.91 118.048 145.664 117.328C146.418 116.608 147.299 116.052 148.318 115.651C149.331 115.251 150.453 115.048 151.662 115.048C152.877 115.048 153.998 115.251 155.011 115.651C156.03 116.052 156.911 116.608 157.666 117.328C158.42 118.048 158.993 118.889 159.404 119.864C159.81 120.839 160.016 121.9 160.016 123.061C160.016 124.221 159.81 125.289 159.404 126.27C158.997 127.251 158.42 128.098 157.666 128.811C156.911 129.525 156.03 130.088 155.011 130.488C153.998 130.889 152.877 131.092 151.662 131.092ZM151.662 127.848C152.553 127.848 153.332 127.645 153.993 127.239C154.654 126.833 155.183 126.264 155.56 125.544C155.937 124.819 156.128 123.995 156.128 123.067C156.128 122.138 155.937 121.314 155.56 120.601C155.183 119.887 154.659 119.324 153.993 118.918C153.322 118.512 152.548 118.309 151.662 118.309C150.781 118.309 150.017 118.512 149.341 118.918C148.67 119.324 148.141 119.887 147.764 120.601C147.387 121.314 147.196 122.138 147.196 123.067C147.196 123.995 147.387 124.825 147.764 125.544C148.141 126.27 148.67 126.833 149.341 127.239C150.017 127.645 150.79 127.848 151.662 127.848ZM165.3 123.391V130.749H161.612V115.396H165.3V122.547L171.249 115.396H175.715L169.383 122.77L176.616 130.743V130.749H171.807L165.3 123.391ZM181.101 124.564V127.674H188.613V130.749H177.409V115.396H188.613V118.465H181.101V121.494H188.206V124.564H181.101ZM193.852 125.272V130.749H190.165V115.396H196.58C197.726 115.396 198.734 115.605 199.611 116.017C200.483 116.435 201.163 117.009 201.648 117.746C202.133 118.483 202.378 119.347 202.378 120.334C202.378 121.32 202.133 122.168 201.648 122.91C201.158 123.653 200.483 124.233 199.611 124.651C199.562 124.675 199.513 124.698 199.459 124.72L204.008 130.749H199.542L195.61 125.272H193.852ZM193.852 122.202H196.58C197.216 122.202 197.711 122.034 198.083 121.698C198.455 121.361 198.641 120.908 198.641 120.334C198.641 119.759 198.455 119.307 198.083 118.97C197.711 118.634 197.216 118.465 196.58 118.465H193.852V122.202ZM216.333 125.805L218.694 128.231C218.008 129.078 217.112 129.763 216 130.291C214.894 130.819 213.674 131.086 212.343 131.086C211.094 131.086 209.963 130.889 208.949 130.494C207.931 130.099 207.054 129.548 206.32 128.829C205.58 128.109 205.012 127.268 204.611 126.287C204.214 125.307 204.008 124.233 204.008 123.055C204.008 121.877 204.219 120.827 204.63 119.846C205.046 118.866 205.629 118.019 206.383 117.305C207.137 116.591 208.019 116.034 209.047 115.639C210.066 115.245 211.197 115.048 212.431 115.048C213.758 115.048 214.962 115.315 216.044 115.843C217.122 116.37 218.008 117.061 218.694 117.903L216.333 120.328C215.893 119.701 215.33 119.202 214.649 118.837C213.973 118.471 213.229 118.291 212.431 118.291C211.569 118.291 210.8 118.494 210.119 118.901C209.439 119.307 208.905 119.87 208.518 120.583C208.126 121.297 207.935 122.121 207.935 123.049C207.935 123.978 208.126 124.808 208.518 125.527C208.905 126.253 209.434 126.815 210.119 127.221C210.8 127.628 211.569 127.831 212.431 127.831C213.229 127.831 213.973 127.645 214.649 127.274C215.33 126.902 215.893 126.409 216.333 125.794V125.805ZM223.61 124.454V130.743H219.918V115.39H223.61V121.361H229.878V115.39H233.565V130.743H229.878V124.454H223.61ZM269.786 128.208L272.21 125.759C272.543 126.2 272.964 126.589 273.488 126.92C274.012 127.251 274.575 127.5 275.173 127.668C275.77 127.837 276.367 127.923 276.95 127.923C277.538 127.923 278.081 127.866 278.507 127.744C278.933 127.622 279.252 127.448 279.467 127.228C279.678 127.007 279.785 126.746 279.785 126.444C279.785 126.015 279.545 125.655 279.075 125.359C278.605 125.069 277.724 124.825 276.436 124.64C275.06 124.436 273.929 124.135 273.042 123.728C272.151 123.322 271.5 122.806 271.069 122.185C270.638 121.564 270.423 120.827 270.423 119.986C270.423 119.028 270.697 118.175 271.24 117.433C271.789 116.69 272.538 116.104 273.488 115.686C274.438 115.262 275.525 115.054 276.744 115.054C278.189 115.054 279.472 115.321 280.598 115.848C281.719 116.376 282.65 117.067 283.399 117.909L280.995 120.357C280.51 119.684 279.883 119.156 279.114 118.767C278.35 118.379 277.572 118.187 276.788 118.187C276.005 118.187 275.383 118.332 274.898 118.616C274.409 118.901 274.169 119.272 274.169 119.731C274.169 119.986 274.267 120.212 274.458 120.398C274.649 120.583 274.991 120.746 275.476 120.879C275.966 121.018 276.637 121.158 277.499 121.297C278.826 121.5 279.942 121.814 280.833 122.243C281.729 122.672 282.4 123.218 282.856 123.873C283.306 124.529 283.531 125.312 283.531 126.212C283.531 127.216 283.247 128.08 282.674 128.811C282.096 129.542 281.318 130.105 280.324 130.494C279.33 130.889 278.184 131.086 276.877 131.086C275.334 131.086 273.953 130.819 272.744 130.279C271.539 129.745 270.55 129.055 269.791 128.208H269.786ZM288.766 124.558V127.668H296.282V130.743H285.074V115.39H296.282V118.459H288.766V121.489H295.876V124.558H288.766ZM301.522 125.266V130.743H297.83V115.39H304.249C305.39 115.39 306.399 115.599 307.276 116.011C308.147 116.429 308.833 117.003 309.313 117.74C309.793 118.477 310.042 119.341 310.042 120.328C310.042 121.314 309.802 122.162 309.313 122.904C308.823 123.647 308.147 124.227 307.276 124.645C307.227 124.669 307.178 124.692 307.124 124.714L311.673 130.743H307.207L303.275 125.266H301.522ZM301.522 122.197H304.249C304.876 122.197 305.381 122.028 305.748 121.692C306.12 121.355 306.306 120.902 306.306 120.328C306.306 119.754 306.12 119.301 305.748 118.964C305.381 118.628 304.881 118.459 304.249 118.459H301.522V122.197ZM252.476 136.03V136.018C254.298 136.018 256.105 135.646 257.877 134.898C258.896 134.475 259.993 135.246 259.993 136.407V136.419C259.993 137.033 259.665 137.602 259.15 137.881C258.485 138.24 257.794 138.548 257.079 138.792C255.635 139.296 254.102 139.546 252.476 139.546C250.85 139.546 249.327 139.296 247.893 138.792C247.178 138.542 246.482 138.234 245.812 137.869C245.293 137.59 244.974 137.028 244.974 136.413C244.974 135.264 246.061 134.475 247.055 134.898C247.408 135.049 247.756 135.183 248.103 135.298C249.519 135.786 250.973 136.03 252.476 136.03Z" clip-rule="evenodd" fill-rule="evenodd"></path>
<path fill="white" d="M146.33 174.215V171.237H139.86V169.402L145.304 160.645H148.283V169.541H150.512V171.237H148.283V174.215H146.33ZM141.793 169.541H146.33V162.203L141.793 169.541ZM151.434 174.215L158.022 160.645H160.034L153.466 174.215H151.434ZM166.003 174.452C163.34 174.452 161.664 172.933 161.25 170.685L163.301 170.349C163.577 171.71 164.484 172.775 166.062 172.775C167.739 172.775 168.863 171.533 168.863 169.698C168.863 167.963 167.917 166.68 166.24 166.68C164.879 166.68 163.991 167.647 163.656 168.416L161.684 168.12L162.216 160.645H169.948V162.459H163.912L163.656 166.207H163.676C164.287 165.556 165.254 165.024 166.575 165.024C169.337 165.024 170.915 167.075 170.915 169.619C170.915 172.282 168.962 174.452 166.003 174.452Z"></path>
<path fill="#26E986" d="M190.214 155.705L192.88 162.112L199.796 162.667L194.527 167.182L196.136 173.932L190.214 170.314L184.293 173.932L185.902 167.182L180.633 162.667L187.55 162.112L190.214 155.705Z" clip-rule="evenodd" fill-rule="evenodd"></path>
<path fill="#26E986" d="M212.316 155.705L214.982 162.112L221.898 162.667L216.628 167.182L218.237 173.932L212.316 170.314L206.394 173.932L208.004 167.182L202.734 162.667L209.652 162.112L212.316 155.705Z" clip-rule="evenodd" fill-rule="evenodd"></path>
<path fill="#26E986" d="M234.417 155.705L237.083 162.112L243.999 162.667L238.73 167.182L240.339 173.932L234.417 170.314L228.496 173.932L230.105 167.182L224.836 162.667L231.753 162.112L234.417 155.705Z" clip-rule="evenodd" fill-rule="evenodd"></path>
<path fill="#26E986" d="M256.519 155.705L259.185 162.112L266.101 162.667L260.831 167.182L262.44 173.932L256.519 170.314L250.597 173.932L252.207 167.182L246.937 162.667L253.855 162.112L256.519 155.705Z" clip-rule="evenodd" fill-rule="evenodd"></path>
<path fill-opacity="0.3" fill="#26E986" d="M278.62 155.705L281.286 162.112L288.202 162.667L282.933 167.182L284.542 173.932L278.62 170.314L272.699 173.932L274.308 167.182L269.039 162.667L275.956 162.112L278.62 155.705Z" clip-rule="evenodd" fill-rule="evenodd"></path>
<path fill="white" d="M409.266 131.648V111.444H423.321V115.216H413.498V119.475H421.593V123.25H413.498V127.876H423.266V131.648H409.266ZM440.118 124.161V111.444H444.346V131.648H440.297L430.826 118.444V131.711H426.598V114.001L424.633 111.444H430.949L440.118 124.161ZM402.894 121.253C405.022 121.548 406.706 123.677 406.777 126.18C406.777 129.224 404.812 131.657 400.996 131.657H390.206V113.938L388.3 111.444H400.568C404.384 111.444 406.286 113.938 406.298 116.631C406.298 119.124 404.753 120.89 402.894 121.253ZM394.434 115.241V119.5H399.736C401.167 119.5 402.058 118.646 402.058 117.371C402.058 116.096 401.167 115.241 399.736 115.241H394.434ZM399.914 127.898V127.876C401.464 127.876 402.415 127.022 402.415 125.563C402.415 124.285 401.523 123.25 399.914 123.25H394.434V127.898H399.914ZM506.234 124.161L503.376 120.513H512.427V127.996C511.416 129.167 510.168 130.1 508.77 130.73C507.371 131.361 505.857 131.673 504.328 131.648C498.669 131.648 494.084 127.696 494.084 121.548C494.084 115.4 498.728 111.444 504.328 111.444C508.318 111.444 510.822 113.514 512.253 115.814L508.916 117.713C508.429 116.935 507.759 116.294 506.97 115.848C506.178 115.401 505.29 115.164 504.387 115.156C500.872 115.156 498.372 117.896 498.372 121.608C498.372 125.319 500.872 128.056 504.387 128.056C505.869 128.038 507.299 127.502 508.437 126.537V124.161H506.234ZM487.174 124.161V111.444H491.402V131.648H487.356L477.885 118.444V131.711H473.653V114.001L471.688 111.444H478L487.174 124.161ZM526.423 111.444L534.098 131.711H529.335L528.095 128.3H519.563L518.323 131.711H513.556L519.873 114.973L520.229 114.001L518.264 111.444H526.423ZM520.649 124.468H526.843L523.748 115.764L520.649 124.468ZM469.247 111.444V131.711H465.015V111.444H469.247ZM461.623 114.912L452.212 127.876H461.801V131.648H446.728V128.18L456.083 115.216H446.728V111.444H461.623V114.912Z" clip-rule="evenodd" fill-rule="evenodd"></path>
<path fill="white" d="M385.695 174.215V171.237H379.225V169.402L384.669 160.645H387.648V169.54H389.876V171.237H387.648V174.215H385.695ZM381.158 169.54H385.695V162.203L381.158 169.54ZM391.587 174.215V171.69H393.756V174.215H391.587ZM400.572 174.452C397.909 174.452 396.232 172.933 395.818 170.684L397.869 170.349C398.145 171.71 399.053 172.775 400.631 172.775C402.307 172.775 403.432 171.533 403.432 169.698C403.432 167.962 402.485 166.68 400.808 166.68C399.447 166.68 398.56 167.647 398.224 168.416L396.252 168.12L396.784 160.645H404.516V162.459H398.481L398.224 166.207H398.244C398.855 165.556 399.822 165.023 401.144 165.023C403.905 165.023 405.483 167.075 405.483 169.619C405.483 172.282 403.53 174.452 400.572 174.452ZM406.633 174.215L413.221 160.645H415.233L408.664 174.215H406.633ZM421.202 174.452C418.539 174.452 416.862 172.933 416.448 170.684L418.499 170.349C418.775 171.71 419.683 172.775 421.261 172.775C422.937 172.775 424.062 171.533 424.062 169.698C424.062 167.962 423.115 166.68 421.438 166.68C420.077 166.68 419.19 167.647 418.854 168.416L416.882 168.12L417.414 160.645H425.147V162.459H419.111L418.854 166.207H418.874C419.486 165.556 420.452 165.023 421.774 165.023C424.535 165.023 426.113 167.075 426.113 169.619C426.113 172.282 424.16 174.452 421.202 174.452Z"></path>
<path fill="#26E986" d="M445.089 155.216L447.755 161.623L454.671 162.178L449.402 166.692L451.011 173.442L445.089 169.825L439.168 173.442L440.777 166.692L435.508 162.178L442.425 161.623L445.089 155.216Z" clip-rule="evenodd" fill-rule="evenodd"></path>
<path fill="#26E986" d="M467.353 155.215L470.019 161.623L476.935 162.177L471.665 166.692L473.274 173.442L467.353 169.825L461.431 173.442L463.041 166.692L457.771 162.177L464.689 161.623L467.353 155.215Z" clip-rule="evenodd" fill-rule="evenodd"></path>
<path fill="#26E986" d="M489.616 155.215L492.282 161.623L499.198 162.177L493.929 166.692L495.538 173.442L489.616 169.825L483.695 173.442L485.304 166.692L480.035 162.177L486.952 161.623L489.616 155.215Z" clip-rule="evenodd" fill-rule="evenodd"></path>
<path fill="#26E986" d="M511.881 155.215L514.546 161.623L521.462 162.177L516.193 166.692L517.802 173.442L511.881 169.825L505.959 173.442L507.568 166.692L502.299 162.177L509.216 161.623L511.881 155.215Z" clip-rule="evenodd" fill-rule="evenodd"></path>
<path fill="#26E986" d="M534.144 169.825L528.223 173.442L529.832 166.692L524.563 162.177L531.48 161.623L534.144 155.215V169.825Z" clip-rule="evenodd" fill-rule="evenodd"></path>
<path fill-opacity="0.3" fill="#26E986" d="M534.144 169.825V155.215L536.808 161.623L543.725 162.177L538.456 166.692L540.065 173.442L534.144 169.825Z" clip-rule="evenodd" fill-rule="evenodd"></path>
</svg>
