<svg xmlns="http://www.w3.org/2000/svg" fill="none" viewBox="0 0 20 21" height="21" width="20">
<g clip-path="url(#clip0_1670_375)">
<path fill="#224944" d="M20.0005 10.2542C20.0005 4.73118 15.5233 0.253906 10.0003 0.253906C4.47727 0.253906 0 4.73118 0 10.2542C0 15.2455 3.65693 19.3827 8.43773 20.133V13.1449H5.8986V10.2542H8.43773V8.05099C8.43773 5.54468 9.93074 4.16026 12.215 4.16026C13.3088 4.16026 14.4535 4.35558 14.4535 4.35558V6.81658H13.1925C11.9503 6.81658 11.5628 7.5875 11.5628 8.37913V10.2542H14.3363L13.893 13.1449H11.5628V20.133C16.3436 19.3827 20.0005 15.2455 20.0005 10.2542Z"></path>
</g>
<defs>
<clipPath id="clip0_1670_375">
<rect transform="translate(0 0.253906)" fill="white" height="20.0005" width="20.0005"></rect>
</clipPath>
</defs>
</svg>
