<svg xmlns="http://www.w3.org/2000/svg" fill="none" viewBox="0 0 393 440" height="440" width="393">
<path fill="url(#paint0_linear_6664_3037)" d="M0 32C0 14.3269 14.3269 0 32 0H393V408C393 425.673 378.673 440 361 440H0V32Z"></path>
<path stroke-width="2" stroke-opacity="0.5" stroke="white" d="M32 1H392V408C392 425.121 378.121 439 361 439H1V32C1 14.8792 14.8792 1 32 1Z"></path>
<path fill-opacity="0.5" fill="white" d="M20 36C20 27.1634 27.1634 20 36 20H286V50C286 58.8366 278.837 66 270 66H20V36Z"></path>
<path fill="#224944" d="M45.66 50V36.24H49.06L52.72 47.84L56.36 36.24H59.78V50H57.76V41.26C57.76 40 57.8 38.7 57.82 38.08L57.8 38.06L53.9 50H51.52L47.64 38.06L47.62 38.08C47.64 38.7 47.68 40 47.68 41.26V50H45.66ZM62.2256 50V40.12H64.2056V50H62.2256ZM62.2256 38.58V36.24H64.2056V38.58H62.2256ZM66.5327 50V40.12H68.4927V41.52H68.5127C69.0727 40.66 70.1727 39.88 71.6727 39.88C73.8727 39.88 75.1727 41.2 75.1727 43.6V50H73.1927V44.46C73.1927 42.68 72.7927 41.54 71.1327 41.54C69.4727 41.54 68.5127 42.88 68.5127 44.48V50H66.5327ZM77.4022 50V40.12H79.3822V50H77.4022ZM77.4022 38.58V36.24H79.3822V38.58H77.4022ZM81.7092 50V40.12H83.6692V41.52H83.6892C84.1092 40.74 85.1692 39.88 86.6292 39.88C88.2292 39.88 89.1492 40.7 89.5692 41.76C89.9692 41.04 90.9492 39.88 92.6892 39.88C94.9492 39.88 96.0692 41.36 96.0692 43.62V50H94.0892V44.42C94.0892 42.66 93.8092 41.54 92.1892 41.54C90.7492 41.54 89.8692 42.92 89.8692 44.5V50H87.9092V44.42C87.9092 42.66 87.6292 41.54 86.0292 41.54C84.5692 41.54 83.6892 42.92 83.6892 44.5V50H81.7092ZM101.602 50.24C99.3219 50.24 98.1619 48.8 98.1619 46.54V40.12H100.142V45.86C100.142 47.54 100.542 48.58 102.142 48.58C103.682 48.58 104.642 47.24 104.642 45.72V40.12H106.622V50H104.662V48.6H104.642C103.982 49.6 102.942 50.24 101.602 50.24ZM108.937 50V40.12H110.897V41.52H110.917C111.337 40.74 112.397 39.88 113.857 39.88C115.457 39.88 116.377 40.7 116.797 41.76C117.197 41.04 118.177 39.88 119.917 39.88C122.177 39.88 123.297 41.36 123.297 43.62V50H121.317V44.42C121.317 42.66 121.037 41.54 119.417 41.54C117.977 41.54 117.097 42.92 117.097 44.5V50H115.137V44.42C115.137 42.66 114.857 41.54 113.257 41.54C111.797 41.54 110.917 42.92 110.917 44.5V50H108.937ZM129.901 50V36.24H134.901C139.141 36.24 141.581 38.84 141.581 43.1C141.581 47.36 139.141 50 134.901 50H129.901ZM134.881 48.22C138.041 48.22 139.441 46.16 139.441 43.1C139.441 40.02 138.041 38.02 134.881 38.02H131.981V48.22H134.881ZM147.599 50.24C144.959 50.24 142.859 48.46 142.859 45.08C142.859 41.82 144.999 39.88 147.659 39.88C150.299 39.88 152.199 41.88 152.199 44.9V45.52H144.859C144.959 47.76 146.179 48.7 147.619 48.7C148.979 48.7 149.819 48.02 150.139 46.74L152.139 47C151.639 48.66 150.339 50.24 147.599 50.24ZM144.879 44H150.119C150.059 42.6 149.079 41.4 147.659 41.4C146.199 41.4 145.079 42.44 144.879 44ZM153.919 53.7V40.12H155.879V41.66C156.419 40.78 157.459 39.88 159.199 39.88C161.799 39.88 163.679 41.94 163.679 45.06C163.679 48.18 161.799 50.24 159.199 50.24C157.419 50.24 156.399 49.3 155.899 48.5V53.7H153.919ZM158.739 48.66C160.679 48.66 161.619 47.04 161.619 45.06C161.619 43.08 160.679 41.46 158.739 41.46C156.799 41.46 155.819 43.12 155.819 45.06C155.819 47 156.799 48.66 158.739 48.66ZM169.634 50.24C166.514 50.24 164.754 47.9 164.754 45.06C164.754 42.24 166.514 39.88 169.634 39.88C172.774 39.88 174.554 42.24 174.554 45.06C174.554 47.9 172.774 50.24 169.634 50.24ZM169.654 48.66C171.574 48.66 172.474 47.04 172.474 45.06C172.474 43.1 171.574 41.46 169.654 41.46C167.714 41.46 166.814 43.08 166.814 45.06C166.814 47.06 167.714 48.66 169.654 48.66ZM179.904 50.24C177.444 50.24 175.644 49.1 175.424 46.74L177.384 46.5C177.484 48.06 178.584 48.78 179.944 48.78C181.284 48.78 182.184 48.18 182.184 47.22C182.184 46.26 181.264 46.06 180.024 45.78L178.564 45.44C176.964 45.06 175.864 44.3 175.864 42.78C175.864 41.1 177.524 39.88 179.864 39.88C182.124 39.88 183.664 41.02 183.924 42.86L181.944 43.14C181.804 41.96 180.944 41.34 179.784 41.34C178.604 41.34 177.844 41.92 177.844 42.68C177.844 43.4 178.284 43.66 179.524 43.94L180.984 44.28C183.064 44.76 184.164 45.44 184.164 47.02C184.164 49 182.324 50.24 179.904 50.24ZM185.785 50V40.12H187.765V50H185.785ZM185.785 38.58V36.24H187.765V38.58H185.785ZM193.332 50.1C192.072 50.1 191.232 49.6 190.932 48.6C190.812 48.3 190.772 47.98 190.772 47.56V41.74H189.032V40.12H190.772V37H192.752V40.12H194.792V41.74H192.752V47.28C192.752 48.14 193.152 48.44 193.932 48.44C194.332 48.44 194.552 48.42 194.872 48.36V49.96C194.372 50.04 193.932 50.1 193.332 50.1ZM204.843 52V50.22C202.103 50 200.463 48.28 200.303 45.78L202.383 45.44C202.483 47.16 203.303 48.32 204.843 48.56V43.72L204.503 43.62C202.163 42.96 200.803 41.8 200.803 39.8C200.803 37.78 202.303 36.24 204.843 36.02V34.24H206.143V36.04C208.503 36.26 209.803 37.66 210.043 39.76L207.963 40.08C207.823 38.82 207.243 37.96 206.143 37.7V42.04L206.783 42.22C209.043 42.84 210.403 43.92 210.403 46.08C210.403 48.52 208.623 49.98 206.143 50.2V52H204.843ZM202.883 39.66C202.883 40.72 203.543 41.26 204.843 41.68V37.66C203.603 37.84 202.883 38.68 202.883 39.66ZM206.143 48.58C207.523 48.38 208.323 47.54 208.323 46.28C208.323 45.1 207.603 44.5 206.143 44.06V48.58ZM212.205 50V48.28L213.265 47.58C216.885 45.24 219.225 43.12 219.225 40.22C219.225 38.68 218.365 37.72 216.845 37.72C215.345 37.72 214.325 38.66 214.325 40.36C214.325 40.74 214.365 41.06 214.425 41.36L212.305 41.1C212.285 40.94 212.245 40.66 212.245 40.26C212.245 37.62 214.145 36.02 216.865 36.02C219.665 36.02 221.345 37.54 221.345 40.12C221.345 43.42 218.925 45.76 215.885 47.66L214.965 48.24V48.26H221.305V50H212.205ZM223.473 52.58L224.213 50H223.313V47.44H225.513V49.58L224.593 52.58H223.473ZM232.061 50.24C229.361 50.24 227.661 48.7 227.241 46.42L229.321 46.08C229.601 47.46 230.521 48.54 232.121 48.54C233.821 48.54 234.961 47.28 234.961 45.42C234.961 43.66 234.001 42.36 232.301 42.36C230.921 42.36 230.021 43.34 229.681 44.12L227.681 43.82L228.221 36.24H236.061V38.08H229.941L229.681 41.88H229.701C230.321 41.22 231.301 40.68 232.641 40.68C235.441 40.68 237.041 42.76 237.041 45.34C237.041 48.04 235.061 50.24 232.061 50.24ZM243.624 50.24C240.184 50.24 238.504 47.06 238.504 43.14C238.504 39.04 240.184 36.04 243.624 36.04C247.044 36.04 248.724 39.04 248.724 43.14C248.724 47.24 247.044 50.24 243.624 50.24ZM243.624 48.58C245.764 48.58 246.584 46.32 246.584 43.14C246.584 39.98 245.764 37.72 243.624 37.72C241.484 37.72 240.664 39.98 240.664 43.14C240.664 46.32 241.484 48.58 243.624 48.58ZM255.509 50.24C252.069 50.24 250.389 47.06 250.389 43.14C250.389 39.04 252.069 36.04 255.509 36.04C258.929 36.04 260.609 39.04 260.609 43.14C260.609 47.24 258.929 50.24 255.509 50.24ZM255.509 48.58C257.649 48.58 258.469 46.32 258.469 43.14C258.469 39.98 257.649 37.72 255.509 37.72C253.369 37.72 252.549 39.98 252.549 43.14C252.549 46.32 253.369 48.58 255.509 48.58Z"></path>
<path fill="#224944" d="M23.1 99.723C23.1 97.623 24.65 96.123 26.75 96.123H37.85C44.05 96.123 48.5 99.823 48.5 105.573C48.5 108.473 47.1 111.873 43.85 113.273C47.65 114.523 49.65 118.123 49.65 121.473C49.65 127.223 45.2 131.623 38.65 131.623H23.1V99.723ZM29.6 126.173H37.65C41.25 126.173 43 123.873 43 121.173C43 118.673 41.4 116.273 37.65 116.273H29.6V126.173ZM29.6 111.073H36.7C40.2 111.073 42 108.473 42 105.873C42 103.273 40.25 101.373 36.7 101.373H29.6V111.073ZM64.8824 132.173C57.5824 132.173 51.3824 127.223 51.3824 118.373C51.3824 109.523 57.5824 104.573 64.8824 104.573C72.1824 104.573 78.3824 109.523 78.3824 118.373C78.3824 127.223 72.1824 132.173 64.8824 132.173ZM57.7824 118.373C57.7824 124.373 61.1324 127.173 64.8824 127.173C68.5824 127.173 71.9324 124.373 71.9324 118.373C71.9324 112.373 68.5824 109.573 64.8824 109.573C61.1324 109.573 57.7824 112.373 57.7824 118.373ZM80.743 108.723C80.743 106.623 82.293 105.123 84.393 105.123H94.643C100.093 105.123 104.343 108.723 104.343 115.373V131.623H97.943V115.923C97.943 111.923 96.043 110.273 92.843 110.273H87.143V131.623H80.743V108.723ZM116.793 131.623C111.343 131.623 107.093 128.023 107.093 121.373V105.123H113.493V120.823C113.493 124.823 115.393 126.473 118.593 126.473H123.743V105.123H130.143V128.023C130.143 130.123 128.593 131.623 126.493 131.623H116.793ZM144.005 132.173C137.455 132.173 132.705 129.323 132.355 123.223H138.755C139.305 126.423 141.305 127.523 144.105 127.523C146.405 127.523 149.105 126.823 149.105 124.273C149.105 118.523 132.955 122.473 132.955 112.573C132.955 107.373 137.655 104.573 143.855 104.573C150.555 104.573 154.655 107.823 155.005 113.373H148.655C148.455 110.573 146.805 109.123 143.705 109.123C141.455 109.123 139.255 109.923 139.255 112.023C139.255 117.073 155.555 114.223 155.555 123.823C155.555 129.423 150.505 132.173 144.005 132.173ZM165.558 126.273C180.108 115.623 184.458 111.173 184.458 106.473C184.458 102.773 182.108 100.923 178.258 100.923C174.058 100.923 171.708 103.273 171.608 107.123H164.958C165.158 99.423 170.658 95.623 178.358 95.623C185.708 95.623 191.208 99.673 191.208 106.023C191.208 112.573 186.508 118.123 174.308 125.773V126.123L180.658 125.923H191.008V131.623H165.558V126.273ZM206.424 132.173C197.974 132.173 193.224 127.373 192.974 121.023H199.324C199.924 124.923 202.524 127.123 206.374 127.123C210.674 127.123 213.324 124.423 213.324 120.373C213.324 116.373 210.774 113.773 206.724 113.773C203.274 113.773 201.074 114.823 199.974 117.273H195.774C194.724 117.273 193.974 116.323 194.074 115.273L195.224 99.723C195.374 97.623 196.824 96.123 198.874 96.123H218.224V101.823H200.774L199.924 111.373C202.024 109.623 204.924 108.973 207.774 108.973C215.474 108.973 219.924 113.573 219.924 120.373C219.924 127.573 214.524 132.173 206.424 132.173ZM236.27 132.173C226.42 132.173 222.32 124.523 222.32 113.823C222.32 103.023 226.52 95.573 236.27 95.573C246.07 95.573 250.22 103.123 250.22 113.823C250.22 124.523 246.07 132.173 236.27 132.173ZM229.02 113.823C229.02 120.673 230.72 126.823 236.27 126.823C241.77 126.823 243.52 120.673 243.52 113.823C243.52 107.073 242.02 100.923 236.27 100.923C230.47 100.923 229.02 107.123 229.02 113.823ZM267.119 132.173C257.269 132.173 253.169 124.523 253.169 113.823C253.169 103.023 257.369 95.573 267.119 95.573C276.919 95.573 281.069 103.123 281.069 113.823C281.069 124.523 276.919 132.173 267.119 132.173ZM259.869 113.823C259.869 120.673 261.569 126.823 267.119 126.823C272.619 126.823 274.369 120.673 274.369 113.823C274.369 107.073 272.869 100.923 267.119 100.923C261.319 100.923 259.869 107.123 259.869 113.823Z"></path>
<rect fill="#26E986" rx="12" height="24" width="24" y="162.623" x="20"></rect>
<path fill="#224944" d="M27 170.154V179.094C27 179.557 27.3814 179.932 27.8518 179.932H28.418V179.932H28.7718L28.772 179.932L28.7722 179.932L38 170.852H35.872L28.418 178.186V171.551L27 170.154Z" clip-rule="evenodd" fill-rule="evenodd"></path>
<path fill="#224944" d="M61.508 180.839C58.322 180.839 56.918 178.229 56.918 174.719C56.918 170.309 58.736 168.041 61.688 168.041C64.064 168.041 65.27 169.499 65.594 171.191L63.776 171.515C63.596 170.363 62.876 169.535 61.598 169.535C59.474 169.535 58.718 171.803 58.718 174.431L58.736 174.449C59.15 173.567 60.194 172.703 61.76 172.703C64.226 172.703 65.738 174.431 65.738 176.717C65.738 179.021 64.1 180.839 61.508 180.839ZM61.544 179.363C62.822 179.363 63.92 178.427 63.92 176.753C63.92 174.971 62.804 174.197 61.562 174.197C60.104 174.197 59.06 175.259 59.06 176.717C59.06 178.265 60.158 179.363 61.544 179.363ZM71.8003 180.839C68.7043 180.839 67.1923 177.977 67.1923 174.449C67.1923 170.759 68.7043 168.059 71.8003 168.059C74.8783 168.059 76.3903 170.759 76.3903 174.449C76.3903 178.139 74.8783 180.839 71.8003 180.839ZM71.8003 179.345C73.7263 179.345 74.4643 177.311 74.4643 174.449C74.4643 171.605 73.7263 169.571 71.8003 169.571C69.8743 169.571 69.1363 171.605 69.1363 174.449C69.1363 177.311 69.8743 179.345 71.8003 179.345ZM82.166 180.623V168.239H86.666C90.482 168.239 92.678 170.579 92.678 174.413C92.678 178.247 90.482 180.623 86.666 180.623H82.166ZM86.648 179.021C89.492 179.021 90.752 177.167 90.752 174.413C90.752 171.641 89.492 169.841 86.648 169.841H84.038V179.021H86.648ZM96.8721 180.839C95.2701 180.839 93.8301 179.867 93.8301 178.211C93.8301 176.591 94.9641 175.853 96.8901 175.475L98.1141 175.223C99.0681 175.025 99.5181 174.827 99.5181 174.089C99.5181 173.351 98.9061 172.829 97.8261 172.829C96.6561 172.829 95.9001 173.549 95.8281 174.737L93.9921 174.575C94.1181 172.667 95.6481 171.515 97.8441 171.515C100.112 171.515 101.318 172.613 101.318 174.485V180.623H99.6081V179.579H99.5901C99.1761 180.263 98.2581 180.839 96.8721 180.839ZM97.3401 179.561C98.6001 179.561 99.5901 178.733 99.5901 177.257V176.177C97.7181 176.483 96.8361 176.735 96.2961 177.077C95.8821 177.329 95.6481 177.689 95.6481 178.175C95.6481 179.003 96.3321 179.561 97.3401 179.561ZM103.831 184.079C103.417 184.079 103.147 184.025 102.859 183.989V182.459C103.093 182.513 103.363 182.549 103.615 182.549C104.479 182.549 104.965 182.243 105.307 181.379L105.613 180.605L102.265 171.731H104.227L106.549 178.733L108.871 171.731H110.851L107.107 181.595C106.441 183.359 105.415 184.079 103.831 184.079ZM114.701 180.623V179.219L121.433 169.841H114.953V168.239H123.791V169.679L117.113 179.039H123.953V180.623H114.701ZM128.752 180.839C126.376 180.839 124.486 179.237 124.486 176.195C124.486 173.261 126.412 171.515 128.806 171.515C131.182 171.515 132.892 173.315 132.892 176.033V176.591H126.286C126.376 178.607 127.474 179.453 128.77 179.453C129.994 179.453 130.75 178.841 131.038 177.689L132.838 177.923C132.388 179.417 131.218 180.839 128.752 180.839ZM126.304 175.223H131.02C130.966 173.963 130.084 172.883 128.806 172.883C127.492 172.883 126.484 173.819 126.304 175.223ZM134.439 180.623V171.731H136.149V173.369C136.509 172.433 137.481 171.515 138.867 171.515C139.083 171.515 139.245 171.533 139.371 171.551V173.261C139.227 173.243 139.047 173.225 138.759 173.225C137.265 173.225 136.203 174.179 136.203 175.925V180.623H134.439ZM144.03 180.839C141.222 180.839 139.638 178.733 139.638 176.177C139.638 173.639 141.222 171.515 144.03 171.515C146.856 171.515 148.458 173.639 148.458 176.177C148.458 178.733 146.856 180.839 144.03 180.839ZM144.048 179.417C145.776 179.417 146.586 177.959 146.586 176.177C146.586 174.413 145.776 172.937 144.048 172.937C142.302 172.937 141.492 174.395 141.492 176.177C141.492 177.977 142.302 179.417 144.048 179.417ZM159.26 180.839C155.606 180.839 153.266 178.229 153.266 174.431C153.266 170.687 155.624 168.023 159.296 168.023C162.428 168.023 164.192 170.003 164.768 172.001L162.86 172.451C162.464 170.921 161.294 169.589 159.296 169.589C156.758 169.589 155.192 171.533 155.192 174.431C155.192 177.383 156.776 179.273 159.296 179.273C161.366 179.273 162.518 178.067 162.95 176.339L164.84 176.807C164.21 179.021 162.374 180.839 159.26 180.839ZM170.021 180.839C167.213 180.839 165.629 178.733 165.629 176.177C165.629 173.639 167.213 171.515 170.021 171.515C172.847 171.515 174.449 173.639 174.449 176.177C174.449 178.733 172.847 180.839 170.021 180.839ZM170.039 179.417C171.767 179.417 172.577 177.959 172.577 176.177C172.577 174.413 171.767 172.937 170.039 172.937C168.293 172.937 167.483 174.395 167.483 176.177C167.483 177.977 168.293 179.417 170.039 179.417ZM175.969 180.623V171.731H177.733V172.991H177.751C178.129 172.289 179.083 171.515 180.397 171.515C181.837 171.515 182.665 172.253 183.043 173.207C183.403 172.559 184.285 171.515 185.851 171.515C187.885 171.515 188.893 172.847 188.893 174.881V180.623H187.111V175.601C187.111 174.017 186.859 173.009 185.401 173.009C184.105 173.009 183.313 174.251 183.313 175.673V180.623H181.549V175.601C181.549 174.017 181.297 173.009 179.857 173.009C178.543 173.009 177.751 174.251 177.751 175.673V180.623H175.969ZM190.885 180.623V171.731H192.649V172.991H192.667C193.045 172.289 193.999 171.515 195.313 171.515C196.753 171.515 197.581 172.253 197.959 173.207C198.319 172.559 199.201 171.515 200.767 171.515C202.801 171.515 203.809 172.847 203.809 174.881V180.623H202.027V175.601C202.027 174.017 201.775 173.009 200.317 173.009C199.021 173.009 198.229 174.251 198.229 175.673V180.623H196.465V175.601C196.465 174.017 196.213 173.009 194.773 173.009C193.459 173.009 192.667 174.251 192.667 175.673V180.623H190.885ZM205.8 180.623V171.731H207.582V180.623H205.8ZM205.8 170.345V168.239H207.582V170.345H205.8ZM212.97 180.839C210.756 180.839 209.136 179.813 208.938 177.689L210.702 177.473C210.792 178.877 211.782 179.525 213.006 179.525C214.212 179.525 215.022 178.985 215.022 178.121C215.022 177.257 214.194 177.077 213.078 176.825L211.764 176.519C210.324 176.177 209.334 175.493 209.334 174.125C209.334 172.613 210.828 171.515 212.934 171.515C214.968 171.515 216.354 172.541 216.588 174.197L214.806 174.449C214.68 173.387 213.906 172.829 212.862 172.829C211.8 172.829 211.116 173.351 211.116 174.035C211.116 174.683 211.512 174.917 212.628 175.169L213.942 175.475C215.814 175.907 216.804 176.519 216.804 177.941C216.804 179.723 215.148 180.839 212.97 180.839ZM221.558 180.839C219.344 180.839 217.724 179.813 217.526 177.689L219.29 177.473C219.38 178.877 220.37 179.525 221.594 179.525C222.8 179.525 223.61 178.985 223.61 178.121C223.61 177.257 222.782 177.077 221.666 176.825L220.352 176.519C218.912 176.177 217.922 175.493 217.922 174.125C217.922 172.613 219.416 171.515 221.522 171.515C223.556 171.515 224.942 172.541 225.176 174.197L223.394 174.449C223.268 173.387 222.494 172.829 221.45 172.829C220.388 172.829 219.704 173.351 219.704 174.035C219.704 174.683 220.1 174.917 221.216 175.169L222.53 175.475C224.402 175.907 225.392 176.519 225.392 177.941C225.392 179.723 223.736 180.839 221.558 180.839ZM226.851 180.623V171.731H228.633V180.623H226.851ZM226.851 170.345V168.239H228.633V170.345H226.851ZM234.561 180.839C231.753 180.839 230.169 178.733 230.169 176.177C230.169 173.639 231.753 171.515 234.561 171.515C237.387 171.515 238.989 173.639 238.989 176.177C238.989 178.733 237.387 180.839 234.561 180.839ZM234.579 179.417C236.307 179.417 237.117 177.959 237.117 176.177C237.117 174.413 236.307 172.937 234.579 172.937C232.833 172.937 232.023 174.395 232.023 176.177C232.023 177.977 232.833 179.417 234.579 179.417ZM240.51 180.623V171.731H242.274V172.991H242.292C242.796 172.217 243.786 171.515 245.136 171.515C247.116 171.515 248.286 172.703 248.286 174.863V180.623H246.504V175.637C246.504 174.035 246.144 173.009 244.65 173.009C243.156 173.009 242.292 174.215 242.292 175.655V180.623H240.51ZM256.221 180.623V169.841H252.459V168.239H261.855V169.841H258.075V180.623H256.221ZM261.016 180.623V171.731H262.726V173.369C263.086 172.433 264.058 171.515 265.444 171.515C265.66 171.515 265.822 171.533 265.948 171.551V173.261C265.804 173.243 265.624 173.225 265.336 173.225C263.842 173.225 262.78 174.179 262.78 175.925V180.623H261.016ZM269.435 180.839C267.833 180.839 266.393 179.867 266.393 178.211C266.393 176.591 267.527 175.853 269.453 175.475L270.677 175.223C271.631 175.025 272.081 174.827 272.081 174.089C272.081 173.351 271.469 172.829 270.389 172.829C269.219 172.829 268.463 173.549 268.391 174.737L266.555 174.575C266.681 172.667 268.211 171.515 270.407 171.515C272.675 171.515 273.881 172.613 273.881 174.485V180.623H272.171V179.579H272.153C271.739 180.263 270.821 180.839 269.435 180.839ZM269.903 179.561C271.163 179.561 272.153 178.733 272.153 177.257V176.177C270.281 176.483 269.399 176.735 268.859 177.077C268.445 177.329 268.211 177.689 268.211 178.175C268.211 179.003 268.895 179.561 269.903 179.561ZM279.379 180.839C277.039 180.839 275.365 178.985 275.365 176.177C275.365 173.369 277.039 171.515 279.379 171.515C280.999 171.515 281.917 172.361 282.349 173.099V168.239H284.131V180.623H282.367V179.237C281.899 180.029 280.963 180.839 279.379 180.839ZM279.811 179.417C281.539 179.417 282.439 177.923 282.439 176.177C282.439 174.431 281.539 172.937 279.811 172.937C278.065 172.937 277.219 174.395 277.219 176.177C277.219 177.959 278.065 179.417 279.811 179.417ZM286.215 180.623V171.731H287.997V180.623H286.215ZM286.215 170.345V168.239H287.997V170.345H286.215ZM290.091 180.623V171.731H291.855V172.991H291.873C292.377 172.217 293.367 171.515 294.717 171.515C296.697 171.515 297.867 172.703 297.867 174.863V180.623H296.085V175.637C296.085 174.035 295.725 173.009 294.231 173.009C292.737 173.009 291.873 174.215 291.873 175.655V180.623H290.091ZM303.582 184.169C301.368 184.169 299.82 183.071 299.622 181.145L301.458 180.911C301.584 182.189 302.394 182.819 303.654 182.819C304.95 182.819 305.85 182.117 305.85 180.497V178.751C305.418 179.435 304.59 180.227 303.168 180.227C300.972 180.227 299.37 178.589 299.37 175.871C299.37 173.135 300.972 171.515 303.168 171.515C304.626 171.515 305.454 172.325 305.868 173.009V171.731H307.632V180.569C307.632 183.089 305.85 184.169 303.582 184.169ZM303.546 178.787C305.076 178.787 305.904 177.383 305.904 175.871C305.904 174.359 305.076 172.955 303.546 172.955C302.07 172.955 301.224 174.161 301.224 175.871C301.224 177.581 302.07 178.787 303.546 178.787Z"></path>
<rect fill="#26E986" rx="12" height="24" width="24" y="196.623" x="20"></rect>
<path fill="#224944" d="M27 204.154V213.094C27 213.557 27.3814 213.932 27.8518 213.932H28.418V213.932H28.7718L28.772 213.932L28.7722 213.932L38 204.852H35.872L28.418 212.186V205.551L27 204.154Z" clip-rule="evenodd" fill-rule="evenodd"></path>
<path fill="#224944" d="M61.148 214.839C58.718 214.839 57.188 213.453 56.81 211.401L58.682 211.095C58.934 212.337 59.762 213.309 61.202 213.309C62.732 213.309 63.758 212.175 63.758 210.501C63.758 208.917 62.894 207.747 61.364 207.747C60.122 207.747 59.312 208.629 59.006 209.331L57.206 209.061L57.692 202.239H64.748V203.895H59.24L59.006 207.315H59.024C59.582 206.721 60.464 206.235 61.67 206.235C64.19 206.235 65.63 208.107 65.63 210.429C65.63 212.859 63.848 214.839 61.148 214.839ZM69.3223 209.295C67.4323 209.295 66.6223 207.729 66.6223 205.695C66.6223 203.715 67.4323 202.113 69.3223 202.113C71.2303 202.113 72.0583 203.697 72.0583 205.695C72.0583 207.711 71.2303 209.295 69.3223 209.295ZM69.3223 208.161C70.2223 208.161 70.5643 207.189 70.5643 205.695C70.5643 204.201 70.2223 203.247 69.3223 203.247C68.4583 203.247 68.1163 204.183 68.1163 205.695C68.1163 207.207 68.4583 208.161 69.3223 208.161ZM69.5383 214.623L75.9103 202.239H77.4403L71.0683 214.623H69.5383ZM77.6743 214.749C75.7843 214.749 74.9743 213.183 74.9743 211.149C74.9743 209.169 75.7843 207.567 77.6743 207.567C79.5823 207.567 80.4103 209.151 80.4103 211.149C80.4103 213.165 79.5823 214.749 77.6743 214.749ZM77.6743 213.615C78.5743 213.615 78.9163 212.643 78.9163 211.149C78.9163 209.655 78.5743 208.701 77.6743 208.701C76.8103 208.701 76.4683 209.637 76.4683 211.149C76.4683 212.661 76.8103 213.615 77.6743 213.615ZM85.787 214.623V202.239H87.659V213.021H93.923V214.623H85.787ZM98.5535 214.839C95.7455 214.839 94.1615 212.733 94.1615 210.177C94.1615 207.639 95.7455 205.515 98.5535 205.515C101.38 205.515 102.982 207.639 102.982 210.177C102.982 212.733 101.38 214.839 98.5535 214.839ZM98.5715 213.417C100.3 213.417 101.11 211.959 101.11 210.177C101.11 208.413 100.3 206.937 98.5715 206.937C96.8255 206.937 96.0155 208.395 96.0155 210.177C96.0155 211.977 96.8255 213.417 98.5715 213.417ZM108.318 214.839C105.708 214.839 103.944 212.949 103.944 210.159C103.944 207.423 105.708 205.515 108.336 205.515C110.64 205.515 111.918 206.865 112.386 208.539L110.586 208.971C110.352 207.855 109.668 206.937 108.336 206.937C106.914 206.937 105.816 208.071 105.816 210.159C105.816 212.283 106.878 213.417 108.372 213.417C109.614 213.417 110.388 212.643 110.676 211.383L112.458 211.815C111.918 213.489 110.676 214.839 108.318 214.839ZM116.367 214.839C114.765 214.839 113.325 213.867 113.325 212.211C113.325 210.591 114.459 209.853 116.385 209.475L117.609 209.223C118.563 209.025 119.013 208.827 119.013 208.089C119.013 207.351 118.401 206.829 117.321 206.829C116.151 206.829 115.395 207.549 115.323 208.737L113.487 208.575C113.613 206.667 115.143 205.515 117.339 205.515C119.607 205.515 120.813 206.613 120.813 208.485V214.623H119.103V213.579H119.085C118.671 214.263 117.753 214.839 116.367 214.839ZM116.835 213.561C118.095 213.561 119.085 212.733 119.085 211.257V210.177C117.213 210.483 116.331 210.735 115.791 211.077C115.377 211.329 115.143 211.689 115.143 212.175C115.143 213.003 115.827 213.561 116.835 213.561ZM125.683 214.713C124.549 214.713 123.793 214.263 123.523 213.363C123.415 213.093 123.379 212.805 123.379 212.427V207.189H121.813V205.731H123.379V202.923H125.161V205.731H126.997V207.189H125.161V212.175C125.161 212.949 125.521 213.219 126.223 213.219C126.583 213.219 126.781 213.201 127.069 213.147V214.587C126.619 214.659 126.223 214.713 125.683 214.713ZM132.056 214.839C129.68 214.839 127.79 213.237 127.79 210.195C127.79 207.261 129.716 205.515 132.11 205.515C134.486 205.515 136.196 207.315 136.196 210.033V210.591H129.59C129.68 212.607 130.778 213.453 132.074 213.453C133.298 213.453 134.054 212.841 134.342 211.689L136.142 211.923C135.692 213.417 134.522 214.839 132.056 214.839ZM129.608 209.223H134.324C134.27 207.963 133.388 206.883 132.11 206.883C130.796 206.883 129.788 207.819 129.608 209.223ZM141.038 214.839C138.824 214.839 137.204 213.813 137.006 211.689L138.77 211.473C138.86 212.877 139.85 213.525 141.074 213.525C142.28 213.525 143.09 212.985 143.09 212.121C143.09 211.257 142.262 211.077 141.146 210.825L139.832 210.519C138.392 210.177 137.402 209.493 137.402 208.125C137.402 206.613 138.896 205.515 141.002 205.515C143.036 205.515 144.422 206.541 144.656 208.197L142.874 208.449C142.748 207.387 141.974 206.829 140.93 206.829C139.868 206.829 139.184 207.351 139.184 208.035C139.184 208.683 139.58 208.917 140.696 209.169L142.01 209.475C143.882 209.907 144.872 210.519 144.872 211.941C144.872 213.723 143.216 214.839 141.038 214.839ZM150.284 214.623V202.239H154.784C158.6 202.239 160.796 204.579 160.796 208.413C160.796 212.247 158.6 214.623 154.784 214.623H150.284ZM154.766 213.021C157.61 213.021 158.87 211.167 158.87 208.413C158.87 205.641 157.61 203.841 154.766 203.841H152.156V213.021H154.766ZM162.363 214.623V205.731H164.145V214.623H162.363ZM162.363 204.345V202.239H164.145V204.345H162.363ZM169.533 214.839C167.319 214.839 165.699 213.813 165.501 211.689L167.265 211.473C167.355 212.877 168.345 213.525 169.569 213.525C170.775 213.525 171.585 212.985 171.585 212.121C171.585 211.257 170.757 211.077 169.641 210.825L168.327 210.519C166.887 210.177 165.897 209.493 165.897 208.125C165.897 206.613 167.391 205.515 169.497 205.515C171.531 205.515 172.917 206.541 173.151 208.197L171.369 208.449C171.243 207.387 170.469 206.829 169.425 206.829C168.363 206.829 167.679 207.351 167.679 208.035C167.679 208.683 168.075 208.917 169.191 209.169L170.505 209.475C172.377 209.907 173.367 210.519 173.367 211.941C173.367 213.723 171.711 214.839 169.533 214.839ZM178.643 214.839C176.033 214.839 174.269 212.949 174.269 210.159C174.269 207.423 176.033 205.515 178.661 205.515C180.965 205.515 182.243 206.865 182.711 208.539L180.911 208.971C180.677 207.855 179.993 206.937 178.661 206.937C177.239 206.937 176.141 208.071 176.141 210.159C176.141 212.283 177.203 213.417 178.697 213.417C179.939 213.417 180.713 212.643 181.001 211.383L182.783 211.815C182.243 213.489 181.001 214.839 178.643 214.839ZM187.933 214.839C185.125 214.839 183.541 212.733 183.541 210.177C183.541 207.639 185.125 205.515 187.933 205.515C190.759 205.515 192.361 207.639 192.361 210.177C192.361 212.733 190.759 214.839 187.933 214.839ZM187.951 213.417C189.679 213.417 190.489 211.959 190.489 210.177C190.489 208.413 189.679 206.937 187.951 206.937C186.205 206.937 185.395 208.395 185.395 210.177C185.395 211.977 186.205 213.417 187.951 213.417ZM196.87 214.839C194.818 214.839 193.774 213.543 193.774 211.509V205.731H195.556V210.897C195.556 212.409 195.916 213.345 197.356 213.345C198.742 213.345 199.606 212.139 199.606 210.771V205.731H201.388V214.623H199.624V213.363H199.606C199.012 214.263 198.076 214.839 196.87 214.839ZM203.471 214.623V205.731H205.235V206.991H205.253C205.757 206.217 206.747 205.515 208.097 205.515C210.077 205.515 211.247 206.703 211.247 208.863V214.623H209.465V209.637C209.465 208.035 209.105 207.009 207.611 207.009C206.117 207.009 205.253 208.215 205.253 209.655V214.623H203.471ZM216.082 214.713C214.948 214.713 214.192 214.263 213.922 213.363C213.814 213.093 213.778 212.805 213.778 212.427V207.189H212.212V205.731H213.778V202.923H215.56V205.731H217.396V207.189H215.56V212.175C215.56 212.949 215.92 213.219 216.622 213.219C216.982 213.219 217.18 213.201 217.468 213.147V214.587C217.018 214.659 216.622 214.713 216.082 214.713ZM222.823 214.623V202.239H230.743V203.841H224.659V207.441H230.455V209.043H224.659V214.623H222.823ZM235.818 214.839C233.01 214.839 231.426 212.733 231.426 210.177C231.426 207.639 233.01 205.515 235.818 205.515C238.644 205.515 240.246 207.639 240.246 210.177C240.246 212.733 238.644 214.839 235.818 214.839ZM235.836 213.417C237.564 213.417 238.374 211.959 238.374 210.177C238.374 208.413 237.564 206.937 235.836 206.937C234.09 206.937 233.28 208.395 233.28 210.177C233.28 211.977 234.09 213.417 235.836 213.417ZM241.767 214.623V205.731H243.477V207.369C243.837 206.433 244.809 205.515 246.195 205.515C246.411 205.515 246.573 205.533 246.699 205.551V207.261C246.555 207.243 246.375 207.225 246.087 207.225C244.593 207.225 243.531 208.179 243.531 209.925V214.623H241.767ZM254.776 214.839C252.4 214.839 251.194 213.399 250.87 211.689L252.688 211.365C252.868 212.517 253.57 213.363 254.866 213.363C257.008 213.363 257.728 211.077 257.728 208.449L257.71 208.431C257.314 209.313 256.252 210.177 254.686 210.177C252.238 210.177 250.726 208.449 250.726 206.163C250.726 203.859 252.364 202.041 254.956 202.041C258.142 202.041 259.546 204.651 259.546 208.179C259.546 212.571 257.71 214.839 254.776 214.839ZM254.902 208.701C256.36 208.701 257.404 207.621 257.404 206.163C257.404 204.615 256.306 203.535 254.92 203.535C253.624 203.535 252.526 204.453 252.526 206.145C252.526 207.909 253.642 208.701 254.902 208.701ZM265.66 214.839C262.564 214.839 261.052 211.977 261.052 208.449C261.052 204.759 262.564 202.059 265.66 202.059C268.738 202.059 270.25 204.759 270.25 208.449C270.25 212.139 268.738 214.839 265.66 214.839ZM265.66 213.345C267.586 213.345 268.324 211.311 268.324 208.449C268.324 205.605 267.586 203.571 265.66 203.571C263.734 203.571 262.996 205.605 262.996 208.449C262.996 211.311 263.734 213.345 265.66 213.345ZM276.026 214.623V202.239H280.526C284.342 202.239 286.538 204.579 286.538 208.413C286.538 212.247 284.342 214.623 280.526 214.623H276.026ZM280.508 213.021C283.352 213.021 284.612 211.167 284.612 208.413C284.612 205.641 283.352 203.841 280.508 203.841H277.898V213.021H280.508ZM290.732 214.839C289.13 214.839 287.69 213.867 287.69 212.211C287.69 210.591 288.824 209.853 290.75 209.475L291.974 209.223C292.928 209.025 293.378 208.827 293.378 208.089C293.378 207.351 292.766 206.829 291.686 206.829C290.516 206.829 289.76 207.549 289.688 208.737L287.852 208.575C287.978 206.667 289.508 205.515 291.704 205.515C293.972 205.515 295.178 206.613 295.178 208.485V214.623H293.468V213.579H293.45C293.036 214.263 292.118 214.839 290.732 214.839ZM291.2 213.561C292.46 213.561 293.45 212.733 293.45 211.257V210.177C291.578 210.483 290.696 210.735 290.156 211.077C289.742 211.329 289.508 211.689 289.508 212.175C289.508 213.003 290.192 213.561 291.2 213.561ZM297.691 218.079C297.277 218.079 297.007 218.025 296.719 217.989V216.459C296.953 216.513 297.223 216.549 297.475 216.549C298.339 216.549 298.825 216.243 299.167 215.379L299.473 214.605L296.125 205.731H298.087L300.409 212.733L302.731 205.731H304.711L300.967 215.595C300.301 217.359 299.275 218.079 297.691 218.079ZM308.907 214.839C306.693 214.839 305.073 213.813 304.875 211.689L306.639 211.473C306.729 212.877 307.719 213.525 308.943 213.525C310.149 213.525 310.959 212.985 310.959 212.121C310.959 211.257 310.131 211.077 309.015 210.825L307.701 210.519C306.261 210.177 305.271 209.493 305.271 208.125C305.271 206.613 306.765 205.515 308.871 205.515C310.905 205.515 312.291 206.541 312.525 208.197L310.743 208.449C310.617 207.387 309.843 206.829 308.799 206.829C307.737 206.829 307.053 207.351 307.053 208.035C307.053 208.683 307.449 208.917 308.565 209.169L309.879 209.475C311.751 209.907 312.741 210.519 312.741 211.941C312.741 213.723 311.085 214.839 308.907 214.839Z"></path>
<rect fill="#26E986" rx="12" height="24" width="24" y="230.623" x="20"></rect>
<path fill="#224944" d="M27 238.154V247.094C27 247.557 27.3814 247.932 27.8518 247.932H28.418V247.932H28.7718L28.772 247.932L28.7722 247.932L38 238.852H35.872L28.418 246.186V239.551L27 238.154Z" clip-rule="evenodd" fill-rule="evenodd"></path>
<path fill="#224944" d="M59.456 248.623V240.235H56.45V238.921H56.648C58.592 238.921 59.744 238.399 59.744 236.365V236.239H61.292V248.623H59.456ZM65.789 243.295C63.899 243.295 63.089 241.729 63.089 239.695C63.089 237.715 63.899 236.113 65.789 236.113C67.697 236.113 68.525 237.697 68.525 239.695C68.525 241.711 67.697 243.295 65.789 243.295ZM65.789 242.161C66.689 242.161 67.031 241.189 67.031 239.695C67.031 238.201 66.689 237.247 65.789 237.247C64.925 237.247 64.583 238.183 64.583 239.695C64.583 241.207 64.925 242.161 65.789 242.161ZM66.005 248.623L72.377 236.239H73.907L67.535 248.623H66.005ZM74.141 248.749C72.251 248.749 71.441 247.183 71.441 245.149C71.441 243.169 72.251 241.567 74.141 241.567C76.049 241.567 76.877 243.151 76.877 245.149C76.877 247.165 76.049 248.749 74.141 248.749ZM74.141 247.615C75.041 247.615 75.383 246.643 75.383 245.149C75.383 243.655 75.041 242.701 74.141 242.701C73.277 242.701 72.935 243.637 72.935 245.149C72.935 246.661 73.277 247.615 74.141 247.615ZM82.2538 248.623V236.239H86.7538C90.5698 236.239 92.7658 238.579 92.7658 242.413C92.7658 246.247 90.5698 248.623 86.7538 248.623H82.2538ZM86.7358 247.021C89.5798 247.021 90.8398 245.167 90.8398 242.413C90.8398 239.641 89.5798 237.841 86.7358 237.841H84.1258V247.021H86.7358ZM98.1819 248.839C95.8059 248.839 93.9159 247.237 93.9159 244.195C93.9159 241.261 95.8419 239.515 98.2359 239.515C100.612 239.515 102.322 241.315 102.322 244.033V244.591H95.7159C95.8059 246.607 96.9039 247.453 98.1999 247.453C99.4239 247.453 100.18 246.841 100.468 245.689L102.268 245.923C101.818 247.417 100.648 248.839 98.1819 248.839ZM95.7339 243.223H100.45C100.396 241.963 99.5139 240.883 98.2359 240.883C96.9219 240.883 95.9139 241.819 95.7339 243.223ZM103.869 251.953V239.731H105.633V241.117C106.119 240.325 107.055 239.515 108.621 239.515C110.961 239.515 112.653 241.369 112.653 244.177C112.653 246.985 110.961 248.839 108.621 248.839C107.019 248.839 106.101 247.993 105.651 247.273V251.953H103.869ZM108.207 247.417C109.953 247.417 110.799 245.959 110.799 244.177C110.799 242.395 109.953 240.937 108.207 240.937C106.461 240.937 105.579 242.431 105.579 244.177C105.579 245.923 106.461 247.417 108.207 247.417ZM118.013 248.839C115.205 248.839 113.621 246.733 113.621 244.177C113.621 241.639 115.205 239.515 118.013 239.515C120.839 239.515 122.441 241.639 122.441 244.177C122.441 246.733 120.839 248.839 118.013 248.839ZM118.031 247.417C119.759 247.417 120.569 245.959 120.569 244.177C120.569 242.413 119.759 240.937 118.031 240.937C116.285 240.937 115.475 242.395 115.475 244.177C115.475 245.977 116.285 247.417 118.031 247.417ZM127.256 248.839C125.042 248.839 123.422 247.813 123.224 245.689L124.988 245.473C125.078 246.877 126.068 247.525 127.292 247.525C128.498 247.525 129.308 246.985 129.308 246.121C129.308 245.257 128.48 245.077 127.364 244.825L126.05 244.519C124.61 244.177 123.62 243.493 123.62 242.125C123.62 240.613 125.114 239.515 127.22 239.515C129.254 239.515 130.64 240.541 130.874 242.197L129.092 242.449C128.966 241.387 128.192 240.829 127.148 240.829C126.086 240.829 125.402 241.351 125.402 242.035C125.402 242.683 125.798 242.917 126.914 243.169L128.228 243.475C130.1 243.907 131.09 244.519 131.09 245.941C131.09 247.723 129.434 248.839 127.256 248.839ZM132.549 248.623V239.731H134.331V248.623H132.549ZM132.549 238.345V236.239H134.331V238.345H132.549ZM139.341 248.713C138.207 248.713 137.451 248.263 137.181 247.363C137.073 247.093 137.037 246.805 137.037 246.427V241.189H135.471V239.731H137.037V236.923H138.819V239.731H140.655V241.189H138.819V246.175C138.819 246.949 139.179 247.219 139.881 247.219C140.241 247.219 140.439 247.201 140.727 247.147V248.587C140.277 248.659 139.881 248.713 139.341 248.713ZM146.083 248.623V236.239H151.105C153.391 236.239 154.957 237.247 154.957 239.371C154.957 240.721 154.183 241.747 153.229 242.107V242.125C154.201 242.377 155.317 243.205 155.317 245.077C155.317 246.985 154.147 248.623 151.321 248.623H146.083ZM151.249 247.057C152.869 247.057 153.499 246.139 153.499 244.987C153.499 243.763 152.815 242.953 151.141 242.953H147.937V247.057H151.249ZM150.997 241.477C152.401 241.477 153.139 240.829 153.139 239.551C153.139 238.345 152.311 237.805 151.087 237.805H147.937V241.477H150.997ZM160.853 248.839C158.045 248.839 156.461 246.733 156.461 244.177C156.461 241.639 158.045 239.515 160.853 239.515C163.679 239.515 165.281 241.639 165.281 244.177C165.281 246.733 163.679 248.839 160.853 248.839ZM160.871 247.417C162.599 247.417 163.409 245.959 163.409 244.177C163.409 242.413 162.599 240.937 160.871 240.937C159.125 240.937 158.315 242.395 158.315 244.177C158.315 245.977 159.125 247.417 160.871 247.417ZM166.802 248.623V239.731H168.566V240.991H168.584C169.088 240.217 170.078 239.515 171.428 239.515C173.408 239.515 174.578 240.703 174.578 242.863V248.623H172.796V243.637C172.796 242.035 172.436 241.009 170.942 241.009C169.448 241.009 168.584 242.215 168.584 243.655V248.623H166.802ZM179.572 248.839C177.52 248.839 176.476 247.543 176.476 245.509V239.731H178.258V244.897C178.258 246.409 178.618 247.345 180.058 247.345C181.444 247.345 182.308 246.139 182.308 244.771V239.731H184.09V248.623H182.326V247.363H182.308C181.714 248.263 180.778 248.839 179.572 248.839ZM189.468 248.839C187.254 248.839 185.634 247.813 185.436 245.689L187.2 245.473C187.29 246.877 188.28 247.525 189.504 247.525C190.71 247.525 191.52 246.985 191.52 246.121C191.52 245.257 190.692 245.077 189.576 244.825L188.262 244.519C186.822 244.177 185.832 243.493 185.832 242.125C185.832 240.613 187.326 239.515 189.432 239.515C191.466 239.515 192.852 240.541 193.086 242.197L191.304 242.449C191.178 241.387 190.404 240.829 189.36 240.829C188.298 240.829 187.614 241.351 187.614 242.035C187.614 242.683 188.01 242.917 189.126 243.169L190.44 243.475C192.312 243.907 193.302 244.519 193.302 245.941C193.302 247.723 191.646 248.839 189.468 248.839Z"></path>
<rect fill="#26E986" rx="12" height="24" width="24" y="264.623" x="20"></rect>
<path fill="#224944" d="M27 272.154V281.094C27 281.557 27.3814 281.932 27.8518 281.932H28.418V281.932H28.7718L28.772 281.932L28.7722 281.932L38 272.852H35.872L28.418 280.186V273.551L27 272.154Z" clip-rule="evenodd" fill-rule="evenodd"></path>
<path fill="#224944" d="M60.986 282.839C58.61 282.839 57.404 281.399 57.08 279.689L58.898 279.365C59.078 280.517 59.78 281.363 61.076 281.363C63.218 281.363 63.938 279.077 63.938 276.449L63.92 276.431C63.524 277.313 62.462 278.177 60.896 278.177C58.448 278.177 56.936 276.449 56.936 274.163C56.936 271.859 58.574 270.041 61.166 270.041C64.352 270.041 65.756 272.651 65.756 276.179C65.756 280.571 63.92 282.839 60.986 282.839ZM61.112 276.701C62.57 276.701 63.614 275.621 63.614 274.163C63.614 272.615 62.516 271.535 61.13 271.535C59.834 271.535 58.736 272.453 58.736 274.145C58.736 275.909 59.852 276.701 61.112 276.701ZM71.8707 282.839C68.7747 282.839 67.2627 279.977 67.2627 276.449C67.2627 272.759 68.7747 270.059 71.8707 270.059C74.9487 270.059 76.4607 272.759 76.4607 276.449C76.4607 280.139 74.9487 282.839 71.8707 282.839ZM71.8707 281.345C73.7967 281.345 74.5347 279.311 74.5347 276.449C74.5347 273.605 73.7967 271.571 71.8707 271.571C69.9447 271.571 69.2067 273.605 69.2067 276.449C69.2067 279.311 69.9447 281.345 71.8707 281.345ZM82.2363 282.623V270.239H86.7363C90.5523 270.239 92.7483 272.579 92.7483 276.413C92.7483 280.247 90.5523 282.623 86.7363 282.623H82.2363ZM86.7183 281.021C89.5623 281.021 90.8223 279.167 90.8223 276.413C90.8223 273.641 89.5623 271.841 86.7183 271.841H84.1083V281.021H86.7183ZM96.9424 282.839C95.3404 282.839 93.9004 281.867 93.9004 280.211C93.9004 278.591 95.0344 277.853 96.9604 277.475L98.1844 277.223C99.1384 277.025 99.5884 276.827 99.5884 276.089C99.5884 275.351 98.9764 274.829 97.8964 274.829C96.7264 274.829 95.9704 275.549 95.8984 276.737L94.0624 276.575C94.1884 274.667 95.7184 273.515 97.9144 273.515C100.182 273.515 101.388 274.613 101.388 276.485V282.623H99.6784V281.579H99.6604C99.2464 282.263 98.3284 282.839 96.9424 282.839ZM97.4104 281.561C98.6704 281.561 99.6604 280.733 99.6604 279.257V278.177C97.7884 278.483 96.9064 278.735 96.3664 279.077C95.9524 279.329 95.7184 279.689 95.7184 280.175C95.7184 281.003 96.4024 281.561 97.4104 281.561ZM103.902 286.079C103.488 286.079 103.218 286.025 102.93 285.989V284.459C103.164 284.513 103.434 284.549 103.686 284.549C104.55 284.549 105.036 284.243 105.378 283.379L105.684 282.605L102.336 273.731H104.298L106.62 280.733L108.942 273.731H110.922L107.178 283.595C106.512 285.359 105.486 286.079 103.902 286.079ZM115.118 282.839C112.904 282.839 111.284 281.813 111.086 279.689L112.85 279.473C112.94 280.877 113.93 281.525 115.154 281.525C116.36 281.525 117.17 280.985 117.17 280.121C117.17 279.257 116.342 279.077 115.226 278.825L113.912 278.519C112.472 278.177 111.482 277.493 111.482 276.125C111.482 274.613 112.976 273.515 115.082 273.515C117.116 273.515 118.502 274.541 118.736 276.197L116.954 276.449C116.828 275.387 116.054 274.829 115.01 274.829C113.948 274.829 113.264 275.351 113.264 276.035C113.264 276.683 113.66 276.917 114.776 277.169L116.09 277.475C117.962 277.907 118.952 278.519 118.952 279.941C118.952 281.723 117.296 282.839 115.118 282.839ZM124.364 282.623V270.239H132.284V271.841H126.2V275.441H131.996V277.043H126.2V282.623H124.364ZM133.42 282.623V273.731H135.13V275.369C135.49 274.433 136.462 273.515 137.848 273.515C138.064 273.515 138.226 273.533 138.352 273.551V275.261C138.208 275.243 138.028 275.225 137.74 275.225C136.246 275.225 135.184 276.179 135.184 277.925V282.623H133.42ZM142.903 282.839C140.527 282.839 138.637 281.237 138.637 278.195C138.637 275.261 140.563 273.515 142.957 273.515C145.333 273.515 147.043 275.315 147.043 278.033V278.591H140.437C140.527 280.607 141.625 281.453 142.921 281.453C144.145 281.453 144.901 280.841 145.189 279.689L146.989 279.923C146.539 281.417 145.369 282.839 142.903 282.839ZM140.455 277.223H145.171C145.117 275.963 144.235 274.883 142.957 274.883C141.643 274.883 140.635 275.819 140.455 277.223ZM152.316 282.839C149.94 282.839 148.05 281.237 148.05 278.195C148.05 275.261 149.976 273.515 152.37 273.515C154.746 273.515 156.456 275.315 156.456 278.033V278.591H149.85C149.94 280.607 151.038 281.453 152.334 281.453C153.558 281.453 154.314 280.841 154.602 279.689L156.402 279.923C155.952 281.417 154.782 282.839 152.316 282.839ZM149.868 277.223H154.584C154.53 275.963 153.648 274.883 152.37 274.883C151.056 274.883 150.048 275.819 149.868 277.223ZM161.957 282.623V270.239H166.439C169.049 270.239 170.705 271.409 170.705 273.929C170.705 276.647 168.959 277.763 166.403 277.763H163.811V282.623H161.957ZM163.811 276.179H166.349C168.095 276.179 168.833 275.387 168.833 273.965C168.833 272.525 168.005 271.841 166.241 271.841H163.811V276.179ZM171.961 282.623V270.239H173.743V282.623H171.961ZM178.43 282.839C176.828 282.839 175.388 281.867 175.388 280.211C175.388 278.591 176.522 277.853 178.448 277.475L179.672 277.223C180.626 277.025 181.076 276.827 181.076 276.089C181.076 275.351 180.464 274.829 179.384 274.829C178.214 274.829 177.458 275.549 177.386 276.737L175.55 276.575C175.676 274.667 177.206 273.515 179.402 273.515C181.67 273.515 182.876 274.613 182.876 276.485V282.623H181.166V281.579H181.148C180.734 282.263 179.816 282.839 178.43 282.839ZM178.898 281.561C180.158 281.561 181.148 280.733 181.148 279.257V278.177C179.276 278.483 178.394 278.735 177.854 279.077C177.44 279.329 177.206 279.689 177.206 280.175C177.206 281.003 177.89 281.561 178.898 281.561ZM187.745 282.713C186.611 282.713 185.855 282.263 185.585 281.363C185.477 281.093 185.441 280.805 185.441 280.427V275.189H183.875V273.731H185.441V270.923H187.223V273.731H189.059V275.189H187.223V280.175C187.223 280.949 187.583 281.219 188.285 281.219C188.645 281.219 188.843 281.201 189.131 281.147V282.587C188.681 282.659 188.285 282.713 187.745 282.713ZM191.236 282.623V275.189H189.598V273.731H191.236V272.255C191.236 270.689 192.19 270.023 193.612 270.023C194.098 270.023 194.368 270.059 194.71 270.113V271.535C194.44 271.499 194.296 271.481 194.062 271.481C193.414 271.481 193.018 271.751 193.018 272.399V273.731H194.8V275.189H193.018V282.623H191.236ZM199.598 282.839C196.79 282.839 195.206 280.733 195.206 278.177C195.206 275.639 196.79 273.515 199.598 273.515C202.424 273.515 204.026 275.639 204.026 278.177C204.026 280.733 202.424 282.839 199.598 282.839ZM199.616 281.417C201.344 281.417 202.154 279.959 202.154 278.177C202.154 276.413 201.344 274.937 199.616 274.937C197.87 274.937 197.06 276.395 197.06 278.177C197.06 279.977 197.87 281.417 199.616 281.417ZM205.546 282.623V273.731H207.256V275.369C207.616 274.433 208.588 273.515 209.974 273.515C210.19 273.515 210.352 273.533 210.478 273.551V275.261C210.334 275.243 210.154 275.225 209.866 275.225C208.372 275.225 207.31 276.179 207.31 277.925V282.623H205.546ZM211.549 282.623V273.731H213.313V274.991H213.331C213.709 274.289 214.663 273.515 215.977 273.515C217.417 273.515 218.245 274.253 218.623 275.207C218.983 274.559 219.865 273.515 221.431 273.515C223.465 273.515 224.473 274.847 224.473 276.881V282.623H222.691V277.601C222.691 276.017 222.439 275.009 220.981 275.009C219.685 275.009 218.893 276.251 218.893 277.673V282.623H217.129V277.601C217.129 276.017 216.877 275.009 215.437 275.009C214.123 275.009 213.331 276.251 213.331 277.673V282.623H211.549ZM229.759 282.839C227.545 282.839 225.925 281.813 225.727 279.689L227.491 279.473C227.581 280.877 228.571 281.525 229.795 281.525C231.001 281.525 231.811 280.985 231.811 280.121C231.811 279.257 230.983 279.077 229.867 278.825L228.553 278.519C227.113 278.177 226.123 277.493 226.123 276.125C226.123 274.613 227.617 273.515 229.723 273.515C231.757 273.515 233.143 274.541 233.377 276.197L231.595 276.449C231.469 275.387 230.695 274.829 229.651 274.829C228.589 274.829 227.905 275.351 227.905 276.035C227.905 276.683 228.301 276.917 229.417 277.169L230.731 277.475C232.603 277.907 233.593 278.519 233.593 279.941C233.593 281.723 231.937 282.839 229.759 282.839Z"></path>
<path fill="#FF5500" d="M20 381C20 374.373 25.3726 369 32 369H373V408C373 414.627 367.627 420 361 420H20V381Z"></path>
<path fill="white" d="M93.8958 404.797C88.4688 404.797 84.2298 401.125 84.2298 394.888C84.2298 388.678 88.6308 385.033 93.8688 385.033C98.9178 385.033 102.266 387.895 102.995 391.81H99.2418C98.8098 389.974 97.1898 388.057 93.8958 388.057C90.6558 388.057 87.8478 390.217 87.8478 394.888C87.8478 399.613 90.6558 401.773 93.8958 401.773C97.5138 401.773 99.4308 400.234 99.4308 397.345V397.048H93.1668V394.267H103.049V396.697C103.049 401.368 99.5928 404.797 93.8958 404.797ZM111.289 404.797C106.996 404.797 104.08 401.746 104.08 397.345C104.08 392.971 107.077 389.893 111.289 389.893C115.582 389.893 118.822 393.025 118.471 398.236H107.536C107.833 400.585 109.237 402.178 111.289 402.178C112.828 402.178 113.962 401.314 114.475 399.964H118.066C117.229 402.934 114.61 404.797 111.289 404.797ZM107.617 395.86H114.988C114.61 393.781 113.26 392.404 111.289 392.404C109.318 392.404 108.022 393.835 107.617 395.86ZM127.049 390.19V392.998H124.106V401.773H127.049V404.5H122.621C121.46 404.5 120.65 403.69 120.65 402.556V392.998H118.598V390.19H120.65V386.545H124.106V390.19H127.049ZM132.846 387.274C132.846 386.14 133.683 385.33 134.817 385.33H140.811C144.159 385.33 146.562 387.328 146.562 390.433C146.562 391.999 145.806 393.835 144.051 394.591C146.103 395.266 147.183 397.21 147.183 399.019C147.183 402.124 144.78 404.5 141.243 404.5H132.846V387.274ZM136.356 401.557H140.703C142.647 401.557 143.592 400.315 143.592 398.857C143.592 397.507 142.728 396.211 140.703 396.211H136.356V401.557ZM136.356 393.403H140.19C142.08 393.403 143.052 391.999 143.052 390.595C143.052 389.191 142.107 388.165 140.19 388.165H136.356V393.403ZM155.409 404.797C151.467 404.797 148.119 402.124 148.119 397.345C148.119 392.566 151.467 389.893 155.409 389.893C159.351 389.893 162.699 392.566 162.699 397.345C162.699 402.124 159.351 404.797 155.409 404.797ZM151.575 397.345C151.575 400.585 153.384 402.097 155.409 402.097C157.407 402.097 159.216 400.585 159.216 397.345C159.216 394.105 157.407 392.593 155.409 392.593C153.384 392.593 151.575 394.105 151.575 397.345ZM163.973 392.134C163.973 391 164.81 390.19 165.944 390.19H171.479C174.422 390.19 176.717 392.134 176.717 395.725V404.5H173.261V396.022C173.261 393.862 172.235 392.971 170.507 392.971H167.429V404.5H163.973V392.134ZM183.441 404.5C180.498 404.5 178.203 402.556 178.203 398.965V390.19H181.659V398.668C181.659 400.828 182.685 401.719 184.413 401.719H187.194V390.19H190.65V402.556C190.65 403.69 189.813 404.5 188.679 404.5H183.441ZM198.135 404.797C194.598 404.797 192.033 403.258 191.844 399.964H195.3C195.597 401.692 196.677 402.286 198.189 402.286C199.431 402.286 200.889 401.908 200.889 400.531C200.889 397.426 192.168 399.559 192.168 394.213C192.168 391.405 194.706 389.893 198.054 389.893C201.672 389.893 203.886 391.648 204.075 394.645H200.646C200.538 393.133 199.647 392.35 197.973 392.35C196.758 392.35 195.57 392.782 195.57 393.916C195.57 396.643 204.372 395.104 204.372 400.288C204.372 403.312 201.645 404.797 198.135 404.797ZM209.773 401.611C217.63 395.86 219.979 393.457 219.979 390.919C219.979 388.921 218.71 387.922 216.631 387.922C214.363 387.922 213.094 389.191 213.04 391.27H209.449C209.557 387.112 212.527 385.06 216.685 385.06C220.654 385.06 223.624 387.247 223.624 390.676C223.624 394.213 221.086 397.21 214.498 401.341V401.53L217.927 401.422H223.516V404.5H209.773V401.611ZM231.841 404.797C227.278 404.797 224.713 402.205 224.578 398.776H228.007C228.331 400.882 229.735 402.07 231.814 402.07C234.136 402.07 235.567 400.612 235.567 398.425C235.567 396.265 234.19 394.861 232.003 394.861C230.14 394.861 228.952 395.428 228.358 396.751H226.09C225.523 396.751 225.118 396.238 225.172 395.671L225.793 387.274C225.874 386.14 226.657 385.33 227.764 385.33H238.213V388.408H228.79L228.331 393.565C229.465 392.62 231.031 392.269 232.57 392.269C236.728 392.269 239.131 394.753 239.131 398.425C239.131 402.313 236.215 404.797 231.841 404.797ZM247.958 404.797C242.639 404.797 240.425 400.666 240.425 394.888C240.425 389.056 242.693 385.033 247.958 385.033C253.25 385.033 255.491 389.11 255.491 394.888C255.491 400.666 253.25 404.797 247.958 404.797ZM244.043 394.888C244.043 398.587 244.961 401.908 247.958 401.908C250.928 401.908 251.873 398.587 251.873 394.888C251.873 391.243 251.063 387.922 247.958 387.922C244.826 387.922 244.043 391.27 244.043 394.888ZM264.617 404.797C259.298 404.797 257.084 400.666 257.084 394.888C257.084 389.056 259.352 385.033 264.617 385.033C269.909 385.033 272.15 389.11 272.15 394.888C272.15 400.666 269.909 404.797 264.617 404.797ZM260.702 394.888C260.702 398.587 261.62 401.908 264.617 401.908C267.587 401.908 268.532 398.587 268.532 394.888C268.532 391.243 267.722 387.922 264.617 387.922C261.485 387.922 260.702 391.27 260.702 394.888Z"></path>
<path fill="white" d="M306.308 388.618L288.683 406.242L286.258 403.816L303.883 386.19H292.642L289.192 382.758H308.242C309.071 382.758 309.742 383.43 309.742 384.258V386.19H309.74V403.308L306.308 399.858V388.618Z" clip-rule="evenodd" fill-rule="evenodd"></path>
<rect fill-opacity="0.3" fill="white" rx="8" height="38" width="180" y="314" x="20"></rect>
<rect stroke-dasharray="2 2" stroke-opacity="0.5" stroke="#224944" rx="7.5" height="37" width="179" y="314.5" x="20.5"></rect>
<path fill-opacity="0.75" fill="#224944" d="M36.064 339.192C32.816 339.192 30.736 336.872 30.736 333.496C30.736 330.168 32.832 327.8 36.096 327.8C38.88 327.8 40.448 329.56 40.96 331.336L39.264 331.736C38.912 330.376 37.872 329.192 36.096 329.192C33.84 329.192 32.448 330.92 32.448 333.496C32.448 336.12 33.856 337.8 36.096 337.8C37.936 337.8 38.96 336.728 39.344 335.192L41.024 335.608C40.464 337.576 38.832 339.192 36.064 339.192ZM45.6291 339.192C43.1331 339.192 41.7251 337.32 41.7251 335.048C41.7251 332.792 43.1331 330.904 45.6291 330.904C48.1411 330.904 49.5651 332.792 49.5651 335.048C49.5651 337.32 48.1411 339.192 45.6291 339.192ZM45.6451 337.928C47.1811 337.928 47.9011 336.632 47.9011 335.048C47.9011 333.48 47.1811 332.168 45.6451 332.168C44.0931 332.168 43.3731 333.464 43.3731 335.048C43.3731 336.648 44.0931 337.928 45.6451 337.928ZM54.0048 339.192C51.9248 339.192 50.4368 337.544 50.4368 335.048C50.4368 332.552 51.9248 330.904 54.0048 330.904C55.4448 330.904 56.2608 331.656 56.6448 332.312V327.992H58.2288V339H56.6608V337.768C56.2448 338.472 55.4128 339.192 54.0048 339.192ZM54.3888 337.928C55.9248 337.928 56.7248 336.6 56.7248 335.048C56.7248 333.496 55.9248 332.168 54.3888 332.168C52.8368 332.168 52.0848 333.464 52.0848 335.048C52.0848 336.632 52.8368 337.928 54.3888 337.928ZM63.3931 339.192C61.2811 339.192 59.6011 337.768 59.6011 335.064C59.6011 332.456 61.3131 330.904 63.4411 330.904C65.5531 330.904 67.0731 332.504 67.0731 334.92V335.416H61.2011C61.2811 337.208 62.2571 337.96 63.4091 337.96C64.4971 337.96 65.1691 337.416 65.4251 336.392L67.0251 336.6C66.6251 337.928 65.5851 339.192 63.3931 339.192ZM61.2171 334.2H65.4091C65.3611 333.08 64.5771 332.12 63.4411 332.12C62.2731 332.12 61.3771 332.952 61.2171 334.2ZM68.3046 339V336.952H70.0646V339H68.3046ZM68.3046 333.144V331.096H70.0646V333.144H68.3046Z"></path>
<path fill="#224944" d="M77.2186 339L74.2586 327.992H76.3706L78.4826 336.488L80.6746 327.992H82.8666L85.0586 336.488L87.1546 327.992H89.2666L86.3066 339H83.9226L81.7626 330.504L79.6186 339H77.2186ZM90.4607 339V327.992H97.6607V329.688H92.4447V332.44H97.3087V334.104H92.4447V337.304H97.8687V339H90.4607ZM99.4689 339V327.992H101.501V337.304H106.909V339H99.4689ZM112.356 339.192C109.108 339.192 106.964 336.936 106.964 333.496C106.964 330.104 109.108 327.8 112.372 327.8C115.284 327.8 116.836 329.592 117.332 331.384L115.252 331.832C114.948 330.584 114.02 329.464 112.372 329.464C110.34 329.464 109.06 331.064 109.06 333.496C109.06 335.976 110.356 337.528 112.388 337.528C114.068 337.528 115.012 336.504 115.348 335.112L117.412 335.56C116.836 337.512 115.204 339.192 112.356 339.192ZM123.552 339.192C120.352 339.192 118.112 336.92 118.112 333.496C118.112 330.072 120.352 327.8 123.552 327.8C126.768 327.8 129.008 330.072 129.008 333.496C129.008 336.92 126.768 339.192 123.552 339.192ZM123.552 337.528C125.632 337.528 126.912 335.816 126.912 333.496C126.912 331.176 125.632 329.464 123.552 329.464C121.488 329.464 120.208 331.176 120.208 333.496C120.208 335.816 121.488 337.528 123.552 337.528ZM130.571 339V327.992H133.819L136.427 337.016L139.051 327.992H142.315V339H140.379V332.712C140.379 331.672 140.411 330.712 140.443 329.832L140.411 329.816L137.627 339H135.243L132.475 329.816L132.443 329.832C132.475 330.712 132.507 331.672 132.507 332.712V339H130.571ZM144.455 339V327.992H151.655V329.688H146.439V332.44H151.303V334.104H146.439V337.304H151.863V339H144.455ZM153.015 339V337.352L153.783 336.84C156.583 335.032 158.519 333.4 158.519 331.24C158.519 330.136 157.911 329.464 156.871 329.464C155.815 329.464 155.079 330.12 155.079 331.352C155.079 331.688 155.111 331.912 155.159 332.152L153.095 331.928C153.079 331.8 153.047 331.576 153.047 331.272C153.047 329.096 154.599 327.816 156.871 327.816C159.223 327.816 160.615 329.016 160.615 331.144C160.615 333.72 158.679 335.464 156.359 336.888L155.719 337.288V337.304H160.567V339H153.015ZM165.785 339.192C163.497 339.192 162.105 337.944 161.769 336.072L163.817 335.784C164.009 336.776 164.681 337.56 165.817 337.56C167.017 337.56 167.833 336.648 167.833 335.304C167.833 334.056 167.145 333.128 165.929 333.128C164.953 333.128 164.297 333.816 164.057 334.376L162.153 334.104L162.585 327.992H169.097V329.752H164.249L164.073 332.392L164.089 332.408C164.553 331.928 165.305 331.528 166.329 331.528C168.537 331.528 169.865 333.144 169.865 335.24C169.865 337.448 168.249 339.192 165.785 339.192ZM175.16 339.192C172.328 339.192 170.936 336.696 170.936 333.512C170.936 330.232 172.328 327.816 175.16 327.816C178.008 327.816 179.384 330.232 179.384 333.512C179.384 336.792 178.008 339.192 175.16 339.192ZM175.16 337.576C176.712 337.576 177.288 335.944 177.288 333.512C177.288 331.064 176.712 329.432 175.16 329.432C173.64 329.432 173.048 331.064 173.048 333.512C173.048 335.944 173.64 337.576 175.16 337.576ZM184.809 339.192C181.977 339.192 180.585 336.696 180.585 333.512C180.585 330.232 181.977 327.816 184.809 327.816C187.657 327.816 189.033 330.232 189.033 333.512C189.033 336.792 187.657 339.192 184.809 339.192ZM184.809 337.576C186.361 337.576 186.937 335.944 186.937 333.512C186.937 331.064 186.361 329.432 184.809 329.432C183.289 329.432 182.697 331.064 182.697 333.512C182.697 335.944 183.289 337.576 184.809 337.576Z"></path>
<defs>
<linearGradient gradientUnits="userSpaceOnUse" y2="456.429" x2="19.6697" y1="0.0487105" x1="392.625" id="paint0_linear_6664_3037">
<stop stop-color="#26E986"></stop>
<stop stop-color="#F2F9E6" offset="1"></stop>
</linearGradient>
</defs>
</svg>
