<svg xmlns="http://www.w3.org/2000/svg" fill="none" viewBox="0 0 393 440" height="440" width="393">
<path fill="url(#paint0_linear_6664_3058)" d="M0 32C0 14.3269 14.3269 0 32 0H393V408C393 425.673 378.673 440 361 440H0V32Z"></path>
<path stroke-width="2" stroke-opacity="0.25" stroke="white" d="M32 1H392V408C392 425.121 378.121 439 361 439H1V32C1 14.8792 14.8792 1 32 1Z"></path>
<path fill="#224944" d="M39.65 132.173C29.9 132.173 21.75 125.423 21.75 113.823C21.75 102.373 29.9 95.573 39.65 95.573C49.4 95.573 57.5 102.373 57.5 113.823C57.5 125.373 49.4 132.173 39.65 132.173ZM28.45 113.823C28.45 122.123 33.3 126.573 39.65 126.573C45.95 126.573 50.8 122.073 50.8 113.823C50.8 105.673 45.95 101.173 39.65 101.173C33.3 101.173 28.45 105.673 28.45 113.823ZM60.0496 108.723C60.0496 106.623 61.5996 105.123 63.6996 105.123H73.0496C80.2996 105.123 85.6496 110.273 85.6496 118.373C85.6496 126.573 80.2496 131.623 73.0496 131.623H66.4496V140.623H60.0496V108.723ZM66.4496 126.473H71.9496C76.5996 126.473 79.0496 123.573 79.0496 118.373C79.0496 113.273 76.6496 110.273 71.9496 110.273H66.4496V126.473ZM101.584 105.123V110.323H96.1336V126.573H101.584V131.623H93.3836C91.2336 131.623 89.7336 130.123 89.7336 128.023V110.323H85.9336V105.123H89.7336V98.373H96.1336V105.123H101.584ZM104.075 131.623V105.123H110.475V131.623H104.075ZM104.075 101.923V96.123H110.475V101.923H104.075ZM126.425 132.173C119.125 132.173 112.925 127.223 112.925 118.373C112.925 109.523 119.125 104.573 126.425 104.573C133.725 104.573 139.925 109.523 139.925 118.373C139.925 127.223 133.725 132.173 126.425 132.173ZM119.325 118.373C119.325 124.373 122.675 127.173 126.425 127.173C130.125 127.173 133.475 124.373 133.475 118.373C133.475 112.373 130.125 109.573 126.425 109.573C122.675 109.573 119.325 112.373 119.325 118.373ZM142.286 108.723C142.286 106.623 143.836 105.123 145.936 105.123H156.186C161.636 105.123 165.886 108.723 165.886 115.373V131.623H159.486V115.923C159.486 111.923 157.586 110.273 154.386 110.273H148.686V131.623H142.286V108.723ZM179.533 132.173C172.983 132.173 168.233 129.323 167.883 123.223H174.283C174.833 126.423 176.833 127.523 179.633 127.523C181.933 127.523 184.633 126.823 184.633 124.273C184.633 118.523 168.483 122.473 168.483 112.573C168.483 107.373 173.183 104.573 179.383 104.573C186.083 104.573 190.183 107.823 190.533 113.373H184.183C183.983 110.573 182.333 109.123 179.233 109.123C176.983 109.123 174.783 109.923 174.783 112.023C174.783 117.073 191.083 114.223 191.083 123.823C191.083 129.423 186.033 132.173 179.533 132.173ZM201.635 99.723C201.635 97.623 203.185 96.123 205.285 96.123H216.385C222.585 96.123 227.035 99.823 227.035 105.573C227.035 108.473 225.635 111.873 222.385 113.273C226.185 114.523 228.185 118.123 228.185 121.473C228.185 127.223 223.735 131.623 217.185 131.623H201.635V99.723ZM208.135 126.173H216.185C219.785 126.173 221.535 123.873 221.535 121.173C221.535 118.673 219.935 116.273 216.185 116.273H208.135V126.173ZM208.135 111.073H215.235C218.735 111.073 220.535 108.473 220.535 105.873C220.535 103.273 218.785 101.373 215.235 101.373H208.135V111.073ZM243.418 132.173C236.118 132.173 229.918 127.223 229.918 118.373C229.918 109.523 236.118 104.573 243.418 104.573C250.718 104.573 256.918 109.523 256.918 118.373C256.918 127.223 250.718 132.173 243.418 132.173ZM236.318 118.373C236.318 124.373 239.668 127.173 243.418 127.173C247.118 127.173 250.468 124.373 250.468 118.373C250.468 112.373 247.118 109.573 243.418 109.573C239.668 109.573 236.318 112.373 236.318 118.373ZM259.278 108.723C259.278 106.623 260.828 105.123 262.928 105.123H273.178C278.628 105.123 282.878 108.723 282.878 115.373V131.623H276.478V115.923C276.478 111.923 274.578 110.273 271.378 110.273H265.678V131.623H259.278V108.723ZM295.329 131.623C289.879 131.623 285.629 128.023 285.629 121.373V105.123H292.029V120.823C292.029 124.823 293.929 126.473 297.129 126.473H302.279V105.123H308.679V128.023C308.679 130.123 307.129 131.623 305.029 131.623H295.329ZM322.541 132.173C315.991 132.173 311.241 129.323 310.891 123.223H317.291C317.841 126.423 319.841 127.523 322.641 127.523C324.941 127.523 327.641 126.823 327.641 124.273C327.641 118.523 311.491 122.473 311.491 112.573C311.491 107.373 316.191 104.573 322.391 104.573C329.091 104.573 333.191 107.823 333.541 113.373H327.191C326.991 110.573 325.341 109.123 322.241 109.123C319.991 109.123 317.791 109.923 317.791 112.023C317.791 117.073 334.091 114.223 334.091 123.823C334.091 129.423 329.041 132.173 322.541 132.173Z"></path>
<rect fill="#26E986" rx="12" height="24" width="24" y="162.623" x="20"></rect>
<path fill="#224944" d="M27 170.154V179.094C27 179.557 27.3814 179.932 27.8518 179.932H28.418V179.932H28.7718L28.772 179.932L28.7722 179.932L38 170.852H35.872L28.418 178.186V171.551L27 170.154Z" clip-rule="evenodd" fill-rule="evenodd"></path>
<path fill="#224944" d="M61.148 180.839C58.718 180.839 57.188 179.453 56.81 177.401L58.682 177.095C58.934 178.337 59.762 179.309 61.202 179.309C62.732 179.309 63.758 178.175 63.758 176.501C63.758 174.917 62.894 173.747 61.364 173.747C60.122 173.747 59.312 174.629 59.006 175.331L57.206 175.061L57.692 168.239H64.748V169.895H59.24L59.006 173.315H59.024C59.582 172.721 60.464 172.235 61.67 172.235C64.19 172.235 65.63 174.107 65.63 176.429C65.63 178.859 63.848 180.839 61.148 180.839ZM71.5543 180.839C68.4583 180.839 66.9463 177.977 66.9463 174.449C66.9463 170.759 68.4583 168.059 71.5543 168.059C74.6323 168.059 76.1443 170.759 76.1443 174.449C76.1443 178.139 74.6323 180.839 71.5543 180.839ZM71.5543 179.345C73.4803 179.345 74.2183 177.311 74.2183 174.449C74.2183 171.605 73.4803 169.571 71.5543 169.571C69.6283 169.571 68.8903 171.605 68.8903 174.449C68.8903 177.311 69.6283 179.345 71.5543 179.345ZM80.0189 175.295C78.1289 175.295 77.3189 173.729 77.3189 171.695C77.3189 169.715 78.1289 168.113 80.0189 168.113C81.9269 168.113 82.7549 169.697 82.7549 171.695C82.7549 173.711 81.9269 175.295 80.0189 175.295ZM80.0189 174.161C80.9189 174.161 81.2609 173.189 81.2609 171.695C81.2609 170.201 80.9189 169.247 80.0189 169.247C79.1549 169.247 78.8129 170.183 78.8129 171.695C78.8129 173.207 79.1549 174.161 80.0189 174.161ZM80.2349 180.623L86.6069 168.239H88.1369L81.7649 180.623H80.2349ZM88.3709 180.749C86.4809 180.749 85.6709 179.183 85.6709 177.149C85.6709 175.169 86.4809 173.567 88.3709 173.567C90.2789 173.567 91.1069 175.151 91.1069 177.149C91.1069 179.165 90.2789 180.749 88.3709 180.749ZM88.3709 179.615C89.2709 179.615 89.6129 178.643 89.6129 177.149C89.6129 175.655 89.2709 174.701 88.3709 174.701C87.5069 174.701 87.1649 175.637 87.1649 177.149C87.1649 178.661 87.5069 179.615 88.3709 179.615ZM101.866 180.839C98.2477 180.839 95.7997 178.211 95.7997 174.431C95.7997 170.651 98.2477 168.023 101.866 168.023C105.484 168.023 107.95 170.651 107.95 174.431C107.95 178.211 105.484 180.839 101.866 180.839ZM101.866 179.273C104.422 179.273 106.024 177.167 106.024 174.431C106.024 171.695 104.422 169.589 101.866 169.589C99.3097 169.589 97.7257 171.695 97.7257 174.431C97.7257 177.167 99.3097 179.273 101.866 179.273ZM110.302 180.623V173.189H108.664V171.731H110.302V170.255C110.302 168.689 111.256 168.023 112.678 168.023C113.164 168.023 113.434 168.059 113.776 168.113V169.535C113.506 169.499 113.362 169.481 113.128 169.481C112.48 169.481 112.084 169.751 112.084 170.399V171.731H113.866V173.189H112.084V180.623H110.302ZM115.707 180.623V173.189H114.069V171.731H115.707V170.255C115.707 168.689 116.661 168.023 118.083 168.023C118.569 168.023 118.839 168.059 119.181 168.113V169.535C118.911 169.499 118.767 169.481 118.533 169.481C117.885 169.481 117.489 169.751 117.489 170.399V171.731H119.271V173.189H117.489V180.623H115.707ZM129.693 180.839C126.075 180.839 123.627 178.211 123.627 174.431C123.627 170.651 126.075 168.023 129.693 168.023C133.311 168.023 135.777 170.651 135.777 174.431C135.777 178.211 133.311 180.839 129.693 180.839ZM129.693 179.273C132.249 179.273 133.851 177.167 133.851 174.431C133.851 171.695 132.249 169.589 129.693 169.589C127.137 169.589 125.553 171.695 125.553 174.431C125.553 177.167 127.137 179.273 129.693 179.273ZM137.287 183.953V171.731H139.051V173.117C139.537 172.325 140.473 171.515 142.039 171.515C144.379 171.515 146.071 173.369 146.071 176.177C146.071 178.985 144.379 180.839 142.039 180.839C140.437 180.839 139.519 179.993 139.069 179.273V183.953H137.287ZM141.625 179.417C143.371 179.417 144.217 177.959 144.217 176.177C144.217 174.395 143.371 172.937 141.625 172.937C139.879 172.937 138.997 174.431 138.997 176.177C138.997 177.923 139.879 179.417 141.625 179.417ZM150.39 180.713C149.256 180.713 148.5 180.263 148.23 179.363C148.122 179.093 148.086 178.805 148.086 178.427V173.189H146.52V171.731H148.086V168.923H149.868V171.731H151.704V173.189H149.868V178.175C149.868 178.949 150.228 179.219 150.93 179.219C151.29 179.219 151.488 179.201 151.776 179.147V180.587C151.326 180.659 150.93 180.713 150.39 180.713ZM153.178 180.623V171.731H154.96V180.623H153.178ZM153.178 170.345V168.239H154.96V170.345H153.178ZM160.888 180.839C158.08 180.839 156.496 178.733 156.496 176.177C156.496 173.639 158.08 171.515 160.888 171.515C163.714 171.515 165.316 173.639 165.316 176.177C165.316 178.733 163.714 180.839 160.888 180.839ZM160.906 179.417C162.634 179.417 163.444 177.959 163.444 176.177C163.444 174.413 162.634 172.937 160.906 172.937C159.16 172.937 158.35 174.395 158.35 176.177C158.35 177.977 159.16 179.417 160.906 179.417ZM166.837 180.623V171.731H168.601V172.991H168.619C169.123 172.217 170.113 171.515 171.463 171.515C173.443 171.515 174.613 172.703 174.613 174.863V180.623H172.831V175.637C172.831 174.035 172.471 173.009 170.977 173.009C169.483 173.009 168.619 174.215 168.619 175.655V180.623H166.837ZM179.914 180.839C177.7 180.839 176.08 179.813 175.882 177.689L177.646 177.473C177.736 178.877 178.726 179.525 179.95 179.525C181.156 179.525 181.966 178.985 181.966 178.121C181.966 177.257 181.138 177.077 180.022 176.825L178.708 176.519C177.268 176.177 176.278 175.493 176.278 174.125C176.278 172.613 177.772 171.515 179.878 171.515C181.912 171.515 183.298 172.541 183.532 174.197L181.75 174.449C181.624 173.387 180.85 172.829 179.806 172.829C178.744 172.829 178.06 173.351 178.06 174.035C178.06 174.683 178.456 174.917 179.572 175.169L180.886 175.475C182.758 175.907 183.748 176.519 183.748 177.941C183.748 179.723 182.092 180.839 179.914 180.839ZM194.488 180.839C190.834 180.839 188.494 178.229 188.494 174.431C188.494 170.687 190.852 168.023 194.524 168.023C197.656 168.023 199.42 170.003 199.996 172.001L198.088 172.451C197.692 170.921 196.522 169.589 194.524 169.589C191.986 169.589 190.42 171.533 190.42 174.431C190.42 177.383 192.004 179.273 194.524 179.273C196.594 179.273 197.746 178.067 198.178 176.339L200.068 176.807C199.438 179.021 197.602 180.839 194.488 180.839ZM205.249 180.839C202.441 180.839 200.857 178.733 200.857 176.177C200.857 173.639 202.441 171.515 205.249 171.515C208.075 171.515 209.677 173.639 209.677 176.177C209.677 178.733 208.075 180.839 205.249 180.839ZM205.267 179.417C206.995 179.417 207.805 177.959 207.805 176.177C207.805 174.413 206.995 172.937 205.267 172.937C203.521 172.937 202.711 174.395 202.711 176.177C202.711 177.977 203.521 179.417 205.267 179.417ZM211.197 180.623V171.731H212.961V172.991H212.979C213.483 172.217 214.473 171.515 215.823 171.515C217.803 171.515 218.973 172.703 218.973 174.863V180.623H217.191V175.637C217.191 174.035 216.831 173.009 215.337 173.009C213.843 173.009 212.979 174.215 212.979 175.655V180.623H211.197ZM223.808 180.713C222.674 180.713 221.918 180.263 221.648 179.363C221.54 179.093 221.504 178.805 221.504 178.427V173.189H219.938V171.731H221.504V168.923H223.286V171.731H225.122V173.189H223.286V178.175C223.286 178.949 223.646 179.219 224.348 179.219C224.708 179.219 224.906 179.201 225.194 179.147V180.587C224.744 180.659 224.348 180.713 223.808 180.713ZM226.596 180.623V171.731H228.306V173.369C228.666 172.433 229.638 171.515 231.024 171.515C231.24 171.515 231.402 171.533 231.528 171.551V173.261C231.384 173.243 231.204 173.225 230.916 173.225C229.422 173.225 228.36 174.179 228.36 175.925V180.623H226.596ZM235.016 180.839C233.414 180.839 231.974 179.867 231.974 178.211C231.974 176.591 233.108 175.853 235.034 175.475L236.258 175.223C237.212 175.025 237.662 174.827 237.662 174.089C237.662 173.351 237.05 172.829 235.97 172.829C234.8 172.829 234.044 173.549 233.972 174.737L232.136 174.575C232.262 172.667 233.792 171.515 235.988 171.515C238.256 171.515 239.462 172.613 239.462 174.485V180.623H237.752V179.579H237.734C237.32 180.263 236.402 180.839 235.016 180.839ZM235.484 179.561C236.744 179.561 237.734 178.733 237.734 177.257V176.177C235.862 176.483 234.98 176.735 234.44 177.077C234.026 177.329 233.792 177.689 233.792 178.175C233.792 179.003 234.476 179.561 235.484 179.561ZM245.302 180.839C242.692 180.839 240.928 178.949 240.928 176.159C240.928 173.423 242.692 171.515 245.32 171.515C247.624 171.515 248.902 172.865 249.37 174.539L247.57 174.971C247.336 173.855 246.652 172.937 245.32 172.937C243.898 172.937 242.8 174.071 242.8 176.159C242.8 178.283 243.862 179.417 245.356 179.417C246.598 179.417 247.372 178.643 247.66 177.383L249.442 177.815C248.902 179.489 247.66 180.839 245.302 180.839ZM253.604 180.713C252.47 180.713 251.714 180.263 251.444 179.363C251.336 179.093 251.3 178.805 251.3 178.427V173.189H249.734V171.731H251.3V168.923H253.082V171.731H254.918V173.189H253.082V178.175C253.082 178.949 253.442 179.219 254.144 179.219C254.504 179.219 254.702 179.201 254.99 179.147V180.587C254.54 180.659 254.144 180.713 253.604 180.713ZM259.687 180.839C257.473 180.839 255.853 179.813 255.655 177.689L257.419 177.473C257.509 178.877 258.499 179.525 259.723 179.525C260.929 179.525 261.739 178.985 261.739 178.121C261.739 177.257 260.911 177.077 259.795 176.825L258.481 176.519C257.041 176.177 256.051 175.493 256.051 174.125C256.051 172.613 257.545 171.515 259.651 171.515C261.685 171.515 263.071 172.541 263.305 174.197L261.523 174.449C261.397 173.387 260.623 172.829 259.579 172.829C258.517 172.829 257.833 173.351 257.833 174.035C257.833 174.683 258.229 174.917 259.345 175.169L260.659 175.475C262.531 175.907 263.521 176.519 263.521 177.941C263.521 179.723 261.865 180.839 259.687 180.839ZM268.933 180.623V168.239H276.853V169.841H270.769V173.441H276.565V175.043H270.769V180.623H268.933ZM281.928 180.839C279.12 180.839 277.536 178.733 277.536 176.177C277.536 173.639 279.12 171.515 281.928 171.515C284.754 171.515 286.356 173.639 286.356 176.177C286.356 178.733 284.754 180.839 281.928 180.839ZM281.946 179.417C283.674 179.417 284.484 177.959 284.484 176.177C284.484 174.413 283.674 172.937 281.946 172.937C280.2 172.937 279.39 174.395 279.39 176.177C279.39 177.977 280.2 179.417 281.946 179.417ZM287.876 180.623V171.731H289.586V173.369C289.946 172.433 290.918 171.515 292.304 171.515C292.52 171.515 292.682 171.533 292.808 171.551V173.261C292.664 173.243 292.484 173.225 292.196 173.225C290.702 173.225 289.64 174.179 289.64 175.925V180.623H287.876ZM300.885 180.839C298.509 180.839 297.303 179.399 296.979 177.689L298.797 177.365C298.977 178.517 299.679 179.363 300.975 179.363C303.117 179.363 303.837 177.077 303.837 174.449L303.819 174.431C303.423 175.313 302.361 176.177 300.795 176.177C298.347 176.177 296.835 174.449 296.835 172.163C296.835 169.859 298.473 168.041 301.065 168.041C304.251 168.041 305.655 170.651 305.655 174.179C305.655 178.571 303.819 180.839 300.885 180.839ZM301.011 174.701C302.469 174.701 303.513 173.621 303.513 172.163C303.513 170.615 302.415 169.535 301.029 169.535C299.733 169.535 298.635 170.453 298.635 172.145C298.635 173.909 299.751 174.701 301.011 174.701ZM311.77 180.839C308.674 180.839 307.162 177.977 307.162 174.449C307.162 170.759 308.674 168.059 311.77 168.059C314.848 168.059 316.36 170.759 316.36 174.449C316.36 178.139 314.848 180.839 311.77 180.839ZM311.77 179.345C313.696 179.345 314.434 177.311 314.434 174.449C314.434 171.605 313.696 169.571 311.77 169.571C309.844 169.571 309.106 171.605 309.106 174.449C309.106 177.311 309.844 179.345 311.77 179.345ZM322.135 180.623V168.239H326.635C330.451 168.239 332.647 170.579 332.647 174.413C332.647 178.247 330.451 180.623 326.635 180.623H322.135ZM326.617 179.021C329.461 179.021 330.721 177.167 330.721 174.413C330.721 171.641 329.461 169.841 326.617 169.841H324.007V179.021H326.617ZM336.842 180.839C335.24 180.839 333.8 179.867 333.8 178.211C333.8 176.591 334.934 175.853 336.86 175.475L338.084 175.223C339.038 175.025 339.488 174.827 339.488 174.089C339.488 173.351 338.876 172.829 337.796 172.829C336.626 172.829 335.87 173.549 335.798 174.737L333.962 174.575C334.088 172.667 335.618 171.515 337.814 171.515C340.082 171.515 341.288 172.613 341.288 174.485V180.623H339.578V179.579H339.56C339.146 180.263 338.228 180.839 336.842 180.839ZM337.31 179.561C338.57 179.561 339.56 178.733 339.56 177.257V176.177C337.688 176.483 336.806 176.735 336.266 177.077C335.852 177.329 335.618 177.689 335.618 178.175C335.618 179.003 336.302 179.561 337.31 179.561ZM343.801 184.079C343.387 184.079 343.117 184.025 342.829 183.989V182.459C343.063 182.513 343.333 182.549 343.585 182.549C344.449 182.549 344.935 182.243 345.277 181.379L345.583 180.605L342.235 171.731H344.197L346.519 178.733L348.841 171.731H350.821L347.077 181.595C346.411 183.359 345.385 184.079 343.801 184.079ZM355.017 180.839C352.803 180.839 351.183 179.813 350.985 177.689L352.749 177.473C352.839 178.877 353.829 179.525 355.053 179.525C356.259 179.525 357.069 178.985 357.069 178.121C357.069 177.257 356.241 177.077 355.125 176.825L353.811 176.519C352.371 176.177 351.381 175.493 351.381 174.125C351.381 172.613 352.875 171.515 354.981 171.515C357.015 171.515 358.401 172.541 358.635 174.197L356.853 174.449C356.727 173.387 355.953 172.829 354.909 172.829C353.847 172.829 353.163 173.351 353.163 174.035C353.163 174.683 353.559 174.917 354.675 175.169L355.989 175.475C357.861 175.907 358.851 176.519 358.851 177.941C358.851 179.723 357.195 180.839 355.017 180.839Z"></path>
<rect fill="#26E986" rx="12" height="24" width="24" y="196.623" x="20"></rect>
<path fill="#224944" d="M27 204.154V213.094C27 213.557 27.3814 213.932 27.8518 213.932H28.418V213.932H28.7718L28.772 213.932L28.7722 213.932L38 204.852H35.872L28.418 212.186V205.551L27 204.154Z" clip-rule="evenodd" fill-rule="evenodd"></path>
<path fill="#224944" d="M61.148 214.839C58.718 214.839 57.188 213.453 56.81 211.401L58.682 211.095C58.934 212.337 59.762 213.309 61.202 213.309C62.732 213.309 63.758 212.175 63.758 210.501C63.758 208.917 62.894 207.747 61.364 207.747C60.122 207.747 59.312 208.629 59.006 209.331L57.206 209.061L57.692 202.239H64.748V203.895H59.24L59.006 207.315H59.024C59.582 206.721 60.464 206.235 61.67 206.235C64.19 206.235 65.63 208.107 65.63 210.429C65.63 212.859 63.848 214.839 61.148 214.839ZM69.3223 209.295C67.4323 209.295 66.6223 207.729 66.6223 205.695C66.6223 203.715 67.4323 202.113 69.3223 202.113C71.2303 202.113 72.0583 203.697 72.0583 205.695C72.0583 207.711 71.2303 209.295 69.3223 209.295ZM69.3223 208.161C70.2223 208.161 70.5643 207.189 70.5643 205.695C70.5643 204.201 70.2223 203.247 69.3223 203.247C68.4583 203.247 68.1163 204.183 68.1163 205.695C68.1163 207.207 68.4583 208.161 69.3223 208.161ZM69.5383 214.623L75.9103 202.239H77.4403L71.0683 214.623H69.5383ZM77.6743 214.749C75.7843 214.749 74.9743 213.183 74.9743 211.149C74.9743 209.169 75.7843 207.567 77.6743 207.567C79.5823 207.567 80.4103 209.151 80.4103 211.149C80.4103 213.165 79.5823 214.749 77.6743 214.749ZM77.6743 213.615C78.5743 213.615 78.9163 212.643 78.9163 211.149C78.9163 209.655 78.5743 208.701 77.6743 208.701C76.8103 208.701 76.4683 209.637 76.4683 211.149C76.4683 212.661 76.8103 213.615 77.6743 213.615ZM85.787 214.623V202.239H87.659V213.021H93.923V214.623H85.787ZM98.5535 214.839C95.7455 214.839 94.1615 212.733 94.1615 210.177C94.1615 207.639 95.7455 205.515 98.5535 205.515C101.38 205.515 102.982 207.639 102.982 210.177C102.982 212.733 101.38 214.839 98.5535 214.839ZM98.5715 213.417C100.3 213.417 101.11 211.959 101.11 210.177C101.11 208.413 100.3 206.937 98.5715 206.937C96.8255 206.937 96.0155 208.395 96.0155 210.177C96.0155 211.977 96.8255 213.417 98.5715 213.417ZM108.318 214.839C105.708 214.839 103.944 212.949 103.944 210.159C103.944 207.423 105.708 205.515 108.336 205.515C110.64 205.515 111.918 206.865 112.386 208.539L110.586 208.971C110.352 207.855 109.668 206.937 108.336 206.937C106.914 206.937 105.816 208.071 105.816 210.159C105.816 212.283 106.878 213.417 108.372 213.417C109.614 213.417 110.388 212.643 110.676 211.383L112.458 211.815C111.918 213.489 110.676 214.839 108.318 214.839ZM116.367 214.839C114.765 214.839 113.325 213.867 113.325 212.211C113.325 210.591 114.459 209.853 116.385 209.475L117.609 209.223C118.563 209.025 119.013 208.827 119.013 208.089C119.013 207.351 118.401 206.829 117.321 206.829C116.151 206.829 115.395 207.549 115.323 208.737L113.487 208.575C113.613 206.667 115.143 205.515 117.339 205.515C119.607 205.515 120.813 206.613 120.813 208.485V214.623H119.103V213.579H119.085C118.671 214.263 117.753 214.839 116.367 214.839ZM116.835 213.561C118.095 213.561 119.085 212.733 119.085 211.257V210.177C117.213 210.483 116.331 210.735 115.791 211.077C115.377 211.329 115.143 211.689 115.143 212.175C115.143 213.003 115.827 213.561 116.835 213.561ZM125.683 214.713C124.549 214.713 123.793 214.263 123.523 213.363C123.415 213.093 123.379 212.805 123.379 212.427V207.189H121.813V205.731H123.379V202.923H125.161V205.731H126.997V207.189H125.161V212.175C125.161 212.949 125.521 213.219 126.223 213.219C126.583 213.219 126.781 213.201 127.069 213.147V214.587C126.619 214.659 126.223 214.713 125.683 214.713ZM132.056 214.839C129.68 214.839 127.79 213.237 127.79 210.195C127.79 207.261 129.716 205.515 132.11 205.515C134.486 205.515 136.196 207.315 136.196 210.033V210.591H129.59C129.68 212.607 130.778 213.453 132.074 213.453C133.298 213.453 134.054 212.841 134.342 211.689L136.142 211.923C135.692 213.417 134.522 214.839 132.056 214.839ZM129.608 209.223H134.324C134.27 207.963 133.388 206.883 132.11 206.883C130.796 206.883 129.788 207.819 129.608 209.223ZM141.038 214.839C138.824 214.839 137.204 213.813 137.006 211.689L138.77 211.473C138.86 212.877 139.85 213.525 141.074 213.525C142.28 213.525 143.09 212.985 143.09 212.121C143.09 211.257 142.262 211.077 141.146 210.825L139.832 210.519C138.392 210.177 137.402 209.493 137.402 208.125C137.402 206.613 138.896 205.515 141.002 205.515C143.036 205.515 144.422 206.541 144.656 208.197L142.874 208.449C142.748 207.387 141.974 206.829 140.93 206.829C139.868 206.829 139.184 207.351 139.184 208.035C139.184 208.683 139.58 208.917 140.696 209.169L142.01 209.475C143.882 209.907 144.872 210.519 144.872 211.941C144.872 213.723 143.216 214.839 141.038 214.839ZM150.284 214.623V202.239H154.784C158.6 202.239 160.796 204.579 160.796 208.413C160.796 212.247 158.6 214.623 154.784 214.623H150.284ZM154.766 213.021C157.61 213.021 158.87 211.167 158.87 208.413C158.87 205.641 157.61 203.841 154.766 203.841H152.156V213.021H154.766ZM162.363 214.623V205.731H164.145V214.623H162.363ZM162.363 204.345V202.239H164.145V204.345H162.363ZM169.533 214.839C167.319 214.839 165.699 213.813 165.501 211.689L167.265 211.473C167.355 212.877 168.345 213.525 169.569 213.525C170.775 213.525 171.585 212.985 171.585 212.121C171.585 211.257 170.757 211.077 169.641 210.825L168.327 210.519C166.887 210.177 165.897 209.493 165.897 208.125C165.897 206.613 167.391 205.515 169.497 205.515C171.531 205.515 172.917 206.541 173.151 208.197L171.369 208.449C171.243 207.387 170.469 206.829 169.425 206.829C168.363 206.829 167.679 207.351 167.679 208.035C167.679 208.683 168.075 208.917 169.191 209.169L170.505 209.475C172.377 209.907 173.367 210.519 173.367 211.941C173.367 213.723 171.711 214.839 169.533 214.839ZM178.643 214.839C176.033 214.839 174.269 212.949 174.269 210.159C174.269 207.423 176.033 205.515 178.661 205.515C180.965 205.515 182.243 206.865 182.711 208.539L180.911 208.971C180.677 207.855 179.993 206.937 178.661 206.937C177.239 206.937 176.141 208.071 176.141 210.159C176.141 212.283 177.203 213.417 178.697 213.417C179.939 213.417 180.713 212.643 181.001 211.383L182.783 211.815C182.243 213.489 181.001 214.839 178.643 214.839ZM187.933 214.839C185.125 214.839 183.541 212.733 183.541 210.177C183.541 207.639 185.125 205.515 187.933 205.515C190.759 205.515 192.361 207.639 192.361 210.177C192.361 212.733 190.759 214.839 187.933 214.839ZM187.951 213.417C189.679 213.417 190.489 211.959 190.489 210.177C190.489 208.413 189.679 206.937 187.951 206.937C186.205 206.937 185.395 208.395 185.395 210.177C185.395 211.977 186.205 213.417 187.951 213.417ZM196.87 214.839C194.818 214.839 193.774 213.543 193.774 211.509V205.731H195.556V210.897C195.556 212.409 195.916 213.345 197.356 213.345C198.742 213.345 199.606 212.139 199.606 210.771V205.731H201.388V214.623H199.624V213.363H199.606C199.012 214.263 198.076 214.839 196.87 214.839ZM203.471 214.623V205.731H205.235V206.991H205.253C205.757 206.217 206.747 205.515 208.097 205.515C210.077 205.515 211.247 206.703 211.247 208.863V214.623H209.465V209.637C209.465 208.035 209.105 207.009 207.611 207.009C206.117 207.009 205.253 208.215 205.253 209.655V214.623H203.471ZM216.082 214.713C214.948 214.713 214.192 214.263 213.922 213.363C213.814 213.093 213.778 212.805 213.778 212.427V207.189H212.212V205.731H213.778V202.923H215.56V205.731H217.396V207.189H215.56V212.175C215.56 212.949 215.92 213.219 216.622 213.219C216.982 213.219 217.18 213.201 217.468 213.147V214.587C217.018 214.659 216.622 214.713 216.082 214.713ZM222.823 214.623V202.239H230.743V203.841H224.659V207.441H230.455V209.043H224.659V214.623H222.823ZM235.818 214.839C233.01 214.839 231.426 212.733 231.426 210.177C231.426 207.639 233.01 205.515 235.818 205.515C238.644 205.515 240.246 207.639 240.246 210.177C240.246 212.733 238.644 214.839 235.818 214.839ZM235.836 213.417C237.564 213.417 238.374 211.959 238.374 210.177C238.374 208.413 237.564 206.937 235.836 206.937C234.09 206.937 233.28 208.395 233.28 210.177C233.28 211.977 234.09 213.417 235.836 213.417ZM241.767 214.623V205.731H243.477V207.369C243.837 206.433 244.809 205.515 246.195 205.515C246.411 205.515 246.573 205.533 246.699 205.551V207.261C246.555 207.243 246.375 207.225 246.087 207.225C244.593 207.225 243.531 208.179 243.531 209.925V214.623H241.767ZM254.776 214.839C252.4 214.839 251.194 213.399 250.87 211.689L252.688 211.365C252.868 212.517 253.57 213.363 254.866 213.363C257.008 213.363 257.728 211.077 257.728 208.449L257.71 208.431C257.314 209.313 256.252 210.177 254.686 210.177C252.238 210.177 250.726 208.449 250.726 206.163C250.726 203.859 252.364 202.041 254.956 202.041C258.142 202.041 259.546 204.651 259.546 208.179C259.546 212.571 257.71 214.839 254.776 214.839ZM254.902 208.701C256.36 208.701 257.404 207.621 257.404 206.163C257.404 204.615 256.306 203.535 254.92 203.535C253.624 203.535 252.526 204.453 252.526 206.145C252.526 207.909 253.642 208.701 254.902 208.701ZM265.66 214.839C262.564 214.839 261.052 211.977 261.052 208.449C261.052 204.759 262.564 202.059 265.66 202.059C268.738 202.059 270.25 204.759 270.25 208.449C270.25 212.139 268.738 214.839 265.66 214.839ZM265.66 213.345C267.586 213.345 268.324 211.311 268.324 208.449C268.324 205.605 267.586 203.571 265.66 203.571C263.734 203.571 262.996 205.605 262.996 208.449C262.996 211.311 263.734 213.345 265.66 213.345ZM276.026 214.623V202.239H280.526C284.342 202.239 286.538 204.579 286.538 208.413C286.538 212.247 284.342 214.623 280.526 214.623H276.026ZM280.508 213.021C283.352 213.021 284.612 211.167 284.612 208.413C284.612 205.641 283.352 203.841 280.508 203.841H277.898V213.021H280.508ZM290.732 214.839C289.13 214.839 287.69 213.867 287.69 212.211C287.69 210.591 288.824 209.853 290.75 209.475L291.974 209.223C292.928 209.025 293.378 208.827 293.378 208.089C293.378 207.351 292.766 206.829 291.686 206.829C290.516 206.829 289.76 207.549 289.688 208.737L287.852 208.575C287.978 206.667 289.508 205.515 291.704 205.515C293.972 205.515 295.178 206.613 295.178 208.485V214.623H293.468V213.579H293.45C293.036 214.263 292.118 214.839 290.732 214.839ZM291.2 213.561C292.46 213.561 293.45 212.733 293.45 211.257V210.177C291.578 210.483 290.696 210.735 290.156 211.077C289.742 211.329 289.508 211.689 289.508 212.175C289.508 213.003 290.192 213.561 291.2 213.561ZM297.691 218.079C297.277 218.079 297.007 218.025 296.719 217.989V216.459C296.953 216.513 297.223 216.549 297.475 216.549C298.339 216.549 298.825 216.243 299.167 215.379L299.473 214.605L296.125 205.731H298.087L300.409 212.733L302.731 205.731H304.711L300.967 215.595C300.301 217.359 299.275 218.079 297.691 218.079ZM308.907 214.839C306.693 214.839 305.073 213.813 304.875 211.689L306.639 211.473C306.729 212.877 307.719 213.525 308.943 213.525C310.149 213.525 310.959 212.985 310.959 212.121C310.959 211.257 310.131 211.077 309.015 210.825L307.701 210.519C306.261 210.177 305.271 209.493 305.271 208.125C305.271 206.613 306.765 205.515 308.871 205.515C310.905 205.515 312.291 206.541 312.525 208.197L310.743 208.449C310.617 207.387 309.843 206.829 308.799 206.829C307.737 206.829 307.053 207.351 307.053 208.035C307.053 208.683 307.449 208.917 308.565 209.169L309.879 209.475C311.751 209.907 312.741 210.519 312.741 211.941C312.741 213.723 311.085 214.839 308.907 214.839Z"></path>
<rect fill="#26E986" rx="12" height="24" width="24" y="230.623" x="20"></rect>
<path fill="#224944" d="M27 238.154V247.094C27 247.557 27.3814 247.932 27.8518 247.932H28.418V247.932H28.7718L28.772 247.932L28.7722 247.932L38 238.852H35.872L28.418 246.186V239.551L27 238.154Z" clip-rule="evenodd" fill-rule="evenodd"></path>
<path fill="#224944" d="M59.456 248.623V240.235H56.45V238.921H56.648C58.592 238.921 59.744 238.399 59.744 236.365V236.239H61.292V248.623H59.456ZM65.789 243.295C63.899 243.295 63.089 241.729 63.089 239.695C63.089 237.715 63.899 236.113 65.789 236.113C67.697 236.113 68.525 237.697 68.525 239.695C68.525 241.711 67.697 243.295 65.789 243.295ZM65.789 242.161C66.689 242.161 67.031 241.189 67.031 239.695C67.031 238.201 66.689 237.247 65.789 237.247C64.925 237.247 64.583 238.183 64.583 239.695C64.583 241.207 64.925 242.161 65.789 242.161ZM66.005 248.623L72.377 236.239H73.907L67.535 248.623H66.005ZM74.141 248.749C72.251 248.749 71.441 247.183 71.441 245.149C71.441 243.169 72.251 241.567 74.141 241.567C76.049 241.567 76.877 243.151 76.877 245.149C76.877 247.165 76.049 248.749 74.141 248.749ZM74.141 247.615C75.041 247.615 75.383 246.643 75.383 245.149C75.383 243.655 75.041 242.701 74.141 242.701C73.277 242.701 72.935 243.637 72.935 245.149C72.935 246.661 73.277 247.615 74.141 247.615ZM82.2538 248.623V236.239H86.7538C90.5698 236.239 92.7658 238.579 92.7658 242.413C92.7658 246.247 90.5698 248.623 86.7538 248.623H82.2538ZM86.7358 247.021C89.5798 247.021 90.8398 245.167 90.8398 242.413C90.8398 239.641 89.5798 237.841 86.7358 237.841H84.1258V247.021H86.7358ZM98.1819 248.839C95.8059 248.839 93.9159 247.237 93.9159 244.195C93.9159 241.261 95.8419 239.515 98.2359 239.515C100.612 239.515 102.322 241.315 102.322 244.033V244.591H95.7159C95.8059 246.607 96.9039 247.453 98.1999 247.453C99.4239 247.453 100.18 246.841 100.468 245.689L102.268 245.923C101.818 247.417 100.648 248.839 98.1819 248.839ZM95.7339 243.223H100.45C100.396 241.963 99.5139 240.883 98.2359 240.883C96.9219 240.883 95.9139 241.819 95.7339 243.223ZM103.869 251.953V239.731H105.633V241.117C106.119 240.325 107.055 239.515 108.621 239.515C110.961 239.515 112.653 241.369 112.653 244.177C112.653 246.985 110.961 248.839 108.621 248.839C107.019 248.839 106.101 247.993 105.651 247.273V251.953H103.869ZM108.207 247.417C109.953 247.417 110.799 245.959 110.799 244.177C110.799 242.395 109.953 240.937 108.207 240.937C106.461 240.937 105.579 242.431 105.579 244.177C105.579 245.923 106.461 247.417 108.207 247.417ZM118.013 248.839C115.205 248.839 113.621 246.733 113.621 244.177C113.621 241.639 115.205 239.515 118.013 239.515C120.839 239.515 122.441 241.639 122.441 244.177C122.441 246.733 120.839 248.839 118.013 248.839ZM118.031 247.417C119.759 247.417 120.569 245.959 120.569 244.177C120.569 242.413 119.759 240.937 118.031 240.937C116.285 240.937 115.475 242.395 115.475 244.177C115.475 245.977 116.285 247.417 118.031 247.417ZM127.256 248.839C125.042 248.839 123.422 247.813 123.224 245.689L124.988 245.473C125.078 246.877 126.068 247.525 127.292 247.525C128.498 247.525 129.308 246.985 129.308 246.121C129.308 245.257 128.48 245.077 127.364 244.825L126.05 244.519C124.61 244.177 123.62 243.493 123.62 242.125C123.62 240.613 125.114 239.515 127.22 239.515C129.254 239.515 130.64 240.541 130.874 242.197L129.092 242.449C128.966 241.387 128.192 240.829 127.148 240.829C126.086 240.829 125.402 241.351 125.402 242.035C125.402 242.683 125.798 242.917 126.914 243.169L128.228 243.475C130.1 243.907 131.09 244.519 131.09 245.941C131.09 247.723 129.434 248.839 127.256 248.839ZM132.549 248.623V239.731H134.331V248.623H132.549ZM132.549 238.345V236.239H134.331V238.345H132.549ZM139.341 248.713C138.207 248.713 137.451 248.263 137.181 247.363C137.073 247.093 137.037 246.805 137.037 246.427V241.189H135.471V239.731H137.037V236.923H138.819V239.731H140.655V241.189H138.819V246.175C138.819 246.949 139.179 247.219 139.881 247.219C140.241 247.219 140.439 247.201 140.727 247.147V248.587C140.277 248.659 139.881 248.713 139.341 248.713ZM146.083 248.623V236.239H151.105C153.391 236.239 154.957 237.247 154.957 239.371C154.957 240.721 154.183 241.747 153.229 242.107V242.125C154.201 242.377 155.317 243.205 155.317 245.077C155.317 246.985 154.147 248.623 151.321 248.623H146.083ZM151.249 247.057C152.869 247.057 153.499 246.139 153.499 244.987C153.499 243.763 152.815 242.953 151.141 242.953H147.937V247.057H151.249ZM150.997 241.477C152.401 241.477 153.139 240.829 153.139 239.551C153.139 238.345 152.311 237.805 151.087 237.805H147.937V241.477H150.997ZM160.853 248.839C158.045 248.839 156.461 246.733 156.461 244.177C156.461 241.639 158.045 239.515 160.853 239.515C163.679 239.515 165.281 241.639 165.281 244.177C165.281 246.733 163.679 248.839 160.853 248.839ZM160.871 247.417C162.599 247.417 163.409 245.959 163.409 244.177C163.409 242.413 162.599 240.937 160.871 240.937C159.125 240.937 158.315 242.395 158.315 244.177C158.315 245.977 159.125 247.417 160.871 247.417ZM166.802 248.623V239.731H168.566V240.991H168.584C169.088 240.217 170.078 239.515 171.428 239.515C173.408 239.515 174.578 240.703 174.578 242.863V248.623H172.796V243.637C172.796 242.035 172.436 241.009 170.942 241.009C169.448 241.009 168.584 242.215 168.584 243.655V248.623H166.802ZM179.572 248.839C177.52 248.839 176.476 247.543 176.476 245.509V239.731H178.258V244.897C178.258 246.409 178.618 247.345 180.058 247.345C181.444 247.345 182.308 246.139 182.308 244.771V239.731H184.09V248.623H182.326V247.363H182.308C181.714 248.263 180.778 248.839 179.572 248.839ZM189.468 248.839C187.254 248.839 185.634 247.813 185.436 245.689L187.2 245.473C187.29 246.877 188.28 247.525 189.504 247.525C190.71 247.525 191.52 246.985 191.52 246.121C191.52 245.257 190.692 245.077 189.576 244.825L188.262 244.519C186.822 244.177 185.832 243.493 185.832 242.125C185.832 240.613 187.326 239.515 189.432 239.515C191.466 239.515 192.852 240.541 193.086 242.197L191.304 242.449C191.178 241.387 190.404 240.829 189.36 240.829C188.298 240.829 187.614 241.351 187.614 242.035C187.614 242.683 188.01 242.917 189.126 243.169L190.44 243.475C192.312 243.907 193.302 244.519 193.302 245.941C193.302 247.723 191.646 248.839 189.468 248.839Z"></path>
<rect fill="#26E986" rx="12" height="24" width="24" y="264.623" x="20"></rect>
<path fill="#224944" d="M27 272.154V281.094C27 281.557 27.3814 281.932 27.8518 281.932H28.418V281.932H28.7718L28.772 281.932L28.7722 281.932L38 272.852H35.872L28.418 280.186V273.551L27 272.154Z" clip-rule="evenodd" fill-rule="evenodd"></path>
<path fill="#224944" d="M60.986 282.839C58.61 282.839 57.404 281.399 57.08 279.689L58.898 279.365C59.078 280.517 59.78 281.363 61.076 281.363C63.218 281.363 63.938 279.077 63.938 276.449L63.92 276.431C63.524 277.313 62.462 278.177 60.896 278.177C58.448 278.177 56.936 276.449 56.936 274.163C56.936 271.859 58.574 270.041 61.166 270.041C64.352 270.041 65.756 272.651 65.756 276.179C65.756 280.571 63.92 282.839 60.986 282.839ZM61.112 276.701C62.57 276.701 63.614 275.621 63.614 274.163C63.614 272.615 62.516 271.535 61.13 271.535C59.834 271.535 58.736 272.453 58.736 274.145C58.736 275.909 59.852 276.701 61.112 276.701ZM71.8707 282.839C68.7747 282.839 67.2627 279.977 67.2627 276.449C67.2627 272.759 68.7747 270.059 71.8707 270.059C74.9487 270.059 76.4607 272.759 76.4607 276.449C76.4607 280.139 74.9487 282.839 71.8707 282.839ZM71.8707 281.345C73.7967 281.345 74.5347 279.311 74.5347 276.449C74.5347 273.605 73.7967 271.571 71.8707 271.571C69.9447 271.571 69.2067 273.605 69.2067 276.449C69.2067 279.311 69.9447 281.345 71.8707 281.345ZM82.2363 282.623V270.239H86.7363C90.5523 270.239 92.7483 272.579 92.7483 276.413C92.7483 280.247 90.5523 282.623 86.7363 282.623H82.2363ZM86.7183 281.021C89.5623 281.021 90.8223 279.167 90.8223 276.413C90.8223 273.641 89.5623 271.841 86.7183 271.841H84.1083V281.021H86.7183ZM96.9424 282.839C95.3404 282.839 93.9004 281.867 93.9004 280.211C93.9004 278.591 95.0344 277.853 96.9604 277.475L98.1844 277.223C99.1384 277.025 99.5884 276.827 99.5884 276.089C99.5884 275.351 98.9764 274.829 97.8964 274.829C96.7264 274.829 95.9704 275.549 95.8984 276.737L94.0624 276.575C94.1884 274.667 95.7184 273.515 97.9144 273.515C100.182 273.515 101.388 274.613 101.388 276.485V282.623H99.6784V281.579H99.6604C99.2464 282.263 98.3284 282.839 96.9424 282.839ZM97.4104 281.561C98.6704 281.561 99.6604 280.733 99.6604 279.257V278.177C97.7884 278.483 96.9064 278.735 96.3664 279.077C95.9524 279.329 95.7184 279.689 95.7184 280.175C95.7184 281.003 96.4024 281.561 97.4104 281.561ZM103.902 286.079C103.488 286.079 103.218 286.025 102.93 285.989V284.459C103.164 284.513 103.434 284.549 103.686 284.549C104.55 284.549 105.036 284.243 105.378 283.379L105.684 282.605L102.336 273.731H104.298L106.62 280.733L108.942 273.731H110.922L107.178 283.595C106.512 285.359 105.486 286.079 103.902 286.079ZM115.118 282.839C112.904 282.839 111.284 281.813 111.086 279.689L112.85 279.473C112.94 280.877 113.93 281.525 115.154 281.525C116.36 281.525 117.17 280.985 117.17 280.121C117.17 279.257 116.342 279.077 115.226 278.825L113.912 278.519C112.472 278.177 111.482 277.493 111.482 276.125C111.482 274.613 112.976 273.515 115.082 273.515C117.116 273.515 118.502 274.541 118.736 276.197L116.954 276.449C116.828 275.387 116.054 274.829 115.01 274.829C113.948 274.829 113.264 275.351 113.264 276.035C113.264 276.683 113.66 276.917 114.776 277.169L116.09 277.475C117.962 277.907 118.952 278.519 118.952 279.941C118.952 281.723 117.296 282.839 115.118 282.839ZM124.364 282.623V270.239H132.284V271.841H126.2V275.441H131.996V277.043H126.2V282.623H124.364ZM133.42 282.623V273.731H135.13V275.369C135.49 274.433 136.462 273.515 137.848 273.515C138.064 273.515 138.226 273.533 138.352 273.551V275.261C138.208 275.243 138.028 275.225 137.74 275.225C136.246 275.225 135.184 276.179 135.184 277.925V282.623H133.42ZM142.903 282.839C140.527 282.839 138.637 281.237 138.637 278.195C138.637 275.261 140.563 273.515 142.957 273.515C145.333 273.515 147.043 275.315 147.043 278.033V278.591H140.437C140.527 280.607 141.625 281.453 142.921 281.453C144.145 281.453 144.901 280.841 145.189 279.689L146.989 279.923C146.539 281.417 145.369 282.839 142.903 282.839ZM140.455 277.223H145.171C145.117 275.963 144.235 274.883 142.957 274.883C141.643 274.883 140.635 275.819 140.455 277.223ZM152.316 282.839C149.94 282.839 148.05 281.237 148.05 278.195C148.05 275.261 149.976 273.515 152.37 273.515C154.746 273.515 156.456 275.315 156.456 278.033V278.591H149.85C149.94 280.607 151.038 281.453 152.334 281.453C153.558 281.453 154.314 280.841 154.602 279.689L156.402 279.923C155.952 281.417 154.782 282.839 152.316 282.839ZM149.868 277.223H154.584C154.53 275.963 153.648 274.883 152.37 274.883C151.056 274.883 150.048 275.819 149.868 277.223ZM161.957 282.623V270.239H166.439C169.049 270.239 170.705 271.409 170.705 273.929C170.705 276.647 168.959 277.763 166.403 277.763H163.811V282.623H161.957ZM163.811 276.179H166.349C168.095 276.179 168.833 275.387 168.833 273.965C168.833 272.525 168.005 271.841 166.241 271.841H163.811V276.179ZM171.961 282.623V270.239H173.743V282.623H171.961ZM178.43 282.839C176.828 282.839 175.388 281.867 175.388 280.211C175.388 278.591 176.522 277.853 178.448 277.475L179.672 277.223C180.626 277.025 181.076 276.827 181.076 276.089C181.076 275.351 180.464 274.829 179.384 274.829C178.214 274.829 177.458 275.549 177.386 276.737L175.55 276.575C175.676 274.667 177.206 273.515 179.402 273.515C181.67 273.515 182.876 274.613 182.876 276.485V282.623H181.166V281.579H181.148C180.734 282.263 179.816 282.839 178.43 282.839ZM178.898 281.561C180.158 281.561 181.148 280.733 181.148 279.257V278.177C179.276 278.483 178.394 278.735 177.854 279.077C177.44 279.329 177.206 279.689 177.206 280.175C177.206 281.003 177.89 281.561 178.898 281.561ZM187.745 282.713C186.611 282.713 185.855 282.263 185.585 281.363C185.477 281.093 185.441 280.805 185.441 280.427V275.189H183.875V273.731H185.441V270.923H187.223V273.731H189.059V275.189H187.223V280.175C187.223 280.949 187.583 281.219 188.285 281.219C188.645 281.219 188.843 281.201 189.131 281.147V282.587C188.681 282.659 188.285 282.713 187.745 282.713ZM191.236 282.623V275.189H189.598V273.731H191.236V272.255C191.236 270.689 192.19 270.023 193.612 270.023C194.098 270.023 194.368 270.059 194.71 270.113V271.535C194.44 271.499 194.296 271.481 194.062 271.481C193.414 271.481 193.018 271.751 193.018 272.399V273.731H194.8V275.189H193.018V282.623H191.236ZM199.598 282.839C196.79 282.839 195.206 280.733 195.206 278.177C195.206 275.639 196.79 273.515 199.598 273.515C202.424 273.515 204.026 275.639 204.026 278.177C204.026 280.733 202.424 282.839 199.598 282.839ZM199.616 281.417C201.344 281.417 202.154 279.959 202.154 278.177C202.154 276.413 201.344 274.937 199.616 274.937C197.87 274.937 197.06 276.395 197.06 278.177C197.06 279.977 197.87 281.417 199.616 281.417ZM205.546 282.623V273.731H207.256V275.369C207.616 274.433 208.588 273.515 209.974 273.515C210.19 273.515 210.352 273.533 210.478 273.551V275.261C210.334 275.243 210.154 275.225 209.866 275.225C208.372 275.225 207.31 276.179 207.31 277.925V282.623H205.546ZM211.549 282.623V273.731H213.313V274.991H213.331C213.709 274.289 214.663 273.515 215.977 273.515C217.417 273.515 218.245 274.253 218.623 275.207C218.983 274.559 219.865 273.515 221.431 273.515C223.465 273.515 224.473 274.847 224.473 276.881V282.623H222.691V277.601C222.691 276.017 222.439 275.009 220.981 275.009C219.685 275.009 218.893 276.251 218.893 277.673V282.623H217.129V277.601C217.129 276.017 216.877 275.009 215.437 275.009C214.123 275.009 213.331 276.251 213.331 277.673V282.623H211.549ZM229.759 282.839C227.545 282.839 225.925 281.813 225.727 279.689L227.491 279.473C227.581 280.877 228.571 281.525 229.795 281.525C231.001 281.525 231.811 280.985 231.811 280.121C231.811 279.257 230.983 279.077 229.867 278.825L228.553 278.519C227.113 278.177 226.123 277.493 226.123 276.125C226.123 274.613 227.617 273.515 229.723 273.515C231.757 273.515 233.143 274.541 233.377 276.197L231.595 276.449C231.469 275.387 230.695 274.829 229.651 274.829C228.589 274.829 227.905 275.351 227.905 276.035C227.905 276.683 228.301 276.917 229.417 277.169L230.731 277.475C232.603 277.907 233.593 278.519 233.593 279.941C233.593 281.723 231.937 282.839 229.759 282.839Z"></path>
<path fill="#FF5500" d="M20 381C20 374.373 25.3726 369 32 369H373V408C373 414.627 367.627 420 361 420H20V381Z"></path>
<path fill="white" d="M79.8958 404.797C74.4688 404.797 70.2298 401.125 70.2298 394.888C70.2298 388.678 74.6308 385.033 79.8688 385.033C84.9178 385.033 88.2658 387.895 88.9948 391.81H85.2418C84.8098 389.974 83.1898 388.057 79.8958 388.057C76.6558 388.057 73.8478 390.217 73.8478 394.888C73.8478 399.613 76.6558 401.773 79.8958 401.773C83.5138 401.773 85.4308 400.234 85.4308 397.345V397.048H79.1668V394.267H89.0488V396.697C89.0488 401.368 85.5928 404.797 79.8958 404.797ZM97.2893 404.797C92.9963 404.797 90.0803 401.746 90.0803 397.345C90.0803 392.971 93.0773 389.893 97.2893 389.893C101.582 389.893 104.822 393.025 104.471 398.236H93.5363C93.8333 400.585 95.2373 402.178 97.2893 402.178C98.8283 402.178 99.9623 401.314 100.475 399.964H104.066C103.229 402.934 100.61 404.797 97.2893 404.797ZM93.6173 395.86H100.988C100.61 393.781 99.2603 392.404 97.2893 392.404C95.3183 392.404 94.0223 393.835 93.6173 395.86ZM113.049 390.19V392.998H110.106V401.773H113.049V404.5H108.621C107.46 404.5 106.65 403.69 106.65 402.556V392.998H104.598V390.19H106.65V386.545H110.106V390.19H113.049ZM127.783 404.797C122.518 404.797 118.117 401.152 118.117 394.888C118.117 388.705 122.518 385.033 127.783 385.033C133.048 385.033 137.422 388.705 137.422 394.888C137.422 401.125 133.048 404.797 127.783 404.797ZM121.735 394.888C121.735 399.37 124.354 401.773 127.783 401.773C131.185 401.773 133.804 399.343 133.804 394.888C133.804 390.487 131.185 388.057 127.783 388.057C124.354 388.057 121.735 390.487 121.735 394.888ZM138.799 392.134C138.799 391 139.636 390.19 140.77 390.19H145.819C149.734 390.19 152.623 392.971 152.623 397.345C152.623 401.773 149.707 404.5 145.819 404.5H142.255V409.36H138.799V392.134ZM142.255 401.719H145.225C147.736 401.719 149.059 400.153 149.059 397.345C149.059 394.591 147.763 392.971 145.225 392.971H142.255V401.719ZM161.227 390.19V392.998H158.284V401.773H161.227V404.5H156.799C155.638 404.5 154.828 403.69 154.828 402.556V392.998H152.776V390.19H154.828V386.545H158.284V390.19H161.227ZM162.573 404.5V390.19H166.029V404.5H162.573ZM162.573 388.462V385.33H166.029V388.462H162.573ZM174.642 404.797C170.7 404.797 167.352 402.124 167.352 397.345C167.352 392.566 170.7 389.893 174.642 389.893C178.584 389.893 181.932 392.566 181.932 397.345C181.932 402.124 178.584 404.797 174.642 404.797ZM170.808 397.345C170.808 400.585 172.617 402.097 174.642 402.097C176.64 402.097 178.449 400.585 178.449 397.345C178.449 394.105 176.64 392.593 174.642 392.593C172.617 392.593 170.808 394.105 170.808 397.345ZM183.207 392.134C183.207 391 184.044 390.19 185.178 390.19H190.713C193.656 390.19 195.951 392.134 195.951 395.725V404.5H192.495V396.022C192.495 393.862 191.469 392.971 189.741 392.971H186.663V404.5H183.207V392.134ZM203.32 404.797C199.783 404.797 197.218 403.258 197.029 399.964H200.485C200.782 401.692 201.862 402.286 203.374 402.286C204.616 402.286 206.074 401.908 206.074 400.531C206.074 397.426 197.353 399.559 197.353 394.213C197.353 391.405 199.891 389.893 203.239 389.893C206.857 389.893 209.071 391.648 209.26 394.645H205.831C205.723 393.133 204.832 392.35 203.158 392.35C201.943 392.35 200.755 392.782 200.755 393.916C200.755 396.643 209.557 395.104 209.557 400.288C209.557 403.312 206.83 404.797 203.32 404.797ZM215.255 387.274C215.255 386.14 216.092 385.33 217.226 385.33H223.22C226.568 385.33 228.971 387.328 228.971 390.433C228.971 391.999 228.215 393.835 226.46 394.591C228.512 395.266 229.592 397.21 229.592 399.019C229.592 402.124 227.189 404.5 223.652 404.5H215.255V387.274ZM218.765 401.557H223.112C225.056 401.557 226.001 400.315 226.001 398.857C226.001 397.507 225.137 396.211 223.112 396.211H218.765V401.557ZM218.765 393.403H222.599C224.489 393.403 225.461 391.999 225.461 390.595C225.461 389.191 224.516 388.165 222.599 388.165H218.765V393.403ZM237.818 404.797C233.876 404.797 230.528 402.124 230.528 397.345C230.528 392.566 233.876 389.893 237.818 389.893C241.76 389.893 245.108 392.566 245.108 397.345C245.108 402.124 241.76 404.797 237.818 404.797ZM233.984 397.345C233.984 400.585 235.793 402.097 237.818 402.097C239.816 402.097 241.625 400.585 241.625 397.345C241.625 394.105 239.816 392.593 237.818 392.593C235.793 392.593 233.984 394.105 233.984 397.345ZM246.382 392.134C246.382 391 247.219 390.19 248.353 390.19H253.888C256.831 390.19 259.126 392.134 259.126 395.725V404.5H255.67V396.022C255.67 393.862 254.644 392.971 252.916 392.971H249.838V404.5H246.382V392.134ZM265.85 404.5C262.907 404.5 260.612 402.556 260.612 398.965V390.19H264.068V398.668C264.068 400.828 265.094 401.719 266.822 401.719H269.603V390.19H273.059V402.556C273.059 403.69 272.222 404.5 271.088 404.5H265.85ZM280.544 404.797C277.007 404.797 274.442 403.258 274.253 399.964H277.709C278.006 401.692 279.086 402.286 280.598 402.286C281.84 402.286 283.298 401.908 283.298 400.531C283.298 397.426 274.577 399.559 274.577 394.213C274.577 391.405 277.115 389.893 280.463 389.893C284.081 389.893 286.295 391.648 286.484 394.645H283.055C282.947 393.133 282.056 392.35 280.382 392.35C279.167 392.35 277.979 392.782 277.979 393.916C277.979 396.643 286.781 395.104 286.781 400.288C286.781 403.312 284.054 404.797 280.544 404.797Z"></path>
<path fill="white" d="M320.308 388.618L302.683 406.242L300.258 403.816L317.883 386.19H306.642L303.192 382.758H322.242C323.071 382.758 323.742 383.43 323.742 384.258V386.19H323.74V403.308L320.308 399.858V388.618Z" clip-rule="evenodd" fill-rule="evenodd"></path>
<rect fill-opacity="0.3" fill="white" rx="8" height="38" width="170" y="314" x="20"></rect>
<rect stroke-dasharray="2 2" stroke-opacity="0.5" stroke="#224944" rx="7.5" height="37" width="169" y="314.5" x="20.5"></rect>
<path fill-opacity="0.75" fill="#224944" d="M36.064 339.192C32.816 339.192 30.736 336.872 30.736 333.496C30.736 330.168 32.832 327.8 36.096 327.8C38.88 327.8 40.448 329.56 40.96 331.336L39.264 331.736C38.912 330.376 37.872 329.192 36.096 329.192C33.84 329.192 32.448 330.92 32.448 333.496C32.448 336.12 33.856 337.8 36.096 337.8C37.936 337.8 38.96 336.728 39.344 335.192L41.024 335.608C40.464 337.576 38.832 339.192 36.064 339.192ZM45.6291 339.192C43.1331 339.192 41.7251 337.32 41.7251 335.048C41.7251 332.792 43.1331 330.904 45.6291 330.904C48.1411 330.904 49.5651 332.792 49.5651 335.048C49.5651 337.32 48.1411 339.192 45.6291 339.192ZM45.6451 337.928C47.1811 337.928 47.9011 336.632 47.9011 335.048C47.9011 333.48 47.1811 332.168 45.6451 332.168C44.0931 332.168 43.3731 333.464 43.3731 335.048C43.3731 336.648 44.0931 337.928 45.6451 337.928ZM54.0048 339.192C51.9248 339.192 50.4368 337.544 50.4368 335.048C50.4368 332.552 51.9248 330.904 54.0048 330.904C55.4448 330.904 56.2608 331.656 56.6448 332.312V327.992H58.2288V339H56.6608V337.768C56.2448 338.472 55.4128 339.192 54.0048 339.192ZM54.3888 337.928C55.9248 337.928 56.7248 336.6 56.7248 335.048C56.7248 333.496 55.9248 332.168 54.3888 332.168C52.8368 332.168 52.0848 333.464 52.0848 335.048C52.0848 336.632 52.8368 337.928 54.3888 337.928ZM63.3931 339.192C61.2811 339.192 59.6011 337.768 59.6011 335.064C59.6011 332.456 61.3131 330.904 63.4411 330.904C65.5531 330.904 67.0731 332.504 67.0731 334.92V335.416H61.2011C61.2811 337.208 62.2571 337.96 63.4091 337.96C64.4971 337.96 65.1691 337.416 65.4251 336.392L67.0251 336.6C66.6251 337.928 65.5851 339.192 63.3931 339.192ZM61.2171 334.2H65.4091C65.3611 333.08 64.5771 332.12 63.4411 332.12C62.2731 332.12 61.3771 332.952 61.2171 334.2ZM68.3046 339V336.952H70.0646V339H68.3046ZM68.3046 333.144V331.096H70.0646V333.144H68.3046Z"></path>
<path fill="#224944" d="M80.0666 339.192C76.8666 339.192 74.6266 336.92 74.6266 333.496C74.6266 330.072 76.8666 327.8 80.0666 327.8C83.2826 327.8 85.5226 330.072 85.5226 333.496C85.5226 336.92 83.2826 339.192 80.0666 339.192ZM80.0666 337.528C82.1466 337.528 83.4266 335.816 83.4266 333.496C83.4266 331.176 82.1466 329.464 80.0666 329.464C78.0026 329.464 76.7226 331.176 76.7226 333.496C76.7226 335.816 78.0026 337.528 80.0666 337.528ZM87.0857 339V327.992H91.3097C93.6457 327.992 95.1337 329.08 95.1337 331.336C95.1337 333.736 93.6137 334.824 91.3257 334.824H89.1017V339H87.0857ZM89.1017 333.16H91.1497C92.5257 333.16 93.1177 332.52 93.1177 331.4C93.1177 330.248 92.4777 329.688 91.0697 329.688H89.1017V333.16ZM98.678 339V329.688H95.414V327.992H103.99V329.688H100.726V339H98.678ZM105.133 339V327.992H107.165V339H105.133ZM114.177 339.192C110.977 339.192 108.737 336.92 108.737 333.496C108.737 330.072 110.977 327.8 114.177 327.8C117.393 327.8 119.633 330.072 119.633 333.496C119.633 336.92 117.393 339.192 114.177 339.192ZM114.177 337.528C116.257 337.528 117.537 335.816 117.537 333.496C117.537 331.176 116.257 329.464 114.177 329.464C112.113 329.464 110.833 331.176 110.833 333.496C110.833 335.816 112.113 337.528 114.177 337.528ZM121.196 339V327.992H123.964L128.94 336.936V327.992H130.828V339H128.076L123.084 330.056V339H121.196ZM137.13 339.192C134.538 339.192 132.506 338.024 132.218 335.384L134.33 335.144C134.522 336.84 135.674 337.64 137.194 337.64C138.554 337.64 139.594 336.984 139.594 335.928C139.594 335.064 139.05 334.712 137.642 334.408L136.154 334.072C134.154 333.624 132.618 332.84 132.618 331C132.618 329.16 134.41 327.8 136.954 327.8C139.594 327.8 141.194 329.144 141.45 331.096L139.306 331.352C139.146 330.088 138.234 329.352 136.922 329.352C135.594 329.352 134.81 330.04 134.81 330.888C134.81 331.752 135.546 332.008 136.826 332.296L138.33 332.632C140.25 333.064 141.77 333.768 141.77 335.672C141.77 337.912 139.658 339.192 137.13 339.192ZM142.811 339V337.352L143.579 336.84C146.379 335.032 148.315 333.4 148.315 331.24C148.315 330.136 147.707 329.464 146.667 329.464C145.611 329.464 144.875 330.12 144.875 331.352C144.875 331.688 144.907 331.912 144.955 332.152L142.891 331.928C142.875 331.8 142.843 331.576 142.843 331.272C142.843 329.096 144.395 327.816 146.667 327.816C149.019 327.816 150.411 329.016 150.411 331.144C150.411 333.72 148.475 335.464 146.155 336.888L145.515 337.288V337.304H150.363V339H142.811ZM155.582 339.192C153.294 339.192 151.902 337.944 151.566 336.072L153.614 335.784C153.806 336.776 154.478 337.56 155.614 337.56C156.814 337.56 157.63 336.648 157.63 335.304C157.63 334.056 156.942 333.128 155.726 333.128C154.75 333.128 154.094 333.816 153.854 334.376L151.95 334.104L152.382 327.992H158.894V329.752H154.046L153.87 332.392L153.886 332.408C154.35 331.928 155.102 331.528 156.126 331.528C158.334 331.528 159.662 333.144 159.662 335.24C159.662 337.448 158.046 339.192 155.582 339.192ZM164.957 339.192C162.125 339.192 160.733 336.696 160.733 333.512C160.733 330.232 162.125 327.816 164.957 327.816C167.805 327.816 169.181 330.232 169.181 333.512C169.181 336.792 167.805 339.192 164.957 339.192ZM164.957 337.576C166.509 337.576 167.085 335.944 167.085 333.512C167.085 331.064 166.509 329.432 164.957 329.432C163.437 329.432 162.845 331.064 162.845 333.512C162.845 335.944 163.437 337.576 164.957 337.576ZM174.606 339.192C171.774 339.192 170.382 336.696 170.382 333.512C170.382 330.232 171.774 327.816 174.606 327.816C177.454 327.816 178.83 330.232 178.83 333.512C178.83 336.792 177.454 339.192 174.606 339.192ZM174.606 337.576C176.158 337.576 176.734 335.944 176.734 333.512C176.734 331.064 176.158 329.432 174.606 329.432C173.086 329.432 172.494 331.064 172.494 333.512C172.494 335.944 173.086 337.576 174.606 337.576Z"></path>
<path fill-opacity="0.5" fill="white" d="M20 36C20 27.1634 27.1634 20 36 20H286V50C286 58.8366 278.837 66 270 66H20V36Z"></path>
<path fill="#224944" d="M45.66 50V36.24H49.06L52.72 47.84L56.36 36.24H59.78V50H57.76V41.26C57.76 40 57.8 38.7 57.82 38.08L57.8 38.06L53.9 50H51.52L47.64 38.06L47.62 38.08C47.64 38.7 47.68 40 47.68 41.26V50H45.66ZM62.2256 50V40.12H64.2056V50H62.2256ZM62.2256 38.58V36.24H64.2056V38.58H62.2256ZM66.5327 50V40.12H68.4927V41.52H68.5127C69.0727 40.66 70.1727 39.88 71.6727 39.88C73.8727 39.88 75.1727 41.2 75.1727 43.6V50H73.1927V44.46C73.1927 42.68 72.7927 41.54 71.1327 41.54C69.4727 41.54 68.5127 42.88 68.5127 44.48V50H66.5327ZM77.4022 50V40.12H79.3822V50H77.4022ZM77.4022 38.58V36.24H79.3822V38.58H77.4022ZM81.7092 50V40.12H83.6692V41.52H83.6892C84.1092 40.74 85.1692 39.88 86.6292 39.88C88.2292 39.88 89.1492 40.7 89.5692 41.76C89.9692 41.04 90.9492 39.88 92.6892 39.88C94.9492 39.88 96.0692 41.36 96.0692 43.62V50H94.0892V44.42C94.0892 42.66 93.8092 41.54 92.1892 41.54C90.7492 41.54 89.8692 42.92 89.8692 44.5V50H87.9092V44.42C87.9092 42.66 87.6292 41.54 86.0292 41.54C84.5692 41.54 83.6892 42.92 83.6892 44.5V50H81.7092ZM101.602 50.24C99.3219 50.24 98.1619 48.8 98.1619 46.54V40.12H100.142V45.86C100.142 47.54 100.542 48.58 102.142 48.58C103.682 48.58 104.642 47.24 104.642 45.72V40.12H106.622V50H104.662V48.6H104.642C103.982 49.6 102.942 50.24 101.602 50.24ZM108.937 50V40.12H110.897V41.52H110.917C111.337 40.74 112.397 39.88 113.857 39.88C115.457 39.88 116.377 40.7 116.797 41.76C117.197 41.04 118.177 39.88 119.917 39.88C122.177 39.88 123.297 41.36 123.297 43.62V50H121.317V44.42C121.317 42.66 121.037 41.54 119.417 41.54C117.977 41.54 117.097 42.92 117.097 44.5V50H115.137V44.42C115.137 42.66 114.857 41.54 113.257 41.54C111.797 41.54 110.917 42.92 110.917 44.5V50H108.937ZM129.901 50V36.24H134.901C139.141 36.24 141.581 38.84 141.581 43.1C141.581 47.36 139.141 50 134.901 50H129.901ZM134.881 48.22C138.041 48.22 139.441 46.16 139.441 43.1C139.441 40.02 138.041 38.02 134.881 38.02H131.981V48.22H134.881ZM147.599 50.24C144.959 50.24 142.859 48.46 142.859 45.08C142.859 41.82 144.999 39.88 147.659 39.88C150.299 39.88 152.199 41.88 152.199 44.9V45.52H144.859C144.959 47.76 146.179 48.7 147.619 48.7C148.979 48.7 149.819 48.02 150.139 46.74L152.139 47C151.639 48.66 150.339 50.24 147.599 50.24ZM144.879 44H150.119C150.059 42.6 149.079 41.4 147.659 41.4C146.199 41.4 145.079 42.44 144.879 44ZM153.919 53.7V40.12H155.879V41.66C156.419 40.78 157.459 39.88 159.199 39.88C161.799 39.88 163.679 41.94 163.679 45.06C163.679 48.18 161.799 50.24 159.199 50.24C157.419 50.24 156.399 49.3 155.899 48.5V53.7H153.919ZM158.739 48.66C160.679 48.66 161.619 47.04 161.619 45.06C161.619 43.08 160.679 41.46 158.739 41.46C156.799 41.46 155.819 43.12 155.819 45.06C155.819 47 156.799 48.66 158.739 48.66ZM169.634 50.24C166.514 50.24 164.754 47.9 164.754 45.06C164.754 42.24 166.514 39.88 169.634 39.88C172.774 39.88 174.554 42.24 174.554 45.06C174.554 47.9 172.774 50.24 169.634 50.24ZM169.654 48.66C171.574 48.66 172.474 47.04 172.474 45.06C172.474 43.1 171.574 41.46 169.654 41.46C167.714 41.46 166.814 43.08 166.814 45.06C166.814 47.06 167.714 48.66 169.654 48.66ZM179.904 50.24C177.444 50.24 175.644 49.1 175.424 46.74L177.384 46.5C177.484 48.06 178.584 48.78 179.944 48.78C181.284 48.78 182.184 48.18 182.184 47.22C182.184 46.26 181.264 46.06 180.024 45.78L178.564 45.44C176.964 45.06 175.864 44.3 175.864 42.78C175.864 41.1 177.524 39.88 179.864 39.88C182.124 39.88 183.664 41.02 183.924 42.86L181.944 43.14C181.804 41.96 180.944 41.34 179.784 41.34C178.604 41.34 177.844 41.92 177.844 42.68C177.844 43.4 178.284 43.66 179.524 43.94L180.984 44.28C183.064 44.76 184.164 45.44 184.164 47.02C184.164 49 182.324 50.24 179.904 50.24ZM185.785 50V40.12H187.765V50H185.785ZM185.785 38.58V36.24H187.765V38.58H185.785ZM193.332 50.1C192.072 50.1 191.232 49.6 190.932 48.6C190.812 48.3 190.772 47.98 190.772 47.56V41.74H189.032V40.12H190.772V37H192.752V40.12H194.792V41.74H192.752V47.28C192.752 48.14 193.152 48.44 193.932 48.44C194.332 48.44 194.552 48.42 194.872 48.36V49.96C194.372 50.04 193.932 50.1 193.332 50.1ZM204.843 52V50.22C202.103 50 200.463 48.28 200.303 45.78L202.383 45.44C202.483 47.16 203.303 48.32 204.843 48.56V43.72L204.503 43.62C202.163 42.96 200.803 41.8 200.803 39.8C200.803 37.78 202.303 36.24 204.843 36.02V34.24H206.143V36.04C208.503 36.26 209.803 37.66 210.043 39.76L207.963 40.08C207.823 38.82 207.243 37.96 206.143 37.7V42.04L206.783 42.22C209.043 42.84 210.403 43.92 210.403 46.08C210.403 48.52 208.623 49.98 206.143 50.2V52H204.843ZM202.883 39.66C202.883 40.72 203.543 41.26 204.843 41.68V37.66C203.603 37.84 202.883 38.68 202.883 39.66ZM206.143 48.58C207.523 48.38 208.323 47.54 208.323 46.28C208.323 45.1 207.603 44.5 206.143 44.06V48.58ZM212.205 50V48.28L213.265 47.58C216.885 45.24 219.225 43.12 219.225 40.22C219.225 38.68 218.365 37.72 216.845 37.72C215.345 37.72 214.325 38.66 214.325 40.36C214.325 40.74 214.365 41.06 214.425 41.36L212.305 41.1C212.285 40.94 212.245 40.66 212.245 40.26C212.245 37.62 214.145 36.02 216.865 36.02C219.665 36.02 221.345 37.54 221.345 40.12C221.345 43.42 218.925 45.76 215.885 47.66L214.965 48.24V48.26H221.305V50H212.205ZM223.473 52.58L224.213 50H223.313V47.44H225.513V49.58L224.593 52.58H223.473ZM232.061 50.24C229.361 50.24 227.661 48.7 227.241 46.42L229.321 46.08C229.601 47.46 230.521 48.54 232.121 48.54C233.821 48.54 234.961 47.28 234.961 45.42C234.961 43.66 234.001 42.36 232.301 42.36C230.921 42.36 230.021 43.34 229.681 44.12L227.681 43.82L228.221 36.24H236.061V38.08H229.941L229.681 41.88H229.701C230.321 41.22 231.301 40.68 232.641 40.68C235.441 40.68 237.041 42.76 237.041 45.34C237.041 48.04 235.061 50.24 232.061 50.24ZM243.624 50.24C240.184 50.24 238.504 47.06 238.504 43.14C238.504 39.04 240.184 36.04 243.624 36.04C247.044 36.04 248.724 39.04 248.724 43.14C248.724 47.24 247.044 50.24 243.624 50.24ZM243.624 48.58C245.764 48.58 246.584 46.32 246.584 43.14C246.584 39.98 245.764 37.72 243.624 37.72C241.484 37.72 240.664 39.98 240.664 43.14C240.664 46.32 241.484 48.58 243.624 48.58ZM255.509 50.24C252.069 50.24 250.389 47.06 250.389 43.14C250.389 39.04 252.069 36.04 255.509 36.04C258.929 36.04 260.609 39.04 260.609 43.14C260.609 47.24 258.929 50.24 255.509 50.24ZM255.509 48.58C257.649 48.58 258.469 46.32 258.469 43.14C258.469 39.98 257.649 37.72 255.509 37.72C253.369 37.72 252.549 39.98 252.549 43.14C252.549 46.32 253.369 48.58 255.509 48.58Z"></path>
<defs>
<linearGradient gradientUnits="userSpaceOnUse" y2="456.429" x2="19.6697" y1="0.0487105" x1="392.625" id="paint0_linear_6664_3058">
<stop stop-color="#C1F558"></stop>
<stop stop-color="#F2F9E6" offset="1"></stop>
</linearGradient>
</defs>
</svg>
