<svg xmlns="http://www.w3.org/2000/svg" fill="none" viewBox="0 0 393 440" height="440" width="393">
<path fill="url(#paint0_linear_6664_3017)" d="M0 32C0 14.3269 14.3269 0 32 0H393V408C393 425.673 378.673 440 361 440H0V32Z"></path>
<path stroke-width="2" stroke-opacity="0.5" stroke="white" d="M32 1H392V408C392 425.121 378.121 439 361 439H1V32C1 14.8792 14.8792 1 32 1Z"></path>
<path fill-opacity="0.5" fill="white" d="M20 36C20 27.1634 27.1634 20 36 20H271V50C271 58.8366 263.837 66 255 66H20V36Z"></path>
<path fill="#224944" d="M45.66 50V36.24H49.06L52.72 47.84L56.36 36.24H59.78V50H57.76V41.26C57.76 40 57.8 38.7 57.82 38.08L57.8 38.06L53.9 50H51.52L47.64 38.06L47.62 38.08C47.64 38.7 47.68 40 47.68 41.26V50H45.66ZM62.2256 50V40.12H64.2056V50H62.2256ZM62.2256 38.58V36.24H64.2056V38.58H62.2256ZM66.5327 50V40.12H68.4927V41.52H68.5127C69.0727 40.66 70.1727 39.88 71.6727 39.88C73.8727 39.88 75.1727 41.2 75.1727 43.6V50H73.1927V44.46C73.1927 42.68 72.7927 41.54 71.1327 41.54C69.4727 41.54 68.5127 42.88 68.5127 44.48V50H66.5327ZM77.4022 50V40.12H79.3822V50H77.4022ZM77.4022 38.58V36.24H79.3822V38.58H77.4022ZM81.7092 50V40.12H83.6692V41.52H83.6892C84.1092 40.74 85.1692 39.88 86.6292 39.88C88.2292 39.88 89.1492 40.7 89.5692 41.76C89.9692 41.04 90.9492 39.88 92.6892 39.88C94.9492 39.88 96.0692 41.36 96.0692 43.62V50H94.0892V44.42C94.0892 42.66 93.8092 41.54 92.1892 41.54C90.7492 41.54 89.8692 42.92 89.8692 44.5V50H87.9092V44.42C87.9092 42.66 87.6292 41.54 86.0292 41.54C84.5692 41.54 83.6892 42.92 83.6892 44.5V50H81.7092ZM101.602 50.24C99.3219 50.24 98.1619 48.8 98.1619 46.54V40.12H100.142V45.86C100.142 47.54 100.542 48.58 102.142 48.58C103.682 48.58 104.642 47.24 104.642 45.72V40.12H106.622V50H104.662V48.6H104.642C103.982 49.6 102.942 50.24 101.602 50.24ZM108.937 50V40.12H110.897V41.52H110.917C111.337 40.74 112.397 39.88 113.857 39.88C115.457 39.88 116.377 40.7 116.797 41.76C117.197 41.04 118.177 39.88 119.917 39.88C122.177 39.88 123.297 41.36 123.297 43.62V50H121.317V44.42C121.317 42.66 121.037 41.54 119.417 41.54C117.977 41.54 117.097 42.92 117.097 44.5V50H115.137V44.42C115.137 42.66 114.857 41.54 113.257 41.54C111.797 41.54 110.917 42.92 110.917 44.5V50H108.937ZM129.901 50V36.24H134.901C139.141 36.24 141.581 38.84 141.581 43.1C141.581 47.36 139.141 50 134.901 50H129.901ZM134.881 48.22C138.041 48.22 139.441 46.16 139.441 43.1C139.441 40.02 138.041 38.02 134.881 38.02H131.981V48.22H134.881ZM147.599 50.24C144.959 50.24 142.859 48.46 142.859 45.08C142.859 41.82 144.999 39.88 147.659 39.88C150.299 39.88 152.199 41.88 152.199 44.9V45.52H144.859C144.959 47.76 146.179 48.7 147.619 48.7C148.979 48.7 149.819 48.02 150.139 46.74L152.139 47C151.639 48.66 150.339 50.24 147.599 50.24ZM144.879 44H150.119C150.059 42.6 149.079 41.4 147.659 41.4C146.199 41.4 145.079 42.44 144.879 44ZM153.919 53.7V40.12H155.879V41.66C156.419 40.78 157.459 39.88 159.199 39.88C161.799 39.88 163.679 41.94 163.679 45.06C163.679 48.18 161.799 50.24 159.199 50.24C157.419 50.24 156.399 49.3 155.899 48.5V53.7H153.919ZM158.739 48.66C160.679 48.66 161.619 47.04 161.619 45.06C161.619 43.08 160.679 41.46 158.739 41.46C156.799 41.46 155.819 43.12 155.819 45.06C155.819 47 156.799 48.66 158.739 48.66ZM169.634 50.24C166.514 50.24 164.754 47.9 164.754 45.06C164.754 42.24 166.514 39.88 169.634 39.88C172.774 39.88 174.554 42.24 174.554 45.06C174.554 47.9 172.774 50.24 169.634 50.24ZM169.654 48.66C171.574 48.66 172.474 47.04 172.474 45.06C172.474 43.1 171.574 41.46 169.654 41.46C167.714 41.46 166.814 43.08 166.814 45.06C166.814 47.06 167.714 48.66 169.654 48.66ZM179.904 50.24C177.444 50.24 175.644 49.1 175.424 46.74L177.384 46.5C177.484 48.06 178.584 48.78 179.944 48.78C181.284 48.78 182.184 48.18 182.184 47.22C182.184 46.26 181.264 46.06 180.024 45.78L178.564 45.44C176.964 45.06 175.864 44.3 175.864 42.78C175.864 41.1 177.524 39.88 179.864 39.88C182.124 39.88 183.664 41.02 183.924 42.86L181.944 43.14C181.804 41.96 180.944 41.34 179.784 41.34C178.604 41.34 177.844 41.92 177.844 42.68C177.844 43.4 178.284 43.66 179.524 43.94L180.984 44.28C183.064 44.76 184.164 45.44 184.164 47.02C184.164 49 182.324 50.24 179.904 50.24ZM185.785 50V40.12H187.765V50H185.785ZM185.785 38.58V36.24H187.765V38.58H185.785ZM193.332 50.1C192.072 50.1 191.232 49.6 190.932 48.6C190.812 48.3 190.772 47.98 190.772 47.56V41.74H189.032V40.12H190.772V37H192.752V40.12H194.792V41.74H192.752V47.28C192.752 48.14 193.152 48.44 193.932 48.44C194.332 48.44 194.552 48.42 194.872 48.36V49.96C194.372 50.04 193.932 50.1 193.332 50.1ZM204.843 52V50.22C202.103 50 200.463 48.28 200.303 45.78L202.383 45.44C202.483 47.16 203.303 48.32 204.843 48.56V43.72L204.503 43.62C202.163 42.96 200.803 41.8 200.803 39.8C200.803 37.78 202.303 36.24 204.843 36.02V34.24H206.143V36.04C208.503 36.26 209.803 37.66 210.043 39.76L207.963 40.08C207.823 38.82 207.243 37.96 206.143 37.7V42.04L206.783 42.22C209.043 42.84 210.403 43.92 210.403 46.08C210.403 48.52 208.623 49.98 206.143 50.2V52H204.843ZM202.883 39.66C202.883 40.72 203.543 41.26 204.843 41.68V37.66C203.603 37.84 202.883 38.68 202.883 39.66ZM206.143 48.58C207.523 48.38 208.323 47.54 208.323 46.28C208.323 45.1 207.603 44.5 206.143 44.06V48.58ZM216.885 50.24C214.185 50.24 212.485 48.7 212.065 46.42L214.145 46.08C214.425 47.46 215.345 48.54 216.945 48.54C218.645 48.54 219.785 47.28 219.785 45.42C219.785 43.66 218.825 42.36 217.125 42.36C215.745 42.36 214.845 43.34 214.505 44.12L212.505 43.82L213.045 36.24H220.885V38.08H214.765L214.505 41.88H214.525C215.145 41.22 216.125 40.68 217.465 40.68C220.265 40.68 221.865 42.76 221.865 45.34C221.865 48.04 219.885 50.24 216.885 50.24ZM228.447 50.24C225.007 50.24 223.327 47.06 223.327 43.14C223.327 39.04 225.007 36.04 228.447 36.04C231.867 36.04 233.547 39.04 233.547 43.14C233.547 47.24 231.867 50.24 228.447 50.24ZM228.447 48.58C230.587 48.58 231.407 46.32 231.407 43.14C231.407 39.98 230.587 37.72 228.447 37.72C226.307 37.72 225.487 39.98 225.487 43.14C225.487 46.32 226.307 48.58 228.447 48.58ZM240.332 50.24C236.892 50.24 235.212 47.06 235.212 43.14C235.212 39.04 236.892 36.04 240.332 36.04C243.752 36.04 245.432 39.04 245.432 43.14C245.432 47.24 243.752 50.24 240.332 50.24ZM240.332 48.58C242.472 48.58 243.292 46.32 243.292 43.14C243.292 39.98 242.472 37.72 240.332 37.72C238.192 37.72 237.372 39.98 237.372 43.14C237.372 46.32 238.192 48.58 240.332 48.58Z"></path>
<path fill="#224944" d="M23.1 99.723C23.1 97.623 24.65 96.123 26.75 96.123H37.85C44.05 96.123 48.5 99.823 48.5 105.573C48.5 108.473 47.1 111.873 43.85 113.273C47.65 114.523 49.65 118.123 49.65 121.473C49.65 127.223 45.2 131.623 38.65 131.623H23.1V99.723ZM29.6 126.173H37.65C41.25 126.173 43 123.873 43 121.173C43 118.673 41.4 116.273 37.65 116.273H29.6V126.173ZM29.6 111.073H36.7C40.2 111.073 42 108.473 42 105.873C42 103.273 40.25 101.373 36.7 101.373H29.6V111.073ZM64.8824 132.173C57.5824 132.173 51.3824 127.223 51.3824 118.373C51.3824 109.523 57.5824 104.573 64.8824 104.573C72.1824 104.573 78.3824 109.523 78.3824 118.373C78.3824 127.223 72.1824 132.173 64.8824 132.173ZM57.7824 118.373C57.7824 124.373 61.1324 127.173 64.8824 127.173C68.5824 127.173 71.9324 124.373 71.9324 118.373C71.9324 112.373 68.5824 109.573 64.8824 109.573C61.1324 109.573 57.7824 112.373 57.7824 118.373ZM80.743 108.723C80.743 106.623 82.293 105.123 84.393 105.123H94.643C100.093 105.123 104.343 108.723 104.343 115.373V131.623H97.943V115.923C97.943 111.923 96.043 110.273 92.843 110.273H87.143V131.623H80.743V108.723ZM116.793 131.623C111.343 131.623 107.093 128.023 107.093 121.373V105.123H113.493V120.823C113.493 124.823 115.393 126.473 118.593 126.473H123.743V105.123H130.143V128.023C130.143 130.123 128.593 131.623 126.493 131.623H116.793ZM144.005 132.173C137.455 132.173 132.705 129.323 132.355 123.223H138.755C139.305 126.423 141.305 127.523 144.105 127.523C146.405 127.523 149.105 126.823 149.105 124.273C149.105 118.523 132.955 122.473 132.955 112.573C132.955 107.373 137.655 104.573 143.855 104.573C150.555 104.573 154.655 107.823 155.005 113.373H148.655C148.455 110.573 146.805 109.123 143.705 109.123C141.455 109.123 139.255 109.923 139.255 112.023C139.255 117.073 155.555 114.223 155.555 123.823C155.555 129.423 150.505 132.173 144.005 132.173ZM178.358 132.173C169.908 132.173 165.158 127.373 164.908 121.023H171.258C171.858 124.923 174.458 127.123 178.308 127.123C182.608 127.123 185.258 124.423 185.258 120.373C185.258 116.373 182.708 113.773 178.658 113.773C175.208 113.773 173.008 114.823 171.908 117.273H167.708C166.658 117.273 165.908 116.323 166.008 115.273L167.158 99.723C167.308 97.623 168.758 96.123 170.808 96.123H190.158V101.823H172.708L171.858 111.373C173.958 109.623 176.858 108.973 179.708 108.973C187.408 108.973 191.858 113.573 191.858 120.373C191.858 127.573 186.458 132.173 178.358 132.173ZM208.203 132.173C198.353 132.173 194.253 124.523 194.253 113.823C194.253 103.023 198.453 95.573 208.203 95.573C218.003 95.573 222.153 103.123 222.153 113.823C222.153 124.523 218.003 132.173 208.203 132.173ZM200.953 113.823C200.953 120.673 202.653 126.823 208.203 126.823C213.703 126.823 215.453 120.673 215.453 113.823C215.453 107.073 213.953 100.923 208.203 100.923C202.403 100.923 200.953 107.123 200.953 113.823ZM239.053 132.173C229.203 132.173 225.103 124.523 225.103 113.823C225.103 103.023 229.303 95.573 239.053 95.573C248.853 95.573 253.003 103.123 253.003 113.823C253.003 124.523 248.853 132.173 239.053 132.173ZM231.803 113.823C231.803 120.673 233.503 126.823 239.053 126.823C244.553 126.823 246.303 120.673 246.303 113.823C246.303 107.073 244.803 100.923 239.053 100.923C233.253 100.923 231.803 107.123 231.803 113.823Z"></path>
<rect fill="#26E986" rx="12" height="24" width="24" y="162.623" x="20"></rect>
<path fill="#224944" d="M27 170.154V179.094C27 179.557 27.3814 179.932 27.8518 179.932H28.418V179.932H28.7718L28.772 179.932L28.7722 179.932L38 170.852H35.872L28.418 178.186V171.551L27 170.154Z" clip-rule="evenodd" fill-rule="evenodd"></path>
<path fill="#224944" d="M61.148 180.839C58.718 180.839 57.188 179.453 56.81 177.401L58.682 177.095C58.934 178.337 59.762 179.309 61.202 179.309C62.732 179.309 63.758 178.175 63.758 176.501C63.758 174.917 62.894 173.747 61.364 173.747C60.122 173.747 59.312 174.629 59.006 175.331L57.206 175.061L57.692 168.239H64.748V169.895H59.24L59.006 173.315H59.024C59.582 172.721 60.464 172.235 61.67 172.235C64.19 172.235 65.63 174.107 65.63 176.429C65.63 178.859 63.848 180.839 61.148 180.839ZM69.3223 175.295C67.4323 175.295 66.6223 173.729 66.6223 171.695C66.6223 169.715 67.4323 168.113 69.3223 168.113C71.2303 168.113 72.0583 169.697 72.0583 171.695C72.0583 173.711 71.2303 175.295 69.3223 175.295ZM69.3223 174.161C70.2223 174.161 70.5643 173.189 70.5643 171.695C70.5643 170.201 70.2223 169.247 69.3223 169.247C68.4583 169.247 68.1163 170.183 68.1163 171.695C68.1163 173.207 68.4583 174.161 69.3223 174.161ZM69.5383 180.623L75.9103 168.239H77.4403L71.0683 180.623H69.5383ZM77.6743 180.749C75.7843 180.749 74.9743 179.183 74.9743 177.149C74.9743 175.169 75.7843 173.567 77.6743 173.567C79.5823 173.567 80.4103 175.151 80.4103 177.149C80.4103 179.165 79.5823 180.749 77.6743 180.749ZM77.6743 179.615C78.5743 179.615 78.9163 178.643 78.9163 177.149C78.9163 175.655 78.5743 174.701 77.6743 174.701C76.8103 174.701 76.4683 175.637 76.4683 177.149C76.4683 178.661 76.8103 179.615 77.6743 179.615ZM85.787 180.623V168.239H87.659V179.021H93.923V180.623H85.787ZM98.5535 180.839C95.7455 180.839 94.1615 178.733 94.1615 176.177C94.1615 173.639 95.7455 171.515 98.5535 171.515C101.38 171.515 102.982 173.639 102.982 176.177C102.982 178.733 101.38 180.839 98.5535 180.839ZM98.5715 179.417C100.3 179.417 101.11 177.959 101.11 176.177C101.11 174.413 100.3 172.937 98.5715 172.937C96.8255 172.937 96.0155 174.395 96.0155 176.177C96.0155 177.977 96.8255 179.417 98.5715 179.417ZM108.318 180.839C105.708 180.839 103.944 178.949 103.944 176.159C103.944 173.423 105.708 171.515 108.336 171.515C110.64 171.515 111.918 172.865 112.386 174.539L110.586 174.971C110.352 173.855 109.668 172.937 108.336 172.937C106.914 172.937 105.816 174.071 105.816 176.159C105.816 178.283 106.878 179.417 108.372 179.417C109.614 179.417 110.388 178.643 110.676 177.383L112.458 177.815C111.918 179.489 110.676 180.839 108.318 180.839ZM116.367 180.839C114.765 180.839 113.325 179.867 113.325 178.211C113.325 176.591 114.459 175.853 116.385 175.475L117.609 175.223C118.563 175.025 119.013 174.827 119.013 174.089C119.013 173.351 118.401 172.829 117.321 172.829C116.151 172.829 115.395 173.549 115.323 174.737L113.487 174.575C113.613 172.667 115.143 171.515 117.339 171.515C119.607 171.515 120.813 172.613 120.813 174.485V180.623H119.103V179.579H119.085C118.671 180.263 117.753 180.839 116.367 180.839ZM116.835 179.561C118.095 179.561 119.085 178.733 119.085 177.257V176.177C117.213 176.483 116.331 176.735 115.791 177.077C115.377 177.329 115.143 177.689 115.143 178.175C115.143 179.003 115.827 179.561 116.835 179.561ZM125.683 180.713C124.549 180.713 123.793 180.263 123.523 179.363C123.415 179.093 123.379 178.805 123.379 178.427V173.189H121.813V171.731H123.379V168.923H125.161V171.731H126.997V173.189H125.161V178.175C125.161 178.949 125.521 179.219 126.223 179.219C126.583 179.219 126.781 179.201 127.069 179.147V180.587C126.619 180.659 126.223 180.713 125.683 180.713ZM132.056 180.839C129.68 180.839 127.79 179.237 127.79 176.195C127.79 173.261 129.716 171.515 132.11 171.515C134.486 171.515 136.196 173.315 136.196 176.033V176.591H129.59C129.68 178.607 130.778 179.453 132.074 179.453C133.298 179.453 134.054 178.841 134.342 177.689L136.142 177.923C135.692 179.417 134.522 180.839 132.056 180.839ZM129.608 175.223H134.324C134.27 173.963 133.388 172.883 132.11 172.883C130.796 172.883 129.788 173.819 129.608 175.223ZM141.038 180.839C138.824 180.839 137.204 179.813 137.006 177.689L138.77 177.473C138.86 178.877 139.85 179.525 141.074 179.525C142.28 179.525 143.09 178.985 143.09 178.121C143.09 177.257 142.262 177.077 141.146 176.825L139.832 176.519C138.392 176.177 137.402 175.493 137.402 174.125C137.402 172.613 138.896 171.515 141.002 171.515C143.036 171.515 144.422 172.541 144.656 174.197L142.874 174.449C142.748 173.387 141.974 172.829 140.93 172.829C139.868 172.829 139.184 173.351 139.184 174.035C139.184 174.683 139.58 174.917 140.696 175.169L142.01 175.475C143.882 175.907 144.872 176.519 144.872 177.941C144.872 179.723 143.216 180.839 141.038 180.839ZM150.284 180.623V168.239H154.784C158.6 168.239 160.796 170.579 160.796 174.413C160.796 178.247 158.6 180.623 154.784 180.623H150.284ZM154.766 179.021C157.61 179.021 158.87 177.167 158.87 174.413C158.87 171.641 157.61 169.841 154.766 169.841H152.156V179.021H154.766ZM162.363 180.623V171.731H164.145V180.623H162.363ZM162.363 170.345V168.239H164.145V170.345H162.363ZM169.533 180.839C167.319 180.839 165.699 179.813 165.501 177.689L167.265 177.473C167.355 178.877 168.345 179.525 169.569 179.525C170.775 179.525 171.585 178.985 171.585 178.121C171.585 177.257 170.757 177.077 169.641 176.825L168.327 176.519C166.887 176.177 165.897 175.493 165.897 174.125C165.897 172.613 167.391 171.515 169.497 171.515C171.531 171.515 172.917 172.541 173.151 174.197L171.369 174.449C171.243 173.387 170.469 172.829 169.425 172.829C168.363 172.829 167.679 173.351 167.679 174.035C167.679 174.683 168.075 174.917 169.191 175.169L170.505 175.475C172.377 175.907 173.367 176.519 173.367 177.941C173.367 179.723 171.711 180.839 169.533 180.839ZM178.643 180.839C176.033 180.839 174.269 178.949 174.269 176.159C174.269 173.423 176.033 171.515 178.661 171.515C180.965 171.515 182.243 172.865 182.711 174.539L180.911 174.971C180.677 173.855 179.993 172.937 178.661 172.937C177.239 172.937 176.141 174.071 176.141 176.159C176.141 178.283 177.203 179.417 178.697 179.417C179.939 179.417 180.713 178.643 181.001 177.383L182.783 177.815C182.243 179.489 181.001 180.839 178.643 180.839ZM187.933 180.839C185.125 180.839 183.541 178.733 183.541 176.177C183.541 173.639 185.125 171.515 187.933 171.515C190.759 171.515 192.361 173.639 192.361 176.177C192.361 178.733 190.759 180.839 187.933 180.839ZM187.951 179.417C189.679 179.417 190.489 177.959 190.489 176.177C190.489 174.413 189.679 172.937 187.951 172.937C186.205 172.937 185.395 174.395 185.395 176.177C185.395 177.977 186.205 179.417 187.951 179.417ZM196.87 180.839C194.818 180.839 193.774 179.543 193.774 177.509V171.731H195.556V176.897C195.556 178.409 195.916 179.345 197.356 179.345C198.742 179.345 199.606 178.139 199.606 176.771V171.731H201.388V180.623H199.624V179.363H199.606C199.012 180.263 198.076 180.839 196.87 180.839ZM203.471 180.623V171.731H205.235V172.991H205.253C205.757 172.217 206.747 171.515 208.097 171.515C210.077 171.515 211.247 172.703 211.247 174.863V180.623H209.465V175.637C209.465 174.035 209.105 173.009 207.611 173.009C206.117 173.009 205.253 174.215 205.253 175.655V180.623H203.471ZM216.082 180.713C214.948 180.713 214.192 180.263 213.922 179.363C213.814 179.093 213.778 178.805 213.778 178.427V173.189H212.212V171.731H213.778V168.923H215.56V171.731H217.396V173.189H215.56V178.175C215.56 178.949 215.92 179.219 216.622 179.219C216.982 179.219 217.18 179.201 217.468 179.147V180.587C217.018 180.659 216.622 180.713 216.082 180.713ZM222.823 180.623V168.239H230.743V169.841H224.659V173.441H230.455V175.043H224.659V180.623H222.823ZM235.818 180.839C233.01 180.839 231.426 178.733 231.426 176.177C231.426 173.639 233.01 171.515 235.818 171.515C238.644 171.515 240.246 173.639 240.246 176.177C240.246 178.733 238.644 180.839 235.818 180.839ZM235.836 179.417C237.564 179.417 238.374 177.959 238.374 176.177C238.374 174.413 237.564 172.937 235.836 172.937C234.09 172.937 233.28 174.395 233.28 176.177C233.28 177.977 234.09 179.417 235.836 179.417ZM241.767 180.623V171.731H243.477V173.369C243.837 172.433 244.809 171.515 246.195 171.515C246.411 171.515 246.573 171.533 246.699 171.551V173.261C246.555 173.243 246.375 173.225 246.087 173.225C244.593 173.225 243.531 174.179 243.531 175.925V180.623H241.767ZM254.776 180.839C252.4 180.839 251.194 179.399 250.87 177.689L252.688 177.365C252.868 178.517 253.57 179.363 254.866 179.363C257.008 179.363 257.728 177.077 257.728 174.449L257.71 174.431C257.314 175.313 256.252 176.177 254.686 176.177C252.238 176.177 250.726 174.449 250.726 172.163C250.726 169.859 252.364 168.041 254.956 168.041C258.142 168.041 259.546 170.651 259.546 174.179C259.546 178.571 257.71 180.839 254.776 180.839ZM254.902 174.701C256.36 174.701 257.404 173.621 257.404 172.163C257.404 170.615 256.306 169.535 254.92 169.535C253.624 169.535 252.526 170.453 252.526 172.145C252.526 173.909 253.642 174.701 254.902 174.701ZM265.66 180.839C262.564 180.839 261.052 177.977 261.052 174.449C261.052 170.759 262.564 168.059 265.66 168.059C268.738 168.059 270.25 170.759 270.25 174.449C270.25 178.139 268.738 180.839 265.66 180.839ZM265.66 179.345C267.586 179.345 268.324 177.311 268.324 174.449C268.324 171.605 267.586 169.571 265.66 169.571C263.734 169.571 262.996 171.605 262.996 174.449C262.996 177.311 263.734 179.345 265.66 179.345ZM276.026 180.623V168.239H280.526C284.342 168.239 286.538 170.579 286.538 174.413C286.538 178.247 284.342 180.623 280.526 180.623H276.026ZM280.508 179.021C283.352 179.021 284.612 177.167 284.612 174.413C284.612 171.641 283.352 169.841 280.508 169.841H277.898V179.021H280.508ZM290.732 180.839C289.13 180.839 287.69 179.867 287.69 178.211C287.69 176.591 288.824 175.853 290.75 175.475L291.974 175.223C292.928 175.025 293.378 174.827 293.378 174.089C293.378 173.351 292.766 172.829 291.686 172.829C290.516 172.829 289.76 173.549 289.688 174.737L287.852 174.575C287.978 172.667 289.508 171.515 291.704 171.515C293.972 171.515 295.178 172.613 295.178 174.485V180.623H293.468V179.579H293.45C293.036 180.263 292.118 180.839 290.732 180.839ZM291.2 179.561C292.46 179.561 293.45 178.733 293.45 177.257V176.177C291.578 176.483 290.696 176.735 290.156 177.077C289.742 177.329 289.508 177.689 289.508 178.175C289.508 179.003 290.192 179.561 291.2 179.561ZM297.691 184.079C297.277 184.079 297.007 184.025 296.719 183.989V182.459C296.953 182.513 297.223 182.549 297.475 182.549C298.339 182.549 298.825 182.243 299.167 181.379L299.473 180.605L296.125 171.731H298.087L300.409 178.733L302.731 171.731H304.711L300.967 181.595C300.301 183.359 299.275 184.079 297.691 184.079ZM308.907 180.839C306.693 180.839 305.073 179.813 304.875 177.689L306.639 177.473C306.729 178.877 307.719 179.525 308.943 179.525C310.149 179.525 310.959 178.985 310.959 178.121C310.959 177.257 310.131 177.077 309.015 176.825L307.701 176.519C306.261 176.177 305.271 175.493 305.271 174.125C305.271 172.613 306.765 171.515 308.871 171.515C310.905 171.515 312.291 172.541 312.525 174.197L310.743 174.449C310.617 173.387 309.843 172.829 308.799 172.829C307.737 172.829 307.053 173.351 307.053 174.035C307.053 174.683 307.449 174.917 308.565 175.169L309.879 175.475C311.751 175.907 312.741 176.519 312.741 177.941C312.741 179.723 311.085 180.839 308.907 180.839Z"></path>
<rect fill="#26E986" rx="12" height="24" width="24" y="196.623" x="20"></rect>
<path fill="#224944" d="M27 204.154V213.094C27 213.557 27.3814 213.932 27.8518 213.932H28.418V213.932H28.7718L28.772 213.932L28.7722 213.932L38 204.852H35.872L28.418 212.186V205.551L27 204.154Z" clip-rule="evenodd" fill-rule="evenodd"></path>
<path fill="#224944" d="M59.456 214.623V206.235H56.45V204.921H56.648C58.592 204.921 59.744 204.399 59.744 202.365V202.239H61.292V214.623H59.456ZM65.789 209.295C63.899 209.295 63.089 207.729 63.089 205.695C63.089 203.715 63.899 202.113 65.789 202.113C67.697 202.113 68.525 203.697 68.525 205.695C68.525 207.711 67.697 209.295 65.789 209.295ZM65.789 208.161C66.689 208.161 67.031 207.189 67.031 205.695C67.031 204.201 66.689 203.247 65.789 203.247C64.925 203.247 64.583 204.183 64.583 205.695C64.583 207.207 64.925 208.161 65.789 208.161ZM66.005 214.623L72.377 202.239H73.907L67.535 214.623H66.005ZM74.141 214.749C72.251 214.749 71.441 213.183 71.441 211.149C71.441 209.169 72.251 207.567 74.141 207.567C76.049 207.567 76.877 209.151 76.877 211.149C76.877 213.165 76.049 214.749 74.141 214.749ZM74.141 213.615C75.041 213.615 75.383 212.643 75.383 211.149C75.383 209.655 75.041 208.701 74.141 208.701C73.277 208.701 72.935 209.637 72.935 211.149C72.935 212.661 73.277 213.615 74.141 213.615ZM82.2538 214.623V202.239H86.7538C90.5698 202.239 92.7658 204.579 92.7658 208.413C92.7658 212.247 90.5698 214.623 86.7538 214.623H82.2538ZM86.7358 213.021C89.5798 213.021 90.8398 211.167 90.8398 208.413C90.8398 205.641 89.5798 203.841 86.7358 203.841H84.1258V213.021H86.7358ZM98.1819 214.839C95.8059 214.839 93.9159 213.237 93.9159 210.195C93.9159 207.261 95.8419 205.515 98.2359 205.515C100.612 205.515 102.322 207.315 102.322 210.033V210.591H95.7159C95.8059 212.607 96.9039 213.453 98.1999 213.453C99.4239 213.453 100.18 212.841 100.468 211.689L102.268 211.923C101.818 213.417 100.648 214.839 98.1819 214.839ZM95.7339 209.223H100.45C100.396 207.963 99.5139 206.883 98.2359 206.883C96.9219 206.883 95.9139 207.819 95.7339 209.223ZM103.869 217.953V205.731H105.633V207.117C106.119 206.325 107.055 205.515 108.621 205.515C110.961 205.515 112.653 207.369 112.653 210.177C112.653 212.985 110.961 214.839 108.621 214.839C107.019 214.839 106.101 213.993 105.651 213.273V217.953H103.869ZM108.207 213.417C109.953 213.417 110.799 211.959 110.799 210.177C110.799 208.395 109.953 206.937 108.207 206.937C106.461 206.937 105.579 208.431 105.579 210.177C105.579 211.923 106.461 213.417 108.207 213.417ZM118.013 214.839C115.205 214.839 113.621 212.733 113.621 210.177C113.621 207.639 115.205 205.515 118.013 205.515C120.839 205.515 122.441 207.639 122.441 210.177C122.441 212.733 120.839 214.839 118.013 214.839ZM118.031 213.417C119.759 213.417 120.569 211.959 120.569 210.177C120.569 208.413 119.759 206.937 118.031 206.937C116.285 206.937 115.475 208.395 115.475 210.177C115.475 211.977 116.285 213.417 118.031 213.417ZM127.256 214.839C125.042 214.839 123.422 213.813 123.224 211.689L124.988 211.473C125.078 212.877 126.068 213.525 127.292 213.525C128.498 213.525 129.308 212.985 129.308 212.121C129.308 211.257 128.48 211.077 127.364 210.825L126.05 210.519C124.61 210.177 123.62 209.493 123.62 208.125C123.62 206.613 125.114 205.515 127.22 205.515C129.254 205.515 130.64 206.541 130.874 208.197L129.092 208.449C128.966 207.387 128.192 206.829 127.148 206.829C126.086 206.829 125.402 207.351 125.402 208.035C125.402 208.683 125.798 208.917 126.914 209.169L128.228 209.475C130.1 209.907 131.09 210.519 131.09 211.941C131.09 213.723 129.434 214.839 127.256 214.839ZM132.549 214.623V205.731H134.331V214.623H132.549ZM132.549 204.345V202.239H134.331V204.345H132.549ZM139.341 214.713C138.207 214.713 137.451 214.263 137.181 213.363C137.073 213.093 137.037 212.805 137.037 212.427V207.189H135.471V205.731H137.037V202.923H138.819V205.731H140.655V207.189H138.819V212.175C138.819 212.949 139.179 213.219 139.881 213.219C140.241 213.219 140.439 213.201 140.727 213.147V214.587C140.277 214.659 139.881 214.713 139.341 214.713ZM146.083 214.623V202.239H151.105C153.391 202.239 154.957 203.247 154.957 205.371C154.957 206.721 154.183 207.747 153.229 208.107V208.125C154.201 208.377 155.317 209.205 155.317 211.077C155.317 212.985 154.147 214.623 151.321 214.623H146.083ZM151.249 213.057C152.869 213.057 153.499 212.139 153.499 210.987C153.499 209.763 152.815 208.953 151.141 208.953H147.937V213.057H151.249ZM150.997 207.477C152.401 207.477 153.139 206.829 153.139 205.551C153.139 204.345 152.311 203.805 151.087 203.805H147.937V207.477H150.997ZM160.853 214.839C158.045 214.839 156.461 212.733 156.461 210.177C156.461 207.639 158.045 205.515 160.853 205.515C163.679 205.515 165.281 207.639 165.281 210.177C165.281 212.733 163.679 214.839 160.853 214.839ZM160.871 213.417C162.599 213.417 163.409 211.959 163.409 210.177C163.409 208.413 162.599 206.937 160.871 206.937C159.125 206.937 158.315 208.395 158.315 210.177C158.315 211.977 159.125 213.417 160.871 213.417ZM166.802 214.623V205.731H168.566V206.991H168.584C169.088 206.217 170.078 205.515 171.428 205.515C173.408 205.515 174.578 206.703 174.578 208.863V214.623H172.796V209.637C172.796 208.035 172.436 207.009 170.942 207.009C169.448 207.009 168.584 208.215 168.584 209.655V214.623H166.802ZM179.572 214.839C177.52 214.839 176.476 213.543 176.476 211.509V205.731H178.258V210.897C178.258 212.409 178.618 213.345 180.058 213.345C181.444 213.345 182.308 212.139 182.308 210.771V205.731H184.09V214.623H182.326V213.363H182.308C181.714 214.263 180.778 214.839 179.572 214.839ZM189.468 214.839C187.254 214.839 185.634 213.813 185.436 211.689L187.2 211.473C187.29 212.877 188.28 213.525 189.504 213.525C190.71 213.525 191.52 212.985 191.52 212.121C191.52 211.257 190.692 211.077 189.576 210.825L188.262 210.519C186.822 210.177 185.832 209.493 185.832 208.125C185.832 206.613 187.326 205.515 189.432 205.515C191.466 205.515 192.852 206.541 193.086 208.197L191.304 208.449C191.178 207.387 190.404 206.829 189.36 206.829C188.298 206.829 187.614 207.351 187.614 208.035C187.614 208.683 188.01 208.917 189.126 209.169L190.44 209.475C192.312 209.907 193.302 210.519 193.302 211.941C193.302 213.723 191.646 214.839 189.468 214.839Z"></path>
<rect fill="#26E986" rx="12" height="24" width="24" y="230.623" x="20"></rect>
<path fill="#224944" d="M27 238.154V247.094C27 247.557 27.3814 247.932 27.8518 247.932H28.418V247.932H28.7718L28.772 247.932L28.7722 247.932L38 238.852H35.872L28.418 246.186V239.551L27 238.154Z" clip-rule="evenodd" fill-rule="evenodd"></path>
<path fill="#224944" d="M60.986 248.839C58.61 248.839 57.404 247.399 57.08 245.689L58.898 245.365C59.078 246.517 59.78 247.363 61.076 247.363C63.218 247.363 63.938 245.077 63.938 242.449L63.92 242.431C63.524 243.313 62.462 244.177 60.896 244.177C58.448 244.177 56.936 242.449 56.936 240.163C56.936 237.859 58.574 236.041 61.166 236.041C64.352 236.041 65.756 238.651 65.756 242.179C65.756 246.571 63.92 248.839 60.986 248.839ZM61.112 242.701C62.57 242.701 63.614 241.621 63.614 240.163C63.614 238.615 62.516 237.535 61.13 237.535C59.834 237.535 58.736 238.453 58.736 240.145C58.736 241.909 59.852 242.701 61.112 242.701ZM71.8707 248.839C68.7747 248.839 67.2627 245.977 67.2627 242.449C67.2627 238.759 68.7747 236.059 71.8707 236.059C74.9487 236.059 76.4607 238.759 76.4607 242.449C76.4607 246.139 74.9487 248.839 71.8707 248.839ZM71.8707 247.345C73.7967 247.345 74.5347 245.311 74.5347 242.449C74.5347 239.605 73.7967 237.571 71.8707 237.571C69.9447 237.571 69.2067 239.605 69.2067 242.449C69.2067 245.311 69.9447 247.345 71.8707 247.345ZM82.2363 248.623V236.239H86.7363C90.5523 236.239 92.7483 238.579 92.7483 242.413C92.7483 246.247 90.5523 248.623 86.7363 248.623H82.2363ZM86.7183 247.021C89.5623 247.021 90.8223 245.167 90.8223 242.413C90.8223 239.641 89.5623 237.841 86.7183 237.841H84.1083V247.021H86.7183ZM96.9424 248.839C95.3404 248.839 93.9004 247.867 93.9004 246.211C93.9004 244.591 95.0344 243.853 96.9604 243.475L98.1844 243.223C99.1384 243.025 99.5884 242.827 99.5884 242.089C99.5884 241.351 98.9764 240.829 97.8964 240.829C96.7264 240.829 95.9704 241.549 95.8984 242.737L94.0624 242.575C94.1884 240.667 95.7184 239.515 97.9144 239.515C100.182 239.515 101.388 240.613 101.388 242.485V248.623H99.6784V247.579H99.6604C99.2464 248.263 98.3284 248.839 96.9424 248.839ZM97.4104 247.561C98.6704 247.561 99.6604 246.733 99.6604 245.257V244.177C97.7884 244.483 96.9064 244.735 96.3664 245.077C95.9524 245.329 95.7184 245.689 95.7184 246.175C95.7184 247.003 96.4024 247.561 97.4104 247.561ZM103.902 252.079C103.488 252.079 103.218 252.025 102.93 251.989V250.459C103.164 250.513 103.434 250.549 103.686 250.549C104.55 250.549 105.036 250.243 105.378 249.379L105.684 248.605L102.336 239.731H104.298L106.62 246.733L108.942 239.731H110.922L107.178 249.595C106.512 251.359 105.486 252.079 103.902 252.079ZM115.118 248.839C112.904 248.839 111.284 247.813 111.086 245.689L112.85 245.473C112.94 246.877 113.93 247.525 115.154 247.525C116.36 247.525 117.17 246.985 117.17 246.121C117.17 245.257 116.342 245.077 115.226 244.825L113.912 244.519C112.472 244.177 111.482 243.493 111.482 242.125C111.482 240.613 112.976 239.515 115.082 239.515C117.116 239.515 118.502 240.541 118.736 242.197L116.954 242.449C116.828 241.387 116.054 240.829 115.01 240.829C113.948 240.829 113.264 241.351 113.264 242.035C113.264 242.683 113.66 242.917 114.776 243.169L116.09 243.475C117.962 243.907 118.952 244.519 118.952 245.941C118.952 247.723 117.296 248.839 115.118 248.839ZM124.364 248.623V236.239H132.284V237.841H126.2V241.441H131.996V243.043H126.2V248.623H124.364ZM133.42 248.623V239.731H135.13V241.369C135.49 240.433 136.462 239.515 137.848 239.515C138.064 239.515 138.226 239.533 138.352 239.551V241.261C138.208 241.243 138.028 241.225 137.74 241.225C136.246 241.225 135.184 242.179 135.184 243.925V248.623H133.42ZM142.903 248.839C140.527 248.839 138.637 247.237 138.637 244.195C138.637 241.261 140.563 239.515 142.957 239.515C145.333 239.515 147.043 241.315 147.043 244.033V244.591H140.437C140.527 246.607 141.625 247.453 142.921 247.453C144.145 247.453 144.901 246.841 145.189 245.689L146.989 245.923C146.539 247.417 145.369 248.839 142.903 248.839ZM140.455 243.223H145.171C145.117 241.963 144.235 240.883 142.957 240.883C141.643 240.883 140.635 241.819 140.455 243.223ZM152.316 248.839C149.94 248.839 148.05 247.237 148.05 244.195C148.05 241.261 149.976 239.515 152.37 239.515C154.746 239.515 156.456 241.315 156.456 244.033V244.591H149.85C149.94 246.607 151.038 247.453 152.334 247.453C153.558 247.453 154.314 246.841 154.602 245.689L156.402 245.923C155.952 247.417 154.782 248.839 152.316 248.839ZM149.868 243.223H154.584C154.53 241.963 153.648 240.883 152.37 240.883C151.056 240.883 150.048 241.819 149.868 243.223ZM161.957 248.623V236.239H166.439C169.049 236.239 170.705 237.409 170.705 239.929C170.705 242.647 168.959 243.763 166.403 243.763H163.811V248.623H161.957ZM163.811 242.179H166.349C168.095 242.179 168.833 241.387 168.833 239.965C168.833 238.525 168.005 237.841 166.241 237.841H163.811V242.179ZM171.961 248.623V236.239H173.743V248.623H171.961ZM178.43 248.839C176.828 248.839 175.388 247.867 175.388 246.211C175.388 244.591 176.522 243.853 178.448 243.475L179.672 243.223C180.626 243.025 181.076 242.827 181.076 242.089C181.076 241.351 180.464 240.829 179.384 240.829C178.214 240.829 177.458 241.549 177.386 242.737L175.55 242.575C175.676 240.667 177.206 239.515 179.402 239.515C181.67 239.515 182.876 240.613 182.876 242.485V248.623H181.166V247.579H181.148C180.734 248.263 179.816 248.839 178.43 248.839ZM178.898 247.561C180.158 247.561 181.148 246.733 181.148 245.257V244.177C179.276 244.483 178.394 244.735 177.854 245.077C177.44 245.329 177.206 245.689 177.206 246.175C177.206 247.003 177.89 247.561 178.898 247.561ZM187.745 248.713C186.611 248.713 185.855 248.263 185.585 247.363C185.477 247.093 185.441 246.805 185.441 246.427V241.189H183.875V239.731H185.441V236.923H187.223V239.731H189.059V241.189H187.223V246.175C187.223 246.949 187.583 247.219 188.285 247.219C188.645 247.219 188.843 247.201 189.131 247.147V248.587C188.681 248.659 188.285 248.713 187.745 248.713ZM191.236 248.623V241.189H189.598V239.731H191.236V238.255C191.236 236.689 192.19 236.023 193.612 236.023C194.098 236.023 194.368 236.059 194.71 236.113V237.535C194.44 237.499 194.296 237.481 194.062 237.481C193.414 237.481 193.018 237.751 193.018 238.399V239.731H194.8V241.189H193.018V248.623H191.236ZM199.598 248.839C196.79 248.839 195.206 246.733 195.206 244.177C195.206 241.639 196.79 239.515 199.598 239.515C202.424 239.515 204.026 241.639 204.026 244.177C204.026 246.733 202.424 248.839 199.598 248.839ZM199.616 247.417C201.344 247.417 202.154 245.959 202.154 244.177C202.154 242.413 201.344 240.937 199.616 240.937C197.87 240.937 197.06 242.395 197.06 244.177C197.06 245.977 197.87 247.417 199.616 247.417ZM205.546 248.623V239.731H207.256V241.369C207.616 240.433 208.588 239.515 209.974 239.515C210.19 239.515 210.352 239.533 210.478 239.551V241.261C210.334 241.243 210.154 241.225 209.866 241.225C208.372 241.225 207.31 242.179 207.31 243.925V248.623H205.546ZM211.549 248.623V239.731H213.313V240.991H213.331C213.709 240.289 214.663 239.515 215.977 239.515C217.417 239.515 218.245 240.253 218.623 241.207C218.983 240.559 219.865 239.515 221.431 239.515C223.465 239.515 224.473 240.847 224.473 242.881V248.623H222.691V243.601C222.691 242.017 222.439 241.009 220.981 241.009C219.685 241.009 218.893 242.251 218.893 243.673V248.623H217.129V243.601C217.129 242.017 216.877 241.009 215.437 241.009C214.123 241.009 213.331 242.251 213.331 243.673V248.623H211.549ZM229.759 248.839C227.545 248.839 225.925 247.813 225.727 245.689L227.491 245.473C227.581 246.877 228.571 247.525 229.795 247.525C231.001 247.525 231.811 246.985 231.811 246.121C231.811 245.257 230.983 245.077 229.867 244.825L228.553 244.519C227.113 244.177 226.123 243.493 226.123 242.125C226.123 240.613 227.617 239.515 229.723 239.515C231.757 239.515 233.143 240.541 233.377 242.197L231.595 242.449C231.469 241.387 230.695 240.829 229.651 240.829C228.589 240.829 227.905 241.351 227.905 242.035C227.905 242.683 228.301 242.917 229.417 243.169L230.731 243.475C232.603 243.907 233.593 244.519 233.593 245.941C233.593 247.723 231.937 248.839 229.759 248.839Z"></path>
<path fill="#FF5500" d="M20 381C20 374.373 25.3726 369 32 369H373V408C373 414.627 367.627 420 361 420H20V381Z"></path>
<path fill="white" d="M101.896 404.797C96.4691 404.797 92.2301 401.125 92.2301 394.888C92.2301 388.678 96.6311 385.033 101.869 385.033C106.918 385.033 110.266 387.895 110.995 391.81H107.242C106.81 389.974 105.19 388.057 101.896 388.057C98.6561 388.057 95.8481 390.217 95.8481 394.888C95.8481 399.613 98.6561 401.773 101.896 401.773C105.514 401.773 107.431 400.234 107.431 397.345V397.048H101.167V394.267H111.049V396.697C111.049 401.368 107.593 404.797 101.896 404.797ZM119.29 404.797C114.997 404.797 112.081 401.746 112.081 397.345C112.081 392.971 115.078 389.893 119.29 389.893C123.583 389.893 126.823 393.025 126.472 398.236H115.537C115.834 400.585 117.238 402.178 119.29 402.178C120.829 402.178 121.963 401.314 122.476 399.964H126.067C125.23 402.934 122.611 404.797 119.29 404.797ZM115.618 395.86H122.989C122.611 393.781 121.261 392.404 119.29 392.404C117.319 392.404 116.023 393.835 115.618 395.86ZM135.05 390.19V392.998H132.107V401.773H135.05V404.5H130.622C129.461 404.5 128.651 403.69 128.651 402.556V392.998H126.599V390.19H128.651V386.545H132.107V390.19H135.05ZM140.847 387.274C140.847 386.14 141.684 385.33 142.818 385.33H148.812C152.16 385.33 154.563 387.328 154.563 390.433C154.563 391.999 153.807 393.835 152.052 394.591C154.104 395.266 155.184 397.21 155.184 399.019C155.184 402.124 152.781 404.5 149.244 404.5H140.847V387.274ZM144.357 401.557H148.704C150.648 401.557 151.593 400.315 151.593 398.857C151.593 397.507 150.729 396.211 148.704 396.211H144.357V401.557ZM144.357 393.403H148.191C150.081 393.403 151.053 391.999 151.053 390.595C151.053 389.191 150.108 388.165 148.191 388.165H144.357V393.403ZM163.409 404.797C159.467 404.797 156.119 402.124 156.119 397.345C156.119 392.566 159.467 389.893 163.409 389.893C167.351 389.893 170.699 392.566 170.699 397.345C170.699 402.124 167.351 404.797 163.409 404.797ZM159.575 397.345C159.575 400.585 161.384 402.097 163.409 402.097C165.407 402.097 167.216 400.585 167.216 397.345C167.216 394.105 165.407 392.593 163.409 392.593C161.384 392.593 159.575 394.105 159.575 397.345ZM171.974 392.134C171.974 391 172.811 390.19 173.945 390.19H179.48C182.423 390.19 184.718 392.134 184.718 395.725V404.5H181.262V396.022C181.262 393.862 180.236 392.971 178.508 392.971H175.43V404.5H171.974V392.134ZM191.441 404.5C188.498 404.5 186.203 402.556 186.203 398.965V390.19H189.659V398.668C189.659 400.828 190.685 401.719 192.413 401.719H195.194V390.19H198.65V402.556C198.65 403.69 197.813 404.5 196.679 404.5H191.441ZM206.135 404.797C202.598 404.797 200.033 403.258 199.844 399.964H203.3C203.597 401.692 204.677 402.286 206.189 402.286C207.431 402.286 208.889 401.908 208.889 400.531C208.889 397.426 200.168 399.559 200.168 394.213C200.168 391.405 202.706 389.893 206.054 389.893C209.672 389.893 211.886 391.648 212.075 394.645H208.646C208.538 393.133 207.647 392.35 205.973 392.35C204.758 392.35 203.57 392.782 203.57 393.916C203.57 396.643 212.372 395.104 212.372 400.288C212.372 403.312 209.645 404.797 206.135 404.797ZM224.686 404.797C220.123 404.797 217.558 402.205 217.423 398.776H220.852C221.176 400.882 222.58 402.07 224.659 402.07C226.981 402.07 228.412 400.612 228.412 398.425C228.412 396.265 227.035 394.861 224.848 394.861C222.985 394.861 221.797 395.428 221.203 396.751H218.935C218.368 396.751 217.963 396.238 218.017 395.671L218.638 387.274C218.719 386.14 219.502 385.33 220.609 385.33H231.058V388.408H221.635L221.176 393.565C222.31 392.62 223.876 392.269 225.415 392.269C229.573 392.269 231.976 394.753 231.976 398.425C231.976 402.313 229.06 404.797 224.686 404.797ZM240.802 404.797C235.483 404.797 233.269 400.666 233.269 394.888C233.269 389.056 235.537 385.033 240.802 385.033C246.094 385.033 248.335 389.11 248.335 394.888C248.335 400.666 246.094 404.797 240.802 404.797ZM236.887 394.888C236.887 398.587 237.805 401.908 240.802 401.908C243.772 401.908 244.717 398.587 244.717 394.888C244.717 391.243 243.907 387.922 240.802 387.922C237.67 387.922 236.887 391.27 236.887 394.888ZM257.461 404.797C252.142 404.797 249.928 400.666 249.928 394.888C249.928 389.056 252.196 385.033 257.461 385.033C262.753 385.033 264.994 389.11 264.994 394.888C264.994 400.666 262.753 404.797 257.461 404.797ZM253.546 394.888C253.546 398.587 254.464 401.908 257.461 401.908C260.431 401.908 261.376 398.587 261.376 394.888C261.376 391.243 260.566 387.922 257.461 387.922C254.329 387.922 253.546 391.27 253.546 394.888Z"></path>
<path fill="white" d="M298.308 388.618L280.683 406.242L278.258 403.816L295.883 386.19H284.642L281.192 382.758H300.242C301.071 382.758 301.742 383.43 301.742 384.258V386.19H301.74V403.308L298.308 399.858V388.618Z" clip-rule="evenodd" fill-rule="evenodd"></path>
<rect fill-opacity="0.3" fill="white" rx="8" height="38" width="171" y="314" x="20"></rect>
<rect stroke-dasharray="2 2" stroke-opacity="0.5" stroke="#224944" rx="7.5" height="37" width="170" y="314.5" x="20.5"></rect>
<path fill-opacity="0.75" fill="#224944" d="M36.064 339.192C32.816 339.192 30.736 336.872 30.736 333.496C30.736 330.168 32.832 327.8 36.096 327.8C38.88 327.8 40.448 329.56 40.96 331.336L39.264 331.736C38.912 330.376 37.872 329.192 36.096 329.192C33.84 329.192 32.448 330.92 32.448 333.496C32.448 336.12 33.856 337.8 36.096 337.8C37.936 337.8 38.96 336.728 39.344 335.192L41.024 335.608C40.464 337.576 38.832 339.192 36.064 339.192ZM45.6291 339.192C43.1331 339.192 41.7251 337.32 41.7251 335.048C41.7251 332.792 43.1331 330.904 45.6291 330.904C48.1411 330.904 49.5651 332.792 49.5651 335.048C49.5651 337.32 48.1411 339.192 45.6291 339.192ZM45.6451 337.928C47.1811 337.928 47.9011 336.632 47.9011 335.048C47.9011 333.48 47.1811 332.168 45.6451 332.168C44.0931 332.168 43.3731 333.464 43.3731 335.048C43.3731 336.648 44.0931 337.928 45.6451 337.928ZM54.0048 339.192C51.9248 339.192 50.4368 337.544 50.4368 335.048C50.4368 332.552 51.9248 330.904 54.0048 330.904C55.4448 330.904 56.2608 331.656 56.6448 332.312V327.992H58.2288V339H56.6608V337.768C56.2448 338.472 55.4128 339.192 54.0048 339.192ZM54.3888 337.928C55.9248 337.928 56.7248 336.6 56.7248 335.048C56.7248 333.496 55.9248 332.168 54.3888 332.168C52.8368 332.168 52.0848 333.464 52.0848 335.048C52.0848 336.632 52.8368 337.928 54.3888 337.928ZM63.3931 339.192C61.2811 339.192 59.6011 337.768 59.6011 335.064C59.6011 332.456 61.3131 330.904 63.4411 330.904C65.5531 330.904 67.0731 332.504 67.0731 334.92V335.416H61.2011C61.2811 337.208 62.2571 337.96 63.4091 337.96C64.4971 337.96 65.1691 337.416 65.4251 336.392L67.0251 336.6C66.6251 337.928 65.5851 339.192 63.3931 339.192ZM61.2171 334.2H65.4091C65.3611 333.08 64.5771 332.12 63.4411 332.12C62.2731 332.12 61.3771 332.952 61.2171 334.2ZM68.3046 339V336.952H70.0646V339H68.3046ZM68.3046 333.144V331.096H70.0646V333.144H68.3046Z"></path>
<path fill="#224944" d="M77.2186 339L74.2586 327.992H76.3706L78.4826 336.488L80.6746 327.992H82.8666L85.0586 336.488L87.1546 327.992H89.2666L86.3066 339H83.9226L81.7626 330.504L79.6186 339H77.2186ZM90.4607 339V327.992H97.6607V329.688H92.4447V332.44H97.3087V334.104H92.4447V337.304H97.8687V339H90.4607ZM99.4689 339V327.992H101.501V337.304H106.909V339H99.4689ZM112.356 339.192C109.108 339.192 106.964 336.936 106.964 333.496C106.964 330.104 109.108 327.8 112.372 327.8C115.284 327.8 116.836 329.592 117.332 331.384L115.252 331.832C114.948 330.584 114.02 329.464 112.372 329.464C110.34 329.464 109.06 331.064 109.06 333.496C109.06 335.976 110.356 337.528 112.388 337.528C114.068 337.528 115.012 336.504 115.348 335.112L117.412 335.56C116.836 337.512 115.204 339.192 112.356 339.192ZM123.552 339.192C120.352 339.192 118.112 336.92 118.112 333.496C118.112 330.072 120.352 327.8 123.552 327.8C126.768 327.8 129.008 330.072 129.008 333.496C129.008 336.92 126.768 339.192 123.552 339.192ZM123.552 337.528C125.632 337.528 126.912 335.816 126.912 333.496C126.912 331.176 125.632 329.464 123.552 329.464C121.488 329.464 120.208 331.176 120.208 333.496C120.208 335.816 121.488 337.528 123.552 337.528ZM130.571 339V327.992H133.819L136.427 337.016L139.051 327.992H142.315V339H140.379V332.712C140.379 331.672 140.411 330.712 140.443 329.832L140.411 329.816L137.627 339H135.243L132.475 329.816L132.443 329.832C132.475 330.712 132.507 331.672 132.507 332.712V339H130.571ZM144.455 339V327.992H151.655V329.688H146.439V332.44H151.303V334.104H146.439V337.304H151.863V339H144.455ZM156.887 339.192C154.599 339.192 153.207 337.944 152.871 336.072L154.919 335.784C155.111 336.776 155.783 337.56 156.919 337.56C158.119 337.56 158.935 336.648 158.935 335.304C158.935 334.056 158.247 333.128 157.031 333.128C156.055 333.128 155.399 333.816 155.159 334.376L153.255 334.104L153.687 327.992H160.199V329.752H155.351L155.175 332.392L155.191 332.408C155.655 331.928 156.407 331.528 157.431 331.528C159.639 331.528 160.967 333.144 160.967 335.24C160.967 337.448 159.351 339.192 156.887 339.192ZM166.261 339.192C163.429 339.192 162.037 336.696 162.037 333.512C162.037 330.232 163.429 327.816 166.261 327.816C169.109 327.816 170.485 330.232 170.485 333.512C170.485 336.792 169.109 339.192 166.261 339.192ZM166.261 337.576C167.813 337.576 168.389 335.944 168.389 333.512C168.389 331.064 167.813 329.432 166.261 329.432C164.741 329.432 164.149 331.064 164.149 333.512C164.149 335.944 164.741 337.576 166.261 337.576ZM175.91 339.192C173.078 339.192 171.686 336.696 171.686 333.512C171.686 330.232 173.078 327.816 175.91 327.816C178.758 327.816 180.134 330.232 180.134 333.512C180.134 336.792 178.758 339.192 175.91 339.192ZM175.91 337.576C177.462 337.576 178.038 335.944 178.038 333.512C178.038 331.064 177.462 329.432 175.91 329.432C174.39 329.432 173.798 331.064 173.798 333.512C173.798 335.944 174.39 337.576 175.91 337.576Z"></path>
<defs>
<linearGradient gradientUnits="userSpaceOnUse" y2="456.429" x2="19.6697" y1="0.0487105" x1="392.625" id="paint0_linear_6664_3017">
<stop stop-color="#C9E2FF"></stop>
<stop stop-color="#F2F9E6" offset="1"></stop>
</linearGradient>
</defs>
</svg>
