<svg xmlns="http://www.w3.org/2000/svg" fill="none" viewBox="0 0 515 626" height="626" width="515">
<g clip-path="url(#clip0_6129_4784)">
<rect fill="#13162E" height="626" width="515"></rect>
<g clip-path="url(#clip1_6129_4784)">
<path fill="#22253F" d="M43 104.244C43 95.4076 50.1634 88.2441 59 88.2441H515V538.244H59C50.1634 538.244 43 531.081 43 522.244V104.244Z"></path>
<path fill-opacity="0.04" fill="white" d="M51 104.244C51 99.8259 54.5817 96.2441 59 96.2441H229C233.418 96.2441 237 99.8259 237 104.244V124.244C237 128.662 233.418 132.244 229 132.244H59C54.5817 132.244 51 128.662 51 124.244V104.244Z"></path>
<rect fill="#FCA118" rx="4" height="8" width="8" y="110.244" x="63"></rect>
<path fill="white" d="M80.162 118.744V109.112H82.542L85.104 117.232L87.652 109.112H90.046V118.744H88.632V112.626C88.632 111.744 88.66 110.834 88.674 110.4L88.66 110.386L85.93 118.744H84.264L81.548 110.386L81.534 110.4C81.548 110.834 81.576 111.744 81.576 112.626V118.744H80.162ZM94.0266 118.912C92.7806 118.912 91.6606 118.156 91.6606 116.868C91.6606 115.608 92.5426 115.034 94.0406 114.74L94.9926 114.544C95.7346 114.39 96.0846 114.236 96.0846 113.662C96.0846 113.088 95.6086 112.682 94.7686 112.682C93.8586 112.682 93.2706 113.242 93.2146 114.166L91.7866 114.04C91.8846 112.556 93.0746 111.66 94.7826 111.66C96.5466 111.66 97.4846 112.514 97.4846 113.97V118.744H96.1546V117.932H96.1406C95.8186 118.464 95.1046 118.912 94.0266 118.912ZM94.3906 117.918C95.3706 117.918 96.1406 117.274 96.1406 116.126V115.286C94.6846 115.524 93.9986 115.72 93.5786 115.986C93.2566 116.182 93.0746 116.462 93.0746 116.84C93.0746 117.484 93.6066 117.918 94.3906 117.918ZM99.3387 118.744V111.828H100.669V113.102C100.949 112.374 101.705 111.66 102.783 111.66C102.951 111.66 103.077 111.674 103.175 111.688V113.018C103.063 113.004 102.923 112.99 102.699 112.99C101.537 112.99 100.711 113.732 100.711 115.09V118.744H99.3387ZM108.95 118.744L105.674 115.23V118.744H104.288V109.112H105.674V115.02L108.6 111.828H110.392L107.312 115.048L110.784 118.744H108.95ZM114.118 118.912C112.27 118.912 110.8 117.666 110.8 115.3C110.8 113.018 112.298 111.66 114.16 111.66C116.008 111.66 117.338 113.06 117.338 115.174V115.608H112.2C112.27 117.176 113.124 117.834 114.132 117.834C115.084 117.834 115.672 117.358 115.896 116.462L117.296 116.644C116.946 117.806 116.036 118.912 114.118 118.912ZM112.214 114.544H115.882C115.84 113.564 115.154 112.724 114.16 112.724C113.138 112.724 112.354 113.452 112.214 114.544ZM120.993 118.814C120.111 118.814 119.523 118.464 119.313 117.764C119.229 117.554 119.201 117.33 119.201 117.036V112.962H117.983V111.828H119.201V109.644H120.587V111.828H122.015V112.962H120.587V116.84C120.587 117.442 120.867 117.652 121.413 117.652C121.693 117.652 121.847 117.638 122.071 117.596V118.716C121.721 118.772 121.413 118.814 120.993 118.814ZM126.797 118.744V109.112H130.297C133.265 109.112 134.973 110.932 134.973 113.914C134.973 116.896 133.265 118.744 130.297 118.744H126.797ZM130.283 117.498C132.495 117.498 133.475 116.056 133.475 113.914C133.475 111.758 132.495 110.358 130.283 110.358H128.253V117.498H130.283ZM139.465 118.912C137.617 118.912 136.147 117.666 136.147 115.3C136.147 113.018 137.645 111.66 139.507 111.66C141.355 111.66 142.685 113.06 142.685 115.174V115.608H137.547C137.617 117.176 138.471 117.834 139.479 117.834C140.431 117.834 141.019 117.358 141.243 116.462L142.643 116.644C142.293 117.806 141.383 118.912 139.465 118.912ZM137.561 114.544H141.229C141.187 113.564 140.501 112.724 139.507 112.724C138.485 112.724 137.701 113.452 137.561 114.544ZM144.169 121.334V111.828H145.541V112.906C145.919 112.29 146.647 111.66 147.865 111.66C149.685 111.66 151.001 113.102 151.001 115.286C151.001 117.47 149.685 118.912 147.865 118.912C146.619 118.912 145.905 118.254 145.555 117.694V121.334H144.169ZM147.543 117.806C148.901 117.806 149.559 116.672 149.559 115.286C149.559 113.9 148.901 112.766 147.543 112.766C146.185 112.766 145.499 113.928 145.499 115.286C145.499 116.644 146.185 117.806 147.543 117.806ZM154.64 118.814C153.758 118.814 153.17 118.464 152.96 117.764C152.876 117.554 152.848 117.33 152.848 117.036V112.962H151.63V111.828H152.848V109.644H154.234V111.828H155.662V112.962H154.234V116.84C154.234 117.442 154.514 117.652 155.06 117.652C155.34 117.652 155.494 117.638 155.718 117.596V118.716C155.368 118.772 155.06 118.814 154.64 118.814ZM157.089 118.744V109.112H158.475V112.794H158.489C158.923 112.122 159.637 111.66 160.687 111.66C162.227 111.66 163.137 112.584 163.137 114.264V118.744H161.751V114.866C161.751 113.62 161.471 112.822 160.309 112.822C159.147 112.822 158.475 113.76 158.475 114.88V118.744H157.089Z"></path>
<path fill="#26E986" d="M169.868 118.744V110.358H166.942V109.112H174.25V110.358H171.31V118.744H169.868ZM178.94 118.912C176.756 118.912 175.034 117.876 174.782 115.608L176.294 115.412C176.476 117.008 177.526 117.778 178.982 117.778C180.298 117.778 181.32 117.12 181.32 116.084C181.32 115.188 180.76 114.852 179.458 114.572L178.114 114.278C176.448 113.914 175.146 113.27 175.146 111.688C175.146 110.106 176.672 108.944 178.786 108.944C180.97 108.944 182.314 110.064 182.552 111.772L181.026 111.968C180.872 110.778 180.018 110.078 178.744 110.078C177.47 110.078 176.686 110.764 176.686 111.618C176.686 112.36 177.204 112.696 178.548 112.99L179.892 113.284C181.516 113.634 182.86 114.222 182.86 115.888C182.86 117.82 181.026 118.912 178.94 118.912ZM184.56 118.744V109.112H186.016V117.498H190.888V118.744H184.56ZM191.292 118.744L194.988 109.112H196.836L200.546 118.744H199.048L198.11 116.238H193.728L192.776 118.744H191.292ZM194.148 115.034H197.676L195.912 110.344L194.148 115.034Z"></path>
<path stroke-linecap="round" stroke="white" d="M215 110.244L223 118.244"></path>
<path stroke-linecap="round" stroke="white" d="M223 110.244L215 118.244"></path>
<circle stroke-width="1.5" stroke-opacity="0.5" stroke="white" r="2.05" cy="114.243" cx="458"></circle>
<path stroke-width="1.5" stroke-opacity="0.5" stroke="white" d="M455.745 107.994H460.254C460.687 107.994 461.09 108.219 461.317 108.587L464.411 113.587C464.66 113.99 464.66 114.499 464.411 114.901L461.317 119.902C461.09 120.27 460.687 120.494 460.254 120.494H455.745C455.312 120.494 454.91 120.269 454.683 119.901L451.589 114.902C451.34 114.499 451.34 113.99 451.589 113.587L454.683 108.587C454.91 108.219 455.312 107.994 455.745 107.994Z"></path>
<g opacity="0.5">
<circle fill="white" r="1.5" cy="114.244" cx="483.5"></circle>
<circle fill="white" r="1.5" cy="114.244" cx="490.5"></circle>
<circle fill="white" r="1.5" cy="114.244" cx="497.5"></circle>
</g>
<mask fill="white" id="path-13-inside-1_6129_4784">
<path d="M43 140.244H515V301.244H43V140.244Z"></path>
</mask>
<path mask="url(#path-13-inside-1_6129_4784)" fill-opacity="0.04" fill="white" d="M515 301.244V300.244H43V301.244V302.244H515V301.244Z"></path>
<g clip-path="url(#clip2_6129_4784)">
<path fill-opacity="0.08" fill="#26E986" d="M245.974 264.126H256.742L269.229 271.292H59V179.723L74.6628 191.666H92.2834L114.799 200.425L131.44 208.388H155.913L173.534 215.554V224.313L183.323 235.46L203.881 240.238L216.607 241.034L218.564 245.812H232.269L236.185 256.163L245.974 264.126Z"></path>
<path stroke-linecap="round" stroke="#26E986" d="M59 179.723L74.3942 191.462C74.5684 191.594 74.7814 191.666 75.0005 191.666H92.0957C92.2197 191.666 92.3427 191.69 92.4583 191.734L114.799 200.425L131.236 208.29C131.37 208.354 131.518 208.388 131.667 208.388H155.718C155.847 208.388 155.975 208.413 156.095 208.461L172.911 215.301C173.288 215.454 173.534 215.82 173.534 216.227V223.936C173.534 224.179 173.622 224.413 173.783 224.596L183.111 235.219C183.249 235.376 183.433 235.486 183.636 235.533L203.8 240.219C203.853 240.232 203.908 240.24 203.964 240.243L215.981 240.995C216.364 241.019 216.699 241.259 216.844 241.614L218.31 245.191C218.464 245.566 218.829 245.812 219.235 245.812H231.578C231.994 245.812 232.367 246.069 232.514 246.458L236.09 255.911C236.152 256.076 236.257 256.222 236.394 256.333L245.699 263.901C245.877 264.046 246.1 264.126 246.33 264.126H256.477C256.651 264.126 256.822 264.171 256.973 264.257L269.229 271.245"></path>
<path fill-opacity="0.08" fill="#F34646" d="M284.152 252.977L278.279 268.106L269.468 271.291H477V173.352L460.358 189.277H442.738H420.222L396.728 191.665L379.108 200.424H362.466L358.55 205.202L346.803 206.794L328.204 210.775L315.478 213.164L312.541 232.274L300.794 238.644L289.047 245.811L284.152 252.977Z"></path>
<path stroke-linecap="round" stroke="#F34646" d="M477 173.352L460.648 188.999C460.462 189.177 460.215 189.277 459.957 189.277H442.738H420.222L396.909 191.647C396.79 191.659 396.673 191.693 396.565 191.746L379.318 200.32C379.18 200.388 379.027 200.424 378.873 200.424H362.939C362.64 200.424 362.356 200.559 362.166 200.79L358.8 204.897C358.639 205.093 358.411 205.221 358.161 205.255L346.803 206.794L328.204 210.775L316.174 213.034C315.757 213.112 315.435 213.445 315.37 213.864L312.616 231.784C312.569 232.093 312.38 232.362 312.105 232.511L300.794 238.644L289.23 245.699C289.109 245.772 289.005 245.871 288.926 245.988L284.217 252.882C284.174 252.945 284.138 253.013 284.111 253.084L278.443 267.682C278.339 267.951 278.123 268.162 277.851 268.26L269.468 271.291"></path>
<path stroke-opacity="0.04" stroke="white" d="M269.229 140.244L269.229 271.244"></path>
</g>
<path fill="white" d="M489.199 159.388C487.075 159.388 486.139 157.648 486.139 155.308C486.139 152.368 487.351 150.856 489.319 150.856C490.903 150.856 491.707 151.828 491.923 152.956L490.711 153.172C490.591 152.404 490.111 151.852 489.259 151.852C487.843 151.852 487.339 153.364 487.339 155.116L487.351 155.128C487.627 154.54 488.323 153.964 489.367 153.964C491.011 153.964 492.019 155.116 492.019 156.64C492.019 158.176 490.927 159.388 489.199 159.388ZM489.223 158.404C490.075 158.404 490.807 157.78 490.807 156.664C490.807 155.476 490.063 154.96 489.235 154.96C488.263 154.96 487.567 155.668 487.567 156.64C487.567 157.672 488.299 158.404 489.223 158.404ZM496.301 159.388C494.237 159.388 493.229 157.48 493.229 155.128C493.229 152.668 494.237 150.868 496.301 150.868C498.353 150.868 499.361 152.668 499.361 155.128C499.361 157.588 498.353 159.388 496.301 159.388ZM496.301 158.392C497.585 158.392 498.077 157.036 498.077 155.128C498.077 153.232 497.585 151.876 496.301 151.876C495.017 151.876 494.525 153.232 494.525 155.128C494.525 157.036 495.017 158.392 496.301 158.392Z" opacity="0.3"></path>
<path fill="white" d="M489.123 179.587C487.503 179.587 486.483 178.663 486.231 177.295L487.479 177.091C487.647 177.919 488.199 178.567 489.159 178.567C490.179 178.567 490.863 177.811 490.863 176.695C490.863 175.639 490.287 174.859 489.267 174.859C488.439 174.859 487.899 175.447 487.695 175.915L486.495 175.735L486.819 171.187H491.523V172.291H487.851L487.695 174.571H487.707C488.079 174.175 488.667 173.851 489.471 173.851C491.151 173.851 492.111 175.099 492.111 176.647C492.111 178.267 490.923 179.587 489.123 179.587ZM496.301 179.587C494.237 179.587 493.229 177.679 493.229 175.327C493.229 172.867 494.237 171.067 496.301 171.067C498.353 171.067 499.361 172.867 499.361 175.327C499.361 177.787 498.353 179.587 496.301 179.587ZM496.301 178.591C497.585 178.591 498.077 177.235 498.077 175.327C498.077 173.431 497.585 172.075 496.301 172.075C495.017 172.075 494.525 173.431 494.525 175.327C494.525 177.235 495.017 178.591 496.301 178.591Z" opacity="0.3"></path>
<path fill="white" d="M489.752 199.645V197.833H485.816V196.717L489.128 191.389H490.94V196.801H492.296V197.833H490.94V199.645H489.752ZM486.992 196.801H489.752V192.337L486.992 196.801ZM496.301 199.789C494.237 199.789 493.229 197.881 493.229 195.529C493.229 193.069 494.237 191.269 496.301 191.269C498.353 191.269 499.361 193.069 499.361 195.529C499.361 197.989 498.353 199.789 496.301 199.789ZM496.301 198.793C497.585 198.793 498.077 197.437 498.077 195.529C498.077 193.633 497.585 192.277 496.301 192.277C495.017 192.277 494.525 193.633 494.525 195.529C494.525 197.437 495.017 198.793 496.301 198.793Z" opacity="0.3"></path>
<path fill="white" d="M489.054 219.988C487.338 219.988 486.198 219.004 486.102 217.42L487.314 217.228C487.386 218.38 488.106 218.992 489.078 218.992C490.134 218.992 490.758 218.392 490.758 217.492C490.758 216.64 490.17 216.052 489.018 216.052C488.694 216.052 488.49 216.064 488.262 216.076V215.08C488.454 215.092 488.67 215.092 489.006 215.092C489.966 215.092 490.59 214.576 490.59 213.736C490.59 213.016 490.062 212.464 489.114 212.464C488.118 212.464 487.506 213.1 487.434 214.132L486.234 213.928C486.306 212.44 487.446 211.456 489.138 211.456C490.722 211.456 491.838 212.248 491.838 213.652C491.838 214.732 491.106 215.26 490.434 215.5V215.512C491.37 215.74 492.018 216.424 492.018 217.504C492.018 219.028 490.818 219.988 489.054 219.988ZM496.301 219.988C494.237 219.988 493.229 218.08 493.229 215.728C493.229 213.268 494.237 211.468 496.301 211.468C498.353 211.468 499.361 213.268 499.361 215.728C499.361 218.188 498.353 219.988 496.301 219.988ZM496.301 218.992C497.585 218.992 498.077 217.636 498.077 215.728C498.077 213.832 497.585 212.476 496.301 212.476C495.017 212.476 494.525 213.832 494.525 215.728C494.525 217.636 495.017 218.992 496.301 218.992Z" opacity="0.3"></path>
<path fill="white" d="M486.468 240.045V239.013L487.104 238.593C489.276 237.189 490.68 235.917 490.68 234.177C490.68 233.253 490.164 232.677 489.252 232.677C488.352 232.677 487.74 233.241 487.74 234.261C487.74 234.489 487.764 234.681 487.8 234.861L486.528 234.705C486.516 234.609 486.492 234.441 486.492 234.201C486.492 232.617 487.632 231.657 489.264 231.657C490.944 231.657 491.952 232.569 491.952 234.117C491.952 236.097 490.5 237.501 488.676 238.641L488.124 238.989V239.001H491.928V240.045H486.468ZM496.301 240.189C494.237 240.189 493.229 238.281 493.229 235.929C493.229 233.469 494.237 231.669 496.301 231.669C498.353 231.669 499.361 233.469 499.361 235.929C499.361 238.389 498.353 240.189 496.301 240.189ZM496.301 239.193C497.585 239.193 498.077 237.837 498.077 235.929C498.077 234.033 497.585 232.677 496.301 232.677C495.017 232.677 494.525 234.033 494.525 235.929C494.525 237.837 495.017 239.193 496.301 239.193Z" opacity="0.3"></path>
<path fill="white" d="M490.351 260.244V254.652H488.347V253.776H488.479C489.775 253.776 490.543 253.428 490.543 252.072V251.988H491.575V260.244H490.351ZM496.301 260.388C494.237 260.388 493.229 258.48 493.229 256.128C493.229 253.668 494.237 251.868 496.301 251.868C498.353 251.868 499.361 253.668 499.361 256.128C499.361 258.588 498.353 260.388 496.301 260.388ZM496.301 259.392C497.585 259.392 498.077 258.036 498.077 256.128C498.077 254.232 497.585 252.876 496.301 252.876C495.017 252.876 494.525 254.232 494.525 256.128C494.525 258.036 495.017 259.392 496.301 259.392Z" opacity="0.3"></path>
<path fill="white" d="M61.6751 290.244V284.652H59.6711V283.776H59.8031C61.0991 283.776 61.8671 283.428 61.8671 282.072V281.988H62.8991V290.244H61.6751ZM67.6251 290.388C65.5611 290.388 64.5531 288.48 64.5531 286.128C64.5531 283.668 65.5611 281.868 67.6251 281.868C69.6771 281.868 70.6851 283.668 70.6851 286.128C70.6851 288.588 69.6771 290.388 67.6251 290.388ZM67.6251 289.392C68.9091 289.392 69.4011 288.036 69.4011 286.128C69.4011 284.232 68.9091 282.876 67.6251 282.876C66.3411 282.876 65.8491 284.232 65.8491 286.128C65.8491 288.036 66.3411 289.392 67.6251 289.392ZM71.7744 290.244V288.708H73.0944V290.244H71.7744ZM77.2111 290.388C75.1471 290.388 74.1391 288.48 74.1391 286.128C74.1391 283.668 75.1471 281.868 77.2111 281.868C79.2631 281.868 80.2711 283.668 80.2711 286.128C80.2711 288.588 79.2631 290.388 77.2111 290.388ZM77.2111 289.392C78.4951 289.392 78.9871 288.036 78.9871 286.128C78.9871 284.232 78.4951 282.876 77.2111 282.876C75.9271 282.876 75.4351 284.232 75.4351 286.128C75.4351 288.036 75.9271 289.392 77.2111 289.392ZM84.4622 290.388C82.7822 290.388 81.5342 289.512 81.5342 287.928C81.5342 286.704 82.3742 286.092 83.0462 285.852V285.84C82.5182 285.648 81.7742 285.024 81.7742 284.04C81.7742 282.696 82.9382 281.844 84.4622 281.844C85.9862 281.844 87.1502 282.696 87.1502 284.04C87.1502 285.024 86.3942 285.648 85.8662 285.84V285.852C86.5382 286.08 87.3782 286.704 87.3782 287.928C87.3782 289.512 86.1422 290.388 84.4622 290.388ZM84.4622 289.368C85.5062 289.368 86.1422 288.756 86.1422 287.856C86.1422 286.98 85.4222 286.392 84.4622 286.392C83.5022 286.392 82.7822 286.98 82.7822 287.856C82.7822 288.756 83.4182 289.368 84.4622 289.368ZM84.4622 285.444C85.2902 285.444 85.9262 284.88 85.9262 284.136C85.9262 283.38 85.3502 282.84 84.4622 282.84C83.5742 282.84 82.9862 283.38 82.9862 284.136C82.9862 284.88 83.6222 285.444 84.4622 285.444Z" opacity="0.3"></path>
<path fill="white" d="M160.117 290.244V284.652H158.113V283.776H158.245C159.541 283.776 160.309 283.428 160.309 282.072V281.988H161.34V290.244H160.117ZM166.067 290.388C164.003 290.388 162.995 288.48 162.995 286.128C162.995 283.668 164.003 281.868 166.067 281.868C168.119 281.868 169.127 283.668 169.127 286.128C169.127 288.588 168.119 290.388 166.067 290.388ZM166.067 289.392C167.351 289.392 167.843 288.036 167.843 286.128C167.843 284.232 167.351 282.876 166.067 282.876C164.783 282.876 164.291 284.232 164.291 286.128C164.291 288.036 164.783 289.392 166.067 289.392ZM170.216 290.244V288.708H171.536V290.244H170.216ZM175.652 290.388C173.588 290.388 172.58 288.48 172.58 286.128C172.58 283.668 173.588 281.868 175.652 281.868C177.704 281.868 178.712 283.668 178.712 286.128C178.712 288.588 177.704 290.388 175.652 290.388ZM175.652 289.392C176.936 289.392 177.428 288.036 177.428 286.128C177.428 284.232 176.936 282.876 175.652 282.876C174.368 282.876 173.876 284.232 173.876 286.128C173.876 288.036 174.368 289.392 175.652 289.392ZM182.676 290.388C181.092 290.388 180.288 289.428 180.072 288.288L181.284 288.072C181.404 288.84 181.872 289.404 182.736 289.404C184.164 289.404 184.644 287.88 184.644 286.128L184.632 286.116C184.368 286.704 183.66 287.28 182.616 287.28C180.984 287.28 179.976 286.128 179.976 284.604C179.976 283.068 181.068 281.856 182.796 281.856C184.92 281.856 185.856 283.596 185.856 285.948C185.856 288.876 184.632 290.388 182.676 290.388ZM182.76 286.296C183.732 286.296 184.428 285.576 184.428 284.604C184.428 283.572 183.696 282.852 182.772 282.852C181.908 282.852 181.176 283.464 181.176 284.592C181.176 285.768 181.92 286.296 182.76 286.296Z" opacity="0.3"></path>
<path fill="white" d="M258.675 290.244V284.652H256.671V283.776H256.803C258.099 283.776 258.867 283.428 258.867 282.072V281.988H259.899V290.244H258.675ZM264.625 290.388C262.561 290.388 261.553 288.48 261.553 286.128C261.553 283.668 262.561 281.868 264.625 281.868C266.677 281.868 267.685 283.668 267.685 286.128C267.685 288.588 266.677 290.388 264.625 290.388ZM264.625 289.392C265.909 289.392 266.401 288.036 266.401 286.128C266.401 284.232 265.909 282.876 264.625 282.876C263.341 282.876 262.849 284.232 262.849 286.128C262.849 288.036 263.341 289.392 264.625 289.392ZM268.774 290.244V288.708H270.094V290.244H268.774ZM272.351 290.244V284.652H270.347V283.776H270.479C271.775 283.776 272.543 283.428 272.543 282.072V281.988H273.575V290.244H272.351ZM278.301 290.388C276.237 290.388 275.229 288.48 275.229 286.128C275.229 283.668 276.237 281.868 278.301 281.868C280.353 281.868 281.361 283.668 281.361 286.128C281.361 288.588 280.353 290.388 278.301 290.388ZM278.301 289.392C279.585 289.392 280.077 288.036 280.077 286.128C280.077 284.232 279.585 282.876 278.301 282.876C277.017 282.876 276.525 284.232 276.525 286.128C276.525 288.036 277.017 289.392 278.301 289.392Z" opacity="0.3"></path>
<path fill="white" d="M354.742 290.244V284.652H352.738V283.776H352.87C354.166 283.776 354.934 283.428 354.934 282.072V281.988H355.965V290.244H354.742ZM359.324 290.244V284.652H357.32V283.776H357.452C358.748 283.776 359.516 283.428 359.516 282.072V281.988H360.548V290.244H359.324ZM362.31 290.244V288.708H363.63V290.244H362.31ZM364.968 290.244V289.212L365.604 288.792C367.776 287.388 369.18 286.116 369.18 284.376C369.18 283.452 368.664 282.876 367.752 282.876C366.852 282.876 366.24 283.44 366.24 284.46C366.24 284.688 366.264 284.88 366.3 285.06L365.028 284.904C365.016 284.808 364.992 284.64 364.992 284.4C364.992 282.816 366.132 281.856 367.764 281.856C369.444 281.856 370.452 282.768 370.452 284.316C370.452 286.296 369 287.7 367.176 288.84L366.624 289.188V289.2H370.428V290.244H364.968ZM374.801 290.388C372.737 290.388 371.729 288.48 371.729 286.128C371.729 283.668 372.737 281.868 374.801 281.868C376.853 281.868 377.861 283.668 377.861 286.128C377.861 288.588 376.853 290.388 374.801 290.388ZM374.801 289.392C376.085 289.392 376.577 288.036 376.577 286.128C376.577 284.232 376.085 282.876 374.801 282.876C373.517 282.876 373.025 284.232 373.025 286.128C373.025 288.036 373.517 289.392 374.801 289.392Z" opacity="0.3"></path>
<path fill="white" d="M450.429 290.244V284.652H448.425V283.776H448.557C449.853 283.776 450.621 283.428 450.621 282.072V281.988H451.653V290.244H450.429ZM456.163 290.388C454.447 290.388 453.307 289.404 453.211 287.82L454.423 287.628C454.495 288.78 455.215 289.392 456.187 289.392C457.243 289.392 457.867 288.792 457.867 287.892C457.867 287.04 457.279 286.452 456.127 286.452C455.803 286.452 455.599 286.464 455.371 286.476V285.48C455.563 285.492 455.779 285.492 456.115 285.492C457.075 285.492 457.699 284.976 457.699 284.136C457.699 283.416 457.171 282.864 456.223 282.864C455.227 282.864 454.615 283.5 454.543 284.532L453.343 284.328C453.415 282.84 454.555 281.856 456.247 281.856C457.831 281.856 458.947 282.648 458.947 284.052C458.947 285.132 458.215 285.66 457.543 285.9V285.912C458.479 286.14 459.127 286.824 459.127 287.904C459.127 289.428 457.927 290.388 456.163 290.388ZM460.446 290.244V288.708H461.766V290.244H460.446ZM465.804 290.388C464.22 290.388 463.416 289.428 463.2 288.288L464.412 288.072C464.532 288.84 465 289.404 465.864 289.404C467.292 289.404 467.772 287.88 467.772 286.128L467.76 286.116C467.496 286.704 466.788 287.28 465.744 287.28C464.112 287.28 463.104 286.128 463.104 284.604C463.104 283.068 464.196 281.856 465.924 281.856C468.048 281.856 468.984 283.596 468.984 285.948C468.984 288.876 467.76 290.388 465.804 290.388ZM465.888 286.296C466.86 286.296 467.556 285.576 467.556 284.604C467.556 283.572 466.824 282.852 465.9 282.852C465.036 282.852 464.304 283.464 464.304 284.592C464.304 285.768 465.048 286.296 465.888 286.296ZM473.301 290.388C471.237 290.388 470.229 288.48 470.229 286.128C470.229 283.668 471.237 281.868 473.301 281.868C475.353 281.868 476.361 283.668 476.361 286.128C476.361 288.588 475.353 290.388 473.301 290.388ZM473.301 289.392C474.585 289.392 475.077 288.036 475.077 286.128C475.077 284.232 474.585 282.876 473.301 282.876C472.017 282.876 471.525 284.232 471.525 286.128C471.525 288.036 472.017 289.392 473.301 289.392Z" opacity="0.3"></path>
<mask fill="white" id="path-32-inside-2_6129_4784">
<path d="M43 301.244H515V350.244H43V301.244Z"></path>
</mask>
<path mask="url(#path-32-inside-2_6129_4784)" fill-opacity="0.04" fill="white" d="M515 350.244V349.244H43V350.244V351.244H515V350.244Z"></path>
<path fill="white" d="M63.584 320.388C61.172 320.388 59.54 318.636 59.54 316.116C59.54 313.596 61.172 311.844 63.584 311.844C65.996 311.844 67.64 313.596 67.64 316.116C67.64 318.636 65.996 320.388 63.584 320.388ZM63.584 319.344C65.288 319.344 66.356 317.94 66.356 316.116C66.356 314.292 65.288 312.888 63.584 312.888C61.88 312.888 60.824 314.292 60.824 316.116C60.824 317.94 61.88 319.344 63.584 319.344ZM68.8863 322.464V314.316H70.0623V315.24C70.3863 314.712 71.0103 314.172 72.0543 314.172C73.6143 314.172 74.7423 315.408 74.7423 317.28C74.7423 319.152 73.6143 320.388 72.0543 320.388C70.9863 320.388 70.3743 319.824 70.0743 319.344V322.464H68.8863ZM71.7783 319.44C72.9423 319.44 73.5063 318.468 73.5063 317.28C73.5063 316.092 72.9423 315.12 71.7783 315.12C70.6143 315.12 70.0263 316.116 70.0263 317.28C70.0263 318.444 70.6143 319.44 71.7783 319.44ZM78.4836 320.388C76.8996 320.388 75.6396 319.32 75.6396 317.292C75.6396 315.336 76.9236 314.172 78.5196 314.172C80.1036 314.172 81.2436 315.372 81.2436 317.184V317.556H76.8396C76.8996 318.9 77.6316 319.464 78.4956 319.464C79.3116 319.464 79.8156 319.056 80.0076 318.288L81.2076 318.444C80.9076 319.44 80.1276 320.388 78.4836 320.388ZM76.8516 316.644H79.9956C79.9596 315.804 79.3716 315.084 78.5196 315.084C77.6436 315.084 76.9716 315.708 76.8516 316.644ZM82.5152 320.244V314.316H83.6912V315.156H83.7032C84.0392 314.64 84.6992 314.172 85.5992 314.172C86.9192 314.172 87.6992 314.964 87.6992 316.404V320.244H86.5112V316.92C86.5112 315.852 86.2712 315.168 85.2752 315.168C84.2792 315.168 83.7032 315.972 83.7032 316.932V320.244H82.5152Z" opacity="0.3"></path>
<path fill="white" d="M61.688 338.244V331.72H59.35V330.698H59.504C61.016 330.698 61.912 330.292 61.912 328.71V328.612H63.116V338.244H61.688ZM68.6297 338.412C66.2217 338.412 65.0457 336.186 65.0457 333.442C65.0457 330.572 66.2217 328.472 68.6297 328.472C71.0237 328.472 72.1997 330.572 72.1997 333.442C72.1997 336.312 71.0237 338.412 68.6297 338.412ZM68.6297 337.25C70.1277 337.25 70.7017 335.668 70.7017 333.442C70.7017 331.23 70.1277 329.648 68.6297 329.648C67.1317 329.648 66.5577 331.23 66.5577 333.442C66.5577 335.668 67.1317 337.25 68.6297 337.25ZM73.4705 338.244V336.452H75.0105V338.244H73.4705ZM77.6431 338.244V331.72H75.3051V330.698H75.4591C76.9711 330.698 77.8671 330.292 77.8671 328.71V328.612H79.0711V338.244H77.6431ZM84.5848 338.412C82.1768 338.412 81.0008 336.186 81.0008 333.442C81.0008 330.572 82.1768 328.472 84.5848 328.472C86.9788 328.472 88.1548 330.572 88.1548 333.442C88.1548 336.312 86.9788 338.412 84.5848 338.412ZM84.5848 337.25C86.0828 337.25 86.6568 335.668 86.6568 333.442C86.6568 331.23 86.0828 329.648 84.5848 329.648C83.0868 329.648 82.5128 331.23 82.5128 333.442C82.5128 335.668 83.0868 337.25 84.5848 337.25Z"></path>
<path fill="white" d="M141.396 320.244V316.44H137.244V320.244H135.996V311.988H137.244V315.372H141.396V311.988H142.632V320.244H141.396ZM144.347 320.244V314.316H145.535V320.244H144.347ZM144.347 313.392V311.988H145.535V313.392H144.347ZM149.643 322.608C148.167 322.608 147.135 321.876 147.003 320.592L148.227 320.436C148.311 321.288 148.851 321.708 149.691 321.708C150.555 321.708 151.155 321.24 151.155 320.16V318.996C150.867 319.452 150.315 319.98 149.367 319.98C147.903 319.98 146.835 318.888 146.835 317.076C146.835 315.252 147.903 314.172 149.367 314.172C150.339 314.172 150.891 314.712 151.167 315.168V314.316H152.343V320.208C152.343 321.888 151.155 322.608 149.643 322.608ZM149.619 319.02C150.639 319.02 151.191 318.084 151.191 317.076C151.191 316.068 150.639 315.132 149.619 315.132C148.635 315.132 148.071 315.936 148.071 317.076C148.071 318.216 148.635 319.02 149.619 319.02ZM153.968 320.244V311.988H155.156V315.144H155.168C155.54 314.568 156.152 314.172 157.052 314.172C158.372 314.172 159.152 314.964 159.152 316.404V320.244H157.964V316.92C157.964 315.852 157.724 315.168 156.728 315.168C155.732 315.168 155.156 315.972 155.156 316.932V320.244H153.968Z" opacity="0.3"></path>
<path fill="white" d="M137.688 338.244V331.72H135.35V330.698H135.504C137.016 330.698 137.912 330.292 137.912 328.71V328.612H139.116V338.244H137.688ZM144.63 338.412C142.222 338.412 141.046 336.186 141.046 333.442C141.046 330.572 142.222 328.472 144.63 328.472C147.024 328.472 148.2 330.572 148.2 333.442C148.2 336.312 147.024 338.412 144.63 338.412ZM144.63 337.25C146.128 337.25 146.702 335.668 146.702 333.442C146.702 331.23 146.128 329.648 144.63 329.648C143.132 329.648 142.558 331.23 142.558 333.442C142.558 335.668 143.132 337.25 144.63 337.25ZM149.471 338.244V336.452H151.011V338.244H149.471ZM156.828 338.244V336.13H152.236V334.828L156.1 328.612H158.214V334.926H159.796V336.13H158.214V338.244H156.828ZM153.608 334.926H156.828V329.718L153.608 334.926ZM162.167 338.244C162.839 335.304 164.267 332.28 165.695 329.802H161.663V331.118H160.263V328.612H167.151V329.718C165.639 332.28 164.323 335.29 163.721 338.244H162.167Z"></path>
<path fill="white" d="M211.996 320.244V311.988H213.244V319.176H217.42V320.244H211.996ZM220.747 320.388C218.875 320.388 217.819 318.984 217.819 317.28C217.819 315.588 218.875 314.172 220.747 314.172C222.631 314.172 223.699 315.588 223.699 317.28C223.699 318.984 222.631 320.388 220.747 320.388ZM220.759 319.44C221.911 319.44 222.451 318.468 222.451 317.28C222.451 316.104 221.911 315.12 220.759 315.12C219.595 315.12 219.055 316.092 219.055 317.28C219.055 318.48 219.595 319.44 220.759 319.44ZM226.142 320.244L224.258 314.316H225.518L226.814 318.792H226.826L228.17 314.316H229.358L230.714 318.78H230.726L232.022 314.316H233.258L231.374 320.244H230.126L228.782 315.672H228.77L227.402 320.244H226.142Z" opacity="0.3"></path>
<path fill="white" d="M214.878 338.412C213.03 338.412 212.092 337.292 211.84 335.962L213.254 335.71C213.394 336.606 213.94 337.264 214.948 337.264C216.614 337.264 217.174 335.486 217.174 333.442L217.16 333.428C216.852 334.114 216.026 334.786 214.808 334.786C212.904 334.786 211.728 333.442 211.728 331.664C211.728 329.872 213.002 328.458 215.018 328.458C217.496 328.458 218.588 330.488 218.588 333.232C218.588 336.648 217.16 338.412 214.878 338.412ZM214.976 333.638C216.11 333.638 216.922 332.798 216.922 331.664C216.922 330.46 216.068 329.62 214.99 329.62C213.982 329.62 213.128 330.334 213.128 331.65C213.128 333.022 213.996 333.638 214.976 333.638ZM219.851 338.244V336.452H221.391V338.244H219.851ZM226.103 338.412C224.255 338.412 223.317 337.292 223.065 335.962L224.479 335.71C224.619 336.606 225.165 337.264 226.173 337.264C227.839 337.264 228.399 335.486 228.399 333.442L228.385 333.428C228.077 334.114 227.251 334.786 226.033 334.786C224.129 334.786 222.953 333.442 222.953 331.664C222.953 329.872 224.227 328.458 226.243 328.458C228.721 328.458 229.813 330.488 229.813 333.232C229.813 336.648 228.385 338.412 226.103 338.412ZM226.201 333.638C227.335 333.638 228.147 332.798 228.147 331.664C228.147 330.46 227.293 329.62 226.215 329.62C225.207 329.62 224.353 330.334 224.353 331.65C224.353 333.022 225.221 333.638 226.201 333.638ZM233.252 338.244V331.72H230.914V330.698H231.068C232.58 330.698 233.476 330.292 233.476 328.71V328.612H234.68V338.244H233.252Z"></path>
<path fill="white" d="M291.548 320.388C289.112 320.388 287.552 318.648 287.552 316.116C287.552 313.62 289.124 311.844 291.572 311.844C293.66 311.844 294.836 313.164 295.22 314.496L293.948 314.796C293.684 313.776 292.904 312.888 291.572 312.888C289.88 312.888 288.836 314.184 288.836 316.116C288.836 318.084 289.892 319.344 291.572 319.344C292.952 319.344 293.72 318.54 294.008 317.388L295.268 317.7C294.848 319.176 293.624 320.388 291.548 320.388ZM296.406 320.244V311.988H297.594V320.244H296.406ZM301.786 320.388C299.914 320.388 298.858 318.984 298.858 317.28C298.858 315.588 299.914 314.172 301.786 314.172C303.67 314.172 304.738 315.588 304.738 317.28C304.738 318.984 303.67 320.388 301.786 320.388ZM301.798 319.44C302.95 319.44 303.49 318.468 303.49 317.28C303.49 316.104 302.95 315.12 301.798 315.12C300.634 315.12 300.094 316.092 300.094 317.28C300.094 318.48 300.634 319.44 301.798 319.44ZM308.188 320.388C306.712 320.388 305.632 319.704 305.5 318.288L306.676 318.144C306.736 319.08 307.396 319.512 308.212 319.512C309.016 319.512 309.556 319.152 309.556 318.576C309.556 318 309.004 317.88 308.26 317.712L307.384 317.508C306.424 317.28 305.764 316.824 305.764 315.912C305.764 314.904 306.76 314.172 308.164 314.172C309.52 314.172 310.444 314.856 310.6 315.96L309.412 316.128C309.328 315.42 308.812 315.048 308.116 315.048C307.408 315.048 306.952 315.396 306.952 315.852C306.952 316.284 307.216 316.44 307.96 316.608L308.836 316.812C310.084 317.1 310.744 317.508 310.744 318.456C310.744 319.644 309.64 320.388 308.188 320.388ZM314.441 320.388C312.857 320.388 311.597 319.32 311.597 317.292C311.597 315.336 312.881 314.172 314.477 314.172C316.061 314.172 317.201 315.372 317.201 317.184V317.556H312.797C312.857 318.9 313.589 319.464 314.453 319.464C315.269 319.464 315.773 319.056 315.965 318.288L317.165 318.444C316.865 319.44 316.085 320.388 314.441 320.388ZM312.809 316.644H315.953C315.917 315.804 315.329 315.084 314.477 315.084C313.601 315.084 312.929 315.708 312.809 316.644Z" opacity="0.3"></path>
<path fill="white" d="M289.688 338.244V331.72H287.35V330.698H287.504C289.016 330.698 289.912 330.292 289.912 328.71V328.612H291.116V338.244H289.688ZM296.63 338.412C294.222 338.412 293.046 336.186 293.046 333.442C293.046 330.572 294.222 328.472 296.63 328.472C299.024 328.472 300.2 330.572 300.2 333.442C300.2 336.312 299.024 338.412 296.63 338.412ZM296.63 337.25C298.128 337.25 298.702 335.668 298.702 333.442C298.702 331.23 298.128 329.648 296.63 329.648C295.132 329.648 294.558 331.23 294.558 333.442C294.558 335.668 295.132 337.25 296.63 337.25ZM301.471 338.244V336.452H303.011V338.244H301.471ZM307.813 338.412C305.405 338.412 304.229 336.186 304.229 333.442C304.229 330.572 305.405 328.472 307.813 328.472C310.207 328.472 311.383 330.572 311.383 333.442C311.383 336.312 310.207 338.412 307.813 338.412ZM307.813 337.25C309.311 337.25 309.885 335.668 309.885 333.442C309.885 331.23 309.311 329.648 307.813 329.648C306.315 329.648 305.741 331.23 305.741 333.442C305.741 335.668 306.315 337.25 307.813 337.25ZM316.133 338.412C314.243 338.412 313.053 337.334 312.759 335.738L314.215 335.5C314.411 336.466 315.055 337.222 316.175 337.222C317.365 337.222 318.163 336.34 318.163 335.038C318.163 333.806 317.491 332.896 316.301 332.896C315.335 332.896 314.705 333.582 314.467 334.128L313.067 333.918L313.445 328.612H318.933V329.9H314.649L314.467 332.56H314.481C314.915 332.098 315.601 331.72 316.539 331.72C318.499 331.72 319.619 333.176 319.619 334.982C319.619 336.872 318.233 338.412 316.133 338.412Z"></path>
<path fill="white" d="M366.192 320.244L363.192 311.988H364.536L366.912 318.768L369.276 311.988H370.608L367.608 320.244H366.192ZM373.325 320.244L371.069 311.988H372.365L374.081 318.624L375.869 311.988H377.201L378.977 318.648L380.705 311.988H382.001L379.733 320.244H378.305L376.529 313.548L374.753 320.244H373.325ZM381.918 320.244L385.086 311.988H386.67L389.85 320.244H388.566L387.762 318.096H384.006L383.19 320.244H381.918ZM384.366 317.064H387.39L385.878 313.044L384.366 317.064ZM391.019 320.244V311.988H394.007C395.747 311.988 396.851 312.768 396.851 314.448C396.851 316.26 395.687 317.004 393.983 317.004H392.255V320.244H391.019ZM392.255 315.948H393.947C395.111 315.948 395.603 315.42 395.603 314.472C395.603 313.512 395.051 313.056 393.875 313.056H392.255V315.948Z" opacity="0.3"></path>
<path fill="white" d="M365.688 338.244V331.72H363.35V330.698H363.504C365.016 330.698 365.912 330.292 365.912 328.71V328.612H367.116V338.244H365.688ZM372.63 338.412C370.222 338.412 369.046 336.186 369.046 333.442C369.046 330.572 370.222 328.472 372.63 328.472C375.024 328.472 376.2 330.572 376.2 333.442C376.2 336.312 375.024 338.412 372.63 338.412ZM372.63 337.25C374.128 337.25 374.702 335.668 374.702 333.442C374.702 331.23 374.128 329.648 372.63 329.648C371.132 329.648 370.558 331.23 370.558 333.442C370.558 335.668 371.132 337.25 372.63 337.25ZM377.471 338.244V336.452H379.011V338.244H377.471ZM383.813 338.412C381.405 338.412 380.229 336.186 380.229 333.442C380.229 330.572 381.405 328.472 383.813 328.472C386.207 328.472 387.383 330.572 387.383 333.442C387.383 336.312 386.207 338.412 383.813 338.412ZM383.813 337.25C385.311 337.25 385.885 335.668 385.885 333.442C385.885 331.23 385.311 329.648 383.813 329.648C382.315 329.648 381.741 331.23 381.741 333.442C381.741 335.668 382.315 337.25 383.813 337.25ZM392.273 338.412C390.313 338.412 388.857 337.39 388.857 335.542C388.857 334.114 389.837 333.4 390.621 333.12V333.106C390.005 332.882 389.137 332.154 389.137 331.006C389.137 329.438 390.495 328.444 392.273 328.444C394.051 328.444 395.409 329.438 395.409 331.006C395.409 332.154 394.527 332.882 393.911 333.106V333.12C394.695 333.386 395.675 334.114 395.675 335.542C395.675 337.39 394.233 338.412 392.273 338.412ZM392.273 337.222C393.491 337.222 394.233 336.508 394.233 335.458C394.233 334.436 393.393 333.75 392.273 333.75C391.153 333.75 390.313 334.436 390.313 335.458C390.313 336.508 391.055 337.222 392.273 337.222ZM392.273 332.644C393.239 332.644 393.981 331.986 393.981 331.118C393.981 330.236 393.309 329.606 392.273 329.606C391.237 329.606 390.551 330.236 390.551 331.118C390.551 331.986 391.293 332.644 392.273 332.644Z"></path>
<path fill="white" d="M442.192 320.244L439.192 311.988H440.536L442.912 318.768L445.276 311.988H446.608L443.608 320.244H442.192ZM449.368 320.388C447.496 320.388 446.44 318.984 446.44 317.28C446.44 315.588 447.496 314.172 449.368 314.172C451.252 314.172 452.32 315.588 452.32 317.28C452.32 318.984 451.252 320.388 449.368 320.388ZM449.38 319.44C450.532 319.44 451.072 318.468 451.072 317.28C451.072 316.104 450.532 315.12 449.38 315.12C448.216 315.12 447.676 316.092 447.676 317.28C447.676 318.48 448.216 319.44 449.38 319.44ZM453.574 320.244V311.988H454.762V320.244H453.574ZM458.39 320.388C457.022 320.388 456.326 319.524 456.326 318.168V314.316H457.514V317.76C457.514 318.768 457.754 319.392 458.714 319.392C459.638 319.392 460.214 318.588 460.214 317.676V314.316H461.402V320.244H460.226V319.404H460.214C459.818 320.004 459.194 320.388 458.39 320.388ZM463.031 320.244V314.316H464.207V315.156H464.219C464.471 314.688 465.107 314.172 465.983 314.172C466.943 314.172 467.495 314.664 467.747 315.3C467.987 314.868 468.575 314.172 469.619 314.172C470.975 314.172 471.647 315.06 471.647 316.416V320.244H470.459V316.896C470.459 315.84 470.291 315.168 469.319 315.168C468.455 315.168 467.927 315.996 467.927 316.944V320.244H466.751V316.896C466.751 315.84 466.583 315.168 465.623 315.168C464.747 315.168 464.219 315.996 464.219 316.944V320.244H463.031ZM475.698 320.388C474.114 320.388 472.854 319.32 472.854 317.292C472.854 315.336 474.138 314.172 475.734 314.172C477.318 314.172 478.458 315.372 478.458 317.184V317.556H474.054C474.114 318.9 474.846 319.464 475.71 319.464C476.526 319.464 477.03 319.056 477.222 318.288L478.422 318.444C478.122 319.44 477.342 320.388 475.698 320.388ZM474.066 316.644H477.21C477.174 315.804 476.586 315.084 475.734 315.084C474.858 315.084 474.186 315.708 474.066 316.644Z" opacity="0.3"></path>
<path fill="white" d="M443.004 338.412C441.114 338.412 439.924 337.334 439.63 335.738L441.086 335.5C441.282 336.466 441.926 337.222 443.046 337.222C444.236 337.222 445.034 336.34 445.034 335.038C445.034 333.806 444.362 332.896 443.172 332.896C442.206 332.896 441.576 333.582 441.338 334.128L439.938 333.918L440.316 328.612H445.804V329.9H441.52L441.338 332.56H441.352C441.786 332.098 442.472 331.72 443.41 331.72C445.37 331.72 446.49 333.176 446.49 334.982C446.49 336.872 445.104 338.412 443.004 338.412ZM451.126 338.412C449.124 338.412 447.794 337.264 447.682 335.416L449.096 335.192C449.18 336.536 450.02 337.25 451.154 337.25C452.386 337.25 453.114 336.55 453.114 335.5C453.114 334.506 452.428 333.82 451.084 333.82C450.706 333.82 450.468 333.834 450.202 333.848V332.686C450.426 332.7 450.678 332.7 451.07 332.7C452.19 332.7 452.918 332.098 452.918 331.118C452.918 330.278 452.302 329.634 451.196 329.634C450.034 329.634 449.32 330.376 449.236 331.58L447.836 331.342C447.92 329.606 449.25 328.458 451.224 328.458C453.072 328.458 454.374 329.382 454.374 331.02C454.374 332.28 453.52 332.896 452.736 333.176V333.19C453.828 333.456 454.584 334.254 454.584 335.514C454.584 337.292 453.184 338.412 451.126 338.412ZM459.175 338.412C457.327 338.412 456.389 337.292 456.137 335.962L457.551 335.71C457.691 336.606 458.237 337.264 459.245 337.264C460.911 337.264 461.471 335.486 461.471 333.442L461.457 333.428C461.149 334.114 460.323 334.786 459.105 334.786C457.201 334.786 456.025 333.442 456.025 331.664C456.025 329.872 457.299 328.458 459.315 328.458C461.793 328.458 462.885 330.488 462.885 333.232C462.885 336.648 461.457 338.412 459.175 338.412ZM459.273 333.638C460.407 333.638 461.219 332.798 461.219 331.664C461.219 330.46 460.365 329.62 459.287 329.62C458.279 329.62 457.425 330.334 457.425 331.65C457.425 333.022 458.293 333.638 459.273 333.638ZM466.325 338.244V331.72H463.987V330.698H464.141C465.653 330.698 466.549 330.292 466.549 328.71V328.612H467.753V338.244H466.325ZM469.808 338.244V336.452H471.348V338.244H469.808ZM476.214 338.412C474.212 338.412 472.882 337.264 472.77 335.416L474.184 335.192C474.268 336.536 475.108 337.25 476.242 337.25C477.474 337.25 478.202 336.55 478.202 335.5C478.202 334.506 477.516 333.82 476.172 333.82C475.794 333.82 475.556 333.834 475.29 333.848V332.686C475.514 332.7 475.766 332.7 476.158 332.7C477.278 332.7 478.006 332.098 478.006 331.118C478.006 330.278 477.39 329.634 476.284 329.634C475.122 329.634 474.408 330.376 474.324 331.58L472.924 331.342C473.008 329.606 474.338 328.458 476.312 328.458C478.16 328.458 479.462 329.382 479.462 331.02C479.462 332.28 478.608 332.896 477.824 333.176V333.19C478.916 333.456 479.672 334.254 479.672 335.514C479.672 337.292 478.272 338.412 476.214 338.412Z"></path>
<path fill="white" d="M59.996 369.244V360.988H65.276V362.056H61.22V364.408H65.024V365.452H61.22V368.176H65.432V369.244H59.996ZM66.0804 369.244L68.2284 366.22L66.1164 363.316H67.4844L68.9604 365.392L70.4244 363.316H71.7924L69.6804 366.22L71.8284 369.244H70.4364L68.9484 367.024L67.4724 369.244H66.0804ZM75.028 369.388C73.288 369.388 72.112 368.128 72.112 366.268C72.112 364.444 73.288 363.172 75.04 363.172C76.576 363.172 77.428 364.072 77.74 365.188L76.54 365.476C76.384 364.732 75.928 364.12 75.04 364.12C74.092 364.12 73.36 364.876 73.36 366.268C73.36 367.684 74.068 368.44 75.064 368.44C75.892 368.44 76.408 367.924 76.6 367.084L77.788 367.372C77.428 368.488 76.6 369.388 75.028 369.388ZM78.9058 369.244V360.988H80.0938V364.144H80.1058C80.4778 363.568 81.0898 363.172 81.9898 363.172C83.3098 363.172 84.0898 363.964 84.0898 365.404V369.244H82.9018V365.92C82.9018 364.852 82.6618 364.168 81.6658 364.168C80.6698 364.168 80.0938 364.972 80.0938 365.932V369.244H78.9058ZM85.5596 369.244V367.708H86.8796V369.244H85.5596Z" opacity="0.3"></path>
<path fill="white" d="M164.343 369.388C162.471 369.388 160.995 368.5 160.779 366.556L162.075 366.388C162.231 367.756 163.131 368.416 164.379 368.416C165.507 368.416 166.383 367.852 166.383 366.964C166.383 366.196 165.903 365.908 164.787 365.668L163.635 365.416C162.207 365.104 161.091 364.552 161.091 363.196C161.091 361.84 162.399 360.844 164.211 360.844C166.083 360.844 167.235 361.804 167.439 363.268L166.131 363.436C165.999 362.416 165.267 361.816 164.175 361.816C163.083 361.816 162.411 362.404 162.411 363.136C162.411 363.772 162.855 364.06 164.007 364.312L165.159 364.564C166.551 364.864 167.703 365.368 167.703 366.796C167.703 368.452 166.131 369.388 164.343 369.388ZM168.91 369.244V363.316H170.098V369.244H168.91ZM168.91 362.392V360.988H170.098V362.392H168.91ZM171.314 369.244V368.248L174.698 364.276H171.422V363.316H176.078V364.288L172.694 368.284H176.186V369.244H171.314ZM179.784 369.388C178.2 369.388 176.94 368.32 176.94 366.292C176.94 364.336 178.224 363.172 179.82 363.172C181.404 363.172 182.544 364.372 182.544 366.184V366.556H178.14C178.2 367.9 178.932 368.464 179.796 368.464C180.612 368.464 181.116 368.056 181.308 367.288L182.508 367.444C182.208 368.44 181.428 369.388 179.784 369.388ZM178.152 365.644H181.296C181.26 364.804 180.672 364.084 179.82 364.084C178.944 364.084 178.272 364.708 178.152 365.644Z" opacity="0.3"></path>
<path fill="white" d="M250.43 369.244V360.988H253.778C255.302 360.988 256.346 361.66 256.346 363.076C256.346 363.976 255.83 364.66 255.194 364.9V364.912C255.842 365.08 256.586 365.632 256.586 366.88C256.586 368.152 255.806 369.244 253.922 369.244H250.43ZM253.874 368.2C254.954 368.2 255.374 367.588 255.374 366.82C255.374 366.004 254.918 365.464 253.802 365.464H251.666V368.2H253.874ZM253.706 364.48C254.642 364.48 255.134 364.048 255.134 363.196C255.134 362.392 254.582 362.032 253.766 362.032H251.666V364.48H253.706ZM257.879 369.244V363.316H259.067V369.244H257.879ZM257.879 362.392V360.988H259.067V362.392H257.879ZM263.019 369.388C261.459 369.388 260.343 368.152 260.343 366.28C260.343 364.408 261.459 363.172 263.019 363.172C264.099 363.172 264.711 363.736 264.999 364.228V360.988H266.187V369.244H265.011V368.32C264.699 368.848 264.075 369.388 263.019 369.388ZM263.307 368.44C264.459 368.44 265.059 367.444 265.059 366.28C265.059 365.116 264.459 364.12 263.307 364.12C262.143 364.12 261.579 365.092 261.579 366.28C261.579 367.468 262.143 368.44 263.307 368.44Z" opacity="0.3"></path>
<path fill="white" d="M291.168 369.244L294.336 360.988H295.92L299.1 369.244H297.816L297.012 367.096H293.256L292.44 369.244H291.168ZM293.616 366.064H296.64L295.128 362.044L293.616 366.064ZM302.203 369.388C300.727 369.388 299.647 368.704 299.515 367.288L300.691 367.144C300.751 368.08 301.411 368.512 302.227 368.512C303.031 368.512 303.571 368.152 303.571 367.576C303.571 367 303.019 366.88 302.275 366.712L301.399 366.508C300.439 366.28 299.779 365.824 299.779 364.912C299.779 363.904 300.775 363.172 302.179 363.172C303.535 363.172 304.459 363.856 304.615 364.96L303.427 365.128C303.343 364.42 302.827 364.048 302.131 364.048C301.423 364.048 300.967 364.396 300.967 364.852C300.967 365.284 301.231 365.44 301.975 365.608L302.851 365.812C304.099 366.1 304.759 366.508 304.759 367.456C304.759 368.644 303.655 369.388 302.203 369.388ZM309.968 369.244L307.16 366.232V369.244H305.972V360.988H307.16V366.052L309.668 363.316H311.204L308.564 366.076L311.54 369.244H309.968Z" opacity="0.3"></path>
<path fill="white" d="M378.96 369.388C377.088 369.388 375.612 368.5 375.396 366.556L376.692 366.388C376.848 367.756 377.748 368.416 378.996 368.416C380.124 368.416 381 367.852 381 366.964C381 366.196 380.52 365.908 379.404 365.668L378.252 365.416C376.824 365.104 375.708 364.552 375.708 363.196C375.708 361.84 377.016 360.844 378.828 360.844C380.7 360.844 381.852 361.804 382.056 363.268L380.748 363.436C380.616 362.416 379.884 361.816 378.792 361.816C377.7 361.816 377.028 362.404 377.028 363.136C377.028 363.772 377.472 364.06 378.624 364.312L379.776 364.564C381.168 364.864 382.32 365.368 382.32 366.796C382.32 368.452 380.748 369.388 378.96 369.388ZM383.527 369.244V363.316H384.715V369.244H383.527ZM383.527 362.392V360.988H384.715V362.392H383.527ZM385.931 369.244V368.248L389.315 364.276H386.039V363.316H390.695V364.288L387.311 368.284H390.803V369.244H385.931ZM394.402 369.388C392.818 369.388 391.558 368.32 391.558 366.292C391.558 364.336 392.842 363.172 394.438 363.172C396.022 363.172 397.162 364.372 397.162 366.184V366.556H392.758C392.818 367.9 393.55 368.464 394.414 368.464C395.23 368.464 395.734 368.056 395.926 367.288L397.126 367.444C396.826 368.44 396.046 369.388 394.402 369.388ZM392.77 365.644H395.914C395.878 364.804 395.29 364.084 394.438 364.084C393.562 364.084 392.89 364.708 392.77 365.644Z" opacity="0.3"></path>
<path fill="white" d="M471.402 369.244V360.988H476.682V362.056H472.626V364.408H476.43V365.452H472.626V368.176H476.838V369.244H471.402ZM477.487 369.244L479.635 366.22L477.523 363.316H478.891L480.367 365.392L481.831 363.316H483.199L481.087 366.22L483.235 369.244H481.843L480.355 367.024L478.879 369.244H477.487ZM486.434 369.388C484.694 369.388 483.518 368.128 483.518 366.268C483.518 364.444 484.694 363.172 486.446 363.172C487.982 363.172 488.834 364.072 489.146 365.188L487.946 365.476C487.79 364.732 487.334 364.12 486.446 364.12C485.498 364.12 484.766 364.876 484.766 366.268C484.766 367.684 485.474 368.44 486.47 368.44C487.298 368.44 487.814 367.924 488.006 367.084L489.194 367.372C488.834 368.488 488.006 369.388 486.434 369.388ZM490.312 369.244V360.988H491.5V364.144H491.512C491.884 363.568 492.496 363.172 493.396 363.172C494.716 363.172 495.496 363.964 495.496 365.404V369.244H494.308V365.92C494.308 364.852 494.068 364.168 493.072 364.168C492.076 364.168 491.5 364.972 491.5 365.932V369.244H490.312ZM496.966 369.244V367.708H498.286V369.244H496.966Z" opacity="0.3"></path>
<g clip-path="url(#clip3_6129_4784)">
<rect fill-opacity="0.04" fill="white" transform="translate(51 380.244)" height="25" width="224"></rect>
<path fill="white" d="M60.162 397.244V387.612H63.648C65.678 387.612 66.966 388.522 66.966 390.482C66.966 392.596 65.608 393.464 63.62 393.464H61.604V397.244H60.162ZM61.604 392.232H63.578C64.936 392.232 65.51 391.616 65.51 390.51C65.51 389.39 64.866 388.858 63.494 388.858H61.604V392.232ZM66.7292 397.244L70.4252 387.612H72.2732L75.9832 397.244H74.4852L73.5472 394.738H69.1652L68.2132 397.244H66.7292ZM69.5852 393.534H73.1132L71.3492 388.844L69.5852 393.534ZM81.1634 397.412C78.3214 397.412 76.5014 395.382 76.5014 392.428C76.5014 389.516 78.3354 387.444 81.1914 387.444C83.6274 387.444 84.9994 388.984 85.4474 390.538L83.9634 390.888C83.6554 389.698 82.7454 388.662 81.1914 388.662C79.2174 388.662 77.9994 390.174 77.9994 392.428C77.9994 394.724 79.2314 396.194 81.1914 396.194C82.8014 396.194 83.6974 395.256 84.0334 393.912L85.5034 394.276C85.0134 395.998 83.5854 397.412 81.1634 397.412ZM87.0409 397.244V387.612H93.2009V388.858H88.4689V391.658H92.9769V392.904H88.4689V397.244H87.0409Z"></path>
<path fill="white" d="M174.997 397.244V390.72H172.659V389.698H172.813C174.325 389.698 175.221 389.292 175.221 387.71V387.612H176.425V397.244H174.997ZM180.342 397.244V390.72H178.004V389.698H178.158C179.67 389.698 180.566 389.292 180.566 387.71V387.612H181.77V397.244H180.342Z"></path>
<path fill="#26E986" d="M239.788 397.244V390.72H237.45V389.698H237.604C239.116 389.698 240.012 389.292 240.012 387.71V387.612H241.216V397.244H239.788ZM246.729 397.412C244.321 397.412 243.145 395.186 243.145 392.442C243.145 389.572 244.321 387.472 246.729 387.472C249.123 387.472 250.299 389.572 250.299 392.442C250.299 395.312 249.123 397.412 246.729 397.412ZM246.729 396.25C248.227 396.25 248.801 394.668 248.801 392.442C248.801 390.23 248.227 388.648 246.729 388.648C245.231 388.648 244.657 390.23 244.657 392.442C244.657 394.668 245.231 396.25 246.729 396.25ZM251.57 397.244V395.452H253.11V397.244H251.57ZM255.743 397.244V390.72H253.405V389.698H253.559C255.071 389.698 255.967 389.292 255.967 387.71V387.612H257.171V397.244H255.743ZM262.684 397.412C260.276 397.412 259.1 395.186 259.1 392.442C259.1 389.572 260.276 387.472 262.684 387.472C265.078 387.472 266.254 389.572 266.254 392.442C266.254 395.312 265.078 397.412 262.684 397.412ZM262.684 396.25C264.182 396.25 264.756 394.668 264.756 392.442C264.756 390.23 264.182 388.648 262.684 388.648C261.186 388.648 260.612 390.23 260.612 392.442C260.612 394.668 261.186 396.25 262.684 396.25Z"></path>
<g clip-path="url(#clip4_6129_4784)">
<rect fill-opacity="0.32" fill="url(#paint0_linear_6129_4784)" transform="translate(51 380.244)" height="25" width="252"></rect>
</g>
<rect fill-opacity="0.04" fill="white" transform="translate(51 405.244)" height="25" width="224"></rect>
<path fill="white" d="M60.162 422.244V412.612H62.542L65.104 420.732L67.652 412.612H70.046V422.244H68.632V416.126C68.632 415.244 68.66 414.334 68.674 413.9L68.66 413.886L65.93 422.244H64.264L61.548 413.886L61.534 413.9C61.548 414.334 61.576 415.244 61.576 416.126V422.244H60.162ZM72.371 422.244V412.612H78.531V413.858H73.799V416.602H78.237V417.82H73.799V420.998H78.713V422.244H72.371ZM80.5194 422.244V412.612H82.8994L85.4614 420.732L88.0094 412.612H90.4034V422.244H88.9894V416.126C88.9894 415.244 89.0174 414.334 89.0314 413.9L89.0174 413.886L86.2874 422.244H84.6214L81.9054 413.886L81.8914 413.9C81.9054 414.334 81.9334 415.244 81.9334 416.126V422.244H80.5194ZM91.6364 422.244L95.0804 417.274L91.8604 412.612H93.5684L95.9764 416.224L98.3844 412.612H100.092L96.8724 417.288L100.316 422.244H98.6224L95.9764 418.352L93.3304 422.244H91.6364Z"></path>
<path fill="white" d="M175.812 422.244V421.04L176.554 420.55C179.088 418.912 180.726 417.428 180.726 415.398C180.726 414.32 180.124 413.648 179.06 413.648C178.01 413.648 177.296 414.306 177.296 415.496C177.296 415.762 177.324 415.986 177.366 416.196L175.882 416.014C175.868 415.902 175.84 415.706 175.84 415.426C175.84 413.578 177.17 412.458 179.074 412.458C181.034 412.458 182.21 413.522 182.21 415.328C182.21 417.638 180.516 419.276 178.388 420.606L177.744 421.012V421.026H182.182V422.244H175.812Z"></path>
<path fill="#26E986" d="M239.788 422.244V415.72H237.45V414.698H237.604C239.116 414.698 240.012 414.292 240.012 412.71V412.612H241.216V422.244H239.788ZM246.729 422.412C244.321 422.412 243.145 420.186 243.145 417.442C243.145 414.572 244.321 412.472 246.729 412.472C249.123 412.472 250.299 414.572 250.299 417.442C250.299 420.312 249.123 422.412 246.729 422.412ZM246.729 421.25C248.227 421.25 248.801 419.668 248.801 417.442C248.801 415.23 248.227 413.648 246.729 413.648C245.231 413.648 244.657 415.23 244.657 417.442C244.657 419.668 245.231 421.25 246.729 421.25ZM251.57 422.244V420.452H253.11V422.244H251.57ZM255.743 422.244V415.72H253.405V414.698H253.559C255.071 414.698 255.967 414.292 255.967 412.71V412.612H257.171V422.244H255.743ZM262.684 422.412C260.276 422.412 259.1 420.186 259.1 417.442C259.1 414.572 260.276 412.472 262.684 412.472C265.078 412.472 266.254 414.572 266.254 417.442C266.254 420.312 265.078 422.412 262.684 422.412ZM262.684 421.25C264.182 421.25 264.756 419.668 264.756 417.442C264.756 415.23 264.182 413.648 262.684 413.648C261.186 413.648 260.612 415.23 260.612 417.442C260.612 419.668 261.186 421.25 262.684 421.25Z"></path>
<g clip-path="url(#clip5_6129_4784)">
<rect fill-opacity="0.32" fill="url(#paint1_linear_6129_4784)" transform="translate(51 405.244)" height="25" width="252"></rect>
</g>
<rect fill-opacity="0.04" fill="white" transform="translate(51 430.244)" height="25" width="224"></rect>
<path fill="white" d="M60.162 447.244V437.612H62.262L66.952 445.83V437.612H68.338V447.244H66.266L61.548 438.984V447.244H60.162ZM78.572 448.364L77.13 446.88C76.472 447.23 75.702 447.412 74.848 447.412C72.034 447.412 70.13 445.368 70.13 442.428C70.13 439.488 72.034 437.444 74.848 437.444C77.662 437.444 79.58 439.488 79.58 442.428C79.58 443.968 79.062 445.256 78.152 446.138L79.552 447.384L78.572 448.364ZM74.848 446.194C76.836 446.194 78.082 444.556 78.082 442.428C78.082 440.3 76.836 438.662 74.848 438.662C72.86 438.662 71.628 440.3 71.628 442.428C71.628 444.556 72.86 446.194 74.848 446.194ZM81.3534 447.244V437.612H87.5134V438.858H82.7814V441.602H87.2194V442.82H82.7814V445.998H87.6954V447.244H81.3534ZM88.4098 447.244L91.8538 442.274L88.6338 437.612H90.3418L92.7498 441.224L95.1578 437.612H96.8658L93.6458 442.288L97.0898 447.244H95.3958L92.7498 443.352L90.1038 447.244H88.4098Z"></path>
<path fill="white" d="M180.342 447.244V440.72H178.004V439.698H178.158C179.67 439.698 180.566 439.292 180.566 437.71V437.612H181.77V447.244H180.342Z"></path>
<path fill="#26E986" d="M236.219 447.244V440.72H233.881V439.698H234.035C235.547 439.698 236.443 439.292 236.443 437.71V437.612H237.647V447.244H236.219ZM243.161 447.412C240.753 447.412 239.577 445.186 239.577 442.442C239.577 439.572 240.753 437.472 243.161 437.472C245.555 437.472 246.731 439.572 246.731 442.442C246.731 445.312 245.555 447.412 243.161 447.412ZM243.161 446.25C244.659 446.25 245.233 444.668 245.233 442.442C245.233 440.23 244.659 438.648 243.161 438.648C241.663 438.648 241.089 440.23 241.089 442.442C241.089 444.668 241.663 446.25 243.161 446.25ZM248.002 447.244V445.452H249.542V447.244H248.002ZM254.345 447.412C251.937 447.412 250.761 445.186 250.761 442.442C250.761 439.572 251.937 437.472 254.345 437.472C256.739 437.472 257.915 439.572 257.915 442.442C257.915 445.312 256.739 447.412 254.345 447.412ZM254.345 446.25C255.843 446.25 256.417 444.668 256.417 442.442C256.417 440.23 255.843 438.648 254.345 438.648C252.847 438.648 252.273 440.23 252.273 442.442C252.273 444.668 252.847 446.25 254.345 446.25ZM262.538 447.412C260.69 447.412 259.752 446.292 259.5 444.962L260.914 444.71C261.054 445.606 261.6 446.264 262.608 446.264C264.274 446.264 264.834 444.486 264.834 442.442L264.82 442.428C264.512 443.114 263.686 443.786 262.468 443.786C260.564 443.786 259.388 442.442 259.388 440.664C259.388 438.872 260.662 437.458 262.678 437.458C265.156 437.458 266.248 439.488 266.248 442.232C266.248 445.648 264.82 447.412 262.538 447.412ZM262.636 442.638C263.77 442.638 264.582 441.798 264.582 440.664C264.582 439.46 263.728 438.62 262.65 438.62C261.642 438.62 260.788 439.334 260.788 440.65C260.788 442.022 261.656 442.638 262.636 442.638Z"></path>
<g clip-path="url(#clip6_6129_4784)">
<rect fill-opacity="0.32" fill="url(#paint2_linear_6129_4784)" transform="translate(51 430.244)" height="25" width="252"></rect>
</g>
<rect fill-opacity="0.04" fill="white" transform="translate(51 455.244)" height="25" width="224"></rect>
<path fill="white" d="M60.162 472.244V462.612H66.322V463.858H61.59V466.602H66.028V467.82H61.59V470.998H66.504V472.244H60.162ZM68.3104 472.244V462.612H71.8104C74.7784 462.612 76.4864 464.432 76.4864 467.414C76.4864 470.396 74.7784 472.244 71.8104 472.244H68.3104ZM71.7964 470.998C74.0084 470.998 74.9884 469.556 74.9884 467.414C74.9884 465.258 74.0084 463.858 71.7964 463.858H69.7664V470.998H71.7964ZM82.3366 472.412C79.6766 472.412 77.7726 470.396 77.7726 467.414C77.7726 464.502 79.6486 462.444 82.5046 462.444C85.0526 462.444 86.3546 463.984 86.7746 465.286L85.3186 465.678C84.9966 464.642 84.1146 463.662 82.5186 463.662C80.6286 463.662 79.2706 465.16 79.2706 467.428C79.2706 469.794 80.6426 471.208 82.5186 471.208C84.3666 471.208 85.4726 470.06 85.5146 468.254H82.2806V467.022H86.9146V472.244H85.5986V470.858H85.5846C85.0806 471.656 84.0446 472.412 82.3366 472.412ZM87.8766 472.244L91.3206 467.274L88.1006 462.612H89.8086L92.2166 466.224L94.6246 462.612H96.3326L93.1126 467.288L96.5566 472.244H94.8626L92.2166 468.352L89.5706 472.244H87.8766Z"></path>
<path fill="white" d="M171.425 472.412C168.947 472.412 167.855 470.382 167.855 467.652C167.855 464.222 169.269 462.458 171.565 462.458C173.413 462.458 174.351 463.592 174.603 464.908L173.189 465.16C173.049 464.264 172.489 463.62 171.495 463.62C169.843 463.62 169.255 465.384 169.255 467.428L169.269 467.442C169.591 466.756 170.403 466.084 171.621 466.084C173.539 466.084 174.715 467.428 174.715 469.206C174.715 470.998 173.441 472.412 171.425 472.412ZM171.453 471.264C172.447 471.264 173.301 470.536 173.301 469.234C173.301 467.848 172.433 467.246 171.467 467.246C170.333 467.246 169.521 468.072 169.521 469.206C169.521 470.41 170.375 471.264 171.453 471.264ZM177.792 472.244C178.464 469.304 179.892 466.28 181.32 463.802H177.288V465.118H175.888V462.612H182.776V463.718C181.264 466.28 179.948 469.29 179.346 472.244H177.792Z"></path>
<path fill="#26E986" d="M236.288 472.244V465.72H233.95V464.698H234.104C235.616 464.698 236.512 464.292 236.512 462.71V462.612H237.716V472.244H236.288ZM243.229 472.412C240.821 472.412 239.645 470.186 239.645 467.442C239.645 464.572 240.821 462.472 243.229 462.472C245.623 462.472 246.799 464.572 246.799 467.442C246.799 470.312 245.623 472.412 243.229 472.412ZM243.229 471.25C244.727 471.25 245.301 469.668 245.301 467.442C245.301 465.23 244.727 463.648 243.229 463.648C241.731 463.648 241.157 465.23 241.157 467.442C241.157 469.668 241.731 471.25 243.229 471.25ZM248.07 472.244V470.452H249.61V472.244H248.07ZM254.413 472.412C252.005 472.412 250.829 470.186 250.829 467.442C250.829 464.572 252.005 462.472 254.413 462.472C256.807 462.472 257.983 464.572 257.983 467.442C257.983 470.312 256.807 472.412 254.413 472.412ZM254.413 471.25C255.911 471.25 256.485 469.668 256.485 467.442C256.485 465.23 255.911 463.648 254.413 463.648C252.915 463.648 252.341 465.23 252.341 467.442C252.341 469.668 252.915 471.25 254.413 471.25ZM262.873 472.412C260.913 472.412 259.457 471.39 259.457 469.542C259.457 468.114 260.437 467.4 261.221 467.12V467.106C260.605 466.882 259.737 466.154 259.737 465.006C259.737 463.438 261.095 462.444 262.873 462.444C264.651 462.444 266.009 463.438 266.009 465.006C266.009 466.154 265.127 466.882 264.511 467.106V467.12C265.295 467.386 266.275 468.114 266.275 469.542C266.275 471.39 264.833 472.412 262.873 472.412ZM262.873 471.222C264.091 471.222 264.833 470.508 264.833 469.458C264.833 468.436 263.993 467.75 262.873 467.75C261.753 467.75 260.913 468.436 260.913 469.458C260.913 470.508 261.655 471.222 262.873 471.222ZM262.873 466.644C263.839 466.644 264.581 465.986 264.581 465.118C264.581 464.236 263.909 463.606 262.873 463.606C261.837 463.606 261.151 464.236 261.151 465.118C261.151 465.986 261.893 466.644 262.873 466.644Z"></path>
<g clip-path="url(#clip7_6129_4784)">
<rect fill-opacity="0.32" fill="url(#paint3_linear_6129_4784)" transform="translate(51 455.244)" height="25" width="252"></rect>
</g>
<rect fill-opacity="0.04" fill="white" transform="translate(51 480.244)" height="25" width="224"></rect>
<path fill="white" d="M60.162 497.244V487.612H64.068C65.846 487.612 67.064 488.396 67.064 490.048C67.064 491.098 66.462 491.896 65.72 492.176V492.19C66.476 492.386 67.344 493.03 67.344 494.486C67.344 495.97 66.434 497.244 64.236 497.244H60.162ZM64.18 496.026C65.44 496.026 65.93 495.312 65.93 494.416C65.93 493.464 65.398 492.834 64.096 492.834H61.604V496.026H64.18ZM63.984 491.686C65.076 491.686 65.65 491.182 65.65 490.188C65.65 489.25 65.006 488.83 64.054 488.83H61.604V491.686H63.984ZM68.028 497.244L71.724 487.612H73.572L77.282 497.244H75.784L74.846 494.738H70.464L69.512 497.244H68.028ZM70.884 493.534H74.412L72.648 488.844L70.884 493.534ZM79.4993 497.244V488.858H76.5733V487.612H83.8813V488.858H80.9413V497.244H79.4993ZM88.5712 497.412C86.3872 497.412 84.6652 496.376 84.4132 494.108L85.9252 493.912C86.1072 495.508 87.1572 496.278 88.6132 496.278C89.9292 496.278 90.9512 495.62 90.9512 494.584C90.9512 493.688 90.3912 493.352 89.0892 493.072L87.7452 492.778C86.0792 492.414 84.7772 491.77 84.7772 490.188C84.7772 488.606 86.3032 487.444 88.4172 487.444C90.6012 487.444 91.9452 488.564 92.1832 490.272L90.6572 490.468C90.5032 489.278 89.6492 488.578 88.3752 488.578C87.1012 488.578 86.3172 489.264 86.3172 490.118C86.3172 490.86 86.8352 491.196 88.1792 491.49L89.5232 491.784C91.1472 492.134 92.4912 492.722 92.4912 494.388C92.4912 496.32 90.6572 497.412 88.5712 497.412Z"></path>
<path fill="white" d="M179.644 497.244V495.13H175.052V493.828L178.916 487.612H181.03V493.926H182.612V495.13H181.03V497.244H179.644ZM176.424 493.926H179.644V488.718L176.424 493.926Z"></path>
<path fill="#26E986" d="M236.288 497.244V490.72H233.95V489.698H234.104C235.616 489.698 236.512 489.292 236.512 487.71V487.612H237.716V497.244H236.288ZM243.229 497.412C240.821 497.412 239.645 495.186 239.645 492.442C239.645 489.572 240.821 487.472 243.229 487.472C245.623 487.472 246.799 489.572 246.799 492.442C246.799 495.312 245.623 497.412 243.229 497.412ZM243.229 496.25C244.727 496.25 245.301 494.668 245.301 492.442C245.301 490.23 244.727 488.648 243.229 488.648C241.731 488.648 241.157 490.23 241.157 492.442C241.157 494.668 241.731 496.25 243.229 496.25ZM248.07 497.244V495.452H249.61V497.244H248.07ZM254.413 497.412C252.005 497.412 250.829 495.186 250.829 492.442C250.829 489.572 252.005 487.472 254.413 487.472C256.807 487.472 257.983 489.572 257.983 492.442C257.983 495.312 256.807 497.412 254.413 497.412ZM254.413 496.25C255.911 496.25 256.485 494.668 256.485 492.442C256.485 490.23 255.911 488.648 254.413 488.648C252.915 488.648 252.341 490.23 252.341 492.442C252.341 494.668 252.915 496.25 254.413 496.25ZM262.873 497.412C260.913 497.412 259.457 496.39 259.457 494.542C259.457 493.114 260.437 492.4 261.221 492.12V492.106C260.605 491.882 259.737 491.154 259.737 490.006C259.737 488.438 261.095 487.444 262.873 487.444C264.651 487.444 266.009 488.438 266.009 490.006C266.009 491.154 265.127 491.882 264.511 492.106V492.12C265.295 492.386 266.275 493.114 266.275 494.542C266.275 496.39 264.833 497.412 262.873 497.412ZM262.873 496.222C264.091 496.222 264.833 495.508 264.833 494.458C264.833 493.436 263.993 492.75 262.873 492.75C261.753 492.75 260.913 493.436 260.913 494.458C260.913 495.508 261.655 496.222 262.873 496.222ZM262.873 491.644C263.839 491.644 264.581 490.986 264.581 490.118C264.581 489.236 263.909 488.606 262.873 488.606C261.837 488.606 261.151 489.236 261.151 490.118C261.151 490.986 261.893 491.644 262.873 491.644Z"></path>
<g clip-path="url(#clip8_6129_4784)">
<rect fill-opacity="0.32" fill="url(#paint4_linear_6129_4784)" transform="translate(51 480.244)" height="25" width="252"></rect>
</g>
<rect fill-opacity="0.04" fill="white" transform="translate(51 505.244)" height="25" width="224"></rect>
</g>
<g clip-path="url(#clip9_6129_4784)">
<rect fill-opacity="0.04" fill="white" transform="translate(283 380.244)" height="25" width="224"></rect>
<path fill="#F34646" d="M293.688 397.244V390.72H291.35V389.698H291.504C293.016 389.698 293.912 389.292 293.912 387.71V387.612H295.116V397.244H293.688ZM300.63 397.412C298.222 397.412 297.046 395.186 297.046 392.442C297.046 389.572 298.222 387.472 300.63 387.472C303.024 387.472 304.2 389.572 304.2 392.442C304.2 395.312 303.024 397.412 300.63 397.412ZM300.63 396.25C302.128 396.25 302.702 394.668 302.702 392.442C302.702 390.23 302.128 388.648 300.63 388.648C299.132 388.648 298.558 390.23 298.558 392.442C298.558 394.668 299.132 396.25 300.63 396.25ZM305.471 397.244V395.452H307.011V397.244H305.471ZM309.643 397.244V390.72H307.305V389.698H307.459C308.971 389.698 309.867 389.292 309.867 387.71V387.612H311.071V397.244H309.643ZM316.585 397.412C314.177 397.412 313.001 395.186 313.001 392.442C313.001 389.572 314.177 387.472 316.585 387.472C318.979 387.472 320.155 389.572 320.155 392.442C320.155 395.312 318.979 397.412 316.585 397.412ZM316.585 396.25C318.083 396.25 318.657 394.668 318.657 392.442C318.657 390.23 318.083 388.648 316.585 388.648C315.087 388.648 314.513 390.23 314.513 392.442C314.513 394.668 315.087 396.25 316.585 396.25Z"></path>
<path fill="white" d="M377.688 397.244V390.72H375.35V389.698H375.504C377.016 389.698 377.912 389.292 377.912 387.71V387.612H379.116V397.244H377.688ZM384.63 397.412C382.222 397.412 381.046 395.186 381.046 392.442C381.046 389.572 382.222 387.472 384.63 387.472C387.024 387.472 388.2 389.572 388.2 392.442C388.2 395.312 387.024 397.412 384.63 397.412ZM384.63 396.25C386.128 396.25 386.702 394.668 386.702 392.442C386.702 390.23 386.128 388.648 384.63 388.648C383.132 388.648 382.558 390.23 382.558 392.442C382.558 394.668 383.132 396.25 384.63 396.25ZM392.977 397.412C390.975 397.412 389.645 396.264 389.533 394.416L390.947 394.192C391.031 395.536 391.871 396.25 393.005 396.25C394.237 396.25 394.965 395.55 394.965 394.5C394.965 393.506 394.279 392.82 392.935 392.82C392.557 392.82 392.319 392.834 392.053 392.848V391.686C392.277 391.7 392.529 391.7 392.921 391.7C394.041 391.7 394.769 391.098 394.769 390.118C394.769 389.278 394.153 388.634 393.047 388.634C391.885 388.634 391.171 389.376 391.087 390.58L389.687 390.342C389.771 388.606 391.101 387.458 393.075 387.458C394.923 387.458 396.225 388.382 396.225 390.02C396.225 391.28 395.371 391.896 394.587 392.176V392.19C395.679 392.456 396.435 393.254 396.435 394.514C396.435 396.292 395.035 397.412 392.977 397.412Z"></path>
<path fill="white" d="M462.537 397.244V387.612H468.697V388.858H463.965V391.602H468.403V392.82H463.965V395.998H468.879V397.244H462.537ZM470.685 397.244V387.612H474.185C477.153 387.612 478.861 389.432 478.861 392.414C478.861 395.396 477.153 397.244 474.185 397.244H470.685ZM474.171 395.998C476.383 395.998 477.363 394.556 477.363 392.414C477.363 390.258 476.383 388.858 474.171 388.858H472.141V395.998H474.171ZM484.712 397.412C482.052 397.412 480.148 395.396 480.148 392.414C480.148 389.502 482.024 387.444 484.88 387.444C487.428 387.444 488.73 388.984 489.15 390.286L487.694 390.678C487.372 389.642 486.49 388.662 484.894 388.662C483.004 388.662 481.646 390.16 481.646 392.428C481.646 394.794 483.018 396.208 484.894 396.208C486.742 396.208 487.848 395.06 487.89 393.254H484.656V392.022H489.29V397.244H487.974V395.858H487.96C487.456 396.656 486.42 397.412 484.712 397.412ZM490.252 397.244L493.696 392.274L490.476 387.612H492.184L494.592 391.224L497 387.612H498.708L495.488 392.288L498.932 397.244H497.238L494.592 393.352L491.946 397.244H490.252Z"></path>
<g clip-path="url(#clip10_6129_4784)">
<rect fill-opacity="0.32" fill="url(#paint5_linear_6129_4784)" transform="matrix(-1 0 0 -1 535.5 405.244)" height="25" width="252"></rect>
</g>
<rect fill-opacity="0.04" fill="white" transform="translate(283 405.244)" height="25" width="224"></rect>
<path fill="#F34646" d="M293.688 422.244V415.72H291.35V414.698H291.504C293.016 414.698 293.912 414.292 293.912 412.71V412.612H295.116V422.244H293.688ZM300.63 422.412C298.222 422.412 297.046 420.186 297.046 417.442C297.046 414.572 298.222 412.472 300.63 412.472C303.024 412.472 304.2 414.572 304.2 417.442C304.2 420.312 303.024 422.412 300.63 422.412ZM300.63 421.25C302.128 421.25 302.702 419.668 302.702 417.442C302.702 415.23 302.128 413.648 300.63 413.648C299.132 413.648 298.558 415.23 298.558 417.442C298.558 419.668 299.132 421.25 300.63 421.25ZM305.471 422.244V420.452H307.011V422.244H305.471ZM309.643 422.244V415.72H307.305V414.698H307.459C308.971 414.698 309.867 414.292 309.867 412.71V412.612H311.071V422.244H309.643ZM316.585 422.412C314.177 422.412 313.001 420.186 313.001 417.442C313.001 414.572 314.177 412.472 316.585 412.472C318.979 412.472 320.155 414.572 320.155 417.442C320.155 420.312 318.979 422.412 316.585 422.412ZM316.585 421.25C318.083 421.25 318.657 419.668 318.657 417.442C318.657 415.23 318.083 413.648 316.585 413.648C315.087 413.648 314.513 415.23 314.513 417.442C314.513 419.668 315.087 421.25 316.585 421.25Z"></path>
<path fill="white" d="M375.728 422.244V421.04L376.47 420.55C379.004 418.912 380.642 417.428 380.642 415.398C380.642 414.32 380.04 413.648 378.976 413.648C377.926 413.648 377.212 414.306 377.212 415.496C377.212 415.762 377.24 415.986 377.282 416.196L375.798 416.014C375.784 415.902 375.756 415.706 375.756 415.426C375.756 413.578 377.086 412.458 378.99 412.458C380.95 412.458 382.126 413.522 382.126 415.328C382.126 417.638 380.432 419.276 378.304 420.606L377.66 421.012V421.026H382.098V422.244H375.728ZM385.604 422.244V415.72H383.266V414.698H383.42C384.932 414.698 385.828 414.292 385.828 412.71V412.612H387.032V422.244H385.604Z"></path>
<path fill="white" d="M465.49 422.244V412.612H468.976C471.006 412.612 472.294 413.522 472.294 415.482C472.294 417.596 470.936 418.464 468.948 418.464H466.932V422.244H465.49ZM466.932 417.232H468.906C470.264 417.232 470.838 416.616 470.838 415.51C470.838 414.39 470.194 413.858 468.822 413.858H466.932V417.232ZM472.057 422.244L475.753 412.612H477.601L481.311 422.244H479.813L478.875 419.738H474.493L473.541 422.244H472.057ZM474.913 418.534H478.441L476.677 413.844L474.913 418.534ZM486.492 422.412C483.65 422.412 481.83 420.382 481.83 417.428C481.83 414.516 483.664 412.444 486.52 412.444C488.956 412.444 490.328 413.984 490.776 415.538L489.292 415.888C488.984 414.698 488.074 413.662 486.52 413.662C484.546 413.662 483.328 415.174 483.328 417.428C483.328 419.724 484.56 421.194 486.52 421.194C488.13 421.194 489.026 420.256 489.362 418.912L490.832 419.276C490.342 420.998 488.914 422.412 486.492 422.412ZM492.369 422.244V412.612H498.529V413.858H493.797V416.658H498.305V417.904H493.797V422.244H492.369Z"></path>
<g clip-path="url(#clip11_6129_4784)">
<rect fill-opacity="0.32" fill="url(#paint6_linear_6129_4784)" transform="matrix(-1 0 0 -1 535.5 430.244)" height="25" width="252"></rect>
</g>
<rect fill-opacity="0.08" fill="white" transform="translate(283 430.244)" height="25" width="224"></rect>
<rect fill-opacity="0.8" fill="#F34646" transform="translate(283 430.244)" height="25" width="224"></rect>
<path fill="white" d="M293.688 447.244V440.72H291.35V439.698H291.504C293.016 439.698 293.912 439.292 293.912 437.71V437.612H295.116V447.244H293.688ZM300.63 447.412C298.222 447.412 297.046 445.186 297.046 442.442C297.046 439.572 298.222 437.472 300.63 437.472C303.024 437.472 304.2 439.572 304.2 442.442C304.2 445.312 303.024 447.412 300.63 447.412ZM300.63 446.25C302.128 446.25 302.702 444.668 302.702 442.442C302.702 440.23 302.128 438.648 300.63 438.648C299.132 438.648 298.558 440.23 298.558 442.442C298.558 444.668 299.132 446.25 300.63 446.25ZM305.471 447.244V445.452H307.011V447.244H305.471ZM309.643 447.244V440.72H307.305V439.698H307.459C308.971 439.698 309.867 439.292 309.867 437.71V437.612H311.071V447.244H309.643ZM316.585 447.412C314.177 447.412 313.001 445.186 313.001 442.442C313.001 439.572 314.177 437.472 316.585 437.472C318.979 437.472 320.155 439.572 320.155 442.442C320.155 445.312 318.979 447.412 316.585 447.412ZM316.585 446.25C318.083 446.25 318.657 444.668 318.657 442.442C318.657 440.23 318.083 438.648 316.585 438.648C315.087 438.648 314.513 440.23 314.513 442.442C314.513 444.668 315.087 446.25 316.585 446.25Z"></path>
<path fill="white" d="M375.728 447.244V446.04L376.47 445.55C379.004 443.912 380.642 442.428 380.642 440.398C380.642 439.32 380.04 438.648 378.976 438.648C377.926 438.648 377.212 439.306 377.212 440.496C377.212 440.762 377.24 440.986 377.282 441.196L375.798 441.014C375.784 440.902 375.756 440.706 375.756 440.426C375.756 438.578 377.086 437.458 378.99 437.458C380.95 437.458 382.126 438.522 382.126 440.328C382.126 442.638 380.432 444.276 378.304 445.606L377.66 446.012V446.026H382.098V447.244H375.728ZM387.2 447.412C384.792 447.412 383.616 445.186 383.616 442.442C383.616 439.572 384.792 437.472 387.2 437.472C389.594 437.472 390.77 439.572 390.77 442.442C390.77 445.312 389.594 447.412 387.2 447.412ZM387.2 446.25C388.698 446.25 389.272 444.668 389.272 442.442C389.272 440.23 388.698 438.648 387.2 438.648C385.702 438.648 385.128 440.23 385.128 442.442C385.128 444.668 385.702 446.25 387.2 446.25Z"></path>
<path fill="white" d="M462.004 447.244V437.612H464.104L468.794 445.83V437.612H470.18V447.244H468.108L463.39 438.984V447.244H462.004ZM480.414 448.364L478.972 446.88C478.314 447.23 477.544 447.412 476.69 447.412C473.876 447.412 471.972 445.368 471.972 442.428C471.972 439.488 473.876 437.444 476.69 437.444C479.504 437.444 481.422 439.488 481.422 442.428C481.422 443.968 480.904 445.256 479.994 446.138L481.394 447.384L480.414 448.364ZM476.69 446.194C478.678 446.194 479.924 444.556 479.924 442.428C479.924 440.3 478.678 438.662 476.69 438.662C474.702 438.662 473.47 440.3 473.47 442.428C473.47 444.556 474.702 446.194 476.69 446.194ZM483.195 447.244V437.612H489.355V438.858H484.623V441.602H489.061V442.82H484.623V445.998H489.537V447.244H483.195ZM490.252 447.244L493.696 442.274L490.476 437.612H492.184L494.592 441.224L497 437.612H498.708L495.488 442.288L498.932 447.244H497.238L494.592 443.352L491.946 447.244H490.252Z"></path>
<g clip-path="url(#clip12_6129_4784)">
<rect fill-opacity="0.32" fill="url(#paint7_linear_6129_4784)" transform="matrix(-1 0 0 -1 535.5 455.244)" height="25" width="252"></rect>
</g>
<rect fill-opacity="0.04" fill="white" transform="translate(283 455.244)" height="25" width="224"></rect>
<path fill="#F34646" d="M293.688 472.244V465.72H291.35V464.698H291.504C293.016 464.698 293.912 464.292 293.912 462.71V462.612H295.116V472.244H293.688ZM300.63 472.412C298.222 472.412 297.046 470.186 297.046 467.442C297.046 464.572 298.222 462.472 300.63 462.472C303.024 462.472 304.2 464.572 304.2 467.442C304.2 470.312 303.024 472.412 300.63 472.412ZM300.63 471.25C302.128 471.25 302.702 469.668 302.702 467.442C302.702 465.23 302.128 463.648 300.63 463.648C299.132 463.648 298.558 465.23 298.558 467.442C298.558 469.668 299.132 471.25 300.63 471.25ZM305.471 472.244V470.452H307.011V472.244H305.471ZM309.643 472.244V465.72H307.305V464.698H307.459C308.971 464.698 309.867 464.292 309.867 462.71V462.612H311.071V472.244H309.643ZM316.585 472.412C314.177 472.412 313.001 470.186 313.001 467.442C313.001 464.572 314.177 462.472 316.585 462.472C318.979 462.472 320.155 464.572 320.155 467.442C320.155 470.312 318.979 472.412 316.585 472.412ZM316.585 471.25C318.083 471.25 318.657 469.668 318.657 467.442C318.657 465.23 318.083 463.648 316.585 463.648C315.087 463.648 314.513 465.23 314.513 467.442C314.513 469.668 315.087 471.25 316.585 471.25Z"></path>
<path fill="white" d="M377.366 472.244C378.038 469.304 379.466 466.28 380.894 463.802H376.862V465.118H375.462V462.612H382.35V463.718C380.838 466.28 379.522 469.29 378.92 472.244H377.366Z"></path>
<path fill="white" d="M466.133 472.244V462.612H470.039C471.817 462.612 473.035 463.396 473.035 465.048C473.035 466.098 472.433 466.896 471.691 467.176V467.19C472.447 467.386 473.315 468.03 473.315 469.486C473.315 470.97 472.405 472.244 470.207 472.244H466.133ZM470.151 471.026C471.411 471.026 471.901 470.312 471.901 469.416C471.901 468.464 471.369 467.834 470.067 467.834H467.575V471.026H470.151ZM469.955 466.686C471.047 466.686 471.621 466.182 471.621 465.188C471.621 464.25 470.977 463.83 470.025 463.83H467.575V466.686H469.955ZM473.999 472.244L477.695 462.612H479.543L483.253 472.244H481.755L480.817 469.738H476.435L475.483 472.244H473.999ZM476.855 468.534H480.383L478.619 463.844L476.855 468.534ZM485.47 472.244V463.858H482.544V462.612H489.852V463.858H486.912V472.244H485.47ZM494.542 472.412C492.358 472.412 490.636 471.376 490.384 469.108L491.896 468.912C492.078 470.508 493.128 471.278 494.584 471.278C495.9 471.278 496.922 470.62 496.922 469.584C496.922 468.688 496.362 468.352 495.06 468.072L493.716 467.778C492.05 467.414 490.748 466.77 490.748 465.188C490.748 463.606 492.274 462.444 494.388 462.444C496.572 462.444 497.916 463.564 498.154 465.272L496.628 465.468C496.474 464.278 495.62 463.578 494.346 463.578C493.072 463.578 492.288 464.264 492.288 465.118C492.288 465.86 492.806 466.196 494.15 466.49L495.494 466.784C497.118 467.134 498.462 467.722 498.462 469.388C498.462 471.32 496.628 472.412 494.542 472.412Z"></path>
<g clip-path="url(#clip13_6129_4784)">
<rect fill-opacity="0.32" fill="url(#paint8_linear_6129_4784)" transform="matrix(-1 0 0 -1 535.5 480.244)" height="25" width="252"></rect>
</g>
<rect fill-opacity="0.04" fill="white" transform="translate(283 480.244)" height="25" width="224"></rect>
<path fill="#F34646" d="M293.688 497.244V490.72H291.35V489.698H291.504C293.016 489.698 293.912 489.292 293.912 487.71V487.612H295.116V497.244H293.688ZM300.63 497.412C298.222 497.412 297.046 495.186 297.046 492.442C297.046 489.572 298.222 487.472 300.63 487.472C303.024 487.472 304.2 489.572 304.2 492.442C304.2 495.312 303.024 497.412 300.63 497.412ZM300.63 496.25C302.128 496.25 302.702 494.668 302.702 492.442C302.702 490.23 302.128 488.648 300.63 488.648C299.132 488.648 298.558 490.23 298.558 492.442C298.558 494.668 299.132 496.25 300.63 496.25ZM305.471 497.244V495.452H307.011V497.244H305.471ZM309.643 497.244V490.72H307.305V489.698H307.459C308.971 489.698 309.867 489.292 309.867 487.71V487.612H311.071V497.244H309.643ZM316.585 497.412C314.177 497.412 313.001 495.186 313.001 492.442C313.001 489.572 314.177 487.472 316.585 487.472C318.979 487.472 320.155 489.572 320.155 492.442C320.155 495.312 318.979 497.412 316.585 497.412ZM316.585 496.25C318.083 496.25 318.657 494.668 318.657 492.442C318.657 490.23 318.083 488.648 316.585 488.648C315.087 488.648 314.513 490.23 314.513 492.442C314.513 494.668 315.087 496.25 316.585 496.25Z"></path>
<path fill="white" d="M377.688 497.244V490.72H375.35V489.698H375.504C377.016 489.698 377.912 489.292 377.912 487.71V487.612H379.116V497.244H377.688Z"></path>
<path fill="white" d="M458.777 497.244V487.612H461.157L463.719 495.732L466.267 487.612H468.661V497.244H467.247V491.126C467.247 490.244 467.275 489.334 467.289 488.9L467.275 488.886L464.545 497.244H462.879L460.163 488.886L460.149 488.9C460.163 489.334 460.191 490.244 460.191 491.126V497.244H458.777ZM470.986 497.244V487.612H477.146V488.858H472.414V491.602H476.852V492.82H472.414V495.998H477.328V497.244H470.986ZM479.135 497.244V487.612H481.515L484.077 495.732L486.625 487.612H489.019V497.244H487.605V491.126C487.605 490.244 487.633 489.334 487.647 488.9L487.633 488.886L484.903 497.244H483.237L480.521 488.886L480.507 488.9C480.521 489.334 480.549 490.244 480.549 491.126V497.244H479.135ZM490.252 497.244L493.696 492.274L490.476 487.612H492.184L494.592 491.224L497 487.612H498.708L495.488 492.288L498.932 497.244H497.238L494.592 493.352L491.946 497.244H490.252Z"></path>
<g clip-path="url(#clip14_6129_4784)">
<rect fill-opacity="0.32" fill="url(#paint9_linear_6129_4784)" transform="matrix(-1 0 0 -1 535.5 505.244)" height="25" width="252"></rect>
</g>
<rect fill-opacity="0.04" fill="white" transform="translate(283 505.244)" height="25" width="224"></rect>
<path fill="#F34646" d="M293.688 522.244V515.72H291.35V514.698H291.504C293.016 514.698 293.912 514.292 293.912 512.71V512.612H295.116V522.244H293.688ZM300.378 522.412C298.376 522.412 297.046 521.264 296.934 519.416L298.348 519.192C298.432 520.536 299.272 521.25 300.406 521.25C301.638 521.25 302.366 520.55 302.366 519.5C302.366 518.506 301.68 517.82 300.336 517.82C299.958 517.82 299.72 517.834 299.454 517.848V516.686C299.678 516.7 299.93 516.7 300.322 516.7C301.442 516.7 302.17 516.098 302.17 515.118C302.17 514.278 301.554 513.634 300.448 513.634C299.286 513.634 298.572 514.376 298.488 515.58L297.088 515.342C297.172 513.606 298.502 512.458 300.476 512.458C302.324 512.458 303.626 513.382 303.626 515.02C303.626 516.28 302.772 516.896 301.988 517.176V517.19C303.08 517.456 303.836 518.254 303.836 519.514C303.836 521.292 302.436 522.412 300.378 522.412ZM305.375 522.244V520.452H306.915V522.244H305.375ZM311.626 522.412C309.778 522.412 308.84 521.292 308.588 519.962L310.002 519.71C310.142 520.606 310.688 521.264 311.696 521.264C313.362 521.264 313.922 519.486 313.922 517.442L313.908 517.428C313.6 518.114 312.774 518.786 311.556 518.786C309.652 518.786 308.476 517.442 308.476 515.664C308.476 513.872 309.75 512.458 311.766 512.458C314.244 512.458 315.336 514.488 315.336 517.232C315.336 520.648 313.908 522.412 311.626 522.412ZM311.724 517.638C312.858 517.638 313.67 516.798 313.67 515.664C313.67 514.46 312.816 513.62 311.738 513.62C310.73 513.62 309.876 514.334 309.876 515.65C309.876 517.022 310.744 517.638 311.724 517.638ZM320.372 522.412C317.964 522.412 316.788 520.186 316.788 517.442C316.788 514.572 317.964 512.472 320.372 512.472C322.766 512.472 323.942 514.572 323.942 517.442C323.942 520.312 322.766 522.412 320.372 522.412ZM320.372 521.25C321.87 521.25 322.444 519.668 322.444 517.442C322.444 515.23 321.87 513.648 320.372 513.648C318.874 513.648 318.3 515.23 318.3 517.442C318.3 519.668 318.874 521.25 320.372 521.25Z"></path>
<path fill="white" d="M377.688 522.244V515.72H375.35V514.698H375.504C377.016 514.698 377.912 514.292 377.912 512.71V512.612H379.116V522.244H377.688Z"></path>
<path fill="white" d="M466.187 522.244V512.612H470.093C471.871 512.612 473.089 513.396 473.089 515.048C473.089 516.098 472.487 516.896 471.745 517.176V517.19C472.501 517.386 473.369 518.03 473.369 519.486C473.369 520.97 472.459 522.244 470.261 522.244H466.187ZM470.205 521.026C471.465 521.026 471.955 520.312 471.955 519.416C471.955 518.464 471.423 517.834 470.121 517.834H467.629V521.026H470.205ZM470.009 516.686C471.101 516.686 471.675 516.182 471.675 515.188C471.675 514.25 471.031 513.83 470.079 513.83H467.629V516.686H470.009ZM474.053 522.244L477.749 512.612H479.597L483.307 522.244H481.809L480.871 519.738H476.489L475.537 522.244H474.053ZM476.909 518.534H480.437L478.673 513.844L476.909 518.534ZM485.525 522.244V513.858H482.599V512.612H489.907V513.858H486.967V522.244H485.525ZM493.837 522.244V518.548L490.379 512.612H492.045L494.551 517.12L497.071 512.612H498.751L495.279 518.548V522.244H493.837Z"></path>
<g clip-path="url(#clip15_6129_4784)">
<rect fill-opacity="0.32" fill="url(#paint10_linear_6129_4784)" transform="matrix(-1 0 0 -1 535.5 530.244)" height="25" width="252"></rect>
</g>
</g>
</g>
<rect fill="url(#paint11_linear_6129_4784)" height="688" width="584" y="-31" x="-35"></rect>
</g>
<defs>
<linearGradient gradientUnits="userSpaceOnUse" y2="9.5" x2="252" y1="9.5" x1="0" id="paint0_linear_6129_4784">
<stop stop-opacity="0" stop-color="#26E986"></stop>
<stop stop-color="#26E986"></stop>
<stop stop-opacity="0" stop-color="#26E986" offset="1"></stop>
</linearGradient>
<linearGradient gradientUnits="userSpaceOnUse" y2="9.5" x2="252" y1="9.5" x1="0" id="paint1_linear_6129_4784">
<stop stop-opacity="0" stop-color="#26E986"></stop>
<stop stop-color="#26E986"></stop>
<stop stop-opacity="0" stop-color="#26E986" offset="1"></stop>
</linearGradient>
<linearGradient gradientUnits="userSpaceOnUse" y2="9.5" x2="252" y1="9.5" x1="0" id="paint2_linear_6129_4784">
<stop stop-opacity="0" stop-color="#26E986"></stop>
<stop stop-color="#26E986"></stop>
<stop stop-opacity="0" stop-color="#26E986" offset="1"></stop>
</linearGradient>
<linearGradient gradientUnits="userSpaceOnUse" y2="9.5" x2="252" y1="9.5" x1="0" id="paint3_linear_6129_4784">
<stop stop-opacity="0" stop-color="#26E986"></stop>
<stop stop-color="#26E986"></stop>
<stop stop-opacity="0" stop-color="#26E986" offset="1"></stop>
</linearGradient>
<linearGradient gradientUnits="userSpaceOnUse" y2="9.5" x2="252" y1="9.5" x1="0" id="paint4_linear_6129_4784">
<stop stop-opacity="0" stop-color="#26E986"></stop>
<stop stop-color="#26E986"></stop>
<stop stop-opacity="0" stop-color="#26E986" offset="1"></stop>
</linearGradient>
<linearGradient gradientUnits="userSpaceOnUse" y2="9.5" x2="252" y1="9.5" x1="0" id="paint5_linear_6129_4784">
<stop stop-opacity="0" stop-color="#F34646"></stop>
<stop stop-color="#F34646"></stop>
<stop stop-opacity="0" stop-color="#F34646" offset="1"></stop>
</linearGradient>
<linearGradient gradientUnits="userSpaceOnUse" y2="9.5" x2="252" y1="9.5" x1="0" id="paint6_linear_6129_4784">
<stop stop-opacity="0" stop-color="#F34646"></stop>
<stop stop-color="#F34646"></stop>
<stop stop-opacity="0" stop-color="#F34646" offset="1"></stop>
</linearGradient>
<linearGradient gradientUnits="userSpaceOnUse" y2="9.5" x2="252" y1="9.5" x1="0" id="paint7_linear_6129_4784">
<stop stop-opacity="0" stop-color="#F34646"></stop>
<stop stop-color="#F34646"></stop>
<stop stop-opacity="0" stop-color="#F34646" offset="1"></stop>
</linearGradient>
<linearGradient gradientUnits="userSpaceOnUse" y2="9.5" x2="252" y1="9.5" x1="0" id="paint8_linear_6129_4784">
<stop stop-opacity="0" stop-color="#F34646"></stop>
<stop stop-color="#F34646"></stop>
<stop stop-opacity="0" stop-color="#F34646" offset="1"></stop>
</linearGradient>
<linearGradient gradientUnits="userSpaceOnUse" y2="9.5" x2="252" y1="9.5" x1="0" id="paint9_linear_6129_4784">
<stop stop-opacity="0" stop-color="#F34646"></stop>
<stop stop-color="#F34646"></stop>
<stop stop-opacity="0" stop-color="#F34646" offset="1"></stop>
</linearGradient>
<linearGradient gradientUnits="userSpaceOnUse" y2="9.5" x2="252" y1="9.5" x1="0" id="paint10_linear_6129_4784">
<stop stop-opacity="0" stop-color="#F34646"></stop>
<stop stop-color="#F34646"></stop>
<stop stop-opacity="0" stop-color="#F34646" offset="1"></stop>
</linearGradient>
<linearGradient gradientUnits="userSpaceOnUse" y2="629.662" x2="257" y1="-8.78808" x1="257" id="paint11_linear_6129_4784">
<stop stop-opacity="0" stop-color="#26E986"></stop>
<stop stop-opacity="0" stop-color="#26E986" offset="0.685947"></stop>
<stop stop-opacity="0.7" stop-color="#26E986" offset="1"></stop>
</linearGradient>
<clipPath id="clip0_6129_4784">
<rect fill="white" height="626" width="515"></rect>
</clipPath>
<clipPath id="clip1_6129_4784">
<path fill="white" d="M43 104.244C43 95.4076 50.1634 88.2441 59 88.2441H515V538.244H59C50.1634 538.244 43 531.081 43 522.244V104.244Z"></path>
</clipPath>
<clipPath id="clip2_6129_4784">
<rect fill="white" rx="8" height="131" width="418" y="140.244" x="59"></rect>
</clipPath>
<clipPath id="clip3_6129_4784">
<rect fill="white" rx="8" height="150" width="224" y="380.244" x="51"></rect>
</clipPath>
<clipPath id="clip4_6129_4784">
<rect transform="translate(204 380.244)" fill="white" height="25" width="99"></rect>
</clipPath>
<clipPath id="clip5_6129_4784">
<rect transform="translate(253 405.244)" fill="white" height="25" width="50"></rect>
</clipPath>
<clipPath id="clip6_6129_4784">
<rect transform="translate(269 430.244)" fill="white" height="25" width="34"></rect>
</clipPath>
<clipPath id="clip7_6129_4784">
<rect transform="translate(123 455.244)" fill="white" height="25" width="180"></rect>
</clipPath>
<clipPath id="clip8_6129_4784">
<rect transform="translate(257 480.244)" fill="white" height="25" width="46"></rect>
</clipPath>
<clipPath id="clip9_6129_4784">
<rect fill="white" rx="8" height="150" width="224" y="380.244" x="283"></rect>
</clipPath>
<clipPath id="clip10_6129_4784">
<rect transform="matrix(1 0 0 -1 283.5 405.244)" fill="white" height="25" width="93"></rect>
</clipPath>
<clipPath id="clip11_6129_4784">
<rect transform="matrix(1 0 0 -1 283.5 430.244)" fill="white" height="25" width="156"></rect>
</clipPath>
<clipPath id="clip12_6129_4784">
<rect transform="matrix(1 0 0 -1 283.5 455.244)" fill="white" height="25" width="151"></rect>
</clipPath>
<clipPath id="clip13_6129_4784">
<rect transform="matrix(1 0 0 -1 283.5 480.244)" fill="white" height="25" width="35"></rect>
</clipPath>
<clipPath id="clip14_6129_4784">
<rect transform="matrix(1 0 0 -1 283.5 505.244)" fill="white" height="25" width="14"></rect>
</clipPath>
<clipPath id="clip15_6129_4784">
<rect transform="matrix(1 0 0 -1 283.5 530.244)" fill="white" height="25" width="18"></rect>
</clipPath>
</defs>
</svg>
