<svg xmlns="http://www.w3.org/2000/svg" fill="none" viewBox="0 0 21 21" height="21" width="21">
<g clip-path="url(#clip0_1670_387)">
<path fill="#224944" d="M15.0901 0.253906H11.7194V13.8774C11.7194 15.5007 10.423 16.8341 8.80969 16.8341C7.19637 16.8341 5.89996 15.5007 5.89996 13.8774C5.89996 12.2832 7.16756 10.9788 8.72327 10.9209V7.50049C5.29497 7.55844 2.5293 10.3701 2.5293 13.8774C2.5293 17.4138 5.35259 20.2544 8.83851 20.2544C12.3244 20.2544 15.1477 17.3848 15.1477 13.8774V6.89175C16.4153 7.81933 17.971 8.37007 19.6131 8.39907V4.97867C17.0779 4.89172 15.0901 2.8047 15.0901 0.253906Z"></path>
</g>
<defs>
<clipPath id="clip0_1670_387">
<rect transform="translate(0.863281 0.253906)" fill="white" height="20.0005" width="20.0005"></rect>
</clipPath>
</defs>
</svg>
