<svg xmlns="http://www.w3.org/2000/svg" fill="none" viewBox="0 0 21 21" height="21" width="21">
<g clip-path="url(#clip0_1670_383)">
<path fill="#224944" d="M19.438 0.253906H2.39457C1.57814 0.253906 0.917969 0.898455 0.917969 1.69535V18.8091C0.917969 19.606 1.57814 20.2544 2.39457 20.2544H19.438C20.2544 20.2544 20.9185 19.606 20.9185 18.813V1.69535C20.9185 0.898455 20.2544 0.253906 19.438 0.253906ZM6.85172 17.2973H3.88289V7.7502H6.85172V17.2973ZM5.36731 6.44939C4.41416 6.44939 3.64461 5.67983 3.64461 4.73059C3.64461 3.78135 4.41416 3.01179 5.36731 3.01179C6.31655 3.01179 7.0861 3.78135 7.0861 4.73059C7.0861 5.67593 6.31655 6.44939 5.36731 6.44939ZM17.9614 17.2973H14.9965V12.6566C14.9965 11.5511 14.9769 10.1253 13.4535 10.1253C11.9105 10.1253 11.6761 11.3323 11.6761 12.5785V17.2973H8.71506V7.7502H11.5589V9.05493H11.5979C11.9925 8.30491 12.9613 7.51192 14.4027 7.51192C17.4067 7.51192 17.9614 9.48853 17.9614 12.0589V17.2973V17.2973Z"></path>
</g>
<defs>
<clipPath id="clip0_1670_383">
<rect transform="translate(0.917969 0.253906)" fill="white" height="20.0005" width="20.0005"></rect>
</clipPath>
</defs>
</svg>
