<svg xmlns="http://www.w3.org/2000/svg" fill="none" viewBox="0 0 515 626" height="626" width="515">
<g clip-path="url(#clip0_6129_5300)">
<rect fill="#C9E2FF" height="626" width="515"></rect>
<path fill="#FF5500" d="M252.839 210.898L252.821 210.916H116.007L116.006 894.638H0L0.00139251 137.025C0.00139251 113.789 18.847 94.9531 42.0943 94.9531H367.652L252.839 210.898Z" clip-rule="evenodd" fill-rule="evenodd"></path>
<path fill="#FF5500" d="M242.836 158.928H232.917V162.498H242.836V158.928Z"></path>
<path fill="#070C32" d="M149.138 315.499L472.003 315.5C495.75 315.5 515 296.258 515 272.525V-251H400.516V201.037H262.94L243.592 220.498C224.344 210.829 218.406 218.61 223.435 240.772L149.138 315.499Z"></path>
<path fill="#FF5500" d="M472.385 292.564H427.705C420.641 292.564 414.913 286.837 414.913 279.77V239.458C414.913 232.372 420.653 226.625 427.743 226.625H462.359C469.432 226.625 475.164 232.356 475.164 239.427V254.201C475.164 261.064 469.597 266.629 462.738 266.629H431.581V273.551C431.581 275.414 433.092 276.917 434.947 276.917H472.385V292.564ZM431.586 252.585H455.235C457.095 252.585 458.601 251.077 458.601 249.221V245.644C458.601 243.781 457.087 242.28 455.235 242.28H434.947C433.092 242.28 431.586 243.789 431.586 245.644V252.585Z" clip-rule="evenodd" fill-rule="evenodd"></path>
<path fill="#FF5500" d="M276.209 276.756V239.261C276.209 232.186 281.948 226.443 289.022 226.443H289.025L319.885 226.432V201.037H337.676V292.39H291.842L276.209 276.756ZM292.864 245.432V273.359C292.864 275.214 294.369 276.723 296.228 276.723H319.89V242.067H296.228C294.373 242.067 292.864 243.573 292.864 245.432Z" clip-rule="evenodd" fill-rule="evenodd"></path>
<path fill="#FF5500" d="M407.026 308.254C407.026 317.83 399.265 325.593 389.686 325.593H346.344L363.683 308.254H390.244V292.525L358.377 292.514H358.373C351.3 292.514 345.56 286.77 345.56 279.696V239.396C345.56 232.314 351.3 226.566 358.385 226.566H394.2C401.286 226.566 407.026 232.314 407.026 239.396V308.254ZM387.004 242.233H365.581C363.721 242.233 362.215 243.742 362.215 245.598V273.524C362.215 275.383 363.725 276.889 365.581 276.889H390.37V245.598C390.37 243.742 388.863 242.233 387.004 242.233Z" clip-rule="evenodd" fill-rule="evenodd"></path>
<path fill="#FF5500" d="M238.798 226.566H232.441C230.586 226.566 229.077 228.068 229.077 229.93V273.378C229.077 275.241 230.586 276.742 232.441 276.742H265.951L281.606 292.391H225.2C218.134 292.391 212.407 286.662 212.407 279.596V223.712C212.407 216.646 218.134 210.918 225.2 210.918H238.798V226.566Z" clip-rule="evenodd" fill-rule="evenodd"></path>
<path fill="#FF5500" d="M265.951 210.92V226.568H232.441C230.586 226.568 229.077 228.07 229.077 229.933V246.389H255.32V262.035H229.077V273.38C229.077 275.243 230.586 276.745 232.441 276.745H238.798V292.393H225.2C218.134 292.393 212.407 286.664 212.407 279.599V223.716C212.407 216.649 218.134 210.92 225.2 210.92H265.951Z" clip-rule="evenodd" fill-rule="evenodd"></path>
<path fill="#070C32" d="M215.762 141.637H203.274V152.956H215.762V141.637Z"></path>
<path fill="#070C32" d="M165.768 159.201H186.911C192.157 159.201 196.41 163.454 196.41 168.701V201.388C196.41 206.649 192.148 210.916 186.883 210.916H161.182C155.93 210.916 151.674 206.66 151.674 201.41V187.684C151.674 182.589 155.808 178.457 160.9 178.457H184.034V173.318C184.034 171.934 182.912 170.819 181.534 170.819H154.144L165.768 159.201ZM184.029 188.884H166.47C165.091 188.884 163.972 190.004 163.972 191.382V196.794C163.972 198.178 165.096 199.293 166.47 199.293H181.534C182.912 199.293 184.029 198.172 184.029 196.794V188.884Z" clip-rule="evenodd" fill-rule="evenodd"></path>
<path fill="#070C32" d="M87.8164 148.663V210.916H114.55C134.551 210.916 147.821 197.059 147.821 176.08C147.821 155.785 134.844 141.637 114.55 141.637H94.9384C90.8416 141.637 87.8164 144.564 87.8164 148.663ZM100.696 200.281V152.272H113.672C126.746 152.272 134.746 161.639 134.746 176.08C134.746 190.523 126.941 200.281 113.672 200.281H100.696Z"></path>
<path fill="#070C32" d="M215.715 159.203H203.227V210.918H215.715V159.203Z"></path>
<path fill="#070C32" d="M234.556 141.637H222.068V210.916H234.556V141.637Z"></path>
<path fill="#070C32" d="M279.88 159.203L264.941 204.378C264.325 206.339 263.45 207.747 262.41 208.74C260.655 210.417 258.427 210.916 256.161 210.916H240.745V201.06H255.673L257.624 192.766H250.404L239.282 159.203H251.879L255.478 171.398L258.697 183.108H260.55L263.771 171.398L267.369 159.203H279.88Z" clip-rule="evenodd" fill-rule="evenodd"></path>
<path fill="#070C32" d="M152.101 377.637C152.101 376.355 153.047 375.439 154.328 375.439H160.921C165.132 375.439 168.001 377.85 168.001 381.909C168.001 386.212 165.132 388.532 161.012 388.532H156.129V397.107H152.101V377.637ZM156.129 385.205H160.951C163.026 385.205 163.911 383.923 163.911 381.909C163.911 379.895 162.813 378.766 160.676 378.766H156.129V385.205ZM169.2 383.13C169.2 381.757 170.146 380.933 171.427 380.933H177.409V384.107H173.106V397.107H169.2V383.13ZM185.434 397.443C180.581 397.443 177.285 393.995 177.285 389.02C177.285 384.076 180.673 380.597 185.434 380.597C190.286 380.597 193.948 384.137 193.552 390.027H181.191C181.527 392.682 183.114 394.483 185.434 394.483C187.173 394.483 188.455 393.506 189.035 391.98H193.094C192.148 395.337 189.187 397.443 185.434 397.443ZM181.283 387.341H189.615C189.187 384.992 187.661 383.435 185.434 383.435C183.206 383.435 181.741 385.053 181.283 387.341ZM194.938 383.13C194.938 381.848 195.884 380.933 197.166 380.933H202.873C207.298 380.933 210.563 384.076 210.563 389.02C210.563 394.025 207.267 397.107 202.873 397.107H198.844V402.601H194.938V383.13ZM198.844 393.964H202.201C205.039 393.964 206.535 392.194 206.535 389.02C206.535 385.907 205.07 384.076 202.201 384.076H198.844V393.964ZM216.951 397.107C213.716 397.107 211.366 395.612 211.366 392.438C211.366 388.959 213.655 387.982 217.683 387.616L222.2 387.219V386.151C222.2 384.198 221.04 383.466 219.087 383.466C217.073 383.466 216.157 384.229 215.944 385.968H212.098C212.159 382.459 215.089 380.597 219.209 380.597C223.207 380.597 225.954 382.367 225.954 386.334V394.91C225.954 396.192 225.038 397.107 223.726 397.107H216.951ZM215.303 392.316C215.303 393.842 216.218 394.3 217.775 394.3H222.2V389.813L218.477 390.241C216.432 390.485 215.303 390.851 215.303 392.316ZM227.858 383.13C227.858 381.757 228.804 380.933 230.086 380.933H236.068V384.107H231.765V397.107H227.858V383.13ZM244.092 397.443C239.24 397.443 235.944 393.995 235.944 389.02C235.944 384.076 239.331 380.597 244.092 380.597C248.945 380.597 252.607 384.137 252.21 390.027H239.85C240.186 392.682 241.773 394.483 244.092 394.483C245.832 394.483 247.114 393.506 247.694 391.98H251.753C250.806 395.337 247.846 397.443 244.092 397.443ZM239.942 387.341H248.273C247.846 384.992 246.32 383.435 244.092 383.435C241.865 383.435 240.4 385.053 239.942 387.341ZM260.032 377.637C260.032 376.263 260.947 375.439 262.229 375.439H267.692V378.522H263.938V380.933H267.692V384.107H263.938V397.107H260.032V384.107H257.712V380.933H260.032V377.637ZM275.817 397.443C271.361 397.443 267.577 394.422 267.577 389.02C267.577 383.618 271.361 380.597 275.817 380.597C280.273 380.597 284.057 383.618 284.057 389.02C284.057 394.422 280.273 397.443 275.817 397.443ZM271.483 389.02C271.483 392.682 273.528 394.391 275.817 394.391C278.075 394.391 280.12 392.682 280.12 389.02C280.12 385.358 278.075 383.649 275.817 383.649C273.528 383.649 271.483 385.358 271.483 389.02ZM285.498 383.13C285.498 381.757 286.444 380.933 287.726 380.933H293.707V384.107H289.404V397.107H285.498V383.13ZM308.608 380.933V384.107H305.281V394.025H308.608V397.107H303.603C302.291 397.107 301.375 396.192 301.375 394.91V384.107H299.056V380.933H301.375V376.813H305.281V380.933H308.608ZM320.597 387.525C320.597 385.083 319.437 384.076 317.484 384.076H314.035V397.107H310.129V375.439H314.035V380.933H318.582C321.939 380.933 324.503 383.13 324.503 387.189V397.107H320.597V387.525ZM333.931 397.443C329.079 397.443 325.783 393.995 325.783 389.02C325.783 384.076 329.17 380.597 333.931 380.597C338.784 380.597 342.446 384.137 342.049 390.027H329.689C330.025 392.682 331.612 394.483 333.931 394.483C335.671 394.483 336.953 393.506 337.533 391.98H341.591C340.645 395.337 337.685 397.443 333.931 397.443ZM329.781 387.341H338.112C337.685 384.992 336.159 383.435 333.931 383.435C331.703 383.435 330.239 385.053 329.781 387.341ZM348.436 383.13C348.436 381.848 349.383 380.933 350.664 380.933H365.527C368.853 380.933 371.447 383.13 371.447 387.189V397.107H367.541V387.525C367.541 385.083 366.381 384.076 364.428 384.076H361.895V397.107H357.989V384.076H352.343V397.107H348.436V383.13ZM378.198 397.107C374.964 397.107 372.614 395.612 372.614 392.438C372.614 388.959 374.902 387.982 378.931 387.616L383.448 387.219V386.151C383.448 384.198 382.288 383.466 380.335 383.466C378.321 383.466 377.405 384.229 377.191 385.968H373.346C373.407 382.459 376.337 380.597 380.457 380.597C384.455 380.597 387.201 382.367 387.201 386.334V394.91C387.201 396.192 386.286 397.107 384.974 397.107H378.198ZM376.55 392.316C376.55 393.842 377.466 394.3 379.022 394.3H383.448V389.813L379.724 390.241C377.68 390.485 376.55 390.851 376.55 392.316ZM389.106 383.13C389.106 381.757 390.052 380.933 391.334 380.933H397.315V384.107H393.012V397.107H389.106V383.13ZM408.405 388.562L413.227 396.894V397.107H408.954L405.14 389.997H402.515V397.107H398.609V375.439H402.515V386.792H405.14L408.954 380.933H413.258V381.146L408.405 388.196V388.562ZM420.772 397.443C415.92 397.443 412.624 393.995 412.624 389.02C412.624 384.076 416.011 380.597 420.772 380.597C425.625 380.597 429.287 384.137 428.89 390.027H416.53C416.866 392.682 418.453 394.483 420.772 394.483C422.512 394.483 423.793 393.506 424.373 391.98H428.432C427.486 395.337 424.526 397.443 420.772 397.443ZM416.622 387.341H424.953C424.526 384.992 423 383.435 420.772 383.435C418.544 383.435 417.079 385.053 416.622 387.341ZM438.586 380.933V384.107H435.259V394.025H438.586V397.107H433.581C432.269 397.107 431.353 396.192 431.353 394.91V384.107H429.034V380.933H431.353V376.813H435.259V380.933H438.586ZM446.096 397.443C442.098 397.443 439.199 395.704 438.985 391.98H442.892C443.228 393.933 444.448 394.605 446.157 394.605C447.561 394.605 449.209 394.178 449.209 392.621C449.209 389.112 439.352 391.523 439.352 385.48C439.352 382.306 442.22 380.597 446.005 380.597C450.094 380.597 452.597 382.581 452.81 385.968H448.934C448.812 384.259 447.805 383.374 445.913 383.374C444.54 383.374 443.197 383.862 443.197 385.144C443.197 388.227 453.146 386.487 453.146 392.347C453.146 395.765 450.064 397.443 446.096 397.443ZM159.517 427.443C154.664 427.443 151.368 423.995 151.368 419.02C151.368 414.076 154.756 410.597 159.517 410.597C164.369 410.597 168.031 414.137 167.635 420.027H155.275C155.61 422.682 157.197 424.483 159.517 424.483C161.256 424.483 162.538 423.506 163.118 421.98H167.177C166.231 425.337 163.27 427.443 159.517 427.443ZM155.366 417.341H163.698C163.27 414.992 161.745 413.435 159.517 413.435C157.289 413.435 155.824 415.053 155.366 417.341ZM172.818 427.107L167.508 411.238V410.933H171.567L174.313 420.241L175.32 423.903H175.9L176.907 420.241L179.654 410.933H183.683V411.238L178.403 427.107H172.818ZM191.543 427.443C186.691 427.443 183.395 423.995 183.395 419.02C183.395 414.076 186.782 410.597 191.543 410.597C196.396 410.597 200.058 414.137 199.661 420.027H187.301C187.637 422.682 189.224 424.483 191.543 424.483C193.283 424.483 194.565 423.506 195.144 421.98H199.203C198.257 425.337 195.297 427.443 191.543 427.443ZM187.393 417.341H195.724C195.297 414.992 193.771 413.435 191.543 413.435C189.315 413.435 187.85 415.053 187.393 417.341ZM201.047 413.13C201.047 411.757 201.993 410.933 203.275 410.933H209.257V414.107H204.954V427.107H201.047V413.13ZM211.918 432.601V429.518H216.588L217.198 426.924H214.94L209.721 411.177V410.933H213.78L216.527 420.241L217.534 423.903H218.114L219.121 420.241L221.867 410.933H225.896V411.177L219.487 430.556C218.968 432.204 217.87 432.601 216.74 432.601H211.918ZM239.044 427.107C234.649 427.107 231.353 424.025 231.353 419.02C231.353 414.076 234.619 410.933 239.044 410.933H243.042V405.439H246.948V424.91C246.948 426.192 246.033 427.107 244.751 427.107H239.044ZM235.382 419.02C235.382 422.194 236.877 423.964 239.716 423.964H243.042V414.076H239.716C236.847 414.076 235.382 415.907 235.382 419.02ZM253.919 427.107C250.684 427.107 248.334 425.612 248.334 422.438C248.334 418.959 250.623 417.982 254.651 417.616L259.168 417.219V416.151C259.168 414.198 258.008 413.466 256.055 413.466C254.041 413.466 253.125 414.229 252.912 415.968H249.066C249.127 412.459 252.057 410.597 256.177 410.597C260.175 410.597 262.922 412.367 262.922 416.334V424.91C262.922 426.192 262.006 427.107 260.694 427.107H253.919ZM252.271 422.316C252.271 423.842 253.186 424.3 254.743 424.3H259.168V419.813L255.445 420.241C253.4 420.485 252.271 420.851 252.271 422.316ZM265.481 432.601V429.518H270.15L270.761 426.924H268.502L263.284 411.177V410.933H267.342L270.089 420.241L271.096 423.903H271.676L272.683 420.241L275.43 410.933H279.458V411.177L273.049 430.556C272.531 432.204 271.432 432.601 270.303 432.601H265.481ZM302.434 423.903H302.861L303.593 420.241L305.577 410.933H309.453V411.177L305.424 427.107H299.962L297.947 417.799L297.306 414.137H296.818L296.147 417.799L294.163 427.107H288.67L284.641 411.177V410.933H288.548L290.531 420.241L291.233 423.903H291.691L292.362 420.241L294.346 410.933H299.778L301.762 420.241L302.434 423.903ZM310.647 427.107V410.933H314.554V427.107H310.647ZM310.647 408.979V405.439H314.554V408.979H310.647ZM325.357 410.933V414.107H322.031V424.025H325.357V427.107H320.352C319.04 427.107 318.124 426.192 318.124 424.91V414.107H315.805V410.933H318.124V406.813H322.031V410.933H325.357ZM337.346 417.525C337.346 415.083 336.186 414.076 334.233 414.076H330.785V427.107H326.878V405.439H330.785V410.933H335.332C338.689 410.933 341.252 413.13 341.252 417.189V427.107H337.346V417.525ZM353.912 427.107C350.585 427.107 347.991 424.91 347.991 420.851V410.933H351.897V420.515C351.897 422.957 353.057 423.964 355.01 423.964H358.154V410.933H362.06V424.91C362.06 426.192 361.114 427.107 359.832 427.107H353.912ZM370.521 427.443C366.523 427.443 363.624 425.704 363.41 421.98H367.317C367.652 423.933 368.873 424.605 370.582 424.605C371.986 424.605 373.634 424.178 373.634 422.621C373.634 419.112 363.777 421.523 363.777 415.48C363.777 412.306 366.645 410.597 370.43 410.597C374.519 410.597 377.022 412.581 377.235 415.968H373.359C373.237 414.259 372.23 413.374 370.338 413.374C368.965 413.374 367.622 413.862 367.622 415.144C367.622 418.227 377.571 416.487 377.571 422.347C377.571 425.765 374.489 427.443 370.521 427.443Z"></path>
<rect fill="url(#paint0_linear_6129_5300)" height="688" width="584" y="-31" x="-35"></rect>
</g>
<defs>
<linearGradient gradientUnits="userSpaceOnUse" y2="629.662" x2="257" y1="-8.78808" x1="257" id="paint0_linear_6129_5300">
<stop stop-opacity="0" stop-color="#0B213A"></stop>
<stop stop-opacity="0" stop-color="#0B213A" offset="0.685947"></stop>
<stop stop-opacity="0.5" stop-color="#0B213A" offset="1"></stop>
</linearGradient>
<clipPath id="clip0_6129_5300">
<rect fill="white" height="626" width="515"></rect>
</clipPath>
</defs>
</svg>
