<svg xmlns="http://www.w3.org/2000/svg" fill="none" viewBox="0 0 350 544" height="544" width="350">
<g clip-path="url(#clip0_6129_4326)">
<path fill="#191C37" d="M0 24C0 10.7452 10.7452 0 24 0H350V520C350 533.255 339.255 544 326 544H0V24Z"></path>
<path fill="url(#paint0_linear_6129_4326)" d="M51.6571 280.564C40.0298 274.948 32 263.041 32 249.272C32 230.106 47.561 214.545 66.7279 214.545C78.9732 214.545 89.7469 220.897 95.931 230.483C118.901 214.424 146.845 205 176.973 205C255.167 205 318.651 268.483 318.651 346.678C318.651 424.872 255.167 488.356 176.973 488.356C160.012 488.356 143.742 485.369 128.663 479.893C124.241 489.401 114.601 496 103.432 496C88.0843 496 75.6239 483.539 75.6239 468.191C75.6239 461.809 77.7791 455.925 81.4008 451.229C53.073 425.317 35.2951 388.057 35.2951 346.678C35.2951 322.806 41.2116 300.306 51.6571 280.564ZM98.9842 236.391C100.578 240.375 101.455 244.722 101.455 249.272C101.455 268.439 85.8943 284 66.7279 284C63.6771 284 60.7181 283.606 57.8982 282.866C47.682 301.874 41.8845 323.604 41.8845 346.678C41.8845 386.214 58.9056 421.806 86.0137 446.52C90.7816 442.681 96.8408 440.383 103.432 440.383C118.78 440.383 131.24 452.843 131.24 468.191C131.24 470.05 131.058 471.866 130.709 473.623C145.144 478.892 160.725 481.766 176.973 481.766C251.53 481.766 312.061 421.235 312.061 346.678C312.061 310.583 297.874 277.776 274.778 253.533L251.475 276.835C264.281 290.489 273.381 307.659 277.163 326.733C289.675 328.119 299.419 338.741 299.419 351.62C299.419 365.355 288.337 376.522 274.634 376.66C261.812 418.421 222.914 448.818 176.973 448.818C120.6 448.818 74.8332 403.05 74.8332 346.678C74.8332 290.305 120.6 244.538 176.973 244.538C203.975 244.538 228.544 255.039 246.816 272.176L270.118 248.873C245.875 225.776 213.068 211.589 176.973 211.589C147.933 211.589 121.02 220.773 98.9842 236.391ZM270.467 326.884C266.813 309.566 258.463 293.972 246.814 281.497L223.499 304.811C233.491 315.905 239.575 330.587 239.575 346.678C239.575 381.229 211.524 409.28 176.973 409.28C142.422 409.28 114.371 381.229 114.371 346.678C114.371 312.127 142.422 284.076 176.973 284.076C193.064 284.076 207.745 290.16 218.84 300.151L242.154 276.837C225.078 260.891 202.157 251.127 176.973 251.127C124.238 251.127 81.4226 293.942 81.4226 346.678C81.4226 399.413 124.238 442.228 176.973 442.228C219.542 442.228 255.647 414.33 267.985 375.836C257.257 373.007 249.337 363.231 249.337 351.62C249.337 339.13 258.502 328.764 270.467 326.884ZM214.174 304.817C204.278 296.015 191.245 290.665 176.973 290.665C146.059 290.665 120.961 315.764 120.961 346.678C120.961 377.592 146.059 402.69 176.973 402.69C207.887 402.69 232.985 377.592 232.985 346.678C232.985 332.405 227.635 319.372 218.833 309.477L195.442 332.868C198.327 336.719 200.037 341.5 200.037 346.678C200.037 359.407 189.702 369.742 176.973 369.742C164.244 369.742 153.909 359.407 153.909 346.678C153.909 333.949 164.244 323.614 176.973 323.614C182.15 323.614 186.932 325.324 190.782 328.209L214.174 304.817ZM186.056 332.935C183.451 331.209 180.329 330.204 176.973 330.204C167.881 330.204 160.499 337.586 160.499 346.678C160.499 355.77 167.881 363.152 176.973 363.152C186.065 363.152 193.447 355.77 193.447 346.678C193.447 343.322 192.441 340.2 190.716 337.595L176.973 351.337L172.313 346.678L186.056 332.935ZM274.378 333.169C264.195 333.169 255.927 341.437 255.927 351.62C255.927 361.804 264.195 370.071 274.378 370.071C284.562 370.071 292.829 361.804 292.829 351.62C292.829 341.437 284.562 333.169 274.378 333.169ZM103.432 446.973C91.7214 446.973 82.2133 456.481 82.2133 468.191C82.2133 479.902 91.7214 489.41 103.432 489.41C115.143 489.41 124.651 479.902 124.651 468.191C124.651 456.481 115.143 446.973 103.432 446.973ZM66.7279 221.135C51.1981 221.135 38.5898 233.743 38.5898 249.272C38.5898 264.802 51.1981 277.41 66.7279 277.41C82.2576 277.41 94.8655 264.802 94.8655 249.272C94.8655 233.743 82.2576 221.135 66.7279 221.135Z" clip-rule="evenodd" fill-rule="evenodd"></path>
<path fill="url(#paint1_linear_6129_4326)" d="M21 380C21 374.477 25.4772 370 31 370H92.3047V389C92.3047 394.523 87.8276 399 82.3047 399H21V380Z"></path>
<path stroke-opacity="0.1" stroke="white" d="M31 370.5H91.8047V389C91.8047 394.247 87.5514 398.5 82.3047 398.5H21.5V380C21.5 374.753 25.7533 370.5 31 370.5Z"></path>
<path fill="#26E986" d="M37.1523 379.016L43.4858 389.986H30.8188L37.1523 379.016Z"></path>
<path fill="#26E986" d="M52.7856 386.707V387.271C52.7856 389.436 51.0394 391.182 48.875 391.182C46.7105 391.182 44.9644 389.436 44.9644 387.271V386.707C44.9644 385.834 45.2554 385.016 45.7465 384.361L50.2755 378.177L51.767 379.268L49.166 382.815C49.5843 382.851 50.0027 382.942 50.3846 383.106C51.8034 383.688 52.7856 385.089 52.7856 386.707ZM50.8757 387.271V386.707C50.8757 385.58 50.0572 384.634 48.875 384.634C47.6927 384.634 46.8742 385.58 46.8742 386.707V387.271C46.8742 388.399 47.6927 389.345 48.875 389.345C50.0572 389.345 50.8757 388.399 50.8757 387.271ZM57.14 391V388.563H59.5773V391H57.14ZM66.2962 383.524L64.9866 384.87C64.2045 384.161 63.7316 383.142 63.7316 381.997C63.7316 379.832 65.4777 378.086 67.6422 378.086C69.8067 378.086 71.5528 379.832 71.5528 381.997C71.5528 383.179 71.0799 384.161 69.8612 385.452L66.3326 389.163H71.5528V391H63.7316V389.163L68.4243 384.234C69.2792 383.342 69.643 382.833 69.643 381.997C69.643 380.869 68.8245 379.923 67.6422 379.923C66.4599 379.923 65.6414 380.869 65.6414 381.997C65.6414 382.597 65.8779 383.142 66.2962 383.524ZM72.8878 389.163H76.1982V380.851L74.3793 382.669L73.0879 381.378L76.1982 378.268H78.108V389.163H81.4184V391H72.8878V389.163Z"></path>
<path fill="url(#paint2_linear_6129_4326)" d="M226 464C226 458.477 230.477 454 236 454H297.305V473C297.305 478.523 292.828 483 287.305 483H226V464Z"></path>
<path stroke-opacity="0.1" stroke="white" d="M236 454.5H296.805V473C296.805 478.247 292.551 482.5 287.305 482.5H226.5V464C226.5 458.753 230.753 454.5 236 454.5Z"></path>
<path fill="#FF5500" d="M242.152 473.984L248.486 463.014H235.819L242.152 473.984Z"></path>
<path fill="#FF5500" d="M252.802 467.524L251.492 468.87C250.71 468.161 250.237 467.142 250.237 465.997C250.237 463.832 251.983 462.086 254.148 462.086C256.312 462.086 258.058 463.832 258.058 465.997C258.058 467.179 257.585 468.161 256.367 469.452L252.838 473.163H258.058V475H250.237V473.163L254.93 468.234C255.785 467.342 256.149 466.833 256.149 465.997C256.149 464.869 255.33 463.923 254.148 463.923C252.966 463.923 252.147 464.869 252.147 465.997C252.147 466.597 252.383 467.142 252.802 467.524ZM262.14 475V472.563H264.577V475H262.14ZM276.28 470.707V471.271C276.28 473.436 274.534 475.182 272.369 475.182C270.205 475.182 268.459 473.436 268.459 471.271V470.707C268.459 469.834 268.75 469.016 269.241 468.361L273.77 462.177L275.261 463.268L272.66 466.815C273.079 466.851 273.497 466.942 273.879 467.106C275.298 467.688 276.28 469.089 276.28 470.707ZM274.37 471.271V470.707C274.37 469.58 273.552 468.634 272.369 468.634C271.187 468.634 270.369 469.58 270.369 470.707V471.271C270.369 472.399 271.187 473.345 272.369 473.345C273.552 473.345 274.37 472.399 274.37 471.271ZM281.689 469.18V467.415H281.762C282.708 467.379 283.363 466.597 283.363 465.669C283.363 464.723 282.672 463.923 281.689 463.923C280.707 463.923 280.034 464.723 280.034 465.669H278.124C278.124 463.687 279.707 462.086 281.689 462.086C283.672 462.086 285.273 463.687 285.273 465.669C285.273 466.706 284.836 467.615 284.127 468.252C285.018 468.961 285.6 470.034 285.6 471.271C285.6 473.436 283.854 475.182 281.689 475.182C279.525 475.182 277.779 473.436 277.779 471.271H279.689C279.689 472.399 280.507 473.345 281.689 473.345C282.872 473.345 283.69 472.399 283.69 471.271C283.69 470.18 282.908 469.234 281.78 469.18H281.689Z"></path>
<path fill="url(#paint3_linear_6129_4326)" d="M212 208C212 202.477 216.477 198 222 198H283.305V217C283.305 222.523 278.828 227 273.305 227H212V208Z"></path>
<path stroke-opacity="0.1" stroke="white" d="M222 198.5H282.805V217C282.805 222.247 278.551 226.5 273.305 226.5H212.5V208C212.5 202.753 216.753 198.5 222 198.5Z"></path>
<path fill="#26E986" d="M228.152 207.016L234.486 217.986H221.819L228.152 207.016Z"></path>
<path fill="#26E986" d="M239.948 213.18V211.415H240.02C240.966 211.379 241.621 210.597 241.621 209.669C241.621 208.723 240.93 207.923 239.948 207.923C238.966 207.923 238.293 208.723 238.293 209.669H236.383C236.383 207.687 237.965 206.086 239.948 206.086C241.93 206.086 243.531 207.687 243.531 209.669C243.531 210.706 243.094 211.615 242.385 212.252C243.276 212.961 243.858 214.034 243.858 215.271C243.858 217.436 242.112 219.182 239.948 219.182C237.783 219.182 236.037 217.436 236.037 215.271H237.947C237.947 216.399 238.765 217.345 239.948 217.345C241.13 217.345 241.948 216.399 241.948 215.271C241.948 214.18 241.166 213.234 240.039 213.18H239.948ZM248.14 219V216.563H250.577V219H248.14ZM257.296 211.524L255.987 212.87C255.204 212.161 254.732 211.142 254.732 209.997C254.732 207.832 256.478 206.086 258.642 206.086C260.807 206.086 262.553 207.832 262.553 209.997C262.553 211.179 262.08 212.161 260.861 213.452L257.333 217.163H262.553V219H254.732V217.163L259.424 212.234C260.279 211.342 260.643 210.833 260.643 209.997C260.643 208.869 259.824 207.923 258.642 207.923C257.46 207.923 256.641 208.869 256.641 209.997C256.641 210.597 256.878 211.142 257.296 211.524ZM264.288 209.669C264.288 207.687 265.87 206.086 267.853 206.086C269.836 206.086 271.436 207.687 271.436 209.669C271.436 210.706 271 211.615 270.309 212.252C271.2 212.961 271.764 214.053 271.764 215.271C271.764 217.436 270.017 219.182 267.853 219.182C265.689 219.182 263.942 217.436 263.942 215.271C263.942 214.053 264.506 212.961 265.398 212.252C264.706 211.615 264.288 210.706 264.288 209.669ZM265.852 215.271C265.852 216.399 266.689 217.327 267.853 217.327C269.017 217.327 269.854 216.399 269.854 215.271C269.854 214.144 269.017 213.216 267.853 213.216C266.689 213.216 265.852 214.144 265.852 215.271ZM269.526 209.669C269.526 208.723 268.835 207.923 267.853 207.923C266.871 207.923 266.198 208.723 266.198 209.669C266.198 210.615 266.871 211.397 267.853 211.397C268.835 211.397 269.526 210.615 269.526 209.669Z"></path>
<path fill="url(#paint4_linear_6129_4326)" d="M104 303C104 297.477 108.477 293 114 293H175.305V312C175.305 317.523 170.828 322 165.305 322H104V303Z"></path>
<path stroke-opacity="0.1" stroke="white" d="M114 293.5H174.805V312C174.805 317.247 170.551 321.5 165.305 321.5H104.5V303C104.5 297.753 108.753 293.5 114 293.5Z"></path>
<path fill="#FF5500" d="M120.152 312.984L126.486 302.014H113.819L120.152 312.984Z"></path>
<path fill="#FF5500" d="M134.658 302.268L129.729 309.016H133.094V306.379H135.003V309.016H136.331V310.853H135.003V314H133.094V310.853H127.437V309.016L133.166 301.177L134.658 302.268ZM140.14 314V311.563H142.577V314H140.14ZM146.641 312.163H149.951V303.851L148.132 305.669L146.841 304.378L149.951 301.268H151.861V312.163H155.171V314H146.641V312.163ZM156.052 307.161L157.343 301.268H162.909V303.105H158.871L158.161 306.306C158.543 306.033 159.216 305.797 159.889 305.797C161.963 305.797 163.709 307.543 163.709 309.707V310.271C163.709 312.436 161.963 314.182 159.798 314.182C157.634 314.182 155.888 312.436 155.888 310.271H157.798C157.798 311.399 158.616 312.345 159.798 312.345C160.981 312.345 161.799 311.399 161.799 310.271V309.707C161.799 308.58 160.981 307.634 159.798 307.634C159.053 307.634 158.434 308.07 158.089 308.652L156.052 307.161Z"></path>
<path fill="url(#paint5_linear_6129_4326)" d="M262 297C262 291.477 266.477 287 272 287H333.305V306C333.305 311.523 328.828 316 323.305 316H262V297Z"></path>
<path stroke-opacity="0.1" stroke="white" d="M272 287.5H332.805V306C332.805 311.247 328.551 315.5 323.305 315.5H262.5V297C262.5 291.753 266.753 287.5 272 287.5Z"></path>
<path fill="#26E986" d="M278.152 296.016L284.486 306.986H271.819L278.152 296.016Z"></path>
<path fill="#26E986" d="M288.802 300.524L287.492 301.87C286.71 301.161 286.237 300.142 286.237 298.997C286.237 296.832 287.983 295.086 290.148 295.086C292.312 295.086 294.058 296.832 294.058 298.997C294.058 300.179 293.585 301.161 292.367 302.452L288.838 306.163H294.058V308H286.237V306.163L290.93 301.234C291.785 300.342 292.149 299.833 292.149 298.997C292.149 297.869 291.33 296.923 290.148 296.923C288.966 296.923 288.147 297.869 288.147 298.997C288.147 299.597 288.383 300.142 288.802 300.524ZM298.14 308V305.563H300.577V308H298.14ZM304.641 306.163H307.951V297.851L306.132 299.669L304.841 298.378L307.951 295.268H309.861V306.163H313.171V308H304.641V306.163ZM314.052 301.161L315.343 295.268H320.909V297.105H316.871L316.161 300.306C316.543 300.033 317.216 299.797 317.889 299.797C319.963 299.797 321.709 301.543 321.709 303.707V304.271C321.709 306.436 319.963 308.182 317.798 308.182C315.634 308.182 313.888 306.436 313.888 304.271H315.798C315.798 305.399 316.616 306.345 317.798 306.345C318.981 306.345 319.799 305.399 319.799 304.271V303.707C319.799 302.58 318.981 301.634 317.798 301.634C317.053 301.634 316.434 302.07 316.089 302.652L314.052 301.161Z"></path>
</g>
<defs>
<linearGradient gradientUnits="userSpaceOnUse" y2="496" x2="175.325" y1="205" x1="175.325" id="paint0_linear_6129_4326">
<stop stop-color="#26E986"></stop>
<stop stop-color="#191C37" offset="1"></stop>
</linearGradient>
<linearGradient gradientUnits="userSpaceOnUse" y2="399" x2="56.6524" y1="370" x1="56.6524" id="paint1_linear_6129_4326">
<stop stop-color="#515466"></stop>
<stop stop-opacity="0.8" stop-color="#13162E" offset="1"></stop>
</linearGradient>
<linearGradient gradientUnits="userSpaceOnUse" y2="483" x2="261.652" y1="454" x1="261.652" id="paint2_linear_6129_4326">
<stop stop-color="#515466"></stop>
<stop stop-opacity="0.8" stop-color="#13162E" offset="1"></stop>
</linearGradient>
<linearGradient gradientUnits="userSpaceOnUse" y2="227" x2="247.652" y1="198" x1="247.652" id="paint3_linear_6129_4326">
<stop stop-color="#515466"></stop>
<stop stop-opacity="0.8" stop-color="#13162E" offset="1"></stop>
</linearGradient>
<linearGradient gradientUnits="userSpaceOnUse" y2="322" x2="139.652" y1="293" x1="139.652" id="paint4_linear_6129_4326">
<stop stop-color="#515466"></stop>
<stop stop-opacity="0.8" stop-color="#13162E" offset="1"></stop>
</linearGradient>
<linearGradient gradientUnits="userSpaceOnUse" y2="316" x2="297.652" y1="287" x1="297.652" id="paint5_linear_6129_4326">
<stop stop-color="#515466"></stop>
<stop stop-opacity="0.8" stop-color="#13162E" offset="1"></stop>
</linearGradient>
<clipPath id="clip0_6129_4326">
<rect fill="white" height="544" width="350"></rect>
</clipPath>
</defs>
</svg>
