<svg xmlns="http://www.w3.org/2000/svg" fill="none" viewBox="0 0 350 544" height="544" width="350">
<g clip-path="url(#clip0_6129_4703)">
<path fill="#191C37" d="M0 24C0 10.7452 10.7452 0 24 0H350V520C350 533.255 339.255 544 326 544H0V24Z"></path>
<g clip-path="url(#clip1_6129_4703)">
<rect fill-opacity="0.7" fill="url(#paint0_linear_6129_4703)" rx="8" height="100" width="140" y="222" x="30"></rect>
<path fill="white" d="M42.132 245L45.204 236.744H47.148L50.22 245H48.672L47.94 243.02H44.424L43.68 245H42.132ZM44.82 241.808H47.532L46.176 238.064L44.82 241.808ZM53.552 245.144C51.788 245.144 50.564 243.908 50.564 242.036C50.564 240.188 51.8 238.928 53.564 238.928C55.208 238.928 56.06 239.888 56.36 241.004L54.932 241.304C54.788 240.596 54.38 240.044 53.588 240.044C52.736 240.044 52.088 240.728 52.088 242.024C52.088 243.332 52.724 244.028 53.6 244.028C54.356 244.028 54.8 243.548 54.98 242.756L56.408 243.068C56.036 244.232 55.184 245.144 53.552 245.144ZM60.0559 245.144C58.2919 245.144 57.0679 243.908 57.0679 242.036C57.0679 240.188 58.3039 238.928 60.0679 238.928C61.7119 238.928 62.5639 239.888 62.8639 241.004L61.4359 241.304C61.2919 240.596 60.8839 240.044 60.0919 240.044C59.2399 240.044 58.5919 240.728 58.5919 242.024C58.5919 243.332 59.2279 244.028 60.1039 244.028C60.8599 244.028 61.3039 243.548 61.4839 242.756L62.9119 243.068C62.5399 244.232 61.6879 245.144 60.0559 245.144ZM66.5838 245.144C64.6998 245.144 63.5718 243.776 63.5718 242.036C63.5718 240.308 64.6998 238.928 66.5838 238.928C68.4798 238.928 69.6078 240.308 69.6078 242.036C69.6078 243.776 68.4798 245.144 66.5838 245.144ZM66.5958 244.028C67.5918 244.028 68.0838 243.164 68.0838 242.036C68.0838 240.908 67.5918 240.044 66.5958 240.044C65.5878 240.044 65.0958 240.908 65.0958 242.036C65.0958 243.176 65.5878 244.028 66.5958 244.028ZM72.7318 245.144C71.3878 245.144 70.6798 244.28 70.6798 242.864V239.072H72.1558V242.516C72.1558 243.392 72.3598 243.956 73.1998 243.956C74.0038 243.956 74.4958 243.26 74.4958 242.42V239.072H75.9718V245H74.5198V244.208H74.5078C74.1358 244.784 73.5238 245.144 72.7318 245.144ZM77.4312 245V239.072H78.8832V239.864H78.8952C79.2192 239.372 79.8552 238.928 80.7432 238.928C82.0272 238.928 82.8432 239.696 82.8432 241.208V245H81.3672V241.724C81.3672 240.776 81.1752 240.116 80.2752 240.116C79.4112 240.116 78.9072 240.836 78.9072 241.736V245H77.4312ZM86.3529 245.06C85.5369 245.06 84.9969 244.76 84.7809 244.184C84.6849 243.98 84.6489 243.74 84.6489 243.392V240.212H83.6289V239.072H84.6489V237.2H86.1249V239.072H87.3489V240.212H86.1249V243.176C86.1249 243.704 86.3769 243.884 86.8329 243.884C87.0729 243.884 87.2049 243.872 87.3849 243.836V244.964C87.0729 245.024 86.7489 245.06 86.3529 245.06ZM94.3604 245.144C92.4164 245.144 90.8924 244.268 90.6764 242.288L92.2604 242.108C92.4044 243.38 93.2684 243.98 94.4084 243.98C95.4284 243.98 96.2084 243.488 96.2084 242.696C96.2084 242.048 95.8004 241.784 94.7444 241.556L93.6284 241.304C92.1284 240.968 90.9764 240.38 90.9764 239C90.9764 237.62 92.3204 236.6 94.2284 236.6C96.2084 236.6 97.4084 237.608 97.6004 239.072L95.9924 239.264C95.8724 238.316 95.1884 237.764 94.2044 237.764C93.2084 237.764 92.6204 238.28 92.6204 238.916C92.6204 239.564 93.1724 239.756 94.1324 239.972L95.2604 240.224C96.7004 240.548 97.8404 241.076 97.8404 242.504C97.8404 244.184 96.2564 245.144 94.3604 245.144ZM100.939 245.144C99.5948 245.144 98.8868 244.28 98.8868 242.864V239.072H100.363V242.516C100.363 243.392 100.567 243.956 101.407 243.956C102.211 243.956 102.703 243.26 102.703 242.42V239.072H104.179V245H102.727V244.208H102.715C102.343 244.784 101.731 245.144 100.939 245.144ZM105.638 245V239.072H107.09V239.876H107.102C107.366 239.42 107.978 238.928 108.83 238.928C109.766 238.928 110.306 239.396 110.57 239.984C110.834 239.564 111.398 238.928 112.406 238.928C113.702 238.928 114.446 239.744 114.446 241.232V245H112.97V241.688C112.97 240.764 112.838 240.116 111.974 240.116C111.182 240.116 110.762 240.908 110.762 241.724V245H109.322V241.688C109.322 240.764 109.19 240.116 108.326 240.116C107.534 240.116 107.114 240.908 107.114 241.724V245H105.638ZM115.857 245V239.072H117.309V239.876H117.321C117.585 239.42 118.197 238.928 119.049 238.928C119.985 238.928 120.525 239.396 120.789 239.984C121.053 239.564 121.617 238.928 122.625 238.928C123.921 238.928 124.665 239.744 124.665 241.232V245H123.189V241.688C123.189 240.764 123.057 240.116 122.193 240.116C121.401 240.116 120.981 240.908 120.981 241.724V245H119.541V241.688C119.541 240.764 119.409 240.116 118.545 240.116C117.753 240.116 117.333 240.908 117.333 241.724V245H115.857ZM127.876 245.144C126.736 245.144 125.8 244.484 125.8 243.38C125.8 242.252 126.652 241.784 127.948 241.532L128.704 241.376C129.34 241.244 129.616 241.124 129.616 240.68C129.616 240.248 129.244 239.936 128.608 239.936C127.876 239.936 127.408 240.38 127.36 241.1L125.896 240.992C126.004 239.732 127.036 238.928 128.608 238.928C130.24 238.928 131.068 239.66 131.068 240.944V245H129.676V244.352H129.664C129.388 244.784 128.788 245.144 127.876 245.144ZM128.284 244.172C129.052 244.172 129.664 243.668 129.664 242.792V242.132C128.608 242.3 128.044 242.444 127.684 242.66C127.42 242.816 127.252 243.044 127.252 243.356C127.252 243.836 127.672 244.172 128.284 244.172ZM132.486 245V239.072H133.902V240.176C134.178 239.504 134.814 238.928 135.726 238.928C135.846 238.928 135.942 238.94 136.038 238.94V240.344C135.93 240.332 135.81 240.32 135.63 240.32C134.658 240.32 133.95 240.896 133.95 242.012V245H132.486ZM137.586 247.316C137.286 247.316 137.058 247.28 136.83 247.244V246.056C136.998 246.092 137.178 246.104 137.346 246.104C137.91 246.104 138.21 245.936 138.426 245.42L138.594 245L136.398 239.072H137.97L139.386 243.5L140.79 239.072H142.362L139.986 245.456C139.494 246.776 138.846 247.316 137.586 247.316Z"></path>
<g opacity="0.8">
<path fill="white" d="M44.8968 271.02V270.112C43.4994 270 42.663 269.123 42.5814 267.848L43.6422 267.674C43.6932 268.552 44.1114 269.143 44.8968 269.266V266.797L44.7234 266.746C43.53 266.41 42.8364 265.818 42.8364 264.798C42.8364 263.768 43.6014 262.982 44.8968 262.87V261.962H45.5598V262.88C46.7634 262.993 47.4264 263.707 47.5488 264.778L46.488 264.941C46.4166 264.298 46.1208 263.86 45.5598 263.727V265.94L45.8862 266.032C47.0388 266.348 47.7324 266.899 47.7324 268.001C47.7324 269.245 46.8246 269.99 45.5598 270.102V271.02H44.8968ZM43.8972 264.727C43.8972 265.267 44.2338 265.543 44.8968 265.757V263.707C44.2644 263.798 43.8972 264.227 43.8972 264.727ZM45.5598 269.276C46.2636 269.174 46.6716 268.745 46.6716 268.103C46.6716 267.501 46.3044 267.195 45.5598 266.971V269.276ZM51.4464 270.122C49.641 270.122 48.8454 268.643 48.8454 266.654C48.8454 264.155 49.8756 262.87 51.5484 262.87C52.8948 262.87 53.5782 263.696 53.7618 264.655L52.7316 264.839C52.6296 264.186 52.2216 263.717 51.4974 263.717C50.2938 263.717 49.8654 265.002 49.8654 266.491L49.8756 266.501C50.1102 266.002 50.7018 265.512 51.5892 265.512C52.9866 265.512 53.8434 266.491 53.8434 267.787C53.8434 269.092 52.9152 270.122 51.4464 270.122ZM51.4668 269.286C52.191 269.286 52.8132 268.756 52.8132 267.807C52.8132 266.797 52.1808 266.359 51.477 266.359C50.6508 266.359 50.0592 266.96 50.0592 267.787C50.0592 268.664 50.6814 269.286 51.4668 269.286ZM55.0755 271.316L55.4529 270H54.9939V268.694H56.1159V269.786L55.6467 271.316H55.0755ZM57.2726 270V269.123L57.8132 268.766C59.6594 267.572 60.8528 266.491 60.8528 265.012C60.8528 264.227 60.4142 263.737 59.639 263.737C58.874 263.737 58.3538 264.217 58.3538 265.084C58.3538 265.277 58.3742 265.441 58.4048 265.594L57.3236 265.461C57.3134 265.379 57.293 265.237 57.293 265.033C57.293 263.686 58.262 262.87 59.6492 262.87C61.0772 262.87 61.934 263.645 61.934 264.961C61.934 266.644 60.6998 267.838 59.1494 268.807L58.6802 269.102V269.113H61.9136V270H57.2726ZM64.2334 270C64.723 267.858 65.7634 265.655 66.8038 263.849H63.8662V264.808H62.8462V262.982H67.8646V263.788C66.763 265.655 65.8042 267.848 65.3656 270H64.2334ZM71.0471 270.122C69.6191 270.122 68.5583 269.378 68.5583 268.031C68.5583 266.991 69.2723 266.471 69.8435 266.267V266.257C69.3947 266.093 68.7623 265.563 68.7623 264.727C68.7623 263.584 69.7517 262.86 71.0471 262.86C72.3425 262.86 73.3319 263.584 73.3319 264.727C73.3319 265.563 72.6893 266.093 72.2405 266.257V266.267C72.8117 266.461 73.5257 266.991 73.5257 268.031C73.5257 269.378 72.4751 270.122 71.0471 270.122ZM71.0471 269.255C71.9345 269.255 72.4751 268.735 72.4751 267.97C72.4751 267.226 71.8631 266.726 71.0471 266.726C70.2311 266.726 69.6191 267.226 69.6191 267.97C69.6191 268.735 70.1597 269.255 71.0471 269.255ZM71.0471 265.92C71.7509 265.92 72.2915 265.441 72.2915 264.808C72.2915 264.166 71.8019 263.707 71.0471 263.707C70.2923 263.707 69.7925 264.166 69.7925 264.808C69.7925 265.441 70.3331 265.92 71.0471 265.92ZM74.6561 270V268.694H75.7781V270H74.6561ZM80.0164 270V268.46H76.6708V267.511L79.486 262.982H81.0262V267.583H82.1788V268.46H81.0262V270H80.0164ZM77.6704 267.583H80.0164V263.788L77.6704 267.583ZM85.5825 270.122C83.7771 270.122 82.9815 268.643 82.9815 266.654C82.9815 264.155 84.0117 262.87 85.6845 262.87C87.0309 262.87 87.7143 263.696 87.8979 264.655L86.8677 264.839C86.7657 264.186 86.3577 263.717 85.6335 263.717C84.4299 263.717 84.0015 265.002 84.0015 266.491L84.0117 266.501C84.2463 266.002 84.8379 265.512 85.7253 265.512C87.1227 265.512 87.9795 266.491 87.9795 267.787C87.9795 269.092 87.0513 270.122 85.5825 270.122ZM85.6029 269.286C86.3271 269.286 86.9493 268.756 86.9493 267.807C86.9493 266.797 86.3169 266.359 85.6131 266.359C84.7869 266.359 84.1953 266.96 84.1953 267.787C84.1953 268.664 84.8175 269.286 85.6029 269.286Z"></path>
<g clip-path="url(#clip2_6129_4703)">
<path fill-opacity="0.2" fill="url(#paint1_linear_6129_4703)" d="M96.5 298C93.3737 299.161 89.6808 308.002 87 302C86.5079 300.898 85.0029 297.007 80.513 295.006C80.5045 295.002 80.4949 295 80.4857 295C71.0015 294.993 68.9985 288.347 63.0067 288.342C63.0023 288.342 62.9977 288.342 62.9934 288.343C56.5045 289.659 56.1975 302.077 52.508 301.501C52.5029 301.5 52.4972 301.5 52.492 301.501C46.1233 301.993 43.5973 304.885 42.088 304.525C42.0442 304.515 42 304.547 42 304.592V309.974C42 310.01 42.0296 310.04 42.066 310.04H158.136C158.171 310.04 158.201 310.011 158.202 309.976L158.998 278.586C158.999 278.543 158.957 278.51 158.915 278.521C153.067 280.016 153.741 288.017 147 291.5C140.226 295 137.084 289.4 135 291.5C132.916 293.6 131.8 294.979 126.52 289.652C122.605 285.701 117.424 285.729 116 288.342C114.56 290.984 112.625 292.179 110.02 292.879C107.465 293.566 107.995 302 104.5 302C100.853 302 98.746 297.166 96.5 298Z"></path>
<path stroke-linecap="round" stroke-width="0.99" stroke="#26E986" d="M42.5 305C45.4063 304.895 47.5 300.506 52 301.46C56.5 302.414 56.5 287.951 62.5 288.579C68.5 289.207 70 294.496 76 294.496C82 294.496 85.5833 298.8 87 301.46C90.1661 307.405 91.8985 298.535 96.1199 298.046C99.3533 297.672 99.9456 301.46 103.639 301.46C107.861 301.46 106.41 296.454 108.652 294.496C112.346 291.27 113.138 292.784 115.248 288.579C116.347 286.391 121.712 286.232 124.483 288.579C134.06 296.694 131.87 292.291 135.036 291.059C138.312 289.784 140.14 294.775 147 291.059C153.86 287.344 153.751 279.243 158.5 278.5"></path>
</g>
</g>
</g>
<rect stroke-opacity="0.1" stroke="white" rx="7.5" height="99" width="139" y="222.5" x="30.5"></rect>
<g clip-path="url(#clip3_6129_4703)">
<rect fill-opacity="0.7" fill="url(#paint2_linear_6129_4703)" rx="8" height="100" width="140" y="186" x="184"></rect>
<path fill="white" d="M200.548 209.144C198.112 209.144 196.504 207.452 196.504 204.872C196.504 202.328 198.112 200.6 200.56 200.6C202.744 200.6 203.908 201.944 204.28 203.288L202.72 203.624C202.492 202.688 201.796 201.848 200.56 201.848C199.036 201.848 198.076 203.048 198.076 204.872C198.076 206.732 199.048 207.896 200.572 207.896C201.832 207.896 202.54 207.128 202.792 206.084L204.34 206.42C203.908 207.884 202.684 209.144 200.548 209.144ZM205.345 209V200.744H206.821V203.828H206.833C207.193 203.288 207.805 202.928 208.657 202.928C209.953 202.928 210.757 203.696 210.757 205.208V209H209.281V205.724C209.281 204.776 209.089 204.116 208.189 204.116C207.325 204.116 206.821 204.836 206.821 205.736V209H205.345ZM213.966 209.144C212.826 209.144 211.89 208.484 211.89 207.38C211.89 206.252 212.742 205.784 214.038 205.532L214.794 205.376C215.43 205.244 215.706 205.124 215.706 204.68C215.706 204.248 215.334 203.936 214.698 203.936C213.966 203.936 213.498 204.38 213.45 205.1L211.986 204.992C212.094 203.732 213.126 202.928 214.698 202.928C216.33 202.928 217.158 203.66 217.158 204.944V209H215.766V208.352H215.754C215.478 208.784 214.878 209.144 213.966 209.144ZM214.374 208.172C215.142 208.172 215.754 207.668 215.754 206.792V206.132C214.698 206.3 214.134 206.444 213.774 206.66C213.51 206.816 213.342 207.044 213.342 207.356C213.342 207.836 213.762 208.172 214.374 208.172ZM218.576 209V203.072H219.992V204.176C220.268 203.504 220.904 202.928 221.816 202.928C221.936 202.928 222.032 202.94 222.128 202.94V204.344C222.02 204.332 221.9 204.32 221.72 204.32C220.748 204.32 220.04 204.896 220.04 206.012V209H218.576ZM225.283 209.06C224.467 209.06 223.927 208.76 223.711 208.184C223.615 207.98 223.579 207.74 223.579 207.392V204.212H222.559V203.072H223.579V201.2H225.055V203.072H226.279V204.212H225.055V207.176C225.055 207.704 225.307 207.884 225.763 207.884C226.003 207.884 226.135 207.872 226.315 207.836V208.964C226.003 209.024 225.679 209.06 225.283 209.06Z"></path>
<g opacity="0.8">
<path stroke-width="0.330956" stroke-opacity="0.5" stroke="url(#paint3_linear_6129_4703)" d="M196 243.479H312"></path>
<rect fill="#F34646" height="22.121" width="0.33" y="234.055" x="234"></rect>
<rect fill="#F34646" height="16.088" width="4" y="236.797" x="232"></rect>
<rect fill="#26E986" height="12.066" width="0.33" y="237.072" x="226"></rect>
<rect fill="#26E986" height="1.0055" width="4" y="239.814" x="224"></rect>
<rect fill="#F34646" height="31.1705" width="0.33" y="226.012" x="218"></rect>
<rect fill="#F34646" height="23.1265" width="4" y="230.764" x="216"></rect>
<rect fill="#26E986" height="16.088" width="0.33" y="227.016" x="210"></rect>
<rect fill="#26E986" height="10.055" width="4" y="230.762" x="208"></rect>
<rect fill="#26E986" height="11.0605" width="0.33" y="242.1" x="242"></rect>
<rect fill="#26E986" height="6.03299" width="4" y="242.83" x="240"></rect>
<rect fill="#F34646" height="8.04399" width="4" y="248.861" x="248"></rect>
<rect fill="#F34646" height="14.077" width="0.33" y="244.109" x="250"></rect>
<rect fill="#26E986" height="4.022" width="4" y="251.881" x="256"></rect>
<rect fill="#26E986" height="11.0605" width="0.33" y="248.133" x="258"></rect>
<rect fill="#26E986" height="13.0715" width="4" y="238.807" x="264"></rect>
<rect fill="#26E986" height="23.1265" width="0.33" y="235.061" x="266"></rect>
<rect fill="#F34646" height="1.0055" width="4" y="235.791" x="272"></rect>
<rect fill="#F34646" height="16.088" width="0.33" y="233.049" x="274"></rect>
<rect fill="#F34646" height="10.055" width="4" y="231.768" x="280"></rect>
<rect fill="#F34646" height="16.088" width="0.33" y="227.016" x="282"></rect>
<rect fill="#26E986" height="1.0055" width="4" y="235.791" x="288"></rect>
<rect fill="#26E986" height="12.066" width="0.33" y="228.021" x="290"></rect>
<rect fill="#26E986" height="15.0825" width="4" y="225.736" x="296"></rect>
<rect fill="#26E986" height="25.1375" width="0.33" y="224" x="298"></rect>
<path fill-opacity="0.3" fill="white" d="M210.86 272.029C209.774 272.029 209.282 271.171 209.282 269.977C209.282 268.483 209.936 267.763 210.914 267.763C211.73 267.763 212.168 268.249 212.27 268.837L211.55 268.963C211.496 268.609 211.274 268.345 210.884 268.345C210.242 268.345 210.008 269.029 210.008 269.815L210.014 269.821C210.152 269.563 210.488 269.305 210.98 269.305C211.79 269.305 212.318 269.863 212.318 270.637C212.318 271.429 211.754 272.029 210.86 272.029ZM210.872 271.447C211.262 271.447 211.592 271.153 211.592 270.649C211.592 270.121 211.256 269.875 210.872 269.875C210.434 269.875 210.122 270.199 210.122 270.643C210.122 271.117 210.446 271.447 210.872 271.447Z"></path>
<path fill-opacity="0.3" fill="white" d="M228.342 271.957V269.263H227.34V268.723H227.436C228.048 268.723 228.45 268.561 228.468 267.871V267.829H229.098V271.957H228.342ZM229.881 271.957V271.339L230.169 271.147C231.219 270.469 231.945 269.857 231.945 269.047C231.945 268.633 231.717 268.381 231.327 268.381C230.931 268.381 230.655 268.627 230.655 269.089C230.655 269.215 230.667 269.299 230.685 269.389L229.911 269.305C229.905 269.257 229.893 269.173 229.893 269.059C229.893 268.243 230.475 267.763 231.327 267.763C232.209 267.763 232.731 268.213 232.731 269.011C232.731 269.977 232.005 270.631 231.135 271.165L230.895 271.315V271.321H232.713V271.957H229.881Z"></path>
<path fill-opacity="0.3" fill="white" d="M247.869 271.957V269.263H246.867V268.723H246.963C247.575 268.723 247.977 268.561 247.995 267.871V267.829H248.625V271.957H247.869ZM250.913 272.029C250.079 272.029 249.401 271.621 249.401 270.793C249.401 270.175 249.833 269.881 250.139 269.767V269.761C249.881 269.659 249.515 269.365 249.515 268.867C249.515 268.177 250.127 267.757 250.913 267.757C251.699 267.757 252.305 268.177 252.305 268.867C252.305 269.365 251.939 269.659 251.675 269.761V269.767C251.987 269.881 252.425 270.175 252.425 270.793C252.425 271.621 251.747 272.029 250.913 272.029ZM250.913 271.417C251.387 271.417 251.669 271.135 251.669 270.733C251.669 270.337 251.351 270.067 250.913 270.067C250.475 270.067 250.145 270.337 250.145 270.733C250.145 271.135 250.439 271.417 250.913 271.417ZM250.913 269.509C251.297 269.509 251.585 269.269 251.585 268.927C251.585 268.579 251.315 268.345 250.913 268.345C250.511 268.345 250.241 268.579 250.241 268.927C250.241 269.269 250.529 269.509 250.913 269.509Z"></path>
<path fill-opacity="0.3" fill="white" d="M266.549 271.957V271.339L266.837 271.147C267.887 270.469 268.613 269.857 268.613 269.047C268.613 268.633 268.385 268.381 267.995 268.381C267.599 268.381 267.323 268.627 267.323 269.089C267.323 269.215 267.335 269.299 267.353 269.389L266.579 269.305C266.573 269.257 266.561 269.173 266.561 269.059C266.561 268.243 267.143 267.763 267.995 267.763C268.877 267.763 269.399 268.213 269.399 269.011C269.399 269.977 268.673 270.631 267.803 271.165L267.563 271.315V271.321H269.381V271.957H266.549ZM271.819 271.957V271.099H269.857V270.421L271.453 267.829H272.521V270.469H273.187V271.099H272.521V271.957H271.819ZM270.559 270.469H271.819V268.399L270.559 270.469Z"></path>
<path fill-opacity="0.3" fill="white" d="M288.52 272.029C287.638 272.029 287.056 271.555 286.996 270.745L287.728 270.631C287.77 271.153 288.1 271.429 288.538 271.429C289.012 271.429 289.3 271.159 289.3 270.751C289.3 270.361 289.03 270.103 288.508 270.103C288.334 270.103 288.226 270.109 288.106 270.115V269.539C288.214 269.545 288.328 269.551 288.49 269.551C288.934 269.551 289.21 269.317 289.21 268.945C289.21 268.615 288.976 268.363 288.55 268.363C288.094 268.363 287.812 268.657 287.782 269.125L287.062 269.011C287.098 268.261 287.686 267.763 288.562 267.763C289.384 267.763 289.978 268.165 289.978 268.873C289.978 269.407 289.618 269.665 289.3 269.785V269.791C289.744 269.911 290.062 270.247 290.062 270.775C290.062 271.549 289.444 272.029 288.52 272.029ZM292.209 272.029C291.147 272.029 290.625 271.093 290.625 269.899C290.625 268.669 291.147 267.763 292.209 267.763C293.277 267.763 293.793 268.669 293.793 269.899C293.793 271.129 293.277 272.029 292.209 272.029ZM292.209 271.423C292.791 271.423 293.007 270.811 293.007 269.899C293.007 268.981 292.791 268.369 292.209 268.369C291.639 268.369 291.417 268.981 291.417 269.899C291.417 270.811 291.639 271.423 292.209 271.423Z"></path>
</g>
</g>
<rect stroke-opacity="0.1" stroke="white" rx="7.5" height="99" width="139" y="186.5" x="184.5"></rect>
<g clip-path="url(#clip4_6129_4703)">
<rect fill-opacity="0.7" fill="url(#paint4_linear_6129_4703)" rx="8" height="100" width="140" y="362" x="24"></rect>
<path fill="white" d="M38.436 385L36.216 376.744H37.8L39.384 383.116L41.028 376.744H42.672L44.316 383.116L45.888 376.744H47.472L45.252 385H43.464L41.844 378.628L40.236 385H38.436ZM49.6648 385.144C48.5248 385.144 47.5888 384.484 47.5888 383.38C47.5888 382.252 48.4408 381.784 49.7368 381.532L50.4928 381.376C51.1288 381.244 51.4048 381.124 51.4048 380.68C51.4048 380.248 51.0328 379.936 50.3968 379.936C49.6648 379.936 49.1968 380.38 49.1488 381.1L47.6848 380.992C47.7928 379.732 48.8248 378.928 50.3968 378.928C52.0288 378.928 52.8568 379.66 52.8568 380.944V385H51.4648V384.352H51.4528C51.1768 384.784 50.5768 385.144 49.6648 385.144ZM50.0728 384.172C50.8408 384.172 51.4528 383.668 51.4528 382.792V382.132C50.3968 382.3 49.8328 382.444 49.4728 382.66C49.2088 382.816 49.0408 383.044 49.0408 383.356C49.0408 383.836 49.4608 384.172 50.0728 384.172ZM56.3881 385.06C55.5721 385.06 55.0321 384.76 54.8161 384.184C54.7201 383.98 54.6841 383.74 54.6841 383.392V380.212H53.6641V379.072H54.6841V377.2H56.1601V379.072H57.3841V380.212H56.1601V383.176C56.1601 383.704 56.4121 383.884 56.8681 383.884C57.1081 383.884 57.2401 383.872 57.4201 383.836V384.964C57.1081 385.024 56.7841 385.06 56.3881 385.06ZM61.0637 385.144C59.2997 385.144 58.0757 383.908 58.0757 382.036C58.0757 380.188 59.3117 378.928 61.0757 378.928C62.7197 378.928 63.5717 379.888 63.8717 381.004L62.4437 381.304C62.2997 380.596 61.8917 380.044 61.0997 380.044C60.2477 380.044 59.5997 380.728 59.5997 382.024C59.5997 383.332 60.2357 384.028 61.1117 384.028C61.8677 384.028 62.3117 383.548 62.4917 382.756L63.9197 383.068C63.5477 384.232 62.6957 385.144 61.0637 385.144ZM64.9156 385V376.744H66.3916V379.828H66.4036C66.7636 379.288 67.3756 378.928 68.2276 378.928C69.5236 378.928 70.3276 379.696 70.3276 381.208V385H68.8516V381.724C68.8516 380.776 68.6596 380.116 67.7596 380.116C66.8956 380.116 66.3916 380.836 66.3916 381.736V385H64.9156ZM71.7359 385V376.744H73.2119V385H71.7359ZM74.689 385V379.072H76.165V385H74.689ZM74.689 378.256V376.744H76.165V378.256H74.689ZM79.9942 385.144C78.4342 385.144 77.3302 384.448 77.1982 383.056L78.5782 382.9C78.6382 383.752 79.2622 384.148 80.0062 384.148C80.7502 384.148 81.2302 383.836 81.2302 383.332C81.2302 382.852 80.8222 382.72 80.0422 382.552L79.1662 382.36C78.1222 382.132 77.4262 381.652 77.4262 380.704C77.4262 379.672 78.4822 378.928 79.9462 378.928C81.3982 378.928 82.3582 379.624 82.5022 380.74L81.0982 380.908C81.0262 380.26 80.5582 379.924 79.9102 379.924C79.2862 379.924 78.8542 380.212 78.8542 380.62C78.8542 381.052 79.1782 381.16 79.8142 381.304L80.6902 381.508C81.9502 381.796 82.6462 382.216 82.6462 383.188C82.6462 384.388 81.5182 385.144 79.9942 385.144ZM85.8139 385.06C84.9979 385.06 84.4579 384.76 84.2419 384.184C84.1459 383.98 84.1099 383.74 84.1099 383.392V380.212H83.0899V379.072H84.1099V377.2H85.5859V379.072H86.8099V380.212H85.5859V383.176C85.5859 383.704 85.8379 383.884 86.2939 383.884C86.5339 383.884 86.6659 383.872 86.8459 383.836V384.964C86.5339 385.024 86.2099 385.06 85.8139 385.06Z"></path>
<g opacity="0.8">
<mask fill="white" id="path-45-inside-1_6129_4703">
<path d="M24 400H164V416.667H24V400Z"></path>
</mask>
<path mask="url(#path-45-inside-1_6129_4703)" fill-opacity="0.08" fill="white" d="M164 416.667V416.167H24V416.667V417.167H164V416.667Z"></path>
<g clip-path="url(#clip5_6129_4703)">
<path fill-opacity="0.2" fill="url(#paint5_linear_6129_4703)" d="M55.0626 409.796C53.9691 410.202 52.6774 413.294 51.7397 411.195C51.5674 410.809 50.5135 409.673 48.4169 409.096C47.3466 408.802 45.092 410.24 43.8699 409.971C41.7733 409.621 40.7932 411.399 39.5015 411.195C39.499 411.195 39.4964 411.195 39.4939 411.195C37.4383 411.539 36.5584 412.217 36.0306 412.078C36.0154 412.074 36 412.086 36 412.101V413.984C36 413.997 36.0103 414.007 36.0231 414.007H76.6204C76.6331 414.007 76.6435 413.997 76.6435 413.984V403.879C76.6435 403.864 76.6288 403.853 76.6143 403.857C74.5699 404.374 74.9921 406.637 72.634 407.855C70.2647 409.079 69.2578 406.788 68.5288 407.522C67.7998 408.257 67.4095 408.739 65.5627 406.876C64.1934 405.494 62.3813 405.504 61.8831 406.418C61.3793 407.342 60.7027 407.76 59.7915 408.005C58.8979 408.245 59.0833 411.195 57.8607 411.195C56.585 411.195 55.8482 409.504 55.0626 409.796Z"></path>
<path stroke-linecap="round" stroke-width="0.8" stroke="#26E986" d="M36.1738 412.244C37.1904 412.207 37.9227 410.877 39.4967 411.211C41.0706 411.545 41.0706 409.75 43.1693 409.969C45.2679 410.189 45.6177 409.096 47.7163 409.096C49.8149 409.096 51.2031 410.281 51.6986 411.211C52.806 413.29 53.452 409.983 54.9286 409.812C56.0595 409.681 56.2667 411.006 57.5586 411.006C59.0352 411.006 58.5278 409.255 59.312 408.57C60.604 407.442 60.8808 407.971 61.6191 406.5C62.0032 405.735 63.8801 405.68 64.849 406.5C68.1991 409.339 67.433 407.799 68.5404 407.368C69.6862 406.922 70.1092 409.187 72.5086 407.887C74.9079 406.587 74.9813 404.11 76.6424 403.85"></path>
</g>
<rect fill-opacity="0.1" fill="#26E986" rx="3" height="10.5916" width="25" y="403.037" x="95"></rect>
<path fill="#26E986" d="M99.8044 410.166V409.02H98.6764V408.516H99.8044V407.376H100.38V408.516H101.508V409.02H100.38V410.166H99.8044ZM103.105 410.832V408.036H102.103V407.598H102.169C102.817 407.598 103.201 407.424 103.201 406.746V406.704H103.717V410.832H103.105ZM104.598 410.832V410.064H105.258V410.832H104.598ZM106.278 410.832C106.566 409.572 107.178 408.276 107.79 407.214H106.062V407.778H105.462V406.704H108.414V407.178C107.766 408.276 107.202 409.566 106.944 410.832H106.278ZM110.238 410.904C109.38 410.904 108.81 410.412 108.762 409.62L109.368 409.524C109.404 410.1 109.764 410.406 110.25 410.406C110.778 410.406 111.09 410.106 111.09 409.656C111.09 409.23 110.796 408.936 110.22 408.936C110.058 408.936 109.956 408.942 109.842 408.948V408.45C109.938 408.456 110.046 408.456 110.214 408.456C110.694 408.456 111.006 408.198 111.006 407.778C111.006 407.418 110.742 407.142 110.268 407.142C109.77 407.142 109.464 407.46 109.428 407.976L108.828 407.874C108.864 407.13 109.434 406.638 110.28 406.638C111.072 406.638 111.63 407.034 111.63 407.736C111.63 408.276 111.264 408.54 110.928 408.66V408.666C111.396 408.78 111.72 409.122 111.72 409.662C111.72 410.424 111.12 410.904 110.238 410.904ZM113.117 409.056C112.487 409.056 112.217 408.534 112.217 407.856C112.217 407.196 112.487 406.662 113.117 406.662C113.753 406.662 114.029 407.19 114.029 407.856C114.029 408.528 113.753 409.056 113.117 409.056ZM113.117 408.678C113.417 408.678 113.531 408.354 113.531 407.856C113.531 407.358 113.417 407.04 113.117 407.04C112.829 407.04 112.715 407.352 112.715 407.856C112.715 408.36 112.829 408.678 113.117 408.678ZM113.189 410.832L115.313 406.704H115.823L113.699 410.832H113.189ZM115.901 410.874C115.271 410.874 115.001 410.352 115.001 409.674C115.001 409.014 115.271 408.48 115.901 408.48C116.537 408.48 116.813 409.008 116.813 409.674C116.813 410.346 116.537 410.874 115.901 410.874ZM115.901 410.496C116.201 410.496 116.315 410.172 116.315 409.674C116.315 409.176 116.201 408.858 115.901 408.858C115.613 408.858 115.499 409.17 115.499 409.674C115.499 410.178 115.613 410.496 115.901 410.496Z"></path>
<path fill="#26E986" d="M135.142 410.904C134.284 410.904 133.714 410.412 133.666 409.62L134.272 409.524C134.308 410.1 134.668 410.406 135.154 410.406C135.682 410.406 135.994 410.106 135.994 409.656C135.994 409.23 135.7 408.936 135.124 408.936C134.962 408.936 134.86 408.942 134.746 408.948V408.45C134.842 408.456 134.95 408.456 135.118 408.456C135.598 408.456 135.91 408.198 135.91 407.778C135.91 407.418 135.646 407.142 135.172 407.142C134.674 407.142 134.368 407.46 134.332 407.976L133.732 407.874C133.768 407.13 134.338 406.638 135.184 406.638C135.976 406.638 136.534 407.034 136.534 407.736C136.534 408.276 136.168 408.54 135.832 408.66V408.666C136.3 408.78 136.624 409.122 136.624 409.662C136.624 410.424 136.024 410.904 135.142 410.904ZM137.944 410.832C138.232 409.572 138.844 408.276 139.456 407.214H137.728V407.778H137.128V406.704H140.08V407.178C139.432 408.276 138.868 409.566 138.61 410.832H137.944ZM140.488 410.832V410.316L140.806 410.106C141.892 409.404 142.594 408.768 142.594 407.898C142.594 407.436 142.336 407.148 141.88 407.148C141.43 407.148 141.124 407.43 141.124 407.94C141.124 408.054 141.136 408.15 141.154 408.24L140.518 408.162C140.512 408.114 140.5 408.03 140.5 407.91C140.5 407.118 141.07 406.638 141.886 406.638C142.726 406.638 143.23 407.094 143.23 407.868C143.23 408.858 142.504 409.56 141.592 410.13L141.316 410.304V410.31H143.218V410.832H140.488ZM143.922 410.832V410.064H144.582V410.832H143.922ZM146.667 410.904C145.809 410.904 145.239 410.412 145.191 409.62L145.797 409.524C145.833 410.1 146.193 410.406 146.679 410.406C147.207 410.406 147.519 410.106 147.519 409.656C147.519 409.23 147.225 408.936 146.649 408.936C146.487 408.936 146.385 408.942 146.271 408.948V408.45C146.367 408.456 146.475 408.456 146.643 408.456C147.123 408.456 147.435 408.198 147.435 407.778C147.435 407.418 147.171 407.142 146.697 407.142C146.199 407.142 145.893 407.46 145.857 407.976L145.257 407.874C145.293 407.13 145.863 406.638 146.709 406.638C147.501 406.638 148.059 407.034 148.059 407.736C148.059 408.276 147.693 408.54 147.357 408.66V408.666C147.825 408.78 148.149 409.122 148.149 409.662C148.149 410.424 147.549 410.904 146.667 410.904ZM150.231 410.904C149.391 410.904 148.767 410.466 148.767 409.674C148.767 409.062 149.187 408.756 149.523 408.636V408.63C149.259 408.534 148.887 408.222 148.887 407.73C148.887 407.058 149.469 406.632 150.231 406.632C150.993 406.632 151.575 407.058 151.575 407.73C151.575 408.222 151.197 408.534 150.933 408.63V408.636C151.269 408.75 151.689 409.062 151.689 409.674C151.689 410.466 151.071 410.904 150.231 410.904ZM150.231 410.394C150.753 410.394 151.071 410.088 151.071 409.638C151.071 409.2 150.711 408.906 150.231 408.906C149.751 408.906 149.391 409.2 149.391 409.638C149.391 410.088 149.709 410.394 150.231 410.394ZM150.231 408.432C150.645 408.432 150.963 408.15 150.963 407.778C150.963 407.4 150.675 407.13 150.231 407.13C149.787 407.13 149.493 407.4 149.493 407.778C149.493 408.15 149.811 408.432 150.231 408.432Z"></path>
<mask fill="white" id="path-52-inside-2_6129_4703">
<path d="M24 416.666H164V433.333H24V416.666Z"></path>
</mask>
<path mask="url(#path-52-inside-2_6129_4703)" fill-opacity="0.08" fill="white" d="M164 433.333V432.833H24V433.333V433.833H164V433.333Z"></path>
<g clip-path="url(#clip6_6129_4703)">
<path fill-opacity="0.2" fill="url(#paint6_linear_6129_4703)" d="M50.5005 425.574C51.594 425.98 52.5628 428.674 53.5005 426.574C53.6728 426.188 54.9039 425.522 57.0005 424.946C58.0708 424.652 60.7784 427.844 62.0005 427.574C64.097 427.225 63.7077 425.158 64.9966 424.947C64.9991 424.946 65.0018 424.946 65.0043 424.947C67.0657 425.286 68.9834 422.352 69.5462 422.086C69.5604 422.079 69.5742 422.09 69.5742 422.106V430.925C69.5742 430.938 69.5639 430.948 69.5511 430.948H28.9541C28.9412 430.948 28.9309 430.938 28.931 430.925L29.0002 424.603C29.0003 424.588 29.0153 424.578 29.0298 424.581C31.0734 425.063 30.5822 423.578 32.9402 424.796C35.3095 426.02 36.3165 423.729 37.0455 424.463C37.7745 425.198 38.1647 425.68 40.0115 423.817C41.3808 422.435 43.193 422.445 43.6911 423.359C44.1949 424.283 44.8715 424.701 45.7828 424.946C46.6763 425.186 46.4909 428.136 47.7135 428.136C48.9892 428.136 49.7149 425.283 50.5005 425.574Z"></path>
<path stroke-linecap="round" stroke-width="0.8" stroke="#26E986" d="M70 422.075C68.9835 422.038 67.074 424.495 65.5 424.829C63.926 425.162 64.5986 427.355 62.5 427.575C60.4014 427.794 60.0986 424.829 58 424.829C55.9014 424.829 53.9955 425.644 53.5 426.575C52.3926 428.654 51.9765 425.246 50.5 425.075C49.3691 424.944 49.3066 427.948 48.0146 427.948C46.5381 427.948 47.0455 426.197 46.2612 425.512C44.9693 424.383 44.6924 424.913 43.9541 423.442C43.57 422.677 41.6932 422.621 40.7242 423.442C37.3742 426.281 38.1403 424.741 37.0329 424.31C35.8871 423.864 35.464 426.128 33.0647 424.829C30.6653 423.529 30.1611 424.57 28.5 424.31"></path>
</g>
<rect fill-opacity="0.1" fill="#26E986" rx="3" height="10.5916" width="27" y="419.703" x="93"></rect>
<path fill="#26E986" d="M97.9236 426.832V425.686H96.7956V425.182H97.9236V424.042H98.4996V425.182H99.6276V425.686H98.4996V426.832H97.9236ZM101.908 427.57C100.876 427.57 100.372 426.616 100.372 425.44C100.372 424.21 100.876 423.31 101.908 423.31C102.934 423.31 103.438 424.21 103.438 425.44C103.438 426.67 102.934 427.57 101.908 427.57ZM101.908 427.072C102.55 427.072 102.796 426.394 102.796 425.44C102.796 424.492 102.55 423.814 101.908 423.814C101.266 423.814 101.02 424.492 101.02 425.44C101.02 426.394 101.266 427.072 101.908 427.072ZM103.983 427.498V426.73H104.643V427.498H103.983ZM106.716 427.57C105.906 427.57 105.396 427.108 105.27 426.424L105.894 426.322C105.978 426.736 106.254 427.06 106.734 427.06C107.244 427.06 107.586 426.682 107.586 426.124C107.586 425.596 107.298 425.206 106.788 425.206C106.374 425.206 106.104 425.5 106.002 425.734L105.402 425.644L105.564 423.37H107.916V423.922H106.08L106.002 425.062H106.008C106.194 424.864 106.488 424.702 106.89 424.702C107.73 424.702 108.21 425.326 108.21 426.1C108.21 426.91 107.616 427.57 106.716 427.57ZM110.605 427.498V426.592H108.637V426.034L110.293 423.37H111.199V426.076H111.877V426.592H111.199V427.498H110.605ZM109.225 426.076H110.605V423.844L109.225 426.076ZM113.117 425.722C112.487 425.722 112.217 425.2 112.217 424.522C112.217 423.862 112.487 423.328 113.117 423.328C113.753 423.328 114.029 423.856 114.029 424.522C114.029 425.194 113.753 425.722 113.117 425.722ZM113.117 425.344C113.417 425.344 113.531 425.02 113.531 424.522C113.531 424.024 113.417 423.706 113.117 423.706C112.829 423.706 112.715 424.018 112.715 424.522C112.715 425.026 112.829 425.344 113.117 425.344ZM113.189 427.498L115.313 423.37H115.823L113.699 427.498H113.189ZM115.901 427.54C115.271 427.54 115.001 427.018 115.001 426.34C115.001 425.68 115.271 425.146 115.901 425.146C116.537 425.146 116.813 425.674 116.813 426.34C116.813 427.012 116.537 427.54 115.901 427.54ZM115.901 427.162C116.201 427.162 116.315 426.838 116.315 426.34C116.315 425.842 116.201 425.524 115.901 425.524C115.613 425.524 115.499 425.836 115.499 426.34C115.499 426.844 115.613 427.162 115.901 427.162Z"></path>
<path fill="#26E986" d="M137.862 427.498C138.15 426.238 138.762 424.942 139.374 423.88H137.646V424.444H137.046V423.37H139.998V423.844C139.35 424.942 138.786 426.232 138.528 427.498H137.862ZM141.822 427.57C140.964 427.57 140.394 427.078 140.346 426.286L140.952 426.19C140.988 426.766 141.348 427.072 141.834 427.072C142.362 427.072 142.674 426.772 142.674 426.322C142.674 425.896 142.38 425.602 141.804 425.602C141.642 425.602 141.54 425.608 141.426 425.614V425.116C141.522 425.122 141.63 425.122 141.798 425.122C142.278 425.122 142.59 424.864 142.59 424.444C142.59 424.084 142.326 423.808 141.852 423.808C141.354 423.808 141.048 424.126 141.012 424.642L140.412 424.54C140.448 423.796 141.018 423.304 141.864 423.304C142.656 423.304 143.214 423.7 143.214 424.402C143.214 424.942 142.848 425.206 142.512 425.326V425.332C142.98 425.446 143.304 425.788 143.304 426.328C143.304 427.09 142.704 427.57 141.822 427.57ZM143.963 427.498V426.73H144.623V427.498H143.963ZM146.696 427.57C145.886 427.57 145.376 427.108 145.25 426.424L145.874 426.322C145.958 426.736 146.234 427.06 146.714 427.06C147.224 427.06 147.566 426.682 147.566 426.124C147.566 425.596 147.278 425.206 146.768 425.206C146.354 425.206 146.084 425.5 145.982 425.734L145.382 425.644L145.544 423.37H147.896V423.922H146.06L145.982 425.062H145.988C146.174 424.864 146.468 424.702 146.87 424.702C147.71 424.702 148.19 425.326 148.19 426.1C148.19 426.91 147.596 427.57 146.696 427.57ZM150.285 427.57C149.223 427.57 148.755 426.7 148.755 425.53C148.755 424.06 149.361 423.304 150.345 423.304C151.137 423.304 151.539 423.79 151.647 424.354L151.041 424.462C150.981 424.078 150.741 423.802 150.315 423.802C149.607 423.802 149.355 424.558 149.355 425.434L149.361 425.44C149.499 425.146 149.847 424.858 150.369 424.858C151.191 424.858 151.695 425.434 151.695 426.196C151.695 426.964 151.149 427.57 150.285 427.57ZM150.297 427.078C150.723 427.078 151.089 426.766 151.089 426.208C151.089 425.614 150.717 425.356 150.303 425.356C149.817 425.356 149.469 425.71 149.469 426.196C149.469 426.712 149.835 427.078 150.297 427.078Z"></path>
<g clip-path="url(#clip7_6129_4703)">
<path fill-opacity="0.2" fill="url(#paint7_linear_6129_4703)" d="M55.0626 443.18C53.9691 443.587 52.6774 446.679 51.7397 444.58C51.5674 444.194 50.5135 443.057 48.4169 442.481C47.3466 442.187 45.092 443.625 43.8699 443.355C41.7733 443.006 40.7932 444.784 39.5015 444.58C39.499 444.58 39.4964 444.58 39.4939 444.58C37.4383 444.923 36.5584 445.602 36.0306 445.463C36.0154 445.459 36 445.47 36 445.486V447.369C36 447.381 36.0103 447.392 36.0231 447.392H76.6204C76.6331 447.392 76.6435 447.381 76.6435 447.369V437.264C76.6435 437.249 76.6288 437.238 76.6143 437.242C74.5699 437.759 74.9921 440.021 72.634 441.24C70.2647 442.464 69.2578 440.172 68.5288 440.907C67.7998 441.641 67.4095 442.124 65.5627 440.26C64.1934 438.879 62.3813 438.888 61.8831 439.802C61.3793 440.727 60.7027 441.145 59.7915 441.389C58.8979 441.63 59.0833 444.58 57.8607 444.58C56.585 444.58 55.8482 442.889 55.0626 443.18Z"></path>
<path stroke-linecap="round" stroke-width="0.8" stroke="#ED3D3D" d="M36.1738 445.629C37.1904 445.592 37.9227 444.262 39.4967 444.596C41.0706 444.929 41.0706 443.134 43.1693 443.354C45.2679 443.574 45.6177 442.481 47.7163 442.481C49.8149 442.481 51.2031 443.665 51.6986 444.596C52.806 446.675 53.452 443.368 54.9286 443.197C56.0595 443.066 56.2667 444.391 57.5586 444.391C59.0352 444.391 58.5278 442.64 59.312 441.955C60.604 440.826 60.8808 441.356 61.6191 439.885C62.0032 439.12 63.8801 439.064 64.849 439.885C68.1991 442.724 67.433 441.184 68.5404 440.753C69.6862 440.307 70.1092 442.571 72.5086 441.272C74.9079 439.972 74.9813 437.494 76.6424 437.234"></path>
</g>
<rect fill-opacity="0.1" fill="#ED3D3D" rx="3" height="10.5916" width="24" y="436.371" x="96"></rect>
<path fill="#ED3D3D" d="M99.5884 442.924V442.42H101.31V442.924H99.5884ZM103.508 444.238C102.476 444.238 101.972 443.284 101.972 442.108C101.972 440.878 102.476 439.978 103.508 439.978C104.534 439.978 105.038 440.878 105.038 442.108C105.038 443.338 104.534 444.238 103.508 444.238ZM103.508 443.74C104.15 443.74 104.396 443.062 104.396 442.108C104.396 441.16 104.15 440.482 103.508 440.482C102.866 440.482 102.62 441.16 102.62 442.108C102.62 443.062 102.866 443.74 103.508 443.74ZM105.583 444.166V443.398H106.243V444.166H105.583ZM107.371 444.166V441.37H106.369V440.932H106.435C107.083 440.932 107.467 440.758 107.467 440.08V440.038H107.983V444.166H107.371ZM110.238 444.238C109.38 444.238 108.81 443.746 108.762 442.954L109.368 442.858C109.404 443.434 109.764 443.74 110.25 443.74C110.778 443.74 111.09 443.44 111.09 442.99C111.09 442.564 110.796 442.27 110.22 442.27C110.058 442.27 109.956 442.276 109.842 442.282V441.784C109.938 441.79 110.046 441.79 110.214 441.79C110.694 441.79 111.006 441.532 111.006 441.112C111.006 440.752 110.742 440.476 110.268 440.476C109.77 440.476 109.464 440.794 109.428 441.31L108.828 441.208C108.864 440.464 109.434 439.972 110.28 439.972C111.072 439.972 111.63 440.368 111.63 441.07C111.63 441.61 111.264 441.874 110.928 441.994V442C111.396 442.114 111.72 442.456 111.72 442.996C111.72 443.758 111.12 444.238 110.238 444.238ZM113.117 442.39C112.487 442.39 112.217 441.868 112.217 441.19C112.217 440.53 112.487 439.996 113.117 439.996C113.753 439.996 114.029 440.524 114.029 441.19C114.029 441.862 113.753 442.39 113.117 442.39ZM113.117 442.012C113.417 442.012 113.531 441.688 113.531 441.19C113.531 440.692 113.417 440.374 113.117 440.374C112.829 440.374 112.715 440.686 112.715 441.19C112.715 441.694 112.829 442.012 113.117 442.012ZM113.189 444.166L115.313 440.038H115.823L113.699 444.166H113.189ZM115.901 444.208C115.271 444.208 115.001 443.686 115.001 443.008C115.001 442.348 115.271 441.814 115.901 441.814C116.537 441.814 116.813 442.342 116.813 443.008C116.813 443.68 116.537 444.208 115.901 444.208ZM115.901 443.83C116.201 443.83 116.315 443.506 116.315 443.008C116.315 442.51 116.201 442.192 115.901 442.192C115.613 442.192 115.499 442.504 115.499 443.008C115.499 443.512 115.613 443.83 115.901 443.83Z"></path>
<path fill="#ED3D3D" d="M137.593 444.166V443.65L137.911 443.44C138.997 442.738 139.699 442.102 139.699 441.232C139.699 440.77 139.441 440.482 138.985 440.482C138.535 440.482 138.229 440.764 138.229 441.274C138.229 441.388 138.241 441.484 138.259 441.574L137.623 441.496C137.617 441.448 137.605 441.364 137.605 441.244C137.605 440.452 138.175 439.972 138.991 439.972C139.831 439.972 140.335 440.428 140.335 441.202C140.335 442.192 139.609 442.894 138.697 443.464L138.421 443.638V443.644H140.323V444.166H137.593ZM142.45 444.238C141.61 444.238 140.986 443.8 140.986 443.008C140.986 442.396 141.406 442.09 141.742 441.97V441.964C141.478 441.868 141.106 441.556 141.106 441.064C141.106 440.392 141.688 439.966 142.45 439.966C143.212 439.966 143.794 440.392 143.794 441.064C143.794 441.556 143.416 441.868 143.152 441.964V441.97C143.488 442.084 143.908 442.396 143.908 443.008C143.908 443.8 143.29 444.238 142.45 444.238ZM142.45 443.728C142.972 443.728 143.29 443.422 143.29 442.972C143.29 442.534 142.93 442.24 142.45 442.24C141.97 442.24 141.61 442.534 141.61 442.972C141.61 443.422 141.928 443.728 142.45 443.728ZM142.45 441.766C142.864 441.766 143.182 441.484 143.182 441.112C143.182 440.734 142.894 440.464 142.45 440.464C142.006 440.464 141.712 440.734 141.712 441.112C141.712 441.484 142.03 441.766 142.45 441.766ZM144.573 444.166V443.398H145.233V444.166H144.573ZM146.252 444.166C146.54 442.906 147.152 441.61 147.764 440.548H146.036V441.112H145.436V440.038H148.388V440.512C147.74 441.61 147.176 442.9 146.918 444.166H146.252ZM150.212 444.238C149.354 444.238 148.784 443.746 148.736 442.954L149.342 442.858C149.378 443.434 149.738 443.74 150.224 443.74C150.752 443.74 151.064 443.44 151.064 442.99C151.064 442.564 150.77 442.27 150.194 442.27C150.032 442.27 149.93 442.276 149.816 442.282V441.784C149.912 441.79 150.02 441.79 150.188 441.79C150.668 441.79 150.98 441.532 150.98 441.112C150.98 440.752 150.716 440.476 150.242 440.476C149.744 440.476 149.438 440.794 149.402 441.31L148.802 441.208C148.838 440.464 149.408 439.972 150.254 439.972C151.046 439.972 151.604 440.368 151.604 441.07C151.604 441.61 151.238 441.874 150.902 441.994V442C151.37 442.114 151.694 442.456 151.694 442.996C151.694 443.758 151.094 444.238 150.212 444.238Z"></path>
</g>
</g>
<rect stroke-opacity="0.1" stroke="white" rx="7.5" height="99" width="139" y="362.5" x="24.5"></rect>
<g clip-path="url(#clip8_6129_4703)">
<rect fill-opacity="0.7" fill="url(#paint8_linear_6129_4703)" rx="8" height="100" width="140" y="413" x="186"></rect>
<path fill="white" d="M204.276 436V432.328H200.448V436H198.924V427.744H200.448V431.044H204.276V427.744H205.8V436H204.276ZM209.986 436.144C208.102 436.144 206.974 434.776 206.974 433.036C206.974 431.308 208.102 429.928 209.986 429.928C211.882 429.928 213.01 431.308 213.01 433.036C213.01 434.776 211.882 436.144 209.986 436.144ZM209.998 435.028C210.994 435.028 211.486 434.164 211.486 433.036C211.486 431.908 210.994 431.044 209.998 431.044C208.99 431.044 208.498 431.908 208.498 433.036C208.498 434.176 208.99 435.028 209.998 435.028ZM216.208 436.06C215.392 436.06 214.852 435.76 214.636 435.184C214.54 434.98 214.504 434.74 214.504 434.392V431.212H213.484V430.072H214.504V428.2H215.98V430.072H217.204V431.212H215.98V434.176C215.98 434.704 216.232 434.884 216.688 434.884C216.928 434.884 217.06 434.872 217.24 434.836V435.964C216.928 436.024 216.604 436.06 216.208 436.06ZM222.382 436L219.79 433.06V436H218.326V427.744H219.79V432.784L222.07 430.072H223.918L221.434 432.844L224.266 436H222.382ZM227.142 436.144C225.498 436.144 224.178 435.088 224.178 433.036C224.178 431.116 225.486 429.928 227.154 429.928C228.834 429.928 229.998 431.14 229.998 432.988V433.372H225.606C225.678 434.572 226.362 435.088 227.166 435.088C227.91 435.088 228.378 434.716 228.546 434.044L229.962 434.2C229.65 435.232 228.81 436.144 227.142 436.144ZM225.642 432.364H228.522C228.486 431.608 227.946 430.972 227.166 430.972C226.362 430.972 225.75 431.524 225.642 432.364ZM231.582 438.316C231.282 438.316 231.054 438.28 230.826 438.244V437.056C230.994 437.092 231.174 437.104 231.342 437.104C231.906 437.104 232.206 436.936 232.422 436.42L232.59 436L230.394 430.072H231.966L233.382 434.5L234.786 430.072H236.358L233.982 436.456C233.49 437.776 232.842 438.316 231.582 438.316ZM239.846 436V427.744H243.002C245.546 427.744 247.046 429.292 247.046 431.848C247.046 434.416 245.546 436 243.002 436H239.846ZM242.954 434.728C244.706 434.728 245.474 433.576 245.474 431.848C245.474 430.12 244.706 429.016 242.954 429.016H241.37V434.728H242.954ZM250.895 436.144C249.251 436.144 247.931 435.088 247.931 433.036C247.931 431.116 249.239 429.928 250.907 429.928C252.587 429.928 253.751 431.14 253.751 432.988V433.372H249.359C249.431 434.572 250.115 435.088 250.919 435.088C251.663 435.088 252.131 434.716 252.299 434.044L253.715 434.2C253.403 435.232 252.563 436.144 250.895 436.144ZM249.395 432.364H252.275C252.239 431.608 251.699 430.972 250.919 430.972C250.115 430.972 249.503 431.524 249.395 432.364ZM257.54 436.144C255.776 436.144 254.552 434.908 254.552 433.036C254.552 431.188 255.788 429.928 257.552 429.928C259.196 429.928 260.048 430.888 260.348 432.004L258.92 432.304C258.776 431.596 258.368 431.044 257.576 431.044C256.724 431.044 256.076 431.728 256.076 433.024C256.076 434.332 256.712 435.028 257.588 435.028C258.344 435.028 258.788 434.548 258.968 433.756L260.396 434.068C260.024 435.232 259.172 436.144 257.54 436.144ZM265.448 436L262.856 433.06V436H261.392V427.744H262.856V432.784L265.136 430.072H266.984L264.5 432.844L267.332 436H265.448Z"></path>
<g opacity="0.8">
<g clip-path="url(#clip9_6129_4703)">
<rect fill="#26E986" rx="1.64948" height="11.2629" width="37.567" y="451" x="198"></rect>
<path fill="#14142F" d="M205.782 459.131V455.003H207.456C208.218 455.003 208.74 455.339 208.74 456.047C208.74 456.497 208.482 456.839 208.164 456.959V456.965C208.488 457.049 208.86 457.325 208.86 457.949C208.86 458.585 208.47 459.131 207.528 459.131H205.782ZM207.504 458.609C208.044 458.609 208.254 458.303 208.254 457.919C208.254 457.511 208.026 457.241 207.468 457.241H206.4V458.609H207.504ZM207.42 456.749C207.888 456.749 208.134 456.533 208.134 456.107C208.134 455.705 207.858 455.525 207.45 455.525H206.4V456.749H207.42ZM210.508 459.203C209.824 459.203 209.476 458.771 209.476 458.093V456.167H210.07V457.889C210.07 458.393 210.19 458.705 210.67 458.705C211.132 458.705 211.42 458.303 211.42 457.847V456.167H212.014V459.131H211.426V458.711H211.42C211.222 459.011 210.91 459.203 210.508 459.203ZM213.038 460.283C212.9 460.283 212.81 460.265 212.714 460.253V459.743C212.792 459.761 212.882 459.773 212.966 459.773C213.254 459.773 213.416 459.671 213.53 459.383L213.632 459.125L212.516 456.167H213.17L213.944 458.501L214.718 456.167H215.378L214.13 459.455C213.908 460.043 213.566 460.283 213.038 460.283ZM217.021 459.131V458.615L217.339 458.405C218.425 457.703 219.127 457.067 219.127 456.197C219.127 455.735 218.869 455.447 218.413 455.447C217.963 455.447 217.657 455.729 217.657 456.239C217.657 456.353 217.669 456.449 217.687 456.539L217.051 456.461C217.045 456.413 217.033 456.329 217.033 456.209C217.033 455.417 217.603 454.937 218.419 454.937C219.259 454.937 219.763 455.393 219.763 456.167C219.763 457.157 219.037 457.859 218.125 458.429L217.849 458.603V458.609H219.751V459.131H217.021ZM221.938 459.203C220.906 459.203 220.402 458.249 220.402 457.073C220.402 455.843 220.906 454.943 221.938 454.943C222.964 454.943 223.468 455.843 223.468 457.073C223.468 458.303 222.964 459.203 221.938 459.203ZM221.938 458.705C222.58 458.705 222.826 458.027 222.826 457.073C222.826 456.125 222.58 455.447 221.938 455.447C221.296 455.447 221.05 456.125 221.05 457.073C221.05 458.027 221.296 458.705 221.938 458.705ZM225.492 459.731V459.197C224.67 459.131 224.178 458.615 224.13 457.865L224.754 457.763C224.784 458.279 225.03 458.627 225.492 458.699V457.247L225.39 457.217C224.688 457.019 224.28 456.671 224.28 456.071C224.28 455.465 224.73 455.003 225.492 454.937V454.403H225.882V454.943C226.59 455.009 226.98 455.429 227.052 456.059L226.428 456.155C226.386 455.777 226.212 455.519 225.882 455.441V456.743L226.074 456.797C226.752 456.983 227.16 457.307 227.16 457.955C227.16 458.687 226.626 459.125 225.882 459.191V459.731H225.492ZM224.904 456.029C224.904 456.347 225.102 456.509 225.492 456.635V455.429C225.12 455.483 224.904 455.735 224.904 456.029ZM225.882 458.705C226.296 458.645 226.536 458.393 226.536 458.015C226.536 457.661 226.32 457.481 225.882 457.349V458.705Z"></path>
<rect fill="#26E986" rx="1.64948" height="11.2629" width="37.567" y="451" x="237.216"></rect>
<path fill="#14142F" d="M240.498 459.131V455.003H242.172C242.934 455.003 243.456 455.339 243.456 456.047C243.456 456.497 243.198 456.839 242.88 456.959V456.965C243.204 457.049 243.576 457.325 243.576 457.949C243.576 458.585 243.186 459.131 242.244 459.131H240.498ZM242.22 458.609C242.76 458.609 242.97 458.303 242.97 457.919C242.97 457.511 242.742 457.241 242.184 457.241H241.116V458.609H242.22ZM242.136 456.749C242.604 456.749 242.85 456.533 242.85 456.107C242.85 455.705 242.574 455.525 242.166 455.525H241.116V456.749H242.136ZM245.224 459.203C244.54 459.203 244.192 458.771 244.192 458.093V456.167H244.786V457.889C244.786 458.393 244.906 458.705 245.386 458.705C245.848 458.705 246.136 458.303 246.136 457.847V456.167H246.73V459.131H246.142V458.711H246.136C245.938 459.011 245.626 459.203 245.224 459.203ZM247.755 460.283C247.617 460.283 247.527 460.265 247.431 460.253V459.743C247.509 459.761 247.599 459.773 247.683 459.773C247.971 459.773 248.133 459.671 248.247 459.383L248.349 459.125L247.233 456.167H247.887L248.661 458.501L249.435 456.167H250.095L248.847 459.455C248.625 460.043 248.283 460.283 247.755 460.283ZM252.578 459.131V456.335H251.576V455.897H251.642C252.29 455.897 252.674 455.723 252.674 455.045V455.003H253.19V459.131H252.578ZM255.553 459.203C254.521 459.203 254.017 458.249 254.017 457.073C254.017 455.843 254.521 454.943 255.553 454.943C256.579 454.943 257.083 455.843 257.083 457.073C257.083 458.303 256.579 459.203 255.553 459.203ZM255.553 458.705C256.195 458.705 256.441 458.027 256.441 457.073C256.441 456.125 256.195 455.447 255.553 455.447C254.911 455.447 254.665 456.125 254.665 457.073C254.665 458.027 254.911 458.705 255.553 458.705ZM259.248 459.131V455.003H260.268L261.366 458.483L262.458 455.003H263.484V459.131H262.878V456.509C262.878 456.131 262.89 455.741 262.896 455.555L262.89 455.549L261.72 459.131H261.006L259.842 455.549L259.836 455.555C259.842 455.741 259.854 456.131 259.854 456.509V459.131H259.248ZM267.162 459.131L265.104 456.959V459.131H264.48V455.003H265.104V456.875L266.922 455.003H267.72L265.848 456.881L267.984 459.131H267.162ZM269.24 459.131V455.537H267.986V455.003H271.118V455.537H269.858V459.131H269.24Z"></path>
<rect fill="#E82323" rx="1.64948" height="11.2629" width="37.567" y="451" x="276.433"></rect>
<path fill="white" d="M283.197 459.203C282.261 459.203 281.523 458.759 281.415 457.787L282.063 457.703C282.141 458.387 282.591 458.717 283.215 458.717C283.779 458.717 284.217 458.435 284.217 457.991C284.217 457.607 283.977 457.463 283.419 457.343L282.843 457.217C282.129 457.061 281.571 456.785 281.571 456.107C281.571 455.429 282.225 454.931 283.131 454.931C284.067 454.931 284.643 455.411 284.745 456.143L284.091 456.227C284.025 455.717 283.659 455.417 283.113 455.417C282.567 455.417 282.231 455.711 282.231 456.077C282.231 456.395 282.453 456.539 283.029 456.665L283.605 456.791C284.301 456.941 284.877 457.193 284.877 457.907C284.877 458.735 284.091 459.203 283.197 459.203ZM286.752 459.203C285.96 459.203 285.33 458.669 285.33 457.655C285.33 456.677 285.972 456.095 286.77 456.095C287.562 456.095 288.132 456.695 288.132 457.601V457.787H285.93C285.96 458.459 286.326 458.741 286.758 458.741C287.166 458.741 287.418 458.537 287.514 458.153L288.114 458.231C287.964 458.729 287.574 459.203 286.752 459.203ZM285.936 457.331H287.508C287.49 456.911 287.196 456.551 286.77 456.551C286.332 456.551 285.996 456.863 285.936 457.331ZM288.767 459.131V455.003H289.361V459.131H288.767ZM290.179 459.131V455.003H290.773V459.131H290.179ZM293.683 459.131V456.335H292.681V455.897H292.747C293.395 455.897 293.779 455.723 293.779 455.045V455.003H294.295V459.131H293.683ZM296.668 459.131V455.003H297.688L298.786 458.483L299.878 455.003H300.904V459.131H300.298V456.509C300.298 456.131 300.31 455.741 300.316 455.555L300.31 455.549L299.14 459.131H298.426L297.262 455.549L297.256 455.555C297.262 455.741 297.274 456.131 297.274 456.509V459.131H296.668ZM304.582 459.131L302.524 456.959V459.131H301.9V455.003H302.524V456.875L304.342 455.003H305.14L303.268 456.881L305.404 459.131H304.582ZM306.66 459.131V455.537H305.406V455.003H308.538V455.537H307.278V459.131H306.66Z"></path>
</g>
<g clip-path="url(#clip10_6129_4703)">
<rect fill="#E82323" rx="1.64948" height="11.2629" width="37.567" y="463.912" x="198"></rect>
<path fill="white" d="M204.764 472.115C203.828 472.115 203.09 471.671 202.982 470.699L203.63 470.615C203.708 471.299 204.158 471.629 204.782 471.629C205.346 471.629 205.784 471.347 205.784 470.903C205.784 470.519 205.544 470.375 204.986 470.255L204.41 470.129C203.696 469.973 203.138 469.697 203.138 469.019C203.138 468.341 203.792 467.843 204.698 467.843C205.634 467.843 206.21 468.323 206.312 469.055L205.658 469.139C205.592 468.629 205.226 468.329 204.68 468.329C204.134 468.329 203.798 468.623 203.798 468.989C203.798 469.307 204.02 469.451 204.596 469.577L205.172 469.703C205.868 469.853 206.444 470.105 206.444 470.819C206.444 471.647 205.658 472.115 204.764 472.115ZM208.318 472.115C207.526 472.115 206.896 471.581 206.896 470.567C206.896 469.589 207.538 469.007 208.336 469.007C209.128 469.007 209.698 469.607 209.698 470.513V470.699H207.496C207.526 471.371 207.892 471.653 208.324 471.653C208.732 471.653 208.984 471.449 209.08 471.065L209.68 471.143C209.53 471.641 209.14 472.115 208.318 472.115ZM207.502 470.243H209.074C209.056 469.823 208.762 469.463 208.336 469.463C207.898 469.463 207.562 469.775 207.502 470.243ZM210.334 472.043V467.915H210.928V472.043H210.334ZM211.746 472.043V467.915H212.34V472.043H211.746ZM215.814 472.115C215.004 472.115 214.494 471.653 214.368 470.969L214.992 470.867C215.076 471.281 215.352 471.605 215.832 471.605C216.342 471.605 216.684 471.227 216.684 470.669C216.684 470.141 216.396 469.751 215.886 469.751C215.472 469.751 215.202 470.045 215.1 470.279L214.5 470.189L214.662 467.915H217.014V468.467H215.178L215.1 469.607H215.106C215.292 469.409 215.586 469.247 215.988 469.247C216.828 469.247 217.308 469.871 217.308 470.645C217.308 471.455 216.714 472.115 215.814 472.115ZM219.413 472.043V467.915H220.037V471.509H222.125V472.043H219.413ZM222.706 472.043V467.915H223.726L224.824 471.395L225.916 467.915H226.942V472.043H226.336V469.421C226.336 469.043 226.348 468.653 226.354 468.467L226.348 468.461L225.178 472.043H224.464L223.3 468.461L223.294 468.467C223.3 468.653 223.312 469.043 223.312 469.421V472.043H222.706ZM228.784 472.043V468.449H227.53V467.915H230.662V468.449H229.402V472.043H228.784Z"></path>
<rect fill-opacity="0.16" fill="white" rx="1.64948" height="11.2629" width="37.567" y="463.912" x="237.216"></rect>
<path fill="white" d="M241.498 472.043V467.915H242.122V471.509H244.21V472.043H241.498ZM245.874 472.115C244.938 472.115 244.41 471.413 244.41 470.561C244.41 469.715 244.938 469.007 245.874 469.007C246.816 469.007 247.35 469.715 247.35 470.561C247.35 471.413 246.816 472.115 245.874 472.115ZM245.88 471.641C246.456 471.641 246.726 471.155 246.726 470.561C246.726 469.973 246.456 469.481 245.88 469.481C245.298 469.481 245.028 469.967 245.028 470.561C245.028 471.161 245.298 471.641 245.88 471.641ZM249.248 472.115C248.378 472.115 247.79 471.485 247.79 470.555C247.79 469.643 248.378 469.007 249.254 469.007C250.022 469.007 250.448 469.457 250.604 470.015L250.004 470.159C249.926 469.787 249.698 469.481 249.254 469.481C248.78 469.481 248.414 469.859 248.414 470.555C248.414 471.263 248.768 471.641 249.266 471.641C249.68 471.641 249.938 471.383 250.034 470.963L250.628 471.107C250.448 471.665 250.034 472.115 249.248 472.115ZM252.051 472.115C251.517 472.115 251.037 471.791 251.037 471.239C251.037 470.699 251.415 470.453 252.057 470.327L252.465 470.243C252.783 470.177 252.933 470.111 252.933 469.865C252.933 469.619 252.729 469.445 252.369 469.445C251.979 469.445 251.727 469.685 251.703 470.081L251.091 470.027C251.133 469.391 251.643 469.007 252.375 469.007C253.131 469.007 253.533 469.373 253.533 469.997V472.043H252.963V471.695H252.957C252.819 471.923 252.513 472.115 252.051 472.115ZM252.207 471.689C252.627 471.689 252.957 471.413 252.957 470.921V470.561C252.333 470.663 252.039 470.747 251.859 470.861C251.721 470.945 251.643 471.065 251.643 471.227C251.643 471.503 251.871 471.689 252.207 471.689ZM255.276 472.073C254.898 472.073 254.646 471.923 254.556 471.623C254.52 471.533 254.508 471.437 254.508 471.311V469.565H253.986V469.079H254.508V468.143H255.102V469.079H255.714V469.565H255.102V471.227C255.102 471.485 255.222 471.575 255.456 471.575C255.576 471.575 255.642 471.569 255.738 471.551V472.031C255.588 472.055 255.456 472.073 255.276 472.073ZM257.521 472.115C256.729 472.115 256.099 471.581 256.099 470.567C256.099 469.589 256.741 469.007 257.539 469.007C258.331 469.007 258.901 469.607 258.901 470.513V470.699H256.699C256.729 471.371 257.095 471.653 257.527 471.653C257.935 471.653 258.187 471.449 258.283 471.065L258.883 471.143C258.733 471.641 258.343 472.115 257.521 472.115ZM256.705 470.243H258.277C258.259 469.823 257.965 469.463 257.539 469.463C257.101 469.463 256.765 469.775 256.705 470.243ZM261.629 472.043V469.247H260.627V468.809H260.693C261.341 468.809 261.725 468.635 261.725 467.957V467.915H262.241V472.043H261.629ZM264.604 472.115C263.572 472.115 263.068 471.161 263.068 469.985C263.068 468.755 263.572 467.855 264.604 467.855C265.63 467.855 266.134 468.755 266.134 469.985C266.134 471.215 265.63 472.115 264.604 472.115ZM264.604 471.617C265.246 471.617 265.492 470.939 265.492 469.985C265.492 469.037 265.246 468.359 264.604 468.359C263.962 468.359 263.716 469.037 263.716 469.985C263.716 470.939 263.962 471.617 264.604 471.617ZM268.289 472.115C267.257 472.115 266.753 471.161 266.753 469.985C266.753 468.755 267.257 467.855 268.289 467.855C269.315 467.855 269.819 468.755 269.819 469.985C269.819 471.215 269.315 472.115 268.289 472.115ZM268.289 471.617C268.931 471.617 269.177 470.939 269.177 469.985C269.177 469.037 268.931 468.359 268.289 468.359C267.647 468.359 267.401 469.037 267.401 469.985C267.401 470.939 267.647 471.617 268.289 471.617Z"></path>
<rect fill-opacity="0.04" fill="white" rx="1.64948" height="11.2629" width="37.567" y="463.912" x="276.433"></rect>
</g>
<g clip-path="url(#clip11_6129_4703)">
<rect fill-opacity="0.04" fill="white" rx="1.64948" height="11.2629" width="37.567" y="476.824" x="198"></rect>
<rect fill-opacity="0.04" fill="white" rx="1.64948" height="11.2629" width="37.567" y="476.824" x="237.216"></rect>
<rect fill-opacity="0.04" fill="white" rx="1.64948" height="11.2629" width="37.567" y="476.824" x="276.433"></rect>
</g>
<g clip-path="url(#clip12_6129_4703)">
<rect fill-opacity="0.04" fill="white" rx="1.64948" height="11.2629" width="37.567" y="489.736" x="198"></rect>
<rect fill-opacity="0.04" fill="white" rx="1.64948" height="11.2629" width="37.567" y="489.736" x="237.216"></rect>
<rect fill-opacity="0.04" fill="white" rx="1.64948" height="11.2629" width="37.567" y="489.736" x="276.433"></rect>
</g>
</g>
</g>
<rect stroke-opacity="0.1" stroke="white" rx="7.5" height="99" width="139" y="413.5" x="186.5"></rect>
<g clip-path="url(#clip13_6129_4703)">
<rect fill-opacity="0.7" fill="url(#paint9_linear_6129_4703)" rx="8" height="100" width="140" y="297" x="124"></rect>
<path fill="white" d="M140.044 320.144C138.1 320.144 136.576 319.268 136.36 317.288L137.944 317.108C138.088 318.38 138.952 318.98 140.092 318.98C141.112 318.98 141.892 318.488 141.892 317.696C141.892 317.048 141.484 316.784 140.428 316.556L139.312 316.304C137.812 315.968 136.66 315.38 136.66 314C136.66 312.62 138.004 311.6 139.912 311.6C141.892 311.6 143.092 312.608 143.284 314.072L141.676 314.264C141.556 313.316 140.872 312.764 139.888 312.764C138.892 312.764 138.304 313.28 138.304 313.916C138.304 314.564 138.856 314.756 139.816 314.972L140.944 315.224C142.384 315.548 143.524 316.076 143.524 317.504C143.524 319.184 141.94 320.144 140.044 320.144ZM144.619 320V311.744H146.095V314.828H146.107C146.467 314.288 147.079 313.928 147.931 313.928C149.227 313.928 150.031 314.696 150.031 316.208V320H148.555V316.724C148.555 315.776 148.363 315.116 147.463 315.116C146.599 315.116 146.095 315.836 146.095 316.736V320H144.619ZM154.115 320.144C152.231 320.144 151.103 318.776 151.103 317.036C151.103 315.308 152.231 313.928 154.115 313.928C156.011 313.928 157.139 315.308 157.139 317.036C157.139 318.776 156.011 320.144 154.115 320.144ZM154.127 319.028C155.123 319.028 155.615 318.164 155.615 317.036C155.615 315.908 155.123 315.044 154.127 315.044C153.119 315.044 152.627 315.908 152.627 317.036C152.627 318.176 153.119 319.028 154.127 319.028ZM158.271 320V314.072H159.687V315.176C159.963 314.504 160.599 313.928 161.511 313.928C161.631 313.928 161.727 313.94 161.823 313.94V315.344C161.715 315.332 161.595 315.32 161.415 315.32C160.443 315.32 159.735 315.896 159.735 317.012V320H158.271ZM164.978 320.06C164.162 320.06 163.622 319.76 163.406 319.184C163.31 318.98 163.274 318.74 163.274 318.392V315.212H162.254V314.072H163.274V312.2H164.75V314.072H165.974V315.212H164.75V318.176C164.75 318.704 165.002 318.884 165.458 318.884C165.698 318.884 165.83 318.872 166.01 318.836V319.964C165.698 320.024 165.374 320.06 164.978 320.06ZM169.865 320V311.744H171.389V318.728H175.445V320H169.865ZM178.842 320.144C176.958 320.144 175.83 318.776 175.83 317.036C175.83 315.308 176.958 313.928 178.842 313.928C180.738 313.928 181.866 315.308 181.866 317.036C181.866 318.776 180.738 320.144 178.842 320.144ZM178.854 319.028C179.85 319.028 180.342 318.164 180.342 317.036C180.342 315.908 179.85 315.044 178.854 315.044C177.846 315.044 177.354 315.908 177.354 317.036C177.354 318.176 177.846 319.028 178.854 319.028ZM185.65 320.144C183.886 320.144 182.662 318.908 182.662 317.036C182.662 315.188 183.898 313.928 185.662 313.928C187.306 313.928 188.158 314.888 188.458 316.004L187.03 316.304C186.886 315.596 186.478 315.044 185.686 315.044C184.834 315.044 184.186 315.728 184.186 317.024C184.186 318.332 184.822 319.028 185.698 319.028C186.454 319.028 186.898 318.548 187.078 317.756L188.506 318.068C188.134 319.232 187.282 320.144 185.65 320.144ZM191.302 320.144C190.162 320.144 189.226 319.484 189.226 318.38C189.226 317.252 190.078 316.784 191.374 316.532L192.13 316.376C192.766 316.244 193.042 316.124 193.042 315.68C193.042 315.248 192.67 314.936 192.034 314.936C191.302 314.936 190.834 315.38 190.786 316.1L189.322 315.992C189.43 314.732 190.462 313.928 192.034 313.928C193.666 313.928 194.494 314.66 194.494 315.944V320H193.102V319.352H193.09C192.814 319.784 192.214 320.144 191.302 320.144ZM191.71 319.172C192.478 319.172 193.09 318.668 193.09 317.792V317.132C192.034 317.3 191.47 317.444 191.11 317.66C190.846 317.816 190.678 318.044 190.678 318.356C190.678 318.836 191.098 319.172 191.71 319.172ZM198.025 320.06C197.209 320.06 196.669 319.76 196.453 319.184C196.357 318.98 196.321 318.74 196.321 318.392V315.212H195.301V314.072H196.321V312.2H197.797V314.072H199.021V315.212H197.797V318.176C197.797 318.704 198.049 318.884 198.505 318.884C198.745 318.884 198.877 318.872 199.057 318.836V319.964C198.745 320.024 198.421 320.06 198.025 320.06ZM202.688 320.144C201.044 320.144 199.724 319.088 199.724 317.036C199.724 315.116 201.032 313.928 202.7 313.928C204.38 313.928 205.544 315.14 205.544 316.988V317.372H201.152C201.224 318.572 201.908 319.088 202.712 319.088C203.456 319.088 203.924 318.716 204.092 318.044L205.508 318.2C205.196 319.232 204.356 320.144 202.688 320.144ZM201.188 316.364H204.068C204.032 315.608 203.492 314.972 202.712 314.972C201.908 314.972 201.296 315.524 201.188 316.364ZM209.033 320.144C207.473 320.144 206.369 319.448 206.237 318.056L207.617 317.9C207.677 318.752 208.301 319.148 209.045 319.148C209.789 319.148 210.269 318.836 210.269 318.332C210.269 317.852 209.861 317.72 209.081 317.552L208.205 317.36C207.161 317.132 206.465 316.652 206.465 315.704C206.465 314.672 207.521 313.928 208.985 313.928C210.437 313.928 211.397 314.624 211.541 315.74L210.137 315.908C210.065 315.26 209.597 314.924 208.949 314.924C208.325 314.924 207.893 315.212 207.893 315.62C207.893 316.052 208.217 316.16 208.853 316.304L209.729 316.508C210.989 316.796 211.685 317.216 211.685 318.188C211.685 319.388 210.557 320.144 209.033 320.144Z"></path>
<g opacity="0.8">
<rect fill-opacity="0.08" fill="white" rx="4" height="15" width="56" y="335" x="136"></rect>
<path fill="white" d="M142.163 344.5V343.594H140.195V343.036L141.851 340.372H142.757V343.078H143.435V343.594H142.757V344.5H142.163ZM140.783 343.078H142.163V340.846L140.783 343.078ZM145.438 344.572C144.406 344.572 143.902 343.618 143.902 342.442C143.902 341.212 144.406 340.312 145.438 340.312C146.464 340.312 146.968 341.212 146.968 342.442C146.968 343.672 146.464 344.572 145.438 344.572ZM145.438 344.074C146.08 344.074 146.326 343.396 146.326 342.442C146.326 341.494 146.08 340.816 145.438 340.816C144.796 340.816 144.55 341.494 144.55 342.442C144.55 343.396 144.796 344.074 145.438 344.074ZM149.123 344.572C148.091 344.572 147.587 343.618 147.587 342.442C147.587 341.212 148.091 340.312 149.123 340.312C150.149 340.312 150.653 341.212 150.653 342.442C150.653 343.672 150.149 344.572 149.123 344.572ZM149.123 344.074C149.765 344.074 150.011 343.396 150.011 342.442C150.011 341.494 149.765 340.816 149.123 340.816C148.481 340.816 148.235 341.494 148.235 342.442C148.235 343.396 148.481 344.074 149.123 344.074Z"></path>
<rect fill="#FF5500" rx="4" height="15" width="56" y="335" x="196"></rect>
<path fill="#14142F" d="M215.21 344.5V340.372H215.972V343.864H218V344.5H215.21ZM219.698 344.572C218.756 344.572 218.192 343.888 218.192 343.018C218.192 342.154 218.756 341.464 219.698 341.464C220.646 341.464 221.21 342.154 221.21 343.018C221.21 343.888 220.646 344.572 219.698 344.572ZM219.704 344.014C220.202 344.014 220.448 343.582 220.448 343.018C220.448 342.454 220.202 342.022 219.704 342.022C219.2 342.022 218.954 342.454 218.954 343.018C218.954 343.588 219.2 344.014 219.704 344.014ZM223.102 344.572C222.22 344.572 221.608 343.954 221.608 343.018C221.608 342.094 222.226 341.464 223.108 341.464C223.93 341.464 224.356 341.944 224.506 342.502L223.792 342.652C223.72 342.298 223.516 342.022 223.12 342.022C222.694 342.022 222.37 342.364 222.37 343.012C222.37 343.666 222.688 344.014 223.126 344.014C223.504 344.014 223.726 343.774 223.816 343.378L224.53 343.534C224.344 344.116 223.918 344.572 223.102 344.572ZM225.928 344.572C225.358 344.572 224.89 344.242 224.89 343.69C224.89 343.126 225.316 342.892 225.964 342.766L226.342 342.688C226.66 342.622 226.798 342.562 226.798 342.34C226.798 342.124 226.612 341.968 226.294 341.968C225.928 341.968 225.694 342.19 225.67 342.55L224.938 342.496C224.992 341.866 225.508 341.464 226.294 341.464C227.11 341.464 227.524 341.83 227.524 342.472V344.5H226.828V344.176H226.822C226.684 344.392 226.384 344.572 225.928 344.572ZM226.132 344.086C226.516 344.086 226.822 343.834 226.822 343.396V343.066C226.294 343.15 226.012 343.222 225.832 343.33C225.7 343.408 225.616 343.522 225.616 343.678C225.616 343.918 225.826 344.086 226.132 344.086ZM229.29 344.53C228.882 344.53 228.612 344.38 228.504 344.092C228.456 343.99 228.438 343.87 228.438 343.696V342.106H227.928V341.536H228.438V340.6H229.176V341.536H229.788V342.106H229.176V343.588C229.176 343.852 229.302 343.942 229.53 343.942C229.65 343.942 229.716 343.936 229.806 343.918V344.482C229.65 344.512 229.488 344.53 229.29 344.53ZM231.622 344.572C230.8 344.572 230.14 344.044 230.14 343.018C230.14 342.058 230.794 341.464 231.628 341.464C232.468 341.464 233.05 342.07 233.05 342.994V343.186H230.854C230.89 343.786 231.232 344.044 231.634 344.044C232.006 344.044 232.24 343.858 232.324 343.522L233.032 343.6C232.876 344.116 232.456 344.572 231.622 344.572ZM230.872 342.682H232.312C232.294 342.304 232.024 341.986 231.634 341.986C231.232 341.986 230.926 342.262 230.872 342.682Z"></path>
<mask fill="white" id="path-91-inside-3_6129_4703">
<path d="M124 352H264V368.5H124V352Z"></path>
</mask>
<path mask="url(#path-91-inside-3_6129_4703)" fill-opacity="0.08" fill="white" d="M264 368.5V368H124V368.5V369H264V368.5Z"></path>
<path fill="white" d="M137.344 362.75V359.156H136.09V358.622H139.222V359.156H137.962V362.75H137.344ZM141.232 362.822C140.296 362.822 139.558 362.378 139.45 361.406L140.098 361.322C140.176 362.006 140.626 362.336 141.25 362.336C141.814 362.336 142.252 362.054 142.252 361.61C142.252 361.226 142.012 361.082 141.454 360.962L140.878 360.836C140.164 360.68 139.606 360.404 139.606 359.726C139.606 359.048 140.26 358.55 141.166 358.55C142.102 358.55 142.678 359.03 142.78 359.762L142.126 359.846C142.06 359.336 141.694 359.036 141.148 359.036C140.602 359.036 140.266 359.33 140.266 359.696C140.266 360.014 140.488 360.158 141.064 360.284L141.64 360.41C142.336 360.56 142.912 360.812 142.912 361.526C142.912 362.354 142.126 362.822 141.232 362.822ZM143.641 362.75V358.622H144.265V362.216H146.353V362.75H143.641ZM146.525 362.75L148.109 358.622H148.901L150.491 362.75H149.849L149.447 361.676H147.569L147.161 362.75H146.525ZM147.749 361.16H149.261L148.505 359.15L147.749 361.16Z"></path>
<path fill="white" d="M182.369 362.75V358.622H182.993V362.216H185.081V362.75H182.369ZM186.745 362.822C185.809 362.822 185.281 362.12 185.281 361.268C185.281 360.422 185.809 359.714 186.745 359.714C187.687 359.714 188.221 360.422 188.221 361.268C188.221 362.12 187.687 362.822 186.745 362.822ZM186.751 362.348C187.327 362.348 187.597 361.862 187.597 361.268C187.597 360.68 187.327 360.188 186.751 360.188C186.169 360.188 185.899 360.674 185.899 361.268C185.899 361.868 186.169 362.348 186.751 362.348ZM190.119 362.822C189.249 362.822 188.661 362.192 188.661 361.262C188.661 360.35 189.249 359.714 190.125 359.714C190.893 359.714 191.319 360.164 191.475 360.722L190.875 360.866C190.797 360.494 190.569 360.188 190.125 360.188C189.651 360.188 189.285 360.566 189.285 361.262C189.285 361.97 189.639 362.348 190.137 362.348C190.551 362.348 190.809 362.09 190.905 361.67L191.499 361.814C191.319 362.372 190.905 362.822 190.119 362.822ZM192.922 362.822C192.388 362.822 191.908 362.498 191.908 361.946C191.908 361.406 192.286 361.16 192.928 361.034L193.336 360.95C193.654 360.884 193.804 360.818 193.804 360.572C193.804 360.326 193.6 360.152 193.24 360.152C192.85 360.152 192.598 360.392 192.574 360.788L191.962 360.734C192.004 360.098 192.514 359.714 193.246 359.714C194.002 359.714 194.404 360.08 194.404 360.704V362.75H193.834V362.402H193.828C193.69 362.63 193.384 362.822 192.922 362.822ZM193.078 362.396C193.498 362.396 193.828 362.12 193.828 361.628V361.268C193.204 361.37 192.91 361.454 192.73 361.568C192.592 361.652 192.514 361.772 192.514 361.934C192.514 362.21 192.742 362.396 193.078 362.396ZM196.148 362.78C195.77 362.78 195.518 362.63 195.428 362.33C195.392 362.24 195.38 362.144 195.38 362.018V360.272H194.858V359.786H195.38V358.85H195.974V359.786H196.586V360.272H195.974V361.934C195.974 362.192 196.094 362.282 196.328 362.282C196.448 362.282 196.514 362.276 196.61 362.258V362.738C196.46 362.762 196.328 362.78 196.148 362.78ZM198.392 362.822C197.6 362.822 196.97 362.288 196.97 361.274C196.97 360.296 197.612 359.714 198.41 359.714C199.202 359.714 199.772 360.314 199.772 361.22V361.406H197.57C197.6 362.078 197.966 362.36 198.398 362.36C198.806 362.36 199.058 362.156 199.154 361.772L199.754 361.85C199.604 362.348 199.214 362.822 198.392 362.822ZM197.576 360.95H199.148C199.13 360.53 198.836 360.17 198.41 360.17C197.972 360.17 197.636 360.482 197.576 360.95Z"></path>
<path fill="white" d="M216.49 362.75V359.954H215.488V359.516H215.554C216.202 359.516 216.586 359.342 216.586 358.664V358.622H217.102V362.75H216.49ZM219.465 362.822C218.433 362.822 217.929 361.868 217.929 360.692C217.929 359.462 218.433 358.562 219.465 358.562C220.491 358.562 220.995 359.462 220.995 360.692C220.995 361.922 220.491 362.822 219.465 362.822ZM219.465 362.324C220.107 362.324 220.353 361.646 220.353 360.692C220.353 359.744 220.107 359.066 219.465 359.066C218.823 359.066 218.577 359.744 218.577 360.692C218.577 361.646 218.823 362.324 219.465 362.324ZM223.15 362.822C222.118 362.822 221.614 361.868 221.614 360.692C221.614 359.462 222.118 358.562 223.15 358.562C224.176 358.562 224.68 359.462 224.68 360.692C224.68 361.922 224.176 362.822 223.15 362.822ZM223.15 362.324C223.792 362.324 224.038 361.646 224.038 360.692C224.038 359.744 223.792 359.066 223.15 359.066C222.508 359.066 222.262 359.744 222.262 360.692C222.262 361.646 222.508 362.324 223.15 362.324Z"></path>
<rect stroke-width="0.266664" stroke="#26E986" rx="3.06663" height="6.13326" width="6.13326" y="357.184" x="235.334"></rect>
<g clip-path="url(#clip14_6129_4703)">
<path stroke-linecap="round" stroke-width="0.426662" stroke="white" d="M239.681 359.398L237.989 361.09C237.981 361.098 237.967 361.098 237.959 361.09L237.121 360.252"></path>
</g>
<rect stroke-width="0.266664" stroke="#ED3D3D" rx="3.06663" height="6.13326" width="6.13326" y="357.184" x="245.733"></rect>
<path stroke-linecap="round" stroke-width="0.426662" stroke="white" d="M247.945 359.398L249.652 361.105"></path>
<path stroke-linecap="round" stroke-width="0.426662" stroke="white" d="M249.652 359.398L247.946 361.105"></path>
<path fill="white" d="M136.498 379.25V375.122H137.992C138.862 375.122 139.414 375.512 139.414 376.352C139.414 377.258 138.832 377.63 137.98 377.63H137.116V379.25H136.498ZM137.116 377.102H137.962C138.544 377.102 138.79 376.838 138.79 376.364C138.79 375.884 138.514 375.656 137.926 375.656H137.116V377.102ZM140.072 379.25V375.122H140.696V378.716H142.784V379.25H140.072ZM143.537 379.25V375.656H142.283V375.122H145.415V375.656H144.155V379.25H143.537ZM145.996 379.25V375.122H147.64C148.426 375.122 148.954 375.53 148.954 376.316C148.954 376.928 148.576 377.312 148.018 377.444L149.224 379.25H148.498L147.37 377.498H146.608V379.25H145.996ZM146.608 376.97H147.562C148.048 376.97 148.33 376.736 148.33 376.316C148.33 375.89 148.09 375.65 147.61 375.65H146.608V376.97Z"></path>
<path fill="white" d="M172.572 379.322C171.636 379.322 170.898 378.878 170.79 377.906L171.438 377.822C171.516 378.506 171.966 378.836 172.59 378.836C173.154 378.836 173.592 378.554 173.592 378.11C173.592 377.726 173.352 377.582 172.794 377.462L172.218 377.336C171.504 377.18 170.946 376.904 170.946 376.226C170.946 375.548 171.6 375.05 172.506 375.05C173.442 375.05 174.018 375.53 174.12 376.262L173.466 376.346C173.4 375.836 173.034 375.536 172.488 375.536C171.942 375.536 171.606 375.83 171.606 376.196C171.606 376.514 171.828 376.658 172.404 376.784L172.98 376.91C173.676 377.06 174.252 377.312 174.252 378.026C174.252 378.854 173.466 379.322 172.572 379.322ZM174.855 379.25V376.286H175.449V379.25H174.855ZM174.855 375.824V375.122H175.449V375.824H174.855ZM176.267 379.25V376.286H176.855V376.706H176.861C177.029 376.448 177.359 376.214 177.809 376.214C178.469 376.214 178.859 376.61 178.859 377.33V379.25H178.265V377.588C178.265 377.054 178.145 376.712 177.647 376.712C177.149 376.712 176.861 377.114 176.861 377.594V379.25H176.267ZM180.884 380.432C180.146 380.432 179.63 380.066 179.564 379.424L180.176 379.346C180.218 379.772 180.488 379.982 180.908 379.982C181.34 379.982 181.64 379.748 181.64 379.208V378.626C181.496 378.854 181.22 379.118 180.746 379.118C180.014 379.118 179.48 378.572 179.48 377.666C179.48 376.754 180.014 376.214 180.746 376.214C181.232 376.214 181.508 376.484 181.646 376.712V376.286H182.234V379.232C182.234 380.072 181.64 380.432 180.884 380.432ZM180.872 378.638C181.382 378.638 181.658 378.17 181.658 377.666C181.658 377.162 181.382 376.694 180.872 376.694C180.38 376.694 180.098 377.096 180.098 377.666C180.098 378.236 180.38 378.638 180.872 378.638ZM183.047 379.25V375.122H183.641V379.25H183.047ZM185.701 379.322C184.909 379.322 184.279 378.788 184.279 377.774C184.279 376.796 184.921 376.214 185.719 376.214C186.511 376.214 187.081 376.814 187.081 377.72V377.906H184.879C184.909 378.578 185.275 378.86 185.707 378.86C186.115 378.86 186.367 378.656 186.463 378.272L187.063 378.35C186.913 378.848 186.523 379.322 185.701 379.322ZM184.885 377.45H186.457C186.439 377.03 186.145 376.67 185.719 376.67C185.281 376.67 184.945 376.982 184.885 377.45ZM187.663 378.008V377.504H189.385V378.008H187.663ZM191.786 379.322C190.802 379.322 190.202 378.764 190.202 377.738V375.122H190.826V377.702C190.826 378.368 191.138 378.8 191.786 378.8C192.488 378.8 192.746 378.368 192.746 377.702V375.122H193.37V377.738C193.37 378.764 192.77 379.322 191.786 379.322ZM195.266 379.322C194.528 379.322 193.988 378.98 193.922 378.272L194.51 378.2C194.54 378.668 194.87 378.884 195.278 378.884C195.68 378.884 195.95 378.704 195.95 378.416C195.95 378.128 195.674 378.068 195.302 377.984L194.864 377.882C194.384 377.768 194.054 377.54 194.054 377.084C194.054 376.58 194.552 376.214 195.254 376.214C195.932 376.214 196.394 376.556 196.472 377.108L195.878 377.192C195.836 376.838 195.578 376.652 195.23 376.652C194.876 376.652 194.648 376.826 194.648 377.054C194.648 377.27 194.78 377.348 195.152 377.432L195.59 377.534C196.214 377.678 196.544 377.882 196.544 378.356C196.544 378.95 195.992 379.322 195.266 379.322ZM198.392 379.322C197.6 379.322 196.97 378.788 196.97 377.774C196.97 376.796 197.612 376.214 198.41 376.214C199.202 376.214 199.772 376.814 199.772 377.72V377.906H197.57C197.6 378.578 197.966 378.86 198.398 378.86C198.806 378.86 199.058 378.656 199.154 378.272L199.754 378.35C199.604 378.848 199.214 379.322 198.392 379.322ZM197.576 377.45H199.148C199.13 377.03 198.836 376.67 198.41 376.67C197.972 376.67 197.636 376.982 197.576 377.45Z"></path>
<path fill="white" d="M215.982 379.322C215.124 379.322 214.554 378.83 214.506 378.038L215.112 377.942C215.148 378.518 215.508 378.824 215.994 378.824C216.522 378.824 216.834 378.524 216.834 378.074C216.834 377.648 216.54 377.354 215.964 377.354C215.802 377.354 215.7 377.36 215.586 377.366V376.868C215.682 376.874 215.79 376.874 215.958 376.874C216.438 376.874 216.75 376.616 216.75 376.196C216.75 375.836 216.486 375.56 216.012 375.56C215.514 375.56 215.208 375.878 215.172 376.394L214.572 376.292C214.608 375.548 215.178 375.056 216.024 375.056C216.816 375.056 217.374 375.452 217.374 376.154C217.374 376.694 217.008 376.958 216.672 377.078V377.084C217.14 377.198 217.464 377.54 217.464 378.08C217.464 378.842 216.864 379.322 215.982 379.322ZM219.546 379.322C218.706 379.322 218.082 378.884 218.082 378.092C218.082 377.48 218.502 377.174 218.838 377.054V377.048C218.574 376.952 218.202 376.64 218.202 376.148C218.202 375.476 218.784 375.05 219.546 375.05C220.308 375.05 220.89 375.476 220.89 376.148C220.89 376.64 220.512 376.952 220.248 377.048V377.054C220.584 377.168 221.004 377.48 221.004 378.092C221.004 378.884 220.386 379.322 219.546 379.322ZM219.546 378.812C220.068 378.812 220.386 378.506 220.386 378.056C220.386 377.618 220.026 377.324 219.546 377.324C219.066 377.324 218.706 377.618 218.706 378.056C218.706 378.506 219.024 378.812 219.546 378.812ZM219.546 376.85C219.96 376.85 220.278 376.568 220.278 376.196C220.278 375.818 219.99 375.548 219.546 375.548C219.102 375.548 218.808 375.818 218.808 376.196C218.808 376.568 219.126 376.85 219.546 376.85ZM223.15 379.322C222.118 379.322 221.614 378.368 221.614 377.192C221.614 375.962 222.118 375.062 223.15 375.062C224.176 375.062 224.68 375.962 224.68 377.192C224.68 378.422 224.176 379.322 223.15 379.322ZM223.15 378.824C223.792 378.824 224.038 378.146 224.038 377.192C224.038 376.244 223.792 375.566 223.15 375.566C222.508 375.566 222.262 376.244 222.262 377.192C222.262 378.146 222.508 378.824 223.15 378.824Z"></path>
<rect stroke-width="0.266664" stroke="#26E986" rx="3.06663" height="6.13326" width="6.13326" y="373.684" x="235.334"></rect>
<g clip-path="url(#clip15_6129_4703)">
<path stroke-linecap="round" stroke-width="0.426662" stroke="white" d="M239.681 375.896L237.989 377.588C237.981 377.596 237.967 377.596 237.959 377.588L237.121 376.75"></path>
</g>
<rect stroke-width="0.266664" stroke="#ED3D3D" rx="3.06663" height="6.13326" width="6.13326" y="373.684" x="245.733"></rect>
<path stroke-linecap="round" stroke-width="0.426662" stroke="white" d="M247.945 375.896L249.652 377.603"></path>
<path stroke-linecap="round" stroke-width="0.426662" stroke="white" d="M249.652 375.896L247.946 377.603"></path>
</g>
</g>
<rect stroke-opacity="0.1" stroke="white" rx="7.5" height="99" width="139" y="297.5" x="124.5"></rect>
<rect fill="url(#paint10_linear_6129_4703)" height="604" width="385" y="-30" x="-18"></rect>
</g>
<defs>
<linearGradient gradientUnits="userSpaceOnUse" y2="322" x2="100" y1="222" x1="100" id="paint0_linear_6129_4703">
<stop stop-color="#151831"></stop>
<stop stop-color="#24284C" offset="1"></stop>
</linearGradient>
<linearGradient gradientUnits="userSpaceOnUse" y2="310.04" x2="117.792" y1="288.26" x1="117.792" id="paint1_linear_6129_4703">
<stop stop-color="#26E986"></stop>
<stop stop-opacity="0" stop-color="#26E986" offset="1"></stop>
</linearGradient>
<linearGradient gradientUnits="userSpaceOnUse" y2="286" x2="254" y1="186" x1="254" id="paint2_linear_6129_4703">
<stop stop-color="#151831"></stop>
<stop stop-color="#24284C" offset="1"></stop>
</linearGradient>
<linearGradient gradientUnits="userSpaceOnUse" y2="243.979" x2="312" y1="243.979" x1="196" id="paint3_linear_6129_4703">
<stop stop-opacity="0" stop-color="white"></stop>
<stop stop-color="white" offset="0.2"></stop>
<stop stop-color="white" offset="0.5"></stop>
<stop stop-color="white" offset="0.8"></stop>
<stop stop-opacity="0" stop-color="white" offset="1"></stop>
</linearGradient>
<linearGradient gradientUnits="userSpaceOnUse" y2="462" x2="94" y1="362" x1="94" id="paint4_linear_6129_4703">
<stop stop-color="#151831"></stop>
<stop stop-color="#24284C" offset="1"></stop>
</linearGradient>
<linearGradient gradientUnits="userSpaceOnUse" y2="414.007" x2="62.5098" y1="406.389" x1="62.5098" id="paint5_linear_6129_4703">
<stop stop-color="#26E986"></stop>
<stop stop-opacity="0" stop-color="#26E986" offset="1"></stop>
</linearGradient>
<linearGradient gradientUnits="userSpaceOnUse" y2="430.948" x2="43.0644" y1="423.33" x1="43.0644" id="paint6_linear_6129_4703">
<stop stop-color="#26E986"></stop>
<stop stop-opacity="0" stop-color="#26E986" offset="1"></stop>
</linearGradient>
<linearGradient gradientUnits="userSpaceOnUse" y2="447.392" x2="62.5098" y1="439.774" x1="62.5098" id="paint7_linear_6129_4703">
<stop stop-color="#ED3D3D"></stop>
<stop stop-opacity="0" stop-color="#ED3D3D" offset="1"></stop>
</linearGradient>
<linearGradient gradientUnits="userSpaceOnUse" y2="513" x2="256" y1="413" x1="256" id="paint8_linear_6129_4703">
<stop stop-color="#151831"></stop>
<stop stop-color="#24284C" offset="1"></stop>
</linearGradient>
<linearGradient gradientUnits="userSpaceOnUse" y2="397" x2="194" y1="297" x1="194" id="paint9_linear_6129_4703">
<stop stop-color="#151831"></stop>
<stop stop-color="#24284C" offset="1"></stop>
</linearGradient>
<linearGradient gradientUnits="userSpaceOnUse" y2="550" x2="174.5" y1="-10.5" x1="174.5" id="paint10_linear_6129_4703">
<stop stop-color="#13162E"></stop>
<stop stop-opacity="0" stop-color="#13162E" offset="0.5"></stop>
<stop stop-color="#13162E" offset="1"></stop>
</linearGradient>
<clipPath id="clip0_6129_4703">
<rect fill="white" height="544" width="350"></rect>
</clipPath>
<clipPath id="clip1_6129_4703">
<rect fill="white" rx="8" height="100" width="140" y="222" x="30"></rect>
</clipPath>
<clipPath id="clip2_6129_4703">
<rect transform="translate(42 277)" fill="white" height="33" width="116"></rect>
</clipPath>
<clipPath id="clip3_6129_4703">
<rect fill="white" rx="8" height="100" width="140" y="186" x="184"></rect>
</clipPath>
<clipPath id="clip4_6129_4703">
<rect fill="white" rx="8" height="100" width="140" y="362" x="24"></rect>
</clipPath>
<clipPath id="clip5_6129_4703">
<rect transform="translate(36 402.834)" fill="white" height="11" width="34"></rect>
</clipPath>
<clipPath id="clip6_6129_4703">
<rect transform="matrix(-1 0 0 1 70 419)" fill="white" height="12" width="34"></rect>
</clipPath>
<clipPath id="clip7_6129_4703">
<rect transform="translate(36 435.668)" fill="white" height="12" width="34"></rect>
</clipPath>
<clipPath id="clip8_6129_4703">
<rect fill="white" rx="8" height="100" width="140" y="413" x="186"></rect>
</clipPath>
<clipPath id="clip9_6129_4703">
<rect transform="translate(198 451)" fill="white" height="11.2629" width="116"></rect>
</clipPath>
<clipPath id="clip10_6129_4703">
<rect transform="translate(198 463.912)" fill="white" height="11.2629" width="116"></rect>
</clipPath>
<clipPath id="clip11_6129_4703">
<rect transform="translate(198 476.824)" fill="white" height="11.2629" width="116"></rect>
</clipPath>
<clipPath id="clip12_6129_4703">
<rect transform="translate(198 489.736)" fill="white" height="11.2629" width="116"></rect>
</clipPath>
<clipPath id="clip13_6129_4703">
<rect fill="white" rx="8" height="100" width="140" y="297" x="124"></rect>
</clipPath>
<clipPath id="clip14_6129_4703">
<rect fill="white" rx="0.853324" height="4.26662" width="4.26662" y="358.117" x="236.267"></rect>
</clipPath>
<clipPath id="clip15_6129_4703">
<rect fill="white" rx="0.853324" height="4.26662" width="4.26662" y="374.617" x="236.267"></rect>
</clipPath>
</defs>
</svg>
