<svg style="fill-rule:evenodd;clip-rule:evenodd;stroke-linejoin:round;stroke-miterlimit:2;" xml:space="preserve" xmlns:xlink="http://www.w3.org/1999/xlink" xmlns="http://www.w3.org/2000/svg" version="1.1" viewBox="0 0 601 192" height="100%" width="100%">
    <g transform="matrix(1,0,0,1,-25.9494,-225.901)">
        <g transform="matrix(1,0,0,1,5.75064,0)">
            <g>
                <path style="fill:rgb(0,89,132);fill-rule:nonzero;" d="M265.6,291.6C272,291.6 275.8,289.1 275.8,284.3L275.8,284.1C275.8,279.6 272.2,277 264.9,277L250.2,277L250.2,291.5M262.9,269.2C268.9,269.2 272.9,266.9 272.9,262L272.9,261.9C272.9,257.7 269.6,255.2 263.6,255.2L250.2,255.2L250.2,269.3L262.9,269.3L262.9,269.2ZM241,246.9L264.7,246.9C270.7,246.9 275.5,248.6 278.5,251.6C280.8,253.9 282,256.8 282,260.4L282,260.5C282,266.8 278.4,270.3 274.4,272.3C280.6,274.4 284.9,278 284.9,285.2L284.9,285.4C284.9,294.8 277.1,299.9 265.3,299.9L241,299.9L241,246.9Z"></path>
                <path style="fill:rgb(0,89,132);fill-rule:nonzero;" d="M324.8,278.8L315.7,257.6L306.6,278.8M311.5,246.6L320.1,246.6L343.4,299.9L333.6,299.9L328.2,287.1L303.2,287.1L297.8,299.9L288.3,299.9L311.5,246.6Z"></path>
                <path style="fill:rgb(0,89,132);fill-rule:nonzero;" d="M349.6,246.9L358.9,246.9L358.9,268.9L384.1,268.9L384.1,246.9L393.4,246.9L393.4,299.9L384.1,299.9L384.1,277.6L358.9,277.6L358.9,299.9L349.6,299.9"></path>
                <path style="fill:rgb(0,89,132);fill-rule:nonzero;" d="M436.2,278.8L427.1,257.6L418,278.8M422.9,246.6L431.5,246.6L454.8,299.9L445,299.9L439.6,287.1L414.6,287.1L409.2,299.9L399.7,299.9L422.9,246.6Z"></path>
                <path style="fill:rgb(0,89,132);fill-rule:nonzero;" d="M461.8,246.9L471.7,246.9L487.8,272L503.9,246.9L513.8,246.9L513.8,299.9L504.5,299.9L504.5,261.9L487.8,286.9L487.5,286.9L470.9,262.1L470.9,299.9L461.8,299.9"></path>
                <path style="fill:rgb(0,89,132);fill-rule:nonzero;" d="M557.3,278.8L548.2,257.6L539.1,278.8M544,246.6L552.6,246.6L575.9,299.9L566.1,299.9L560.7,287.1L535.7,287.1L530.3,299.9L520.8,299.9L544,246.6Z"></path>
                <path style="fill:rgb(0,89,132);fill-rule:nonzero;" d="M579.3,292.1L584.9,285.4C590,289.8 595,292.3 601.6,292.3C607.3,292.3 611,289.7 611,285.6L611,285.4C611,281.6 608.9,279.6 599.1,277.3C587.8,274.6 581.5,271.3 581.5,261.5L581.5,261.4C581.5,252.3 589.1,246.1 599.6,246.1C607.3,246.1 613.4,248.4 618.8,252.8L613.8,259.8C609,256.2 604.3,254.4 599.4,254.4C594,254.4 590.8,257.2 590.8,260.7L590.8,260.9C590.8,265 593.2,266.8 603.3,269.2C614.5,271.9 620.3,275.9 620.3,284.7L620.3,284.8C620.3,294.7 612.5,300.6 601.4,300.6C593.3,300.6 585.7,297.8 579.3,292.1"></path>
                <path style="fill:rgb(0,89,132);fill-rule:nonzero;" d="M240.7,310.8L278.2,310.8L278.2,318.8L249.5,318.8L249.5,332.6L274.9,332.6L274.9,340.6L249.5,340.6L249.5,361.1L240.7,361.1"></path>
                <path style="fill:rgb(0,89,132);fill-rule:nonzero;" d="M285.6,310.8L294.5,310.8L294.5,361.1L285.6,361.1"></path>
                <path style="fill:rgb(0,89,132);fill-rule:nonzero;" d="M302.7,310.8L310.9,310.8L337.9,345.6L337.9,310.8L346.6,310.8L346.6,361.1L339.2,361.1L311.4,325.3L311.4,361.1L302.7,361.1"></path>
                <path style="fill:rgb(0,89,132);fill-rule:nonzero;" d="M386.1,341.1L377.4,321L368.8,341.1M373.5,310.4L381.7,310.4L403.9,361.1L394.5,361.1L389.4,348.9L365.6,348.9L360.4,361.1L351.3,361.1L373.5,310.4Z"></path>
                <path style="fill:rgb(0,89,132);fill-rule:nonzero;" d="M408.9,310.8L417.1,310.8L444.1,345.6L444.1,310.8L452.8,310.8L452.8,361.1L445.4,361.1L417.6,325.3L417.6,361.1L408.9,361.1"></path>
                <path style="fill:rgb(0,89,132);fill-rule:nonzero;" d="M458.8,336.1L458.8,336C458.8,321.7 469.5,310 484.8,310C494.1,310 499.7,313.2 504.5,317.8L498.8,324.3C494.8,320.6 490.5,318 484.7,318C475.1,318 468.1,325.9 468.1,335.8L468.1,335.9C468.1,345.8 475.1,353.8 484.7,353.8C490.9,353.8 494.8,351.3 499.1,347.3L504.8,353.1C499.6,358.6 493.8,362 484.4,362C469.7,362 458.8,350.5 458.8,336.1"></path>
                <path style="fill:rgb(0,89,132);fill-rule:nonzero;" d="M511.7,310.8L520.5,310.8L520.5,361.1L511.7,361.1"></path>
                <path style="fill:rgb(0,89,132);fill-rule:nonzero;" d="M559.9,341.1L551.2,321L542.6,341.1M547.3,310.4L555.5,310.4L577.7,361.1L568.3,361.1L563.2,348.9L539.4,348.9L534.2,361.1L525.1,361.1L547.3,310.4Z"></path>
                <path style="fill:rgb(0,89,132);fill-rule:nonzero;" d="M582.3,310.8L591.2,310.8L591.2,353.1L617.6,353.1L617.6,361.1L582.3,361.1"></path>
                <path style="fill:rgb(0,89,132);fill-rule:nonzero;" d="M237.8,397.1L241.8,392.4C244.5,394.7 247.4,396.1 250.9,396.1C253.6,396.1 255.3,395 255.3,393.2L255.3,393.1C255.3,391.4 254.3,390.5 249.2,389.2C243.1,387.6 239.1,385.9 239.1,379.9L239.1,379.8C239.1,374.3 243.5,370.6 249.8,370.6C254.2,370.6 258,372 261.1,374.5L257.6,379.6C254.9,377.7 252.2,376.6 249.7,376.6C247.1,376.6 245.8,377.8 245.8,379.3L245.8,379.4C245.8,381.4 247.1,382.1 252.4,383.4C258.6,385 262.1,387.2 262.1,392.5L262.1,392.6C262.1,398.6 257.5,402 250.9,402C246.1,402 241.5,400.3 237.8,397.1"></path>
                <path style="fill:rgb(0,89,132);fill-rule:nonzero;" d="M265.6,371L288.5,371L288.5,377L272.2,377L272.2,383.2L286.6,383.2L286.6,389.2L272.2,389.2L272.2,395.6L288.8,395.6L288.8,401.5L265.6,401.5"></path>
                <path style="fill:rgb(0,89,132);fill-rule:nonzero;" d="M307.1,385.8C310.4,385.8 312.2,384.1 312.2,381.5L312.2,381.4C312.2,378.5 310.2,377.1 306.9,377.1L300.2,377.1L300.2,385.8M293.6,371L307.5,371C311.4,371 314.4,372.1 316.4,374.1C318.1,375.8 319,378.2 319,381.1L319,381.2C319,386.1 316.3,389.2 312.5,390.6L319.9,401.5L312.1,401.5L305.6,391.8L300.3,391.8L300.3,401.5L293.6,401.5L293.6,371Z"></path>
                <path style="fill:rgb(0,89,132);fill-rule:nonzero;" d="M319.6,371L327,371L335,392.5L343,371L350.2,371L337.9,401.7L332,401.7"></path>
                <path style="fill:rgb(0,89,132);fill-rule:nonzero;" d="M352.8,371L359.5,371L359.5,401.5L352.8,401.5"></path>
                <path style="fill:rgb(0,89,132);fill-rule:nonzero;" d="M363.4,386.4C363.4,377.7 369.9,370.6 379.3,370.6C385,370.6 388.5,372.5 391.3,375.3L387,380.2C384.7,378.1 382.3,376.8 379.2,376.8C374.1,376.8 370.4,381.1 370.4,386.3L370.4,386.4C370.4,391.6 374,396 379.2,396C382.7,396 384.8,394.6 387.2,392.4L391.5,396.7C388.4,400.1 384.9,402.1 379,402.1C370,402 363.4,395.1 363.4,386.4"></path>
                <path style="fill:rgb(0,89,132);fill-rule:nonzero;" d="M395.4,371L418.4,371L418.4,377L402,377L402,383.2L416.4,383.2L416.4,389.2L402,389.2L402,395.6L418.6,395.6L418.6,401.5L395.4,401.5"></path>
                <path style="fill:rgb(0,89,132);fill-rule:nonzero;" d="M421.4,397.1L425.4,392.4C428.1,394.7 431,396.1 434.5,396.1C437.2,396.1 438.9,395 438.9,393.2L438.9,393.1C438.9,391.4 437.9,390.5 432.8,389.2C426.7,387.6 422.7,385.9 422.7,379.9L422.7,379.8C422.7,374.3 427.1,370.6 433.4,370.6C437.8,370.6 441.6,372 444.7,374.5L441.2,379.6C438.5,377.7 435.8,376.6 433.3,376.6C430.7,376.6 429.4,377.8 429.4,379.3L429.4,379.4C429.4,381.4 430.7,382.1 436,383.4C442.2,385 445.7,387.2 445.7,392.5L445.7,392.6C445.7,398.6 441.1,402 434.5,402C429.7,402 425,400.3 421.4,397.1"></path>
                <path style="fill:rgb(0,89,132);fill-rule:nonzero;" d="M480.9,395.6C483.9,395.6 485.6,394.6 485.6,392.3L485.6,392.2C485.6,390.2 484.1,388.9 480.6,388.9L472.8,388.9L472.8,395.6M479.1,383.4C482.1,383.4 483.9,382.4 483.9,380.2L483.9,380.1C483.9,378.1 482.3,377 479.5,377L472.9,377L472.9,383.4L479.1,383.4ZM466.4,371L480.5,371C484,371 486.7,372 488.5,373.7C489.9,375.1 490.6,376.8 490.6,378.9L490.6,379C490.6,382.4 488.8,384.4 486.6,385.6C490.1,387 492.3,389 492.3,393.1L492.3,393.2C492.3,398.8 487.8,401.6 480.9,401.6L466.4,401.6L466.4,371Z"></path>
                <path style="fill:rgb(0,89,132);fill-rule:nonzero;" d="M520,386.4C520,381.1 516.2,376.7 510.8,376.7C505.4,376.7 501.7,381 501.7,386.2L501.7,386.3C501.7,391.5 505.5,395.9 510.9,395.9C516.3,395.9 520,391.6 520,386.4M494.7,386.4C494.7,377.7 501.5,370.6 510.9,370.6C520.3,370.6 527,377.6 527,386.3L527,386.4C527,395.1 520.2,402.2 510.8,402.2C501.4,402 494.7,395 494.7,386.4"></path>
                <path style="fill:rgb(0,89,132);fill-rule:nonzero;" d="M546.8,388.8L542.8,378.9L538.8,388.8M539.8,370.8L546,370.8L559.1,401.5L552.1,401.5L549.3,394.7L536.4,394.7L533.6,401.5L526.8,401.5L539.8,370.8Z"></path>
                <path style="fill:rgb(0,89,132);fill-rule:nonzero;" d="M575.2,385.8C578.5,385.8 580.3,384.1 580.3,381.5L580.3,381.4C580.3,378.5 578.3,377.1 575,377.1L568.3,377.1L568.3,385.8M561.7,371L575.6,371C579.5,371 582.5,372.1 584.5,374.1C586.2,375.8 587.1,378.2 587.1,381.1L587.1,381.2C587.1,386.1 584.5,389.2 580.6,390.6L588,401.5L580.2,401.5L573.7,391.8L568.4,391.8L568.4,401.5L561.7,401.5L561.7,371Z"></path>
                <path style="fill:rgb(0,89,132);fill-rule:nonzero;" d="M603.6,395.5C609.1,395.5 612.8,391.8 612.8,386.4L612.8,386.3C612.8,380.9 609.1,377.1 603.6,377.1L598.4,377.1L598.4,395.5M591.7,371L603.6,371C613.2,371 619.8,377.6 619.8,386.2L619.8,386.3C619.8,394.9 613.2,401.5 603.6,401.5L591.7,401.5L591.7,371Z"></path>
                <path style="fill:rgb(0,89,132);fill-rule:nonzero;" d="M190.7,373.7C190.7,373.7 147.4,341 138.7,335.7C122.5,326.6 117.4,342.7 114.2,352C108,368 96.7,403.2 95.8,406.3C95.3,408 94.5,409.9 92.2,409.3C89.6,408.5 90.1,407 91,401.8C93.6,388 102.4,342.3 102.4,342.3C104.4,332.2 106.6,321.1 93,321.7C78.3,322.6 43.4,323.9 42.2,324C40.9,324.1 39.3,323.8 39.2,324.9C39.2,325.3 39.3,325.6 40.2,325.8C40.2,325.8 59.9,330.4 62,330.9C63.1,331.2 65.3,332 65.1,333.5C64.9,335 62.8,336.1 54.3,335C37.6,332.9 23.4,329.8 23,324.6C22.8,321 26.6,317.6 26.6,317.6C25.9,317.9 20.1,320.6 20.2,325.4C20.3,334.4 48.3,338.9 62.7,342.1C77.1,345.3 81.9,347.8 84.9,354.2C86.8,357.8 87.3,370.7 87.3,382.6C67.3,379.5 51.3,370.7 39,360.6C50.7,372.7 67,382.2 87.3,386.3C87.3,392.4 87.1,397.9 87,401.5C86.5,412.7 87.9,415.7 94.3,417.1C99.1,418.1 102.8,414.1 105.7,409.3C105.7,409.3 112.1,399.1 118.8,388.4C123,388.1 127.4,387.6 131.9,387C139.4,385.6 154.9,381.2 170.8,372.7L161.7,368.5C151.8,373.8 141.1,378 130.5,380.5C127.9,381.1 125.3,381.6 122.8,382.1C127.3,374.9 131.3,368.3 133.2,365.2C138.5,356.2 151.1,363.8 151.1,363.8C151.1,363.8 145.4,358.1 144.9,355.3C144.6,353 147.7,353.4 152.5,356C157.6,358.8 190.4,377.7 190.4,377.7C192.2,378.6 193.1,378.5 193.6,377.8C194.1,376.9 193.1,375.4 190.7,373.7M103.7,242C106.7,250.3 116.2,272.1 118.8,278C121.1,283.3 123.4,290.7 136,285.1C150.7,278.6 159.7,274.2 159.7,274.2C159.7,274.2 142.3,278.1 134.6,272.9C129.6,269.6 124.2,262.3 120,255.6C142,255 162,258.3 177.3,265.4L184.4,261.9C164.5,253.7 139.5,253.3 119.8,255.3C117.6,251.8 115.7,248.5 114.4,245.9C110.5,238.4 102.1,224.6 92,226C92.1,226 99.2,229.6 103.7,242M88.6,307.7C103.6,305.2 104.9,298.8 103.7,291.2C103.7,291.2 95.5,245.8 94,239.8C92.4,233.6 91.1,233.6 89.2,233.8C87.9,233.9 87.1,235.5 87.1,239.5C87.1,239.5 87.5,280.6 87.5,286.6C87.5,292.6 86.1,296.7 78.8,299.3L50.8,309.2C61.5,310 77.4,309.6 88.6,307.7M193.7,357C207.9,344.4 219.3,326.7 217.8,304.8C216.1,290.4 210.1,279.8 201.5,272.2C203.8,269.1 205.5,266.6 206.2,265.4C209.6,259.4 202.8,255.8 202.8,255.8C202.8,255.8 204.6,260.1 200.1,264C195.5,267.9 161.3,290.5 154.9,293.3C148.2,297.3 139.9,300.8 139.6,308.5C139.3,315.8 145.3,320.3 150.7,325.3C155.9,330.2 199.1,365.6 200.8,377.9C202.9,374.9 202.9,371.7 200.6,368.3C200.5,368.4 197.6,363.6 193.7,357M173,321.5C170.7,316.9 171.6,310.7 174.6,307.1C174.6,307.1 187.1,291.3 196.4,279C202.3,285.4 206.3,293.2 207.9,302.3C210.7,318.8 202.6,335.2 188.9,348.8C182,337.2 174.3,324.2 173,321.5"></path>
            </g>
        </g>
    </g>
</svg>
