<svg xmlns="http://www.w3.org/2000/svg" fill="none" viewBox="0 0 515 626" height="626" width="515">
<g clip-path="url(#clip0_6129_5060)">
<rect fill="#224944" height="626" width="515"></rect>
<rect fill="#1C231C" height="73" width="105" y="553" x="205"></rect>
<path fill-opacity="0.5" fill="url(#paint0_linear_6129_5060)" d="M81 92.63C81 79.5795 91.5795 69 104.63 69H260V352H81V92.63Z"></path>
<path fill-opacity="0.5" fill="url(#paint1_linear_6129_5060)" d="M268 233.63C268 220.58 278.58 210 291.63 210H447V493H268V233.63Z"></path>
<path fill-opacity="0.5" fill="url(#paint2_linear_6129_5060)" d="M306 130.63C306 117.58 316.58 107 329.63 107H469V390H306V130.63Z"></path>
<path fill-opacity="0.5" fill="url(#paint3_linear_6129_5060)" d="M46 205.63C46 192.58 56.5795 182 69.63 182H161V465H46V205.63Z"></path>
<rect fill="#1C231C" rx="8" height="243.66" width="386.057" y="319" x="65"></rect>
<rect fill="#394339" rx="3.16438" height="82.274" width="101.26" y="325.33" x="71.3301"></rect>
<path stroke-width="3.16438" stroke="#637363" d="M87.1504 341.152H116.421"></path>
<path stroke-width="3.16438" stroke="#637363" d="M87.1504 353.811H116.421"></path>
<path stroke-width="3.16438" stroke="#637363" d="M87.1504 366.467H116.421"></path>
<path stroke-width="3.16438" stroke="#637363" d="M87.1504 379.125H116.421"></path>
<path stroke-width="3.16438" stroke="#637363" d="M87.1504 391.783H116.421"></path>
<path stroke-width="3.16438" stroke="#637363" d="M128.289 341.152H157.559"></path>
<path stroke-width="3.16438" stroke="#637363" d="M128.289 353.811H157.559"></path>
<path stroke-width="3.16438" stroke="#637363" d="M128.289 366.467H157.559"></path>
<path stroke-width="3.16438" stroke="#637363" d="M128.289 379.125H157.559"></path>
<path stroke-width="3.16438" stroke="#637363" d="M128.289 391.783H157.559"></path>
<g clip-path="url(#clip1_6129_5060)">
<rect fill="#394339" rx="3.16438" height="142.397" width="101.26" y="413.934" x="71.3301"></rect>
<path stroke-width="3.16438" stroke="#F2F9E6" d="M90.3154 413.934V556.331"></path>
<path stroke-width="3.16438" stroke="#F2F9E6" d="M110.884 413.934V556.331"></path>
<path stroke-width="3.16438" stroke="#F2F9E6" d="M131.453 413.934V556.331"></path>
<path stroke-width="3.16438" stroke="#F2F9E6" d="M152.021 413.934V556.331"></path>
</g>
<g clip-path="url(#clip2_6129_5060)">
<rect fill="#394339" rx="3.16438" height="126.575" width="158.219" y="325.33" x="178.919"></rect>
<path stroke-width="3.16438" stroke="#F2F9E6" d="M177.336 414.061L194.736 396.468L199.956 401.746L219.966 381.513L241.715 403.505L253.895 391.19L259.115 396.468L289.13 366.119L298.265 375.356L311.75 361.721L325.235 375.356L338.719 361.721"></path>
</g>
<g clip-path="url(#clip3_6129_5060)">
<rect fill="#394339" rx="3.16438" height="98.0959" width="158.219" y="458.234" x="178.919"></rect>
<path stroke-width="3.16438" stroke="#637363" d="M240.624 458.234V556.33"></path>
<path stroke-width="3.16438" stroke="#637363" d="M274.641 458.234V556.33"></path>
<path stroke-width="3.16438" stroke="#637363" d="M178.919 478.803L337.138 478.803"></path>
<path stroke-width="3.16438" stroke="#637363" d="M178.919 497.789L337.138 497.789"></path>
<path stroke-width="3.16438" stroke="#637363" d="M178.919 516.775L337.138 516.775"></path>
<path stroke-width="3.16438" stroke="#637363" d="M178.919 535.762L337.138 535.762"></path>
</g>
<g clip-path="url(#clip4_6129_5060)">
<rect fill="#394339" transform="matrix(1 0 0 -1 343.467 556.33)" rx="3.16438" height="82.274" width="101.26"></rect>
<path stroke-width="3.16438" stroke="#637363" d="M343.466 543.672H444.727"></path>
<path stroke-width="3.16438" stroke="#F2F9E6" d="M343.466 524.686H444.727"></path>
<path stroke-width="3.16438" stroke="#637363" d="M343.466 505.699H444.727"></path>
<path stroke-width="3.16438" stroke="#F2F9E6" d="M343.466 486.713H444.727"></path>
</g>
<rect fill="#394339" transform="matrix(1 0 0 -1 343.467 467.727)" rx="3.16438" height="142.397" width="101.26"></rect>
<path stroke-width="3.16438" stroke="#F2F9E6" d="M381.439 341.15C384.061 341.151 386.186 343.276 386.186 345.897V369.63H362.453C359.832 369.63 357.706 367.505 357.706 364.884V341.15H381.439Z"></path>
<path stroke-width="3.16438" stroke="#F2F9E6" d="M425.741 341.15C428.362 341.151 430.487 343.276 430.487 345.897V369.63H406.754C404.133 369.63 402.008 367.505 402.007 364.884V341.15H425.741Z"></path>
<path stroke-width="3.16438" stroke="#F2F9E6" d="M381.439 382.287C384.061 382.287 386.186 384.413 386.186 387.034V410.767H362.453C359.832 410.767 357.706 408.642 357.706 406.021V382.287H381.439Z"></path>
<path stroke-width="3.16438" stroke="#F2F9E6" d="M425.741 382.287C428.362 382.287 430.487 384.413 430.487 387.034V410.767H406.754C404.133 410.767 402.008 408.642 402.007 406.021V382.287H425.741Z"></path>
<path stroke-width="3.16438" stroke="#F2F9E6" d="M381.439 423.424C384.061 423.424 386.186 425.55 386.186 428.171V451.903H362.453C359.832 451.903 357.706 449.779 357.706 447.157V423.424H381.439Z"></path>
<path stroke-width="3.16438" stroke="#F2F9E6" d="M425.741 423.424C428.362 423.424 430.487 425.55 430.487 428.171V451.903H406.754C404.133 451.903 402.008 449.779 402.007 447.157V423.424H425.741Z"></path>
<path fill="#F2F9E6" d="M46 205.627C46 192.578 56.578 182 69.6267 182H161V219.373C161 232.422 150.422 243 137.373 243H46V205.627Z"></path>
<path fill="#224944" d="M90.7017 214.281V207.873C90.7017 205.095 88.6036 203.875 86.619 203.875C84.6344 203.875 82.5363 205.095 82.5363 207.873V214.281C82.5363 217.059 84.6344 218.278 86.619 218.278C88.6036 218.278 90.7017 217.059 90.7017 214.281ZM79.5027 214.281V207.873C79.5027 203.592 82.3662 200.87 86.619 200.87C90.8718 200.87 93.7354 203.592 93.7354 207.873V214.281C93.7354 218.562 90.8718 221.284 86.619 221.284C82.3662 221.284 79.5027 218.562 79.5027 214.281ZM110.418 204.159H104.832V221H101.799V204.159H96.2133V201.154H110.418V204.159ZM124.151 214.848H127.185C126.93 218.789 124.151 221.284 120.097 221.284C115.844 221.284 112.981 218.562 112.981 214.281V207.873C112.981 203.592 115.844 200.87 120.097 200.87C124.151 200.87 126.958 203.337 127.185 207.306H124.151C123.896 204.924 121.94 203.875 120.097 203.875C118.112 203.875 116.014 205.095 116.014 207.873V214.281C116.014 217.059 118.112 218.278 120.097 218.278C121.94 218.278 123.896 217.229 124.151 214.848Z"></path>
<path fill="#26E986" d="M306 130.627C306 117.578 316.578 107 329.627 107H469V144.373C469 157.422 458.422 168 445.373 168H306V130.627Z"></path>
<path fill="#224944" d="M345.846 147.784C341.281 147.784 338.843 145.033 338.531 141.348H341.621C342.047 143.559 343.578 144.778 345.903 144.778C347.944 144.778 349.248 143.786 349.248 142.255C349.248 140.781 348.426 139.873 346.441 139.391L342.926 138.541C340.317 137.917 338.843 135.819 338.843 132.984C338.843 129.156 341.735 127.37 345.25 127.37C349.248 127.37 351.545 129.638 352.027 132.955H348.794C348.398 131.339 347.207 130.375 345.279 130.375C342.926 130.375 341.933 131.481 341.933 132.984C341.933 134.515 342.869 135.309 344.173 135.621L347.575 136.443C350.722 137.208 352.338 139.108 352.338 142.312C352.338 145.515 349.985 147.784 345.846 147.784ZM362.415 135.677V143.247C362.415 144.325 362.613 144.636 363.776 144.636H368.567V147.5H362.925C360.487 147.5 359.438 146.309 359.438 144.013V135.677H355.27V132.87H359.438V129.553H362.415V132.87H368.567V135.677H362.415ZM382.102 141.659V138.597C382.102 136.386 380.826 135.337 378.984 135.337C377.141 135.337 375.865 136.386 375.865 138.597V141.659C375.865 143.871 377.141 144.92 378.984 144.92C380.826 144.92 382.102 143.871 382.102 141.659ZM372.888 141.716V138.541C372.888 133.721 376.432 132.473 378.984 132.473C381.535 132.473 385.079 133.721 385.079 138.541V141.716C385.079 146.536 381.535 147.784 378.984 147.784C376.432 147.784 372.888 146.536 372.888 141.716ZM398.841 142.51H401.847C401.478 146.678 398.189 147.784 395.779 147.784C393.228 147.784 389.684 146.536 389.684 141.716V138.541C389.684 133.721 393.228 132.473 395.779 132.473C398.189 132.473 401.478 133.579 401.847 137.747H398.813C398.529 136.131 397.367 135.337 395.779 135.337C393.936 135.337 392.661 136.386 392.661 138.597V141.659C392.661 143.871 393.936 144.92 395.779 144.92C397.367 144.92 398.558 144.126 398.841 142.51ZM409.711 127.654V138.824L415.183 132.87H418.784L413.511 138.597L419.578 147.5H416.119L411.526 140.752L409.711 142.737V147.5H406.734V127.654H409.711ZM429.456 147.784C426.082 147.784 423.388 146.167 423.218 142.822H426.28C426.507 144.268 427.896 144.92 429.484 144.92C430.788 144.92 431.894 144.58 431.894 143.389C431.894 142.397 431.015 142.085 430.051 141.858L427.273 141.149C425.345 140.667 423.558 139.59 423.558 136.783C423.558 133.891 425.883 132.473 428.86 132.473C432.007 132.473 434.19 133.891 434.474 137.152H431.355C431.128 135.876 430.023 135.337 428.662 135.337C427.755 135.337 426.564 135.677 426.564 136.84C426.564 137.719 427.414 138.002 428.208 138.201L430.902 138.881C433.567 139.561 434.899 140.696 434.899 143.474C434.871 146.366 432.631 147.784 429.456 147.784Z"></path>
<path fill="#FF5500" d="M81 92.6267C81 79.578 91.578 69 104.627 69H260V106.373C260 119.422 249.422 130 236.373 130H81V92.6267Z"></path>
<path fill="white" d="M114.76 109.5V89.6536H117.794V106.495H126.47V109.5H114.76ZM139.92 103.659V100.597C139.92 98.386 138.644 97.337 136.801 97.337C134.958 97.337 133.683 98.386 133.683 100.597V103.659C133.683 105.871 134.958 106.92 136.801 106.92C138.644 106.92 139.92 105.871 139.92 103.659ZM130.706 103.716V100.541C130.706 95.7209 134.25 94.4734 136.801 94.4734C139.353 94.4734 142.897 95.7209 142.897 100.541V103.716C142.897 108.536 139.353 109.784 136.801 109.784C134.25 109.784 130.706 108.536 130.706 103.716ZM156.659 104.51H159.664C159.296 108.678 156.007 109.784 153.597 109.784C151.045 109.784 147.501 108.536 147.501 103.716V100.541C147.501 95.7209 151.045 94.4734 153.597 94.4734C156.007 94.4734 159.296 95.5792 159.664 99.7469H156.631C156.347 98.1308 155.185 97.337 153.597 97.337C151.754 97.337 150.478 98.386 150.478 100.597V103.659C150.478 105.871 151.754 106.92 153.597 106.92C155.185 106.92 156.375 106.126 156.659 104.51ZM170.052 97.337C168.578 97.337 167.472 98.0174 167.075 99.4067H164.042C164.552 95.5225 167.699 94.4734 170.052 94.4734C172.604 94.4734 176.148 95.7209 176.148 100.541V109.5H173.171V108.111C172.236 109.245 170.733 109.784 168.805 109.784C166.14 109.784 163.815 108.451 163.815 105.446C163.815 103.773 164.552 101.817 166.99 101.051C168.748 100.512 170.676 100.371 173.143 100.201C173.114 99.9454 173.086 99.7186 173.029 99.4917C172.661 98.0458 171.555 97.337 170.052 97.337ZM169.287 106.92C170.988 106.92 173.171 106.381 173.171 103.659V102.837C170.563 103.007 168.578 103.178 167.501 103.83C167.132 104.056 166.792 104.453 166.792 105.19C166.792 106.381 167.699 106.92 169.287 106.92ZM186.962 97.6772V105.247C186.962 106.325 187.16 106.636 188.322 106.636H193.114V109.5H187.472C185.034 109.5 183.985 108.309 183.985 106.013V97.6772H179.817V94.8704H183.985V91.5532H186.962V94.8704H193.114V97.6772H186.962ZM203.559 106.92C205.033 106.92 206.139 106.24 206.536 104.85H209.569C209.059 108.734 205.912 109.784 203.559 109.784C201.007 109.784 197.463 108.536 197.463 103.716V100.541C197.463 95.7209 201.007 94.4734 203.559 94.4734C206.11 94.4734 209.654 95.7209 209.654 100.541V103.178H200.44V103.659C200.44 105.871 201.716 106.92 203.559 106.92ZM203.559 97.337C201.716 97.337 200.44 98.3577 200.44 100.512V100.541H206.677V100.512C206.649 98.386 205.373 97.337 203.559 97.337ZM220.638 109.784C217.264 109.784 214.571 108.167 214.4 104.822H217.462C217.689 106.268 219.079 106.92 220.666 106.92C221.97 106.92 223.076 106.58 223.076 105.389C223.076 104.397 222.197 104.085 221.233 103.858L218.455 103.149C216.527 102.667 214.741 101.59 214.741 98.7829C214.741 95.891 217.066 94.4734 220.043 94.4734C223.19 94.4734 225.373 95.891 225.656 99.1515H222.537C222.311 97.8757 221.205 97.337 219.844 97.337C218.937 97.337 217.746 97.6772 217.746 98.8396C217.746 99.7186 218.597 100.002 219.39 100.201L222.084 100.881C224.749 101.561 226.082 102.696 226.082 105.474C226.053 108.366 223.813 109.784 220.638 109.784Z"></path>
<path fill="#FF5500" d="M268 233.627C268 220.578 278.578 210 291.627 210H447V247.373C447 260.422 436.422 271 423.373 271H268V233.627Z"></path>
<path fill="white" d="M311.202 243.781V237.373C311.202 234.595 309.104 233.375 307.119 233.375C305.134 233.375 303.036 234.595 303.036 237.373V243.781C303.036 246.559 305.134 247.778 307.119 247.778C309.104 247.778 311.202 246.559 311.202 243.781ZM300.003 243.781V237.373C300.003 233.092 302.866 230.37 307.119 230.37C311.372 230.37 314.235 233.092 314.235 237.373V243.781C314.235 248.062 311.372 250.784 307.119 250.784C302.866 250.784 300.003 248.062 300.003 243.781ZM327.033 244.659V241.597C327.033 239.386 325.758 238.365 323.915 238.365C322.072 238.365 320.796 239.386 320.796 241.597V244.659C320.796 246.871 322.072 247.892 323.915 247.892C325.758 247.892 327.033 246.871 327.033 244.659ZM330.01 241.541V244.716C330.01 249.224 326.722 250.784 324.198 250.784C322.667 250.784 321.221 249.961 320.796 249.111V255.717H317.819V235.87H320.796V237.146C321.221 236.296 322.667 235.473 324.198 235.473C326.722 235.473 330.01 237.033 330.01 241.541ZM340.597 238.677V246.247C340.597 247.325 340.795 247.636 341.958 247.636H346.749V250.5H341.107C338.669 250.5 337.62 249.309 337.62 247.013V238.677H333.452V235.87H337.62V232.553H340.597V235.87H346.749V238.677H340.597ZM352.034 238.734V235.87H358.754V247.636H363.914V250.5H350.617V247.636H355.777V238.734H352.034ZM355.351 234.339V230.654H359.037V234.339H355.351ZM376.967 244.659V241.597C376.967 239.386 375.691 238.337 373.848 238.337C372.005 238.337 370.729 239.386 370.729 241.597V244.659C370.729 246.871 372.005 247.92 373.848 247.92C375.691 247.92 376.967 246.871 376.967 244.659ZM367.752 244.716V241.541C367.752 236.721 371.296 235.473 373.848 235.473C376.4 235.473 379.944 236.721 379.944 241.541V244.716C379.944 249.536 376.4 250.784 373.848 250.784C371.296 250.784 367.752 249.536 367.752 244.716ZM387.468 241.597V250.5H384.491V235.87H387.468V237.146C387.894 236.296 389.34 235.473 390.871 235.473C393.394 235.473 396.683 237.033 396.683 241.541V250.5H393.706V241.597C393.706 239.386 392.43 238.365 390.587 238.365C388.744 238.365 387.468 239.386 387.468 241.597ZM407.638 250.784C404.264 250.784 401.571 249.167 401.4 245.822H404.462C404.689 247.268 406.079 247.92 407.666 247.92C408.97 247.92 410.076 247.58 410.076 246.389C410.076 245.397 409.197 245.085 408.233 244.858L405.455 244.149C403.527 243.667 401.741 242.59 401.741 239.783C401.741 236.891 404.066 235.473 407.043 235.473C410.19 235.473 412.373 236.891 412.656 240.152H409.537C409.311 238.876 408.205 238.337 406.844 238.337C405.937 238.337 404.746 238.677 404.746 239.84C404.746 240.719 405.597 241.002 406.39 241.201L409.084 241.881C411.749 242.561 413.082 243.696 413.082 246.474C413.053 249.366 410.813 250.784 407.638 250.784Z"></path>
<path fill="#26E986" d="M103 308.627C103 295.578 113.578 285 126.627 285H234.128V322.803C234.128 335.851 223.55 346.429 210.501 346.429H103V308.627Z"></path>
<path fill="#224944" d="M140.66 308.874V314.204H147.351V317.209H140.66V322.71H149.335V325.715H137.626V305.868H149.335V308.874H140.66ZM166.982 308.874H161.396V325.715H158.363V308.874H152.777V305.868H166.982V308.874ZM174.535 308.874V314.204H181.226V317.209H174.535V325.715H171.501V305.868H183.21V308.874H174.535ZM193.655 325.998C190.281 325.998 187.588 324.382 187.418 321.037H190.48C190.706 322.483 192.096 323.135 193.683 323.135C194.988 323.135 196.093 322.795 196.093 321.604C196.093 320.611 195.214 320.3 194.25 320.073L191.472 319.364C189.544 318.882 187.758 317.805 187.758 314.998C187.758 312.106 190.083 310.688 193.06 310.688C196.207 310.688 198.39 312.106 198.673 315.366H195.555C195.328 314.091 194.222 313.552 192.861 313.552C191.954 313.552 190.763 313.892 190.763 315.054C190.763 315.933 191.614 316.217 192.408 316.415L195.101 317.096C197.766 317.776 199.099 318.91 199.099 321.689C199.07 324.581 196.83 325.998 193.655 325.998Z"></path>
<rect fill="url(#paint4_linear_6129_5060)" height="688" width="584" y="-31" x="-35"></rect>
</g>
<defs>
<linearGradient gradientUnits="userSpaceOnUse" y2="352" x2="170.5" y1="69" x1="170.5" id="paint0_linear_6129_5060">
<stop stop-color="#FF5500"></stop>
<stop stop-color="#224944" offset="1"></stop>
</linearGradient>
<linearGradient gradientUnits="userSpaceOnUse" y2="493" x2="357.5" y1="210" x1="357.5" id="paint1_linear_6129_5060">
<stop stop-color="#FF5500"></stop>
<stop stop-color="#224944" offset="1"></stop>
</linearGradient>
<linearGradient gradientUnits="userSpaceOnUse" y2="390" x2="387.5" y1="107" x1="387.5" id="paint2_linear_6129_5060">
<stop stop-color="#26E986"></stop>
<stop stop-color="#224944" offset="1"></stop>
</linearGradient>
<linearGradient gradientUnits="userSpaceOnUse" y2="465" x2="103.5" y1="182" x1="103.5" id="paint3_linear_6129_5060">
<stop stop-color="#F2F9E6"></stop>
<stop stop-color="#224944" offset="1"></stop>
</linearGradient>
<linearGradient gradientUnits="userSpaceOnUse" y2="629.662" x2="257" y1="-8.78808" x1="257" id="paint4_linear_6129_5060">
<stop stop-opacity="0" stop-color="#26E986"></stop>
<stop stop-opacity="0" stop-color="#26E986" offset="0.685947"></stop>
<stop stop-opacity="0.7" stop-color="#26E986" offset="1"></stop>
</linearGradient>
<clipPath id="clip0_6129_5060">
<rect fill="white" height="626" width="515"></rect>
</clipPath>
<clipPath id="clip1_6129_5060">
<rect fill="white" rx="3.16438" height="142.397" width="101.26" y="413.934" x="71.3301"></rect>
</clipPath>
<clipPath id="clip2_6129_5060">
<rect fill="white" rx="3.16438" height="126.575" width="158.219" y="325.33" x="178.919"></rect>
</clipPath>
<clipPath id="clip3_6129_5060">
<rect fill="white" rx="3.16438" height="98.0959" width="158.219" y="458.234" x="178.919"></rect>
</clipPath>
<clipPath id="clip4_6129_5060">
<rect fill="white" transform="matrix(1 0 0 -1 343.467 556.33)" rx="3.16438" height="82.274" width="101.26"></rect>
</clipPath>
</defs>
</svg>
