<svg xmlns="http://www.w3.org/2000/svg" fill="none" viewBox="0 0 350 544" height="544" width="350">
<g clip-path="url(#clip0_6129_5151)">
<rect fill="#191C37" height="544" width="350"></rect>
<rect fill="url(#paint0_linear_6129_5151)" height="604" width="385" y="-30" x="-18"></rect>
<g clip-path="url(#clip1_6129_5151)">
<path fill="#26E986" d="M302.239 309.035C303.232 309.035 304.174 309.479 304.806 310.245C305.438 311.011 305.696 312.02 305.507 312.995C304.061 320.489 300.957 336.566 299.724 342.954C299.421 344.52 298.05 345.652 296.455 345.652C271.114 345.652 78.4541 345.652 53.1126 345.652C51.5178 345.652 50.1467 344.52 49.8441 342.954C48.6109 336.566 45.5071 320.489 44.0604 312.995C43.872 312.02 44.1293 311.011 44.7617 310.245C45.394 309.479 46.3353 309.035 47.3289 309.035C77.8214 309.035 271.746 309.035 302.239 309.035Z" clip-rule="evenodd" fill-rule="evenodd"></path>
<path fill-opacity="0.2" fill="black" d="M302.239 309.035C303.232 309.035 304.174 309.479 304.806 310.245C305.438 311.011 305.696 312.02 305.507 312.995C304.061 320.489 300.957 336.566 299.724 342.954C299.421 344.52 298.05 345.652 296.455 345.652C271.114 345.652 78.4541 345.652 53.1126 345.652C51.5178 345.652 50.1467 344.52 49.8441 342.954C48.6109 336.566 45.5071 320.489 44.0604 312.995C43.872 312.02 44.1293 311.011 44.7617 310.245C45.394 309.479 46.3353 309.035 47.3289 309.035C77.8214 309.035 271.746 309.035 302.239 309.035Z" clip-rule="evenodd" fill-rule="evenodd"></path>
<path fill="#26E986" d="M302.239 345.65C303.232 345.65 304.174 345.207 304.806 344.441C305.438 343.674 305.696 342.666 305.507 341.691C304.061 334.197 300.957 318.12 299.724 311.731C299.421 310.165 298.05 309.034 296.455 309.034C271.114 309.034 78.4541 309.034 53.1126 309.034C51.5178 309.034 50.1467 310.165 49.8441 311.731C48.6109 318.12 45.5071 334.197 44.0604 341.691C43.872 342.666 44.1293 343.674 44.7617 344.441C45.394 345.207 46.3353 345.65 47.3289 345.65C77.8214 345.65 271.746 345.65 302.239 345.65Z" clip-rule="evenodd" fill-rule="evenodd"></path>
<path fill-opacity="0.2" fill="black" d="M302.239 345.65C303.232 345.65 304.174 345.207 304.806 344.441C305.438 343.674 305.696 342.666 305.507 341.691C304.061 334.197 300.957 318.12 299.724 311.731C299.421 310.165 298.05 309.034 296.455 309.034C271.114 309.034 78.4541 309.034 53.1126 309.034C51.5178 309.034 50.1467 310.165 49.8441 311.731C48.6109 318.12 45.5071 334.197 44.0604 341.691C43.872 342.666 44.1293 343.674 44.7617 344.441C45.394 345.207 46.3353 345.65 47.3289 345.65C77.8214 345.65 271.746 345.65 302.239 345.65Z" clip-rule="evenodd" fill-rule="evenodd"></path>
<path fill="#26E986" d="M71.7558 345.737L59.6455 337.082H73.2936V345.737H71.7558Z"></path>
<path fill-opacity="0.4" fill="black" d="M71.7558 345.737L59.6455 337.082H73.2936V345.737H71.7558Z"></path>
<path fill="#26E986" d="M277.888 345.737L289.999 337.082H276.35V345.737H277.888Z"></path>
<path fill-opacity="0.4" fill="black" d="M277.888 345.737L289.999 337.082H276.35V345.737H277.888Z"></path>
<path stroke-linejoin="round" stroke-linecap="round" stroke-miterlimit="1.5" stroke-width="8.32201" stroke="url(#paint2_linear_6129_5151)" fill="url(#paint1_linear_6129_5151)" d="M164.583 159.005C171.16 156.546 178.404 156.546 184.982 159.004V159.005C202.817 165.673 237.169 178.516 259.656 186.922C271.039 191.178 278.583 202.053 278.583 214.205V329.964C278.583 342.116 271.039 352.991 259.656 357.247C237.169 365.653 202.818 378.495 184.983 385.163C178.405 387.622 171.159 387.622 164.582 385.163C146.747 378.495 112.396 365.653 89.9097 357.247C78.5268 352.991 70.982 342.116 70.9819 329.964V214.205C70.9819 202.053 78.5267 191.178 89.9097 186.922L164.583 159.005Z"></path>
<path stroke-linejoin="round" stroke-linecap="round" stroke-miterlimit="1.5" stroke-width="2.66304" stroke="#26E986" d="M185.973 387.813C178.757 390.511 170.808 390.511 163.591 387.813H163.59L88.9185 359.897C76.4299 355.228 68.152 343.297 68.1519 329.964V214.205C68.1519 201.08 76.1733 189.313 88.3364 184.495L88.9185 184.271C111.405 175.865 145.758 163.022 163.592 156.354L163.591 156.354C170.808 153.656 178.757 153.657 185.973 156.354C203.808 163.022 238.16 175.865 260.647 184.271C273.135 188.941 281.413 200.872 281.413 214.205V329.964C281.412 343.297 273.135 355.228 260.647 359.897C238.16 368.304 203.808 381.146 185.973 387.813Z"></path>
<path fill="white" d="M154.428 190.392V182.627H159.948V184.077H156.089V185.714H159.27V187.165H156.089V188.943H159.925V190.392H154.428ZM166.544 187.515V182.627H168.205V190.392H166.614L162.895 185.317V190.417H161.235V183.61L160.463 182.627H162.942L166.544 187.515ZM151.925 186.397C152.762 186.51 153.422 187.329 153.45 188.291C153.45 189.461 152.679 190.396 151.181 190.396H146.942V183.585L146.194 182.627H151.013C152.51 182.627 153.258 183.585 153.263 184.62C153.263 185.579 152.655 186.257 151.925 186.397ZM148.604 184.086V185.723H150.686C151.248 185.723 151.598 185.395 151.598 184.905C151.598 184.415 151.248 184.086 150.686 184.086H148.604ZM150.755 188.951V188.943C151.363 188.943 151.738 188.614 151.738 188.054C151.738 187.562 151.387 187.165 150.755 187.165H148.604V188.951H150.755ZM192.508 187.515L191.385 186.113H194.94V188.989C194.137 189.899 192.974 190.412 191.76 190.392C189.538 190.392 187.737 188.873 187.737 186.51C187.737 184.147 189.561 182.627 191.76 182.627C193.326 182.627 194.31 183.422 194.871 184.307L193.561 185.036C193.173 184.43 192.503 184.059 191.783 184.054C190.403 184.054 189.421 185.107 189.421 186.533C189.421 187.96 190.403 189.012 191.783 189.012C192.364 189.005 192.926 188.799 193.374 188.428V187.515H192.508ZM185.023 187.515V182.627H186.683V190.392H185.094L181.375 185.317V190.417H179.714V183.61L178.941 182.627H181.421L185.023 187.515ZM200.436 182.627L203.45 190.417H201.579L201.093 189.106H197.742L197.256 190.417H195.384L197.864 183.983L198.004 183.61L197.233 182.627H200.436ZM198.169 187.633H200.601L199.385 184.287L198.169 187.633ZM177.983 182.627V190.417H176.322V182.627H177.983ZM174.989 183.96L171.293 188.943H175.059V190.392H169.14V189.059L172.813 184.077H169.14V182.627H174.989V183.96Z" clip-rule="evenodd" fill-rule="evenodd"></path>
<path fill="white" d="M125.499 216.337V211.177H131.475V219.806C128.998 221.496 125.587 222.4 122.584 222.4C115.996 222.4 111.186 217.998 111.186 211.731C111.186 205.463 115.996 201.061 122.73 201.061C126.753 201.061 129.989 202.461 132.058 204.997L127.657 208.874C126.374 207.387 124.887 206.629 123.08 206.629C120.048 206.629 118.124 208.582 118.124 211.731C118.124 214.792 120.048 216.832 122.992 216.832C123.838 216.832 124.654 216.686 125.499 216.337ZM134.407 221.934V201.528H141.286V216.599H150.498V221.934H134.407ZM162.812 222.4C156.166 222.4 151.297 217.911 151.297 211.731C151.297 205.551 156.166 201.061 162.812 201.061C169.458 201.061 174.327 205.551 174.327 211.731C174.327 217.911 169.458 222.4 162.812 222.4ZM162.812 216.832C165.348 216.832 167.389 214.908 167.389 211.731C167.389 208.553 165.348 206.629 162.812 206.629C160.276 206.629 158.235 208.553 158.235 211.731C158.235 214.908 160.276 216.832 162.812 216.832ZM193.148 211.264C195.539 212.139 196.938 213.888 196.938 216.307C196.938 219.864 193.935 221.934 188.309 221.934H176.824V201.528H187.726C193.352 201.528 195.976 203.773 195.976 206.863C195.976 208.757 195.014 210.331 193.148 211.264ZM186.793 206.338H183.587V209.37H186.793C188.338 209.37 189.038 208.845 189.038 207.854C189.038 206.863 188.338 206.338 186.793 206.338ZM187.726 217.124C189.242 217.124 190 216.57 190 215.52C190 214.471 189.242 213.917 187.726 213.917H183.587V217.124H187.726ZM214.645 221.934L213.275 218.377H205.521L204.151 221.934H197.155L206.075 201.528H212.838L221.758 221.934H214.645ZM207.416 213.422H211.38L209.398 208.291L207.416 213.422ZM222.856 221.934V201.528H229.736V216.599H238.947V221.934H222.856ZM124.917 232.717H115.21V236.215H123.722V241.404H115.21V247.934H108.33V227.528H124.917V232.717ZM127.09 247.934V227.528H133.97V247.934H127.09ZM150.691 227.528H157.396V247.934H151.741L143.987 238.664V247.934H137.282V227.528H142.937L150.691 236.798V227.528ZM165.142 247.934V232.863H159.166V227.528H177.997V232.863H172.021V247.934H165.142ZM186.547 242.745H196.75V247.934H179.784V227.528H196.371V232.717H186.547V235.107H195.176V240.063H186.547V242.745ZM209.951 248.4C203.392 248.4 198.582 243.998 198.582 237.731C198.582 231.463 203.392 227.061 209.951 227.061C213.945 227.061 217.093 228.519 219.105 231.143L214.761 235.02C213.566 233.504 212.138 232.629 210.301 232.629C207.444 232.629 205.52 234.612 205.52 237.731C205.52 240.85 207.444 242.832 210.301 242.832C212.138 242.832 213.566 241.958 214.761 240.442L219.105 244.319C217.093 246.942 213.945 248.4 209.951 248.4ZM234.326 227.528H241.205V247.934H234.326V240.413H227.971V247.934H221.091V227.528H227.971V234.757H234.326V227.528ZM119.321 273.934L117.951 270.377H110.197L108.827 273.934H101.83L110.75 253.528H117.514L126.434 273.934H119.321ZM112.091 265.422H116.056L114.074 260.291L112.091 265.422ZM153.038 253.528H159.567L153.038 273.934H145.662L142.368 263.031L138.899 273.934H131.524L124.994 253.528H132.078L135.635 265.13L139.395 253.528H145.721L149.277 265.276L153.038 253.528ZM175.63 273.934L174.26 270.377H166.506L165.136 273.934H158.14L167.06 253.528H173.823L182.743 273.934H175.63ZM168.401 265.422H172.365L170.383 260.291L168.401 265.422ZM196.055 273.934L192.586 268.803H190.721V273.934H183.841V253.528H193.665C199.349 253.528 202.964 256.501 202.964 261.224C202.964 264.168 201.565 266.383 199.116 267.637L203.401 273.934H196.055ZM196.026 261.224C196.026 259.737 195.122 258.833 193.228 258.833H190.721V263.614H193.228C195.122 263.614 196.026 262.71 196.026 261.224ZM205.562 273.934V253.528H215.619C222.44 253.528 227.134 257.405 227.134 263.731C227.134 270.057 222.44 273.934 215.619 273.934H205.562ZM212.441 268.57H215.327C218.213 268.57 220.196 266.85 220.196 263.731C220.196 260.612 218.213 258.892 215.327 258.892H212.441V268.57ZM237.254 274.4C233.843 274.4 230.403 273.555 228.363 272.301L230.578 267.287C232.502 268.424 235.068 269.153 237.312 269.153C239.265 269.153 239.965 268.745 239.965 268.045C239.965 265.48 228.684 267.55 228.684 259.941C228.684 256.151 231.861 253.061 238.187 253.061C240.927 253.061 243.755 253.645 245.883 254.84L243.813 259.825C241.802 258.804 239.907 258.309 238.128 258.309C236.117 258.309 235.476 258.892 235.476 259.591C235.476 262.04 246.757 259.999 246.757 267.52C246.757 271.252 243.58 274.4 237.254 274.4Z"></path>
<path fill="#26E986" d="M293.405 291.145C295.34 291.145 297.178 291.986 298.443 293.45C299.708 294.914 300.273 296.855 299.992 298.769C298.633 308.03 296.371 323.437 295.155 331.724C294.675 334.993 291.871 337.415 288.568 337.415C255.869 337.415 93.6977 337.415 60.9988 337.415C57.6953 337.415 54.8916 334.993 54.4118 331.724C53.1954 323.437 50.9337 308.03 49.5746 298.769C49.2935 296.855 49.8589 294.914 51.1235 293.45C52.3881 291.986 54.227 291.145 56.1617 291.145H293.405Z" clip-rule="evenodd" fill-rule="evenodd"></path>
<path fill="white" d="M159.178 350.922C159.178 349.194 158.575 348.727 157.615 348.727C156.655 348.727 156.051 349.248 156.051 350.62V352.677H153.199V350.812C153.199 347.74 154.735 345.984 157.697 345.984C160.659 345.984 162.195 347.74 162.195 350.812C162.195 356.846 156.188 359.096 156.188 362.25C156.188 362.387 156.188 362.524 156.216 362.661H161.921V365.404H153.199V363.045C153.199 357.395 159.178 356.462 159.178 350.922ZM166.844 350.62V360.988C166.844 362.36 167.448 362.881 168.408 362.881C169.368 362.881 169.971 362.36 169.971 360.988V350.62C169.971 349.248 169.368 348.727 168.408 348.727C167.448 348.727 166.844 349.248 166.844 350.62ZM163.827 360.796V350.812C163.827 347.74 165.445 345.984 168.408 345.984C171.37 345.984 172.988 347.74 172.988 350.812V360.796C172.988 363.868 171.37 365.624 168.408 365.624C165.445 365.624 163.827 363.868 163.827 360.796ZM180.929 350.922C180.929 349.194 180.325 348.727 179.365 348.727C178.405 348.727 177.802 349.248 177.802 350.62V352.677H174.949V350.812C174.949 347.74 176.485 345.984 179.448 345.984C182.41 345.984 183.946 347.74 183.946 350.812C183.946 356.846 177.939 359.096 177.939 362.25C177.939 362.387 177.939 362.524 177.966 362.661H183.672V365.404H174.949V363.045C174.949 357.395 180.929 356.462 180.929 350.922ZM185.111 361.921V359.178L190.597 346.204H193.889V359.178H195.315V361.921H193.889V365.404H190.926V361.921H185.111ZM187.882 359.178H190.926V351.964L187.882 359.178Z"></path>
<path fill="#1C231C" d="M150.032 296.633H153.385L148.431 311.779H144.666L141.334 301.523L137.893 311.779H134.15L129.173 296.633H132.808L136.227 307.279L139.797 296.633H143.043L146.505 307.365L150.032 296.633ZM154.26 311.779V296.633H157.766V311.779H154.26ZM170.707 296.633H174.169V311.779H171.292L163.74 302.583V311.779H160.278V296.633H163.178L170.707 305.829V296.633ZM187.1 296.633H190.562V311.779H187.684L180.133 302.583V311.779H176.671V296.633H179.57L187.1 305.829V296.633ZM196.547 308.966H204.791V311.779H193.064V296.633H204.51V299.446H196.547V302.735H203.579V305.461H196.547V308.966ZM219.913 311.779H216.148L213.227 307.56H213.054H210.004V311.779H206.498V296.633H213.054C217.101 296.633 219.632 298.732 219.632 302.129C219.632 304.401 218.485 306.067 216.516 306.911L219.913 311.779ZM216.084 302.129C216.084 300.463 215.002 299.489 212.86 299.489H210.004V304.769H212.86C215.002 304.769 216.084 303.774 216.084 302.129Z"></path>
<path fill="#1C231C" d="M155.775 320.076C156.424 320.284 156.84 320.784 156.84 321.516C156.84 322.523 156.041 323.105 154.51 323.105H151.498V317.28H154.344C155.8 317.28 156.549 317.888 156.549 318.795C156.549 319.377 156.249 319.827 155.775 320.076ZM154.177 318.295H152.837V319.668H154.177C154.835 319.668 155.193 319.435 155.193 318.978C155.193 318.52 154.835 318.295 154.177 318.295ZM154.41 322.09C155.109 322.09 155.484 321.874 155.484 321.374C155.484 320.883 155.109 320.65 154.41 320.65H152.837V322.09H154.41ZM162.155 320.883C162.155 320.983 162.138 321.125 162.13 321.233H158.743C158.868 321.791 159.342 322.132 160.025 322.132C160.499 322.132 160.84 321.99 161.148 321.699L161.839 322.448C161.423 322.922 160.799 323.172 159.991 323.172C158.443 323.172 157.437 322.198 157.437 320.867C157.437 319.527 158.46 318.562 159.825 318.562C161.14 318.562 162.155 319.444 162.155 320.883ZM159.833 319.544C159.242 319.544 158.818 319.901 158.726 320.476H160.932C160.84 319.91 160.416 319.544 159.833 319.544ZM164.526 323.172C163.768 323.172 163.003 322.964 162.587 322.689L163.019 321.757C163.419 322.015 164.026 322.19 164.576 322.19C165.175 322.19 165.4 322.032 165.4 321.782C165.4 321.05 162.695 321.799 162.695 320.01C162.695 319.161 163.46 318.562 164.767 318.562C165.383 318.562 166.065 318.703 166.49 318.953L166.057 319.877C165.616 319.627 165.175 319.544 164.767 319.544C164.185 319.544 163.935 319.727 163.935 319.96C163.935 320.725 166.639 319.985 166.639 321.749C166.639 322.581 165.866 323.172 164.526 323.172ZM169.979 321.974L170.328 322.889C170.062 323.081 169.671 323.172 169.271 323.172C168.214 323.172 167.599 322.631 167.599 321.566V319.727H166.908V318.728H167.599V317.638H168.897V318.728H170.012V319.727H168.897V321.549C168.897 321.932 169.105 322.14 169.454 322.14C169.646 322.14 169.837 322.082 169.979 321.974ZM176.027 317.28C177.583 317.28 178.557 318.087 178.557 319.394C178.557 320.692 177.583 321.499 176.027 321.499H174.854V323.105H173.505V317.28H176.027ZM175.952 320.401C176.776 320.401 177.192 320.026 177.192 319.394C177.192 318.753 176.776 318.379 175.952 318.379H174.854V320.401H175.952ZM181.193 318.562C182.558 318.562 183.348 319.194 183.348 320.551V323.105H182.133V322.548C181.892 322.956 181.426 323.172 180.769 323.172C179.72 323.172 179.096 322.59 179.096 321.816C179.096 321.025 179.653 320.476 181.018 320.476H182.05C182.05 319.918 181.717 319.594 181.018 319.594C180.544 319.594 180.053 319.752 179.728 320.01L179.262 319.103C179.753 318.753 180.477 318.562 181.193 318.562ZM181.093 322.298C181.526 322.298 181.9 322.099 182.05 321.691V321.233H181.16C180.552 321.233 180.361 321.458 180.361 321.757C180.361 322.082 180.635 322.298 181.093 322.298ZM187.17 318.562C188.426 318.562 189.4 319.46 189.4 320.867C189.4 322.273 188.426 323.172 187.17 323.172C186.612 323.172 186.154 322.997 185.822 322.631V324.72H184.523V318.628H185.763V319.144C186.088 318.753 186.571 318.562 187.17 318.562ZM186.945 322.107C187.594 322.107 188.085 321.641 188.085 320.867C188.085 320.093 187.594 319.627 186.945 319.627C186.296 319.627 185.805 320.093 185.805 320.867C185.805 321.641 186.296 322.107 186.945 322.107ZM194.655 320.883C194.655 320.983 194.638 321.125 194.63 321.233H191.243C191.368 321.791 191.842 322.132 192.524 322.132C192.999 322.132 193.34 321.99 193.648 321.699L194.339 322.448C193.922 322.922 193.298 323.172 192.491 323.172C190.943 323.172 189.936 322.198 189.936 320.867C189.936 319.527 190.96 318.562 192.325 318.562C193.64 318.562 194.655 319.444 194.655 320.883ZM192.333 319.544C191.742 319.544 191.318 319.901 191.226 320.476H193.431C193.34 319.91 192.916 319.544 192.333 319.544ZM196.759 319.219C197.075 318.786 197.608 318.562 198.299 318.562V319.76C198.191 319.752 198.107 319.743 198.007 319.743C197.292 319.743 196.817 320.135 196.817 320.992V323.105H195.519V318.628H196.759V319.219ZM139.425 331.105V326.379H137.561V325.28H142.637V326.379H140.773V331.105H139.425ZM144.413 327.219C144.73 326.786 145.262 326.562 145.953 326.562V327.76C145.845 327.752 145.762 327.743 145.662 327.743C144.946 327.743 144.472 328.135 144.472 328.992V331.105H143.173V326.628H144.413V327.219ZM148.506 326.562C149.871 326.562 150.662 327.194 150.662 328.551V331.105H149.447V330.548C149.205 330.956 148.739 331.172 148.082 331.172C147.033 331.172 146.409 330.59 146.409 329.816C146.409 329.025 146.967 328.476 148.332 328.476H149.364C149.364 327.918 149.031 327.594 148.332 327.594C147.857 327.594 147.366 327.752 147.042 328.01L146.576 327.103C147.067 326.753 147.791 326.562 148.506 326.562ZM148.406 330.298C148.839 330.298 149.214 330.099 149.364 329.691V329.233H148.473C147.866 329.233 147.674 329.458 147.674 329.757C147.674 330.082 147.949 330.298 148.406 330.298ZM155.148 324.931H156.446V331.105H155.206V330.59C154.881 330.981 154.407 331.172 153.808 331.172C152.543 331.172 151.569 330.273 151.569 328.867C151.569 327.46 152.543 326.562 153.808 326.562C154.357 326.562 154.823 326.736 155.148 327.103V324.931ZM154.033 330.107C154.673 330.107 155.173 329.641 155.173 328.867C155.173 328.093 154.673 327.627 154.033 327.627C153.383 327.627 152.884 328.093 152.884 328.867C152.884 329.641 153.383 330.107 154.033 330.107ZM158.297 326.004C157.814 326.004 157.489 325.688 157.489 325.28C157.489 324.872 157.814 324.556 158.297 324.556C158.779 324.556 159.104 324.856 159.104 325.255C159.104 325.688 158.779 326.004 158.297 326.004ZM157.648 331.105V326.628H158.946V331.105H157.648ZM162.872 326.562C163.929 326.562 164.728 327.177 164.728 328.542V331.105H163.429V328.742C163.429 328.018 163.097 327.685 162.522 327.685C161.898 327.685 161.449 328.068 161.449 328.892V331.105H160.151V326.628H161.391V327.153C161.74 326.77 162.264 326.562 162.872 326.562ZM169.34 326.628H170.572V330.356C170.572 332.021 169.673 332.787 168.059 332.787C167.21 332.787 166.386 332.578 165.862 332.171L166.378 331.239C166.76 331.547 167.385 331.746 167.959 331.746C168.874 331.746 169.274 331.33 169.274 330.523V330.332C168.933 330.706 168.442 330.889 167.859 330.889C166.619 330.889 165.62 330.032 165.62 328.725C165.62 327.419 166.619 326.562 167.859 326.562C168.483 326.562 168.999 326.77 169.34 327.202V326.628ZM168.117 329.824C168.799 329.824 169.29 329.383 169.29 328.725C169.29 328.068 168.799 327.627 168.117 327.627C167.435 327.627 166.935 328.068 166.935 328.725C166.935 329.383 167.435 329.824 168.117 329.824ZM176.75 325.28C178.306 325.28 179.28 326.087 179.28 327.394C179.28 328.692 178.306 329.499 176.75 329.499H175.577V331.105H174.229V325.28H176.75ZM176.675 328.401C177.499 328.401 177.915 328.026 177.915 327.394C177.915 326.753 177.499 326.379 176.675 326.379H175.577V328.401H176.675ZM180.232 331.105V324.931H181.531V331.105H180.232ZM184.541 326.562C185.906 326.562 186.697 327.194 186.697 328.551V331.105H185.482V330.548C185.24 330.956 184.774 331.172 184.117 331.172C183.068 331.172 182.444 330.59 182.444 329.816C182.444 329.025 183.002 328.476 184.367 328.476H185.398C185.398 327.918 185.066 327.594 184.367 327.594C183.892 327.594 183.401 327.752 183.077 328.01L182.611 327.103C183.102 326.753 183.826 326.562 184.541 326.562ZM184.441 330.298C184.874 330.298 185.249 330.099 185.398 329.691V329.233H184.508C183.901 329.233 183.709 329.458 183.709 329.757C183.709 330.082 183.984 330.298 184.441 330.298ZM190.41 329.974L190.759 330.889C190.493 331.081 190.102 331.172 189.703 331.172C188.646 331.172 188.03 330.631 188.03 329.566V327.727H187.339V326.728H188.03V325.638H189.328V326.728H190.443V327.727H189.328V329.549C189.328 329.932 189.536 330.14 189.886 330.14C190.077 330.14 190.268 330.082 190.41 329.974ZM192.911 326.537V326.728H194.06V327.727H192.945V331.105H191.646V327.727H190.956V326.728H191.646V326.528C191.646 325.521 192.262 324.864 193.377 324.864C193.743 324.864 194.126 324.939 194.368 325.105L194.026 326.046C193.885 325.946 193.702 325.888 193.502 325.888C193.119 325.888 192.911 326.096 192.911 326.537ZM196.78 331.172C195.357 331.172 194.317 330.215 194.317 328.867C194.317 327.519 195.357 326.562 196.78 326.562C198.203 326.562 199.235 327.519 199.235 328.867C199.235 330.215 198.203 331.172 196.78 331.172ZM196.78 330.107C197.429 330.107 197.92 329.641 197.92 328.867C197.92 328.093 197.429 327.627 196.78 327.627C196.131 327.627 195.632 328.093 195.632 328.867C195.632 329.641 196.131 330.107 196.78 330.107ZM201.343 327.219C201.659 326.786 202.192 326.562 202.882 326.562V327.76C202.774 327.752 202.691 327.743 202.591 327.743C201.875 327.743 201.401 328.135 201.401 328.992V331.105H200.103V326.628H201.343V327.219ZM209.388 326.562C210.453 326.562 211.219 327.177 211.219 328.542V331.105H209.921V328.742C209.921 328.018 209.596 327.685 209.072 327.685C208.489 327.685 208.082 328.06 208.082 328.859V331.105H206.783V328.742C206.783 328.018 206.475 327.685 205.934 327.685C205.36 327.685 204.952 328.06 204.952 328.859V331.105H203.654V326.628H204.894V327.144C205.227 326.761 205.726 326.562 206.301 326.562C206.925 326.562 207.457 326.803 207.774 327.294C208.131 326.836 208.714 326.562 209.388 326.562Z"></path>
</g>
</g>
<defs>
<linearGradient gradientUnits="userSpaceOnUse" y2="550" x2="174.5" y1="-10.5" x1="174.5" id="paint0_linear_6129_5151">
<stop stop-opacity="0" stop-color="#13162E"></stop>
<stop stop-opacity="0" stop-color="#13162E" offset="0.5"></stop>
<stop stop-color="#26E986" offset="1"></stop>
</linearGradient>
<linearGradient gradientUnits="userSpaceOnUse" y2="380.859" x2="257.39" y1="153.04" x1="66.9304" id="paint1_linear_6129_5151">
<stop stop-color="#394039"></stop>
<stop stop-color="#1C231C" offset="1"></stop>
</linearGradient>
<linearGradient gradientUnits="userSpaceOnUse" y2="393.126" x2="280.392" y1="153.04" x1="66.9304" id="paint2_linear_6129_5151">
<stop stop-color="#687168"></stop>
<stop stop-color="#3F4D3F" offset="1"></stop>
</linearGradient>
<clipPath id="clip0_6129_5151">
<rect fill="white" height="544" width="350"></rect>
</clipPath>
<clipPath id="clip1_6129_5151">
<rect transform="translate(44 153)" fill="white" height="238.342" width="261.644"></rect>
</clipPath>
</defs>
</svg>
