<svg xmlns="http://www.w3.org/2000/svg" fill="none" viewBox="0 0 617 48" height="48" width="617">
<mask height="32" width="139" y="8" x="0" maskUnits="userSpaceOnUse" style="mask-type:luminance" id="mask0_4904_1379">
<path fill="white" d="M138.375 8.375H0.875V39.625H138.375V8.375Z"></path>
</mask>
<g mask="url(#mask0_4904_1379)">
<path fill="#224944" d="M77.4795 8.80859H85.9285L81.6727 39.1836H73.2237L77.4795 8.80859ZM66.7774 8.80859L61.0821 26.3086L58.5787 8.80859H52.6331L45.1228 26.2461L44.2466 8.87109H35.9854L38.8643 39.2461H45.6861L54.0725 19.9961L57.014 39.1836H63.7107L74.7883 8.80859H66.7774ZM137.937 26.4961H117.847C117.972 30.4336 120.288 33.0586 123.793 33.0586C126.421 33.0586 128.487 31.6836 130.114 28.9961L136.936 32.0586C134.495 36.6211 129.613 39.6211 123.542 39.6211C115.281 39.6211 109.773 34.0586 109.773 25.1211C109.773 15.3086 116.22 8.37109 125.357 8.37109C133.368 8.37109 138.375 13.7461 138.375 22.1836C138.375 23.5586 138.25 24.9961 137.937 26.4961ZM130.364 20.6836C130.364 17.1836 128.361 14.9336 125.232 14.9336C121.978 14.9336 119.224 17.2461 118.535 20.6836H130.364ZM9.51178 17.9961L0.875 28.0586H16.3336L18.086 23.3086H11.4519L15.52 18.6211V18.4961L12.8914 13.9961H24.72L15.52 39.1836H21.7785L32.8561 8.80859H4.25461L9.51178 17.9961ZM99.6973 14.9336C102.701 14.9336 105.33 16.5586 107.583 19.3086L108.772 10.7461C106.644 9.30859 103.765 8.43359 99.9476 8.43359C92.3748 8.43359 88.119 12.8711 88.119 18.4961C88.119 22.3711 90.3095 24.8086 93.8768 26.3086L95.5666 27.0586C98.7585 28.4336 99.6347 29.1211 99.6347 30.5586C99.6347 32.0586 98.1952 32.9961 96.0047 32.9961C92.3748 32.9961 89.4333 31.1836 87.2428 27.9961L85.9911 36.7461C88.4945 38.6836 91.7489 39.6836 96.0047 39.6836C103.202 39.6836 107.646 35.5586 107.646 29.7461C107.646 25.8086 105.893 23.3086 101.512 21.3086L99.6347 20.4336C97.0061 19.3086 96.1299 18.6211 96.1299 17.3711C96.1925 15.9961 97.3816 14.9336 99.6973 14.9336Z"></path>
</g>
<mask height="36" width="155" y="6" x="210" maskUnits="userSpaceOnUse" style="mask-type:luminance" id="mask1_4904_1379">
<path fill="white" d="M364.125 6.5H210.375V41.5H364.125V6.5Z"></path>
</mask>
<g mask="url(#mask1_4904_1379)">
<path fill="#224944" d="M315.262 6.5H321.324V41.2308H315.262V6.5ZM364.125 21.1462V15.7615H357.906V8.76154H351.844V34.3385C351.844 36.7077 352.419 38.4846 353.568 39.6692C354.718 40.8538 356.443 41.4462 358.794 41.4462H364.125V36.0615H360.205C359.369 36.0615 358.742 35.8462 358.376 35.4692C358.063 35.1462 357.854 34.2308 357.854 33.2615V21.1462H364.125ZM274.237 34.4462L280.456 15.7077H286.78L277.791 41.1769H270.631L261.642 15.7615H267.966L274.237 34.4462ZM342.019 28.4692C342.019 30.0846 341.758 31.4846 341.339 32.6154C340.869 33.7462 340.19 34.6615 339.354 35.2538C338.517 35.8462 337.472 36.1154 336.27 36.1154C334.546 36.1154 333.239 35.5231 332.403 34.3923C331.567 33.2077 331.096 31.4846 331.096 29.1692V15.7077H325.034V29.8154C325.034 32.0231 325.296 33.9077 325.818 35.3615C326.341 36.8692 327.072 38.0538 327.961 38.9692C328.849 39.8846 329.894 40.5308 331.096 40.9077C332.246 41.2846 333.5 41.5 334.807 41.5C336.688 41.5 338.256 41.1231 339.458 40.4769C340.556 39.8308 341.444 39.0769 342.176 38.2692L342.698 41.2308H347.977V15.7615H341.914V28.4692H342.019ZM306.011 17.0538C304.13 15.9769 301.831 15.4385 299.322 15.4385C296.814 15.4385 294.566 15.9769 292.633 17.0538C290.699 18.1308 289.184 19.6923 288.138 21.6308C287.093 23.5692 286.571 25.8846 286.571 28.4692C286.571 31.0538 287.093 33.3154 288.138 35.2538C289.184 37.1923 290.699 38.7538 292.633 39.8308C294.566 40.9077 296.814 41.4462 299.322 41.4462C301.883 41.4462 304.13 40.9077 306.011 39.8308C307.893 38.7538 309.408 37.1923 310.454 35.2538C311.499 33.3154 312.021 31 312.021 28.4692C312.021 25.8846 311.499 23.5692 310.454 21.6308C309.461 19.6923 307.945 18.1846 306.011 17.0538ZM302.824 35.2538C301.831 35.9 300.681 36.2231 299.322 36.2231C297.963 36.2231 296.814 35.9 295.821 35.2538C294.828 34.6077 294.044 33.6923 293.521 32.5077C292.999 31.3231 292.685 29.9769 292.685 28.4692C292.685 26.9077 292.946 25.5615 293.521 24.4308C294.044 23.3 294.828 22.3308 295.821 21.6846C296.814 21.0385 297.963 20.6615 299.322 20.6615C300.681 20.6615 301.883 20.9846 302.824 21.6846C303.817 22.3308 304.548 23.3 305.123 24.4308C305.646 25.5615 305.959 26.9615 305.959 28.4692C305.959 29.9769 305.698 31.3231 305.123 32.5077C304.6 33.6923 303.817 34.6077 302.824 35.2538ZM216.646 15.0615H210.375V41.1769H216.646V15.0615ZM236.348 16.5692C236.348 11.0231 231.959 6.5 226.576 6.5H210.375V12.1H225.792C228.248 12.1 230.234 14.0923 230.286 16.5154C230.286 17.7538 229.868 18.8846 229.032 19.7462C228.196 20.5538 227.098 21.0385 225.949 21.0385H219.939C219.73 21.0385 219.573 21.2 219.573 21.4154V26.4231C219.573 26.5308 219.573 26.5846 219.625 26.6385L229.816 41.1769H237.289L227.046 26.5846C232.168 26.3692 236.348 21.9 236.348 16.5692ZM255.632 16.9462C253.803 15.9769 251.661 15.4385 249.257 15.4385C246.853 15.4385 244.658 15.9769 242.829 17.0538C240.947 18.1308 239.536 19.6923 238.491 21.6308C237.446 23.5692 236.976 25.8846 236.976 28.5231C236.976 31.1077 237.498 33.3692 238.543 35.3077C239.589 37.2462 241.104 38.8077 242.986 39.8308C244.919 40.9077 247.219 41.4462 249.832 41.4462C251.922 41.4462 253.751 41.0692 255.371 40.2615C256.991 39.4538 258.298 38.3769 259.238 37.0308C260.179 35.7385 260.806 34.3385 261.12 32.7769L261.172 32.6154H255.058L255.005 32.7231C254.692 33.9077 254.012 34.8231 253.124 35.4692C252.131 36.1692 250.877 36.5462 249.466 36.5462C248.264 36.5462 247.166 36.2769 246.226 35.7385C245.285 35.2 244.553 34.4462 244.031 33.5308C243.508 32.5615 243.247 31.4308 243.142 30.1385V29.9231H261.277V29.8154C261.329 29.4385 261.381 29.0615 261.381 28.7385C261.381 28.3615 261.381 28.0385 261.381 27.6615C261.329 25.1846 260.806 23.0308 259.813 21.2C258.873 19.3154 257.409 17.9154 255.632 16.9462ZM253.438 21.7385C254.483 22.6538 255.11 23.8923 255.371 25.5077H243.403C243.56 24.4846 243.874 23.5692 244.396 22.8154C244.971 22.0077 245.651 21.4154 246.539 20.9846C247.375 20.5538 248.316 20.3385 249.309 20.3385C250.981 20.3385 252.34 20.8231 253.438 21.7385Z" clip-rule="evenodd" fill-rule="evenodd"></path>
</g>
<path fill="#224944" d="M522.674 30.7174H524.666V43.5285H522.532V34.1647L518.673 39.1806H518.602L514.76 34.1647V43.5285H512.626V30.7174H514.618L518.637 36.0255L522.674 30.7174Z"></path>
<path fill="#224944" d="M526.67 38.8583C526.675 37.8962 526.962 36.9572 527.497 36.1598C528.033 35.3623 528.79 34.7423 529.675 34.3778C530.56 34.0135 531.532 33.9213 532.469 34.1127C533.407 34.3041 534.266 34.7707 534.94 35.4535C535.613 36.1362 536.071 37.0045 536.255 37.9488C536.438 38.893 536.339 39.8707 535.971 40.7584C535.602 41.646 534.98 42.4039 534.184 42.9362C533.387 43.4685 532.451 43.7513 531.495 43.749C530.856 43.7605 530.219 43.6415 529.627 43.3993C529.034 43.1571 528.496 42.7967 528.045 42.3398C527.594 41.8829 527.24 41.3389 527.004 40.7406C526.767 40.1422 526.654 39.5019 526.67 38.8583ZM531.495 41.8404C533.054 41.8404 534.205 40.6475 534.205 38.8583C534.205 37.069 533.054 35.8404 531.495 35.8404C529.937 35.8404 528.804 37.0333 528.804 38.8583C528.804 40.6834 529.954 41.8523 531.495 41.8523V41.8404Z"></path>
<path fill="#224944" d="M542.919 33.9261C545.178 33.9261 546.38 35.441 546.38 37.6239V43.5285H544.246V37.9162C544.246 36.6339 543.654 35.7869 542.397 35.7869C541.141 35.7869 540.209 36.6339 540.209 38.101V43.5285H538.088V34.1647H540.061V35.4112C540.357 34.9249 540.781 34.5294 541.284 34.2677C541.788 34.0059 542.353 33.8878 542.919 33.9261Z"></path>
<path fill="#224944" d="M552.689 43.749C549.873 43.749 548.041 41.6377 548.041 38.8405C548.041 36.0432 549.909 33.9498 552.671 33.9498C555.433 33.9498 557.242 36.0611 557.242 38.8046C557.242 39.1446 557.242 39.4726 557.242 39.4726H550.14C550.15 39.8051 550.225 40.1321 550.362 40.435C550.498 40.7378 550.693 41.0103 550.935 41.2367C551.177 41.4631 551.462 41.6388 551.772 41.7538C552.082 41.8687 552.412 41.9204 552.742 41.9061C553.217 41.9242 553.686 41.7985 554.088 41.5455C554.491 41.2923 554.809 40.9235 555 40.4866L556.922 40.9935C556.585 41.836 555.997 42.553 555.239 43.0464C554.481 43.5397 553.591 43.7851 552.689 43.749ZM550.175 37.8802H555.125C555.07 37.2718 554.784 36.7081 554.327 36.3052C553.87 35.9024 553.278 35.6913 552.671 35.7152C552.061 35.6947 551.465 35.906 551.002 36.3072C550.54 36.7083 550.245 37.2699 550.175 37.8802Z"></path>
<path fill="#224944" d="M559.742 34.1645L562.273 40.9518L564.834 34.1645H567.063L562.914 44.3573C561.959 46.743 560.85 47.4826 559.143 47.4826C558.945 47.4827 558.747 47.4708 558.55 47.4468V45.5323C558.55 45.5323 558.805 45.5323 559.089 45.5323C559.807 45.5323 560.453 45.2997 560.992 43.9458L561.206 43.4687L557.465 34.1645H559.742Z"></path>
<path fill="#224944" d="M524.851 4.0275V0.860501H512.633V17.9658H524.851V14.7989H516.071V10.9997H524.092V7.83863H516.071V4.0275H524.851Z"></path>
<path fill="#224944" d="M588.114 0.86602V17.9654H599.128V14.8044H591.552V0.86602H588.114Z"></path>
<path fill="#224944" d="M604.321 16.4925C604.881 17.096 605.579 17.5525 606.355 17.8225C607.323 18.1682 608.345 18.3359 609.372 18.3175C611.12 18.3992 612.845 17.8867 614.269 16.8623C614.855 16.4317 615.33 15.8656 615.652 15.2115C615.975 14.5575 616.137 13.8349 616.124 13.1048C616.14 12.2819 615.97 11.4661 615.626 10.7191C615.336 10.1034 614.887 9.57658 614.328 9.19227C613.782 8.82895 613.182 8.55703 612.55 8.38712C612.176 8.28574 608.714 7.43882 608.4 7.35531C607.9 7.23514 607.431 7.00948 607.025 6.69329C606.856 6.55691 606.72 6.3832 606.629 6.18565C606.537 5.9881 606.492 5.77202 606.497 5.55412C606.497 5.27629 606.568 5.00301 606.701 4.75995C606.835 4.51687 607.028 4.31197 607.262 4.16446C607.862 3.77931 608.566 3.5898 609.277 3.62172C610.072 3.57981 610.852 3.83951 611.465 4.34936C611.723 4.58697 611.93 4.87509 612.074 5.19607C612.218 5.51705 612.295 5.86415 612.301 6.21615H615.668C615.652 5.45998 615.486 4.7146 615.181 4.02344C614.875 3.33228 614.437 2.70913 613.89 2.19031C612.637 1.04509 610.985 0.446593 609.295 0.526292C607.642 0.440086 606.018 0.980662 604.743 2.0412C604.209 2.50477 603.784 3.08049 603.496 3.72769C603.208 4.37489 603.065 5.07779 603.077 5.78673C603.056 6.58901 603.226 7.38459 603.574 8.10681C603.871 8.70737 604.319 9.21935 604.872 9.5919C605.422 9.94445 606.022 10.21 606.652 10.3791L610.76 11.3991C611.248 11.5203 611.705 11.7506 612.093 12.073C612.259 12.2112 612.392 12.3855 612.482 12.5829C612.571 12.7802 612.614 12.9954 612.609 13.2122C612.618 13.5118 612.547 13.8084 612.405 14.0715C612.262 14.3346 612.052 14.5547 611.797 14.7092C611.109 15.0985 610.326 15.2826 609.538 15.24C608.653 15.2967 607.777 15.0251 607.078 14.4766C606.807 14.241 606.587 13.9535 606.427 13.6309C606.269 13.3084 606.176 12.9571 606.153 12.5979H602.769C602.799 13.3013 602.939 13.9957 603.183 14.6555C603.439 15.3267 603.815 15.9452 604.292 16.4806"></path>
<path fill="#224944" d="M564.764 0.878168H561.331V11.0471C561.386 12.1223 561.054 13.1812 560.394 14.0292C559.621 14.7388 558.611 15.1321 557.564 15.1321C556.517 15.1321 555.508 14.7388 554.733 14.0292C554.074 13.1812 553.741 12.1223 553.797 11.0471V0.878168H550.364V10.9518C550.364 13.3374 551.052 15.1803 552.416 16.4448C553.854 17.669 555.677 18.3407 557.561 18.3407C559.445 18.3407 561.268 17.669 562.707 16.4448C564.076 15.1803 564.764 13.3315 564.764 10.9518V0.878168Z"></path>
<path fill="#224944" d="M543.595 16.0331C544.484 15.1967 545.185 14.1786 545.652 13.047C546.118 11.9155 546.338 10.6967 546.297 9.47248C546.297 7.11714 545.368 4.8583 543.712 3.19284C542.057 1.52738 539.812 0.591733 537.471 0.591733C535.13 0.591733 532.885 1.52738 531.229 3.19284C529.574 4.8583 528.644 7.11714 528.644 9.47248C528.609 10.6502 528.812 11.8228 529.24 12.9196C529.667 14.0164 530.312 15.0147 531.133 15.8541C531.97 16.6803 532.966 17.3248 534.061 17.7475C535.155 18.1701 536.324 18.3621 537.495 18.3114C538.653 18.319 539.804 18.1169 540.891 17.715H540.921L543.215 20.9356H547.11L543.553 15.9913L543.595 16.0331ZM541.224 13.534C540.215 14.5101 538.87 15.0553 537.471 15.0553C536.071 15.0553 534.726 14.5101 533.718 13.534C532.724 12.4194 532.202 10.9571 532.266 9.46053C532.202 7.96389 532.724 6.50169 533.718 5.38696C534.717 4.39263 536.066 3.83492 537.471 3.83492C538.876 3.83492 540.224 4.39263 541.224 5.38696C542.221 6.50002 542.742 7.9634 542.676 9.46053C542.742 10.9576 542.221 12.421 541.224 13.534Z"></path>
<path fill="#224944" d="M588.114 0.86602V17.9654H599.128V14.8044H591.552V0.86602H588.114Z"></path>
<path fill="#224944" d="M604.321 16.4925C604.881 17.096 605.579 17.5525 606.355 17.8225C607.323 18.1682 608.345 18.3359 609.372 18.3175C611.12 18.3992 612.845 17.8867 614.269 16.8623C614.855 16.4317 615.33 15.8656 615.652 15.2115C615.975 14.5575 616.137 13.8349 616.124 13.1048C616.14 12.2819 615.97 11.4661 615.626 10.7191C615.336 10.1034 614.887 9.57658 614.328 9.19227C613.782 8.82895 613.182 8.55703 612.55 8.38712C612.176 8.28574 608.714 7.43882 608.4 7.35531C607.9 7.23514 607.431 7.00948 607.025 6.69329C606.856 6.55691 606.72 6.3832 606.629 6.18565C606.537 5.9881 606.492 5.77202 606.497 5.55412C606.497 5.27629 606.568 5.00301 606.701 4.75995C606.835 4.51687 607.028 4.31197 607.262 4.16446C607.862 3.77931 608.566 3.5898 609.277 3.62172C610.072 3.57981 610.852 3.83951 611.465 4.34936C611.723 4.58697 611.93 4.87509 612.074 5.19607C612.218 5.51705 612.295 5.86415 612.301 6.21615H615.668C615.652 5.45998 615.486 4.7146 615.181 4.02344C614.875 3.33228 614.437 2.70913 613.89 2.19031C612.637 1.04509 610.985 0.446593 609.295 0.526292C607.642 0.440086 606.018 0.980662 604.743 2.0412C604.209 2.50477 603.784 3.08049 603.496 3.72769C603.208 4.37489 603.065 5.07779 603.077 5.78673C603.056 6.58901 603.226 7.38459 603.574 8.10681C603.871 8.70737 604.319 9.21935 604.872 9.5919C605.422 9.94445 606.022 10.21 606.652 10.3791L610.76 11.3991C611.248 11.5203 611.705 11.7506 612.093 12.073C612.259 12.2112 612.392 12.3855 612.482 12.5829C612.571 12.7802 612.614 12.9954 612.609 13.2122C612.618 13.5118 612.547 13.8084 612.405 14.0715C612.262 14.3346 612.052 14.5547 611.797 14.7092C611.109 15.0985 610.326 15.2826 609.538 15.24C608.653 15.2967 607.777 15.0251 607.078 14.4766C606.807 14.241 606.587 13.9535 606.427 13.6309C606.269 13.3084 606.176 12.9571 606.153 12.5979H602.769C602.799 13.3013 602.939 13.9957 603.183 14.6555C603.439 15.3267 603.815 15.9452 604.292 16.4806"></path>
<path fill="#224944" d="M564.764 0.878168H561.331V11.0471C561.386 12.1223 561.054 13.1812 560.394 14.0292C559.621 14.7388 558.611 15.1321 557.564 15.1321C556.517 15.1321 555.508 14.7388 554.733 14.0292C554.074 13.1812 553.741 12.1223 553.797 11.0471V0.878168H550.364V10.9518C550.364 13.3374 551.052 15.1803 552.416 16.4448C553.854 17.669 555.677 18.3407 557.561 18.3407C559.445 18.3407 561.268 17.669 562.707 16.4448C564.076 15.1803 564.764 13.3315 564.764 10.9518V0.878168Z"></path>
<path fill="#224944" d="M543.595 16.0331C544.484 15.1967 545.185 14.1786 545.652 13.047C546.118 11.9155 546.338 10.6967 546.297 9.47248C546.297 7.11714 545.368 4.8583 543.712 3.19284C542.057 1.52738 539.812 0.591733 537.471 0.591733C535.13 0.591733 532.885 1.52738 531.229 3.19284C529.574 4.8583 528.644 7.11714 528.644 9.47248C528.609 10.6502 528.812 11.8228 529.24 12.9196C529.667 14.0164 530.312 15.0147 531.133 15.8541C531.97 16.6803 532.966 17.3248 534.061 17.7475C535.155 18.1701 536.324 18.3621 537.495 18.3114C538.653 18.319 539.804 18.1169 540.891 17.715H540.921L543.215 20.9356H547.11L543.553 15.9913L543.595 16.0331ZM541.224 13.534C540.215 14.5101 538.87 15.0553 537.471 15.0553C536.071 15.0553 534.726 14.5101 533.718 13.534C532.724 12.4194 532.202 10.9571 532.266 9.46053C532.202 7.96389 532.724 6.50169 533.718 5.38696C534.717 4.39263 536.066 3.83492 537.471 3.83492C538.876 3.83492 540.224 4.39263 541.224 5.38696C542.221 6.50002 542.742 7.9634 542.676 9.46053C542.742 10.9576 542.221 12.421 541.224 13.534Z"></path>
<path fill="#224944" d="M577.911 0.860501H573.887L567.763 17.9658H571.32L572.363 15.0136H579.423L580.467 17.9658H584.024L577.911 0.860501ZM573.46 11.9241L575.902 5.01756L578.339 11.9241H573.46Z"></path>
<path fill="#224944" d="M495.631 0.860501H436.125V17.9658H495.631V0.860501Z"></path>
<path fill="#224944" d="M495.631 26.423H436.125V43.5284H495.631V26.423Z"></path>
</svg>
