<svg xmlns="http://www.w3.org/2000/svg" fill="none" viewBox="0 0 21 21" height="21" width="21">
<g clip-path="url(#clip0_1670_379)">
<path fill="#224944" d="M10.9456 2.05474C13.6175 2.05474 13.9339 2.06646 14.9848 2.11333C15.9613 2.1563 16.4887 2.32037 16.8403 2.45709C17.3051 2.63678 17.6411 2.85554 17.9887 3.20321C18.3403 3.55478 18.5552 3.88682 18.7349 4.35167C18.8716 4.70325 19.0356 5.23451 19.0786 6.20719C19.1255 7.26191 19.1372 7.57832 19.1372 10.2464C19.1372 12.9183 19.1255 13.2347 19.0786 14.2855C19.0356 15.2621 18.8716 15.7895 18.7349 16.1411C18.5552 16.6059 18.3364 16.9419 17.9887 17.2895C17.6372 17.6411 17.3051 17.8559 16.8403 18.0356C16.4887 18.1724 15.9574 18.3364 14.9848 18.3794C13.93 18.4263 13.6136 18.438 10.9456 18.438C8.27364 18.438 7.95722 18.4263 6.90641 18.3794C5.92982 18.3364 5.40247 18.1724 5.05089 18.0356C4.58604 17.8559 4.25009 17.6372 3.90242 17.2895C3.55085 16.938 3.336 16.6059 3.15631 16.1411C3.01959 15.7895 2.85552 15.2582 2.81255 14.2855C2.76567 13.2308 2.75396 12.9144 2.75396 10.2464C2.75396 7.57442 2.76567 7.258 2.81255 6.20719C2.85552 5.2306 3.01959 4.70325 3.15631 4.35167C3.336 3.88682 3.55476 3.55087 3.90242 3.20321C4.254 2.85163 4.58604 2.63678 5.05089 2.45709C5.40247 2.32037 5.93373 2.1563 6.90641 2.11333C7.95722 2.06646 8.27364 2.05474 10.9456 2.05474ZM10.9456 0.253906C8.23067 0.253906 7.89081 0.265625 6.82438 0.312502C5.76185 0.359378 5.03136 0.531257 4.39853 0.777358C3.73836 1.03518 3.17975 1.37503 2.62505 1.93364C2.06644 2.48834 1.72658 3.04695 1.46876 3.70322C1.22266 4.33995 1.05078 5.06654 1.00391 6.12907C0.957032 7.19941 0.945312 7.53926 0.945312 10.2542C0.945312 12.9691 0.957032 13.3089 1.00391 14.3754C1.05078 15.4379 1.22266 16.1684 1.46876 16.8012C1.72658 17.4614 2.06644 18.02 2.62505 18.5747C3.17975 19.1294 3.73836 19.4732 4.39463 19.7271C5.03136 19.9732 5.75794 20.1451 6.82047 20.1919C7.88691 20.2388 8.22676 20.2505 10.9417 20.2505C13.6566 20.2505 13.9964 20.2388 15.0629 20.1919C16.1254 20.1451 16.8559 19.9732 17.4887 19.7271C18.145 19.4732 18.7036 19.1294 19.2583 18.5747C19.813 18.02 20.1568 17.4614 20.4107 16.8051C20.6568 16.1684 20.8287 15.4418 20.8755 14.3793C20.9224 13.3129 20.9341 12.973 20.9341 10.2581C20.9341 7.54317 20.9224 7.20331 20.8755 6.13688C20.8287 5.07435 20.6568 4.34386 20.4107 3.71103C20.1646 3.04695 19.8247 2.48834 19.2661 1.93364C18.7114 1.37894 18.1528 1.03518 17.4965 0.781264C16.8598 0.535164 16.1332 0.363284 15.0707 0.316408C14.0004 0.265625 13.6605 0.253906 10.9456 0.253906Z"></path>
<path fill="#224944" d="M10.9455 5.11719C8.10944 5.11719 5.80859 7.41803 5.80859 10.254C5.80859 13.0901 8.10944 15.3909 10.9455 15.3909C13.7815 15.3909 16.0823 13.0901 16.0823 10.254C16.0823 7.41803 13.7815 5.11719 10.9455 5.11719ZM10.9455 13.5862C9.10556 13.5862 7.61333 12.0939 7.61333 10.254C7.61333 8.41415 9.10556 6.92192 10.9455 6.92192C12.7853 6.92192 14.2776 8.41415 14.2776 10.254C14.2776 12.0939 12.7853 13.5862 10.9455 13.5862Z"></path>
<path fill="#224944" d="M17.4844 4.9141C17.4844 5.57818 16.9454 6.11335 16.2852 6.11335C15.6211 6.11335 15.0859 5.57427 15.0859 4.9141C15.0859 4.25002 15.625 3.71484 16.2852 3.71484C16.9454 3.71484 17.4844 4.25392 17.4844 4.9141Z"></path>
</g>
<defs>
<clipPath id="clip0_1670_379">
<rect transform="translate(0.945312 0.253906)" fill="white" height="20.0005" width="20.0005"></rect>
</clipPath>
</defs>
</svg>
