<svg xmlns="http://www.w3.org/2000/svg" fill="none" viewBox="0 0 21 21" height="21" width="21">
<g clip-path="url(#clip0_1670_385)">
<path fill="#224944" d="M20.6919 6.25399C20.6919 6.25399 20.4966 4.87504 19.895 4.26956C19.1333 3.47266 18.2817 3.46876 17.8911 3.42188C15.0941 3.21875 10.8948 3.21875 10.8948 3.21875H10.887C10.887 3.21875 6.68766 3.21875 3.89071 3.42188C3.50007 3.46876 2.64849 3.47266 1.88675 4.26956C1.28517 4.87504 1.09376 6.25399 1.09376 6.25399C1.09376 6.25399 0.890625 7.87513 0.890625 9.49236V11.008C0.890625 12.6253 1.08985 14.2464 1.08985 14.2464C1.08985 14.2464 1.28517 15.6253 1.88284 16.2308C2.64458 17.0277 3.64461 17.0004 4.08993 17.0863C5.69154 17.2387 10.8909 17.2855 10.8909 17.2855C10.8909 17.2855 15.0941 17.2777 17.8911 17.0785C18.2817 17.0316 19.1333 17.0277 19.895 16.2308C20.4966 15.6253 20.6919 14.2464 20.6919 14.2464C20.6919 14.2464 20.8912 12.6292 20.8912 11.008V9.49236C20.8912 7.87513 20.6919 6.25399 20.6919 6.25399ZM8.82443 12.8479V7.22667L14.2269 10.0471L8.82443 12.8479Z"></path>
</g>
<defs>
<clipPath id="clip0_1670_385">
<rect transform="translate(0.890625 0.253906)" fill="white" height="20.0005" width="20.0005"></rect>
</clipPath>
</defs>
</svg>
